<?xml version="1.0" encoding="utf-8"?>
<!-- Generator: Adobe Illustrator 22.0.1, SVG Export Plug-In . SVG Version: 6.00 Build 0)  -->
<svg version="1.1" id="Layer_1" xmlns="http://www.w3.org/2000/svg" xmlns:xlink="http://www.w3.org/1999/xlink" x="0px" y="0px"
	 viewBox="0 0 240 148.5" style="enable-background:new 0 0 240 148.5;" xml:space="preserve">
<style type="text/css">
	.st0{fill:#56A800;}
	.st1{fill:none;}
	.st2{font-family:'Roboto-Regular';}
	.st3{font-size:48px;}
</style>
<g>
	<g>
		<path class="st0" d="M46.6,74.4c24.3,0,48.6,0.1,72.9,0.1c12,0,24,0,35.9,0.1c11.5,0,23.3-0.5,34.7,1c-2.7-0.4-5.3-0.7-8-1.1
			c4,0.6,7.9,1.5,11.7,3c-2.4-1-4.8-2-7.2-3c4.5,2.4,2.2,0-7-7.4c-1-2.4-2-4.8-3-7.2c0.1,0.6,0.2,1.2,0.3,1.7c0-5.3,0-10.6,0-16
			c-0.8,5.6-3.2,11.2-4.9,16.5c-1.6,5-2.9,10.1-4.9,14.9c1-2.4,2-4.8,3-7.2c-0.4,0.8-0.8,1.6-1.3,2.3c9.1-7.4,11.3-9.8,6.5-7.3
			c2.4-1,4.8-2,7.2-3c-1,0.4-2.1,0.6-3.2,0.6c2.7-0.4,5.3-0.7,8-1.1c-17.4,0.8-35.1-0.1-52.6-0.3c-16.1-0.1-32.1-0.3-48.1-2.4
			c2.7,0.4,5.3,0.7,8,1.1c-11.6-1.6-23-4.3-33.9-8.8c2.4,1,4.8,2,7.2,3c-3.5-1.5-6.8-3.3-10.1-5.1c-1.9-1.3-1.7-1.1,0.6,0.6
			c2.2,1.8,2.4,1.9,0.7,0.4c-2.1-2.2-1.5-1.3,1.8,2.7c-0.6-0.8-1.1-1.7-1.5-2.5c1,2.4,2,4.8,3,7.2c-0.7-1.6-1.1-3.1-1.4-4.8
			c0.4,2.7,0.7,5.3,1.1,8c-0.3-2.4-0.2-4.7,0-7c-0.4,2.7-0.7,5.3-1.1,8c0.8-4.8,1.9-9.8,3.7-14.3c-1,2.4-2,4.8-3,7.2
			c1.5-2.6,0.7-1.8-2.3,2.5c-4.4,3-5.3,3.8-2.7,2.4c-2.4,1-4.8,2-7.2,3c1.4-0.5,2.6-0.8,4-1.1c-2.7,0.4-5.3,0.7-8,1.1
			c11.3-1.4,23.3,0,34.7,0.3c12.4,0.3,24.9,0.5,37.3,0.8c24.2,0.5,48.9-0.3,73,2.6c-2.7-0.4-5.3-0.7-8-1.1c6.1,0.8,12.2,2,18.1,3.8
			c15,4.5,33.4-5.4,36.9-21c3.7-16.2-4.9-32.1-21-36.9c-21.8-6.5-45.1-6.4-67.6-6.9C127.6,3.7,106,3.2,84.4,2.7
			C58.8,2.2,26.1-3.3,10.7,22.8C4.6,33.3,1.2,48.7,2.2,60.6c1.4,17.7,11.2,31.5,26.1,40.7c19.7,12.1,43.7,16.4,66.4,18.6
			c19.9,1.9,40,1.4,59.9,1.6c10.7,0.1,21.4,0.6,32.1,0.2c10.5-0.4,20.6-3.8,28.2-11.4c5.9-5.9,9-13.1,11.6-20.9
			c4-12.2,10.7-26.7,8.9-39.6c-2.6-19.6-18.8-30.2-37.2-33.1c-25.5-3.9-52-2.1-77.7-2.1c-24.6,0-49.3-0.1-73.9-0.1
			c-15.7,0-30.7,13.8-30,30C17.4,60.7,29.8,74.3,46.6,74.4L46.6,74.4z"/>
	</g>
</g>
<g>
	<g>
		<path class="st0" d="M4.4,80.7c2.5,16.7,8.1,34.5,21.2,46c10.9,9.5,23.7,13.8,38,14.4c9,0.4,18.1-0.5,27.1-0.6
			c18.9-0.3,37.8,0.2,56.6,1.5c9.4,0.6,18.8,1.5,28.2,2.5c12.5,1.4,25.1,1.2,36.4-5.3c11.2-6.4,19.7-18.1,22.4-30.7
			c2.6-12.3,1.7-23.4-0.4-35.7c-1.2-7-7.9-14.5-13.8-17.9c-6.4-3.8-15.9-5.4-23.1-3c-7.3,2.3-14.3,6.8-17.9,13.8
			c-4,7.5-4.4,14.7-3,23.1c0.2,1.3,0.4,2.6,0.6,3.9c-0.4-2.7-0.7-5.3-1.1-8c0.5,4.5,0.7,8.9,0.2,13.4c0.4-2.7,0.7-5.3,1.1-8
			c-0.4,2.5-1,4.9-1.9,7.3c1-2.4,2-4.8,3-7.2c-1.4,3-4.7,5.5,1.5-1.1c-2.1,2-1,1.2,3.3-2.3c-0.8,0.5-1.7,1-2.6,1.4
			c2.4-1,4.8-2,7.2-3c-1.6,0.6-3.1,1-4.8,1.2c2.7-0.4,5.3-0.7,8-1.1c-10.3,1-21.1-1.5-31.4-2.4c-11.3-1-22.7-1.7-34.1-2.1
			c-11.1-0.4-22.1-0.5-33.2-0.4c-10.7,0.1-21.8,1.5-32.4,0.3c2.7,0.4,5.3,0.7,8,1.1c-2.3-0.4-4.4-0.9-6.6-1.7c2.4,1,4.8,2,7.2,3
			c-0.9-0.4-1.9-0.8-2.7-1.3c-2.5-1.6-1.6-0.8,2.9,2.5c-0.8-0.9-1.8-2-2.7-2.7c4.5,3.4,3.7,5.3,1.7,1.9c-0.9-1.5-1.7-3.1-2.4-4.7
			c1,2.4,2,4.8,3,7.2c-2.8-6.8-4.2-14-5.3-21.2c-1-6.9-8-14.6-13.8-17.9c-6.4-3.8-15.9-5.4-23.1-3c-7.3,2.3-14.3,6.8-17.9,13.8
			C3.4,65.1,3.1,72.2,4.4,80.7L4.4,80.7z"/>
	</g>
</g>
<rect x="118.6" y="2.6" class="st1" width="0" height="8"/>
<rect x="22.6" y="18.6" class="st1" width="190" height="114"/>
<text transform="matrix(1 0 0 1 29.4552 54.5641)"><tspan x="0" y="0" class="st2 st3">smear &amp; </tspan><tspan x="30.6" y="57.6" class="st2 st3">serve</tspan></text>
<g>
	<g>
		<path d="M37.8,136.3c14.2,6.5,30.7,4.8,45.9,4.9c18.8,0.2,37.7,0.9,56.5,1.9c9.2,0.5,18.5,1.1,27.7,1.8c9,0.7,18.1,2.1,27.1,1.8
			c13.3-0.4,25.8-7.5,32.4-19.3c9.3-16.5,6.2-36.3,7.8-54.4c0.2-1.9-2.8-1.9-3,0c-1.3,15.6,0.9,32-4.7,47
			c-5.6,15.1-19.4,23.9-35.3,23.6c-16.6-0.3-33.4-2.6-50-3.6c-16.5-0.9-33-1.6-49.5-1.9c-9-0.2-18-0.2-27-0.3
			c-9-0.1-18-0.6-26.3-4.4C37.6,132.9,36,135.5,37.8,136.3L37.8,136.3z"/>
	</g>
</g>
<g>
	<g>
		<path d="M129.6,6c14.3,0.4,28.6,0.8,42.9,1.2c13.4,0.4,28.3-1.3,40.6,4.8c5.1,2.5,10.3,5.2,14.2,9.4c5,5.3,6.6,12.2,7.2,19.3
			c0.6,6.5,1.1,13.6-0.2,20c-1.2,5.7-3.4,10.7-2.4,16.6c0.3,1.9,3.2,1.1,2.9-0.8c-1.3-7.3,3-14.9,3.2-22.3
			c0.2-6.2-0.1-12.6-1.1-18.8c-2-12.6-10-19.8-20.9-25.3c-5.1-2.6-10-4.6-15.8-5c-7.6-0.6-15.3-0.5-22.9-0.7
			c-15.9-0.4-31.8-0.9-47.8-1.3C127.7,3,127.7,6,129.6,6L129.6,6z"/>
	</g>
</g>
<g>
	<g>
		<path d="M20.6,12.4c3.3-0.4,8.7,0.1,11.5-2c0.6-0.4,0.9-1.1,1.4-1.6c3-2.8,5.1-2.8,8.8-2.9c9.5-0.4,19-0.7,28.6-0.9
			c19.4-0.4,38.8-0.3,58.1,0.2c1.9,0,1.9-3,0-3C109.6,1.7,90.2,1.6,70.9,2c-9.5,0.2-19.1,0.5-28.6,0.9c-2.6,0.1-5.5,0-8,1.2
			c-1.2,0.6-1.6,1.3-2.6,2.1c-3.5,2.8-7.1,2.8-11.2,3.2C18.7,9.6,18.7,12.6,20.6,12.4L20.6,12.4z"/>
	</g>
</g>
<g>
	<g>
		<path d="M39.9,132.3c-5.5-1.1-10.3-3.7-13.8-8.1c-3.8-4.7-4.3-10.5-6.4-16c-1.8-4.5-4.8-8.3-7.5-12.3c-3.5-5.2-5.4-10.4-5.9-16.7
			C5.3,68,5,55.8,6.5,44.6c0.8-6.1,2.9-11,5.9-16.2c2.8-4.9,3.2-13.5,9.1-15.6c1.8-0.6,1-3.5-0.8-2.9c-4.7,1.6-6.5,5.4-8,9.9
			c-2.1,6.1-6,11.3-7.8,17.5c-1.8,6.2-1.9,12.7-2,19C2.8,64,2.6,71.7,3.2,79.3c0.5,5.9,1.9,11.2,5.1,16.2c3.8,6,7.9,10.8,9.8,17.8
			c3,11,9.2,19.6,21,21.9C41,135.6,41.8,132.7,39.9,132.3L39.9,132.3z"/>
	</g>
</g>
</svg>
