<?xml version="1.0" encoding="utf-8"?>
<!-- Generator: Adobe Illustrator 22.0.1, SVG Export Plug-In . SVG Version: 6.00 Build 0)  -->
<svg version="1.1" id="Layer_1" xmlns="http://www.w3.org/2000/svg" xmlns:xlink="http://www.w3.org/1999/xlink" x="0px" y="0px"
	 viewBox="0 0 1242 2208" style="enable-background:new 0 0 1242 2208;" xml:space="preserve">
<style type="text/css">
	.st0{fill:#F7C359;}
	.st1{fill:#F7931E;}
</style>
<g>
	<g>
		<path class="st0" d="M193.8,677.4c118.6-1.5,237.3-3,355.9-4.5c118-1.5,236-3,353.9-4.4c33.3-0.4,66.7-0.8,100-1.3
			c16.7-0.2,33.3-0.4,50-0.6c15.1-0.2,30.8-1.6,45.9,0c-2.7-0.4-5.3-0.7-8-1.1c3.4,0.5,6.6,1.2,9.8,2.5c-2.4-1-4.8-2-7.2-3
			c0.9,0.4,1.7,0.9,2.5,1.3c4.1,2.2-4.4-3.9-2.2-1.6c1.6,1.7-2.9-5.4-2.4-3.2c0.2,0.7,1.1,2,1.4,2.7c-1-2.4-2-4.8-3-7.2
			c0.6,1.5,1,3,1.3,4.6c-0.4-2.7-0.7-5.3-1.1-8c0.2,2.1,0.3,4.1,0.1,6.1c0.4-2.7,0.7-5.3,1.1-8c-0.4,3-1.2,5.8-2.4,8.6
			c1-2.4,2-4.8,3-7.2c-0.7,1.6-1.6,3.1-2.5,4.6c-2.3,4.1,5.7-6,0.6-1c-0.6,0.6-1.3,1.2-1.9,1.7c4.5-3.4,5.4-4.1,2.6-2.3
			c-2,1-3.8,2.1-5.8,2.9c2.4-1,4.8-2,7.2-3c-4.6,1.8-9.4,2.9-14.3,3.6c2.7-0.4,5.3-0.7,8-1.1c-13.5,1.6-27.2,0.8-40.7,0.7
			c-14.6-0.1-29.3-0.3-43.9-0.4c-29.6-0.3-59.2-0.6-88.8-0.9c-58.6-0.6-117.1-1.2-175.7-1.7c-117.8-1.2-235.6-2.3-353.4-3.5
			c-65.9-0.7-131.8-1.3-197.7-2c-15.7-0.2-30.7,13.9-30,30c0.7,16.4,13.2,29.8,30,30c127.8,1.3,255.6,2.5,383.3,3.8
			c127.1,1.3,254.2,2.5,381.3,3.8c31.9,0.3,63.9,0.6,95.8,0.9c16.6,0.2,32.9,0.7,49.4-2c18.5-3,34.6-12.8,45.2-28.2
			c9.2-13.4,12.8-32.7,7.3-48.2c-3.9-10.9-10.5-19.4-20.1-25.8c-8.9-6-19.6-8-30.1-8.9c-14.7-1.2-29.7,0-44.4,0.1
			c-16,0.2-32,0.4-48,0.6c-127.3,1.6-254.6,3.2-381.9,4.8c-128,1.6-255.9,3.2-383.9,4.8c-15.3,0.2-30.7,0.4-46,0.6
			c-15.7,0.2-30.7,13.7-30,30C164.5,663.5,177,677.6,193.8,677.4L193.8,677.4z"/>
	</g>
</g>
<g>
	<g>
		<path class="st0" d="M196.7,624c-15.4,1-27.6,7.7-36.2,20.6c-5.6,8.3-8.4,19.7-7.8,29.7c1.5,26.7,21.2,44.5,45.5,52
			c8.1,2.5,16.6,3.6,25,4.8c12.3,1.7,24.6,3.3,37,4.3c20.7,1.7,41.4,2.2,62.2,1.5c15.7-0.5,30.7-13.4,30-30
			c-0.7-15.8-13.2-30.6-30-30c-29.2,1-58.4-0.4-87.3-4.2c2.7,0.4,5.3,0.7,8,1.1c-11.3-1.5-23-2.9-33.7-7.1c2.4,1,4.8,2,7.2,3
			c-1.8-0.8-3.6-1.6-5.2-2.5c-0.8-0.5-1.6-1-2.4-1.5c3.9,3.2,5,4,3.2,2.5c-1.2-1.1-2.3-2.5-3.5-3.6c3.2,4.4,4.1,5.4,2.6,3.1
			c-0.4-0.6-0.7-1.3-1-2c1,2.4,2,4.8,3,7.2c-0.7-1.8-1.1-3.5-1.4-5.4c0.4,2.7,0.7,5.3,1.1,8c-0.2-2.3-0.2-4.5,0.1-6.7
			c-0.4,2.7-0.7,5.3-1.1,8c0.3-1.8,0.8-3.5,1.5-5.3c-1,2.4-2,4.8-3,7.2c1.7-3.7,4.9-5.4-1.3,0.8c2.6-2.5-3.7,3-3.8,2.7
			c-0.1-0.2,2.5-1.3,2.7-1.4c-2.4,1-4.8,2-7.2,3c1-0.3,2-0.6,3-0.7c-2.7,0.4-5.3,0.7-8,1.1c0.4,0,0.7,0,1.1-0.1
			c15.6-1,30.8-13.1,30-30C226,638.6,213.5,622.9,196.7,624L196.7,624z"/>
	</g>
</g>
<g>
	<g>
		<path class="st0" d="M222,736.6c2.9,2.5,5.6,5.1,8.2,7.9c1.3,1.4,2.4,2.9,3.6,4.2c-6.4-6.8-2.5-3.2-1-1.1
			c4.1,5.9,7.5,12.3,10.3,18.9c-1-2.4-2-4.8-3-7.2c5.5,13.3,8.7,27.4,10.7,41.7c-0.4-2.7-0.7-5.3-1.1-8c3.9,29.8,2.6,59.9,2.7,89.9
			c0.1,36.8,0.6,73.6,1.6,110.4c2,73.2,5.8,146.4,11.5,219.5c2.7,35,5.4,70,10.2,104.8c4.1,29.8,11.1,58.4,23.4,85.9
			c13,29,34.2,53.9,61.1,70.9c27.9,17.7,60.8,26.4,92.8,33.3c70.6,15.2,143.4,21.4,215.5,17.6c37.1-1.9,74.1-6.4,110.6-13.2
			c30.8-5.7,61.5-13,91-23.9c31.8-11.8,61.2-27,87.9-48c24.7-19.5,44.9-45,59.3-72.9c30.7-59.3,39.4-126.8,44.7-192.5
			c5.9-72.4,5-145.3,0.4-217.8c-4.6-73.1-13-146-22.1-218.7c-2.2-17.7-4.5-35.3-6.7-53c-1.1-8.3-2.6-15.1-8.8-21.2
			c-5.2-5.2-13.7-9.1-21.2-8.8c-7.8,0.3-15.8,2.9-21.2,8.8c-5,5.4-9.8,13.5-8.8,21.2c9.1,70.7,18.1,141.5,24.3,212.5
			c6.2,70.8,9.7,141.9,7.6,213c-1.2,39-3.9,78-9,116.7c0.4-2.7,0.7-5.3,1.1-8c-4.9,36.4-12.4,72.6-26.6,106.6c1-2.4,2-4.8,3-7.2
			c-5.6,13.2-12.2,25.9-20,37.9c-2,3.1-4.1,6.2-6.3,9.1c-1.3,1.8-5.1,5.6,0.8-1c-1.2,1.4-2.3,2.9-3.5,4.3
			c-4.6,5.5-9.6,10.8-14.8,15.8c-2.7,2.6-5.5,5.1-8.3,7.5c-1.2,1-2.4,2.1-3.7,3.1c-0.8,0.7-1.7,1.3-2.5,2c1.2-0.9,2.4-1.8,3.6-2.7
			c-5.6,4.8-12.1,8.8-18.4,12.6c-12.3,7.6-25.3,14.1-38.6,19.8c2.4-1,4.8-2,7.2-3c-45.8,19.2-95.4,29.3-144.5,36
			c2.7-0.4,5.3-0.7,8-1.1c-70.3,9.4-141.6,9.3-211.9-0.1c2.7,0.4,5.3,0.7,8,1.1c-21.9-3-43.8-6.9-65.4-11.7
			c-19.3-4.3-38.4-9.3-56.6-16.9c2.4,1,4.8,2,7.2,3c-8.9-3.8-17.5-8.2-25.5-13.5c-1.8-1.2-4.8-2.6-6.1-4.3c0.5,0.7,5.3,4.3,2.2,1.6
			c-0.8-0.7-1.6-1.3-2.4-2c-3.3-2.9-6.5-5.9-9.5-9.1c-1.3-1.4-2.6-2.8-3.9-4.3c-0.9-1.1-5.6-7-2.2-2.6c3.5,4.4-1.1-1.7-1.9-2.8
			c-1.1-1.6-2.1-3.2-3.2-4.8c-4.6-7.4-8.5-15.2-12-23.1c1,2.4,2,4.8,3,7.2c-10.3-24.5-15.6-50.7-19.1-76.9c0.4,2.7,0.7,5.3,1.1,8
			c-5.3-40.1-7.9-80.7-10.8-121.1c-3.1-44-5.6-88-7.4-132.1c-1.8-43.7-3-87.5-3.5-131.2c-0.3-21.9-0.3-43.8-0.3-65.6
			c0.1-16.8,0.1-33.5-1.2-50.3c-3.2-41.4-13.9-85.4-46.8-113.6c-6.1-5.3-12.9-8.8-21.2-8.8c-7.4,0-16.1,3.3-21.2,8.8
			C211.7,705.4,209.3,725.7,222,736.6L222,736.6z"/>
	</g>
</g>
<g>
	<g>
		<path class="st0" d="M295.9,713.2c2.3,12.8,4.3,25.7,6.1,38.6c-0.4-2.7-0.7-5.3-1.1-8c6.5,48.4,8.8,97.3,7.1,146.1c20,0,40,0,60,0
			c-0.1-39.1-0.2-78.2-0.3-117.3c-20,0-40,0-60,0c7.2,70.9,11.3,142.1,12.3,213.3c0.3,20.4,0.3,40.9,0.1,61.4
			c-0.2,15.7,13.9,30.7,30,30c7.8-0.3,15.8-2.9,21.2-8.8c5.7-6.2,7.8-12.9,8.8-21.2c9.1-75.4,18.2-150.7,27.2-226.1
			c-19.6,2.7-39.3,5.3-58.9,8c17.1,70.1,30.5,141.1,40.1,212.6c-0.4-2.7-0.7-5.3-1.1-8c4.1,30.9,7.6,62,10.3,93
			c0.7,8.1,2.9,15.3,8.8,21.2c5.2,5.2,13.7,9.1,21.2,8.8c16.7-0.7,29.4-13.2,30-30c1.2-35.4,4.2-70.6,8.9-105.7
			c-0.4,2.7-0.7,5.3-1.1,8c6.1-45.3,15.1-90.1,26.9-134.2c-19.6-2.7-39.3-5.3-58.9-8c4.1,89.2,8.2,178.4,12.3,267.6
			c1.2,25.3,2.3,50.6,3.5,75.9c0.7,15.7,13.3,30.7,30,30c17-0.8,29-13.2,30-30c1-17.9,2.7-35.7,5.1-53.4c-0.4,2.7-0.7,5.3-1.1,8
			c8.3-60.6,24.5-119.9,48.3-176.2c-1,2.4-2,4.8-3,7.2c2.2-5.1,4.4-10.2,6.7-15.3c-18.6-5-37.3-10.1-55.9-15.1
			c8.6,71.9,16.9,145.1,42,213.5c7.5,20.5,16.3,40.7,26.7,59.9c5.7,10.5,18.5,15.9,29.9,14.3c11.7-1.6,21.6-9.9,24.9-21.5
			c21.9-76.6,43.8-153.3,65.6-229.9c6.2-21.7,12.4-43.4,18.6-65.1c-19.3,0-38.6,0-57.9,0c5.8,16.5,9.5,33.6,11.8,50.9
			c-0.4-2.7-0.7-5.3-1.1-8c8.5,63.9,0.2,129.9,17.8,192.6c5.2,18.6,12.9,36.8,23,53.3c6.7,10.9,21.1,17.9,33.9,13.8
			c12.7-4.1,21.9-15.3,22-28.9c0.6-69.2,1.1-138.4,1.7-207.7c0.2-19.5,0.3-39.1,0.5-58.6c-20,0-40,0-60,0
			c6.3,66,17.6,131.6,34.7,195.7c4.8,17.8,10,35.5,15.6,53.1c4.6,14.3,17.9,23.5,32.9,21.5c15.4-2.1,24.9-14.4,26-29.5
			c5.1-69.3,7.5-138.7,7.1-208.1c-0.1-19.8-0.5-39.7-1.1-59.5c-19.6,2.7-39.3,5.3-58.9,8c18.4,81,33.2,162.8,44.4,245.1
			c0.9,6.6,8.1,14.9,13.8,17.9c6.1,3.2,12.3,4.5,19.1,3.6c15.1-2,25.3-14.4,26-29.5c3.8-76.1,5-152.4,3.5-228.6
			c-19.6,2.7-39.3,5.3-58.9,8c22.5,74.2,45,148.4,67.5,222.6c4.4,14.4,18,23.5,32.9,21.5c15.3-2.1,25.1-14.4,26-29.5
			c5.2-82.2,6.4-164.6,3.6-246.8c-20,0-40,0-60,0c8.2,68.5,19.1,136.6,33.3,204.1c4,18.8,8.2,37.6,12.6,56.4
			c3.4,14.5,18.7,23.4,32.9,21.5c15.5-2.1,24.8-14.4,26-29.5c5.8-71.7,8.5-143.7,8.2-215.7c-0.1-20.5-0.4-40.9-1-61.4
			c-19.6,2.7-39.3,5.3-58.9,8c5.4,23.9,9.8,48.1,13.1,72.4c-0.4-2.7-0.7-5.3-1.1-8c4.6,34.6,7.1,69.4,7.4,104.3c20,0,40,0,60,0
			c-1.4-69.8-2.7-139.6-4.1-209.4c-20,0-40,0-60,0c1.4,19.2,2.7,38.4,4.1,57.6c19.6-2.7,39.3-5.3,58.9-8
			c-13.5-50.5-27-100.9-40.5-151.4c-3.9-14.5-18.4-23.4-32.9-21.5c-14.9,2-25.5,14.4-26,29.5c-2.4,75.3-4.9,150.6-7.3,225.9
			c17.1-7.1,34.1-14.1,51.2-21.2c-67.8-59.9-135.6-119.8-203.5-179.6c-8.5-7.5-16.9-15-25.4-22.5c-8.1-7.1-16.9-14.2-26.6-18.9
			c-11.1-5.4-23.4-9.6-35.9-8.3c-17.1,1.8-31.5,10.1-40.8,24.8c-5.9,9.3-8.5,20.2-10.6,30.8c-2.1,10.9-4.1,21.8-6,32.7
			c-4,23.9-7.4,47.8-10.3,71.9c-5.9,49.9-9,100-9.1,150.2c19.6-2.7,39.3-5.3,58.9-8c-24-69.3-48-138.6-71.9-207.8
			c-6.8-19.5-13.5-39-20.3-58.6c-4.9-14.2-17.6-23.6-32.9-21.5c-14.9,2-25.6,14.4-26,29.5c-1.7,69.2-3.4,138.3-5.1,207.5
			c19.6-2.7,39.3-5.3,58.9-8C529,926.4,500.7,857,468.2,789.6c-9-18.7-18.3-37.2-28-55.5c-5.9-11.2-21.7-17.7-33.9-13.8
			c-4.9,1.6-9.4,4.2-13.2,7.7c-6.2,5.7-7.9,13.4-8.8,21.2c-8.6,73-11.8,146.5-9.7,219.9c19.6-2.7,39.3-5.3,58.9-8
			c-12.1-61.8-24.1-123.6-36.2-185.4c-2.2-11.5-14.1-20-24.9-21.5c-10.8-1.5-25.1,3.5-29.9,14.3c-6.4,14.2-10.2,27.7-11.3,43.4
			c-0.9,12.8,0.9,26.4,4.7,38.6c4.5,14.3,17.9,23.5,32.9,21.5c14.8-2,25.7-14.4,26-29.5c0.9-41.4,1.8-82.8,2.6-124.3
			c-19.6,2.7-39.3,5.3-58.9,8c10.3,31.5,17.8,63.8,22.2,96.6c-0.4-2.7-0.7-5.3-1.1-8c0.4,3.2,0.8,6.3,1.2,9.5
			c0.9,7.9,2.6,15.6,8.8,21.2c5,4.5,10.5,7.4,17.2,8.3c6.4,0.9,13.5,0,19.1-3.6c6.1-3.9,12.8-10.4,13.8-17.9
			c5.1-37.9,8.3-75.8,8.6-114.1c-18.6,5-37.3,10.1-55.9,15.1c18.7,39.4,37.3,78.8,56,118.2c4.4,9.3,16,14.9,25.9,14.9
			c9.6,0,21.8-5.5,25.9-14.9c14.3-32.6,28.5-65.3,42.8-97.9c-18.6-5-37.3-10.1-55.9-15.1c3.1,70.7,6.2,141.5,9.4,212.2
			c0.7,15.7,13.3,30.7,30,30c17.1-0.8,28.9-13.2,30-30c1.1-16.6,2.7-33.2,4.9-49.7c-0.4,2.7-0.7,5.3-1.1,8
			c4.3-31.7,10.6-63.1,19-94.1c-19.6-2.7-39.3-5.3-58.9-8c3.2,73.4,18.5,146.5,46.5,214.4c8.5,20.7,17.8,41.1,28.3,60.9
			c4.9,9.2,15.7,14.9,25.9,14.9c9.6,0,21.8-5.5,25.9-14.9c31.2-71.2,53.6-145.6,64.8-222.6c-19.6-2.7-39.3-5.3-58.9-8
			c3.2,71.7,6.4,143.5,9.7,215.2c0.7,15.7,13.3,30.7,30,30c16-0.7,30.4-13.2,30-30c-1.7-78.4,2.3-156.9,12-234.7c-20,0-40,0-60,0
			c-1.6,45.4,1.9,90.8,9.5,135.7c3.6,21.2,8.3,42.2,14.2,63c6,21.3,12.6,42.9,22,63c9.9,21.1,28.1,41.8,52.1,46
			c7.8,1.4,16.1,1.5,23.1-3c6.1-3.9,12.8-10.4,13.8-17.9c10.2-74.2,17.4-148.8,20.9-223.7c1-20.8,1.7-41.5,2.1-62.3c-20,0-40,0-60,0
			c-0.2,78.9,8.5,158,25.6,235c3.2,14.6,18.9,23.4,32.9,21.5c14.9-2,25.6-14.4,26-29.5c1.8-69.5,1.9-139,0.2-208.4
			c-0.5-19.6-1.1-39.2-1.8-58.8c-20,0-40,0-60,0c6.5,71.2,14.8,142.2,24.5,212.9c2.7,19.7,5.6,39.3,8.5,58.9c1,6.6,8,14.9,13.8,17.9
			c6.1,3.2,12.3,4.5,19.1,3.6c14.7-2,25.9-14.4,26-29.5c0.3-45.3,0.6-90.6,1-135.8c0.1-15.7-13.9-30.7-30-30
			c-16.3,0.7-29.9,13.2-30,30c-0.3,45.3-0.6,90.6-1,135.8c19.6-2.7,39.3-5.3,58.9-8c-3.8-24.8-7.3-49.7-10.7-74.6
			c0.4,2.7,0.7,5.3,1.1,8c-8.4-62.9-15.5-126-21.3-189.2c-0.7-8.1-2.8-15.3-8.8-21.2c-5.2-5.2-13.7-9.1-21.2-8.8
			c-15.7,0.7-30.6,13.2-30,30c2.6,69.4,3.5,138.9,2.7,208.4c-0.2,19.6-0.6,39.2-1.1,58.8c19.6-2.7,39.3-5.3,58.9-8
			c-6.3-28.4-11.4-57.1-15.3-85.9c0.4,2.7,0.7,5.3,1.1,8c-6.3-46.8-9.3-94-9.2-141.2c0-15.7-13.8-30.7-30-30
			c-16.5,0.7-29.6,13.2-30,30c-1.5,70.2-6,140.4-13.6,210.2c-2.2,20-4.6,40-7.3,59.9c0.4-2.7,0.7-5.3,1.1-8
			c-0.4,2.6-0.7,5.2-1.1,7.8c12.3-7,24.6-14,36.9-21c-2.7-0.5-5.2-1.2-7.7-2.2c2.4,1,4.8,2,7.2,3c-1.6-0.7-3.1-1.5-4.6-2.4
			c-6.2-3.8,4.3,4.2,0.8,0.8c-1.3-1.2-2.6-2.4-3.8-3.7c-0.6-0.7-1.2-1.4-1.8-2c-1.9-2.3-1.2-1.4,2.2,2.8
			c-3.8-6.7-7.8-12.8-10.8-19.9c1,2.4,2,4.8,3,7.2c-8.6-21-15-43.1-20.6-65.1c-5.8-23-10.3-46.3-13.6-69.8c0.4,2.7,0.7,5.3,1.1,8
			c-4.7-35.3-6.5-70.8-5.2-106.4c0.6-15.7-14.2-30.7-30-30c-7.8,0.3-15.8,2.9-21.2,8.8c-5.7,6.3-7.7,12.8-8.8,21.2
			c-9.7,77.8-13.7,156.3-12,234.7c20,0,40,0,60,0c-3.2-71.7-6.4-143.5-9.7-215.2c-0.7-15-10.9-27.4-26-29.5
			c-6.4-0.9-13.5,0-19.1,3.6c-6.1,3.9-12.7,10.4-13.8,17.9c-10.2,69.9-29.3,138.3-56.7,203.4c1-2.4,2-4.8,3-7.2
			c-1.7,4-3.4,8-5.1,11.9c17.3,0,34.5,0,51.8,0c-8.4-15.9-16.2-32.2-23.2-48.8c1,2.4,2,4.8,3,7.2c-21-49.8-35.3-102.3-42.6-155.9
			c0.4,2.7,0.7,5.3,1.1,8c-2.5-18.4-4.1-37-4.9-55.6c-0.7-15-10.9-27.4-26-29.5c-14.5-2-29,7-32.9,21.5
			c-13.4,49.5-21.6,100.5-24.9,151.7c20,0,40,0,60,0c-3.1-70.7-6.2-141.5-9.4-212.2c-0.6-12.7-8.9-25.9-22-28.9
			c-5.3-1.2-10.7-1.2-16,0c-6.3,1.4-15.2,7.6-17.9,13.8c-14.3,32.6-28.5,65.3-42.8,97.9c17.3,0,34.5,0,51.8,0
			c-18.7-39.4-37.3-78.8-56-118.2c-5.4-11.4-22.1-17.6-33.9-13.8c-12.7,4.1-21.9,15.3-22,28.9c-0.3,34.8-2.7,69.6-7.3,104.1
			c0.4-2.7,0.7-5.3,1.1-8c-0.1,0.7-0.2,1.3-0.3,2c19.6,2.7,39.3,5.3,58.9,8c-4.5-38.8-12.2-76.9-24.4-114.1
			c-4.7-14.3-17.8-23.5-32.9-21.5c-14.8,2-25.7,14.4-26,29.5c-0.9,41.4-1.8,82.8-2.6,124.3c19.6-2.7,39.3-5.3,58.9-8
			c-1.4-4.4-2.4-8.9-3.1-13.4c0.4,2.7,0.7,5.3,1.1,8c-1-7.5-1-14.9-0.1-22.4c-0.4,2.7-0.7,5.3-1.1,8c1-6.9,2.7-13.5,5.3-19.9
			c-1,2.4-2,4.8-3,7.2c0.4-1.1,0.9-2.1,1.4-3.2c-18.3-2.4-36.6-4.8-54.8-7.2c12.1,61.8,24.1,123.6,36.2,185.4
			c1.3,6.8,7.8,14.8,13.8,17.9c6.1,3.2,12.3,4.5,19.1,3.6c14.3-1.9,26.5-14.5,26-29.5c-2.2-73.4,1.1-146.9,9.7-219.9
			c-18.6,5-37.3,10.1-55.9,15.1c23.1,43.9,44.3,88.8,63.6,134.5c-1-2.4-2-4.8-3-7.2c16.8,39.9,32.1,80.5,46,121.6
			c4.8,14.3,17.7,23.5,32.9,21.5c14.9-2,25.6-14.4,26-29.5c1.7-69.2,3.4-138.3,5.1-207.5c-19.6,2.7-39.3,5.3-58.9,8
			c24,69.3,48,138.6,71.9,207.8c6.8,19.5,13.5,39,20.3,58.6c4.9,14.2,17.6,23.6,32.9,21.5c14.6-2,26-14.4,26-29.5
			c0.2-56.7,4.1-113.4,11.6-169.6c-0.4,2.7-0.7,5.3-1.1,8c2.3-16.8,4.8-33.6,7.8-50.3c2.6-14.9,4.2-31.2,9.8-45.4
			c-1,2.4-2,4.8-3,7.2c0.6-1.4,1.3-2.7,2-4c2.2-4.2-4.1,4.2-1.7,1.9c2.7-2.6,1.8-0.2-2.2,1.3c1.2-0.4,2.5-1.5,3.7-2.1
			c-2.4,1-4.8,2-7.2,3c1.7-0.7,3.4-1.2,5.2-1.5c-2.7,0.4-5.3,0.7-8,1.1c2.8-0.4,5.4-0.3,8.2,0c-2.7-0.4-5.3-0.7-8-1.1
			c3.4,0.6,6.6,1.6,9.8,2.9c-2.4-1-4.8-2-7.2-3c3.8,1.7,7.5,3.7,11,6c1.8,1.2,3.4,2.6,5.2,3.7c-6.3-3.8-4.1-3.2-2.4-1.8
			c1.2,1,2.3,2,3.5,3c8,7,16,14.1,23.9,21.1c16.5,14.5,32.9,29.1,49.4,43.6c33.2,29.3,66.3,58.6,99.5,87.8
			c18.7,16.5,37.4,33,56.1,49.5c9.2,8.1,21.1,11.1,32.8,6.2c11.2-4.7,18-15.3,18.4-27.4c2.4-75.3,4.9-150.6,7.3-225.9
			c-19.6,2.7-39.3,5.3-58.9,8c13.5,50.5,27,100.9,40.5,151.4c3.9,14.5,18.4,23.4,32.9,21.5c13.8-1.9,27.1-14.5,26-29.5
			c-1.4-19.2-2.7-38.4-4.1-57.6c-0.6-8-3-15.4-8.8-21.2c-5.2-5.2-13.7-9.1-21.2-8.8c-16,0.7-30.3,13.2-30,30
			c1.4,69.8,2.7,139.6,4.1,209.4c0.3,15.7,13.6,30.7,30,30c16.2-0.7,30.1-13.2,30-30c-0.5-62-7.8-124.2-21.5-184.7
			c-3.3-14.6-18.9-23.4-32.9-21.5c-14.3,1.9-26.4,14.5-26,29.5c2,71.9,1,144-3,215.8c-1.2,20.4-2.6,40.9-4.2,61.3
			c19.6-2.7,39.3-5.3,58.9-8c-17.1-72.4-30.7-145.7-40.6-219.4c0.4,2.7,0.7,5.3,1.1,8c-1.5-11-2.9-22-4.2-33
			c-1-8.2-2.7-15.1-8.8-21.2c-5.2-5.2-13.7-9.1-21.2-8.8c-15.8,0.7-30.6,13.2-30,30c2.8,82.3,1.6,164.7-3.6,246.8
			c19.6-2.7,39.3-5.3,58.9-8c-22.5-74.2-45-148.4-67.5-222.6c-4.4-14.4-18-23.5-32.9-21.5c-14.4,1.9-26.3,14.4-26,29.5
			c1.4,76.2,0.2,152.4-3.5,228.6c19.6-2.7,39.3-5.3,58.9-8c-11.2-82.3-26-164.1-44.4-245.1c-3.3-14.6-18.9-23.4-32.9-21.5
			c-14.3,1.9-26.4,14.5-26,29.5c2,69.4,1.3,138.9-2.3,208.3c-1,19.8-2.3,39.6-3.7,59.4c19.6-2.7,39.3-5.3,58.9-8
			c-20.3-63.7-35-129.1-44-195.3c0.4,2.7,0.7,5.3,1.1,8c-2-15.1-3.8-30.3-5.2-45.5c-0.8-8.1-2.8-15.3-8.8-21.2
			c-5.2-5.2-13.7-9.1-21.2-8.8c-16.4,0.7-29.9,13.2-30,30c-0.6,69.2-1.1,138.4-1.7,207.7c-0.2,19.5-0.3,39.1-0.5,58.6
			c18.6-5,37.3-10.1,55.9-15.1c-4.7-7.5-8.7-15.4-12.2-23.5c1,2.4,2,4.8,3,7.2c-7.8-18.7-12.3-38.3-15-58.3c0.4,2.7,0.7,5.3,1.1,8
			c-9.1-69,1.1-141-22.4-207.8c-4.2-12.1-15.2-22.6-28.9-22c-13.3,0.6-25.2,8.9-28.9,22c-21.9,76.6-43.8,153.3-65.6,229.9
			c-6.2,21.7-12.4,43.4-18.6,65.1c18.3-2.4,36.6-4.8,54.8-7.2c-6.1-11.3-11.7-22.9-16.7-34.8c1,2.4,2,4.8,3,7.2
			c-22.9-54.9-33.7-113.8-41.6-172.5c0.4,2.7,0.7,5.3,1.1,8c-2.3-17-4.3-33.9-6.3-50.9c-0.8-6.9-2.1-12.5-6.4-18.2
			c-3.8-5-9.3-9.3-15.6-10.8c-5.3-1.2-10.7-1.2-16,0c-6.4,1.5-15.1,7.6-17.9,13.8c-28.3,62.7-48.3,128.6-57.7,196.8
			c-2.9,21-5.2,42-6.4,63.2c20,0,40,0,60,0c-4.1-89.2-8.2-178.4-12.3-267.6c-1.2-25.3-2.3-50.6-3.5-75.9c-0.7-15-10.9-27.4-26-29.5
			c-14.5-1.9-29,7-32.9,21.5c-21.6,80.8-33.9,164.3-36.9,247.9c20,0,40,0,60,0c-7.3-82.6-19.3-164.9-36.2-246.1
			c-4.7-22.6-9.8-45.1-15.3-67.5c-3.5-14.5-18.7-23.4-32.9-21.5c-6.3,0.8-12.8,3.4-17.2,8.3c-5.7,6.2-7.8,12.9-8.8,21.2
			c-9.1,75.4-18.2,150.7-27.2,226.1c20,0,40,0,60,0c0.7-71.3-1.6-142.5-7-213.6c-1.6-20.4-3.4-40.8-5.4-61.1
			c-0.8-8.2-2.8-15.2-8.8-21.2c-5.2-5.2-13.7-9.1-21.2-8.8c-16.2,0.7-30,13.2-30,30c0.1,39.1,0.2,78.2,0.3,117.3
			c0,15.7,13.8,30.7,30,30c16.7-0.7,29.4-13.2,30-30c2.3-64.6-2.8-129.1-14.3-192.7c-1.3-7-7.9-14.5-13.8-17.9
			c-6.4-3.8-15.9-5.4-23.1-3c-7.3,2.3-14.3,6.8-17.9,13.8C295,697.6,294.4,704.8,295.9,713.2L295.9,713.2z"/>
	</g>
</g>
<g>
	<g>
		<path class="st0" d="M1093.9,640.6c-23.7,1.5-45.2,11.5-62,28.3c-16.1,16.2-26.5,37.3-32.6,59.1c-6.1,21.9-8.8,44.9-10.7,67.5
			c-1.9,22-2.2,44.1-1,66.1c1.5,26.6,5,53.2,10.5,79.2c3.2,15.4,22.1,25.7,36.9,21c16.3-5.3,24.4-20.4,21-36.9
			c-2.4-11.3-4.3-22.6-5.9-34c0.4,2.7,0.7,5.3,1.1,8c-5.6-41.9-5.6-84.3,0-126.2c-0.4,2.7-0.7,5.3-1.1,8
			c2.5-18.1,5.8-36.1,12.8-53.1c-1,2.4-2,4.8-3,7.2c2.2-5,4.6-10,7.5-14.6c0.4-0.7,4.1-5.2,3.9-5.7c0.2,0.5-5.1,6.3-1.4,1.9
			c0.8-1,1.6-1.9,2.5-2.8c1.5-1.7,3.2-3.3,4.8-4.8c0.3-0.3,2.9-2.3,2.8-2.5c0.1,0.3-6,4.4-2.5,1.9c4.1-2.9,8.3-5.3,12.9-7.3
			c-2.4,1-4.8,2-7.2,3c4.6-1.9,9.3-3.2,14.2-3.9c-2.7,0.4-5.3,0.7-8,1.1c1.5-0.2,3-0.3,4.5-0.4c15.6-1,30.8-13.1,30-30
			C1123.2,655.1,1110.7,639.5,1093.9,640.6L1093.9,640.6z"/>
	</g>
</g>
<g>
	<g>
		<path class="st0" d="M988.4,1177.2c3.7,69.3,0.9,138.8-8.3,207.5c0.4-2.7,0.7-5.3,1.1-8c-3.1,22.7-5.6,46.3-14.4,67.6
			c1-2.4,2-4.8,3-7.2c-1.5,3.6-3.2,7.1-5.2,10.4c-1,1.6-2.1,3.2-3.1,4.8c-3,4.5,5.1-6,0.7-1c-1.1,1.3-2.3,2.5-3.5,3.6
			c-0.7,0.7-1.4,1.3-2.2,1.9c-2.3,1.9-1.5,1.3,2.6-2c-3.8,1.6-7.3,4.5-11.2,6.2c2.4-1,4.8-2,7.2-3c-8,3.3-16.5,5.1-25.1,6.3
			c2.7-0.4,5.3-0.7,8-1.1c-24,3-48.4,3.8-72.5,4.8c-25.2,1-50.5,1.6-75.8,1.5c-49.9-0.1-99.8-2.2-149.4-6.5
			c-28.4-2.4-56.7-5.6-85-9.4c2.7,0.4,5.3,0.7,8,1.1c-25.7-3.5-51.3-7.5-76.8-12.1c-12.4-2.2-24.8-4.6-37.2-7.1
			c-11.4-2.3-23-4.3-33.8-8.7c2.4,1,4.8,2,7.2,3c-2.7-1.2-5.3-2.5-7.8-4c-5-3.2,1.2,1.5,1.6,1.4c-0.4,0.1-3.1-2.9-3.4-3.2
			c-0.8-0.9-3.8-4.6-0.6-0.4c3.2,4.2,0.4,0.4-0.2-0.7c-1.6-2.6-3-5.3-4.2-8.1c1,2.4,2,4.8,3,7.2c-6.6-15.7-9.4-33.1-12.7-49.7
			c-3.6-18.7-6.6-37.6-9.2-56.5c0.4,2.7,0.7,5.3,1.1,8c-6-45.1-9.6-90.4-13.4-135.7c-3.9-46.3-7.8-92.7-11.7-139
			c-2.2-26.5-4.5-53-6.7-79.5c-20,0-40,0-60,0c8.9,77.8,17.8,155.6,26.6,233.4c2.5,22.2,5.1,44.4,7.6,66.5
			c0.9,8.2,2.7,15.2,8.8,21.2c5.2,5.2,13.7,9.1,21.2,8.8c16.7-0.7,29.4-13.2,30-30c2.4-67.2,4.8-134.4,7.3-201.6
			c0.7-19.3,1.4-38.6,2.1-57.9c-19.6,2.7-39.3,5.3-58.9,8c19,63.9,38,127.7,57,191.6c5.4,18.1,10.8,36.2,16.2,54.3
			c4.3,14.4,18.1,23.5,32.9,21.5c15-2,25.4-14.4,26-29.5c2.6-66.8,5.3-133.6,7.9-200.4c0.7-18.9,1.5-37.9,2.2-56.8c-20,0-40,0-60,0
			c2.1,88.9,8.7,177.6,19.9,265.8c3.4,26.8,7.2,53.6,11.3,80.3c1,6.7,8,14.9,13.8,17.9c6.1,3.2,12.3,4.5,19.1,3.6
			c15-2,25.5-14.4,26-29.5c4.5-124.1,9-248.2,13.5-372.3c1.3-35.2,2.5-70.4,3.8-105.5c-19.6,2.7-39.3,5.3-58.9,8
			c25.4,65.9,50.7,131.8,76.1,197.7c7.3,18.9,14.5,37.7,21.8,56.6c5.4,14.1,17.2,23.6,32.9,21.5c15.2-2,25.1-14.4,26-29.5
			c4.5-75.7,6.7-151.6,6.5-227.5c-0.1-21.5-0.3-43.1-0.8-64.6c-19.6,2.7-39.3,5.3-58.9,8c20.1,51.5,40.2,103,60.3,154.5
			c18.3-7.7,36.6-15.4,54.8-23.1c-13.4-29.1-33.4-55.6-57.4-76.8c-6-5.3-13-8.8-21.2-8.8c-7.4,0-16.1,3.3-21.2,8.8
			c-10.4,11.3-12.6,31.4,0,42.4c5.5,4.8,10.7,9.8,15.6,15.2c2.5,2.7,4.9,5.4,7.2,8.2c1.2,1.5,2.6,2.9,3.7,4.6
			c-0.9-1.1-1.8-2.3-2.6-3.4c0.7,0.9,1.4,1.8,2,2.7c8.7,11.7,16,24.3,22.1,37.5c2.9,6.2,11.4,12.3,17.9,13.8
			c6.7,1.5,13.2,1.2,19.5-1.5c12.6-5.3,22.8-21.4,17.4-35.4c-20.1-51.5-40.2-103-60.3-154.5c-2.8-7.2-6.6-14.1-13.8-17.9
			c-6.1-3.2-12.3-4.5-19.1-3.6c-14.4,1.9-26.3,14.4-26,29.5c1.6,75.9,0.8,151.8-2.4,227.6c-0.9,21.5-2,43-3.3,64.5
			c19.6-2.7,39.3-5.3,58.9-8c-25.4-65.9-50.7-131.8-76.1-197.7c-7.3-18.9-14.5-37.7-21.8-56.6c-5.4-14.1-17.2-23.6-32.9-21.5
			c-15,2-25.5,14.4-26,29.5c-4.5,124.1-9,248.2-13.5,372.3c-1.3,35.2-2.5,70.4-3.8,105.5c19.6-2.7,39.3-5.3,58.9-8
			c-2.8-18.2-5.5-36.5-8-54.7c0.4,2.7,0.7,5.3,1.1,8c-9.8-73.1-16.5-146.6-20-220.2c-1-21-1.7-42.1-2.2-63.2
			c-0.4-15.7-13.5-30.7-30-30c-16.8,0.8-29.3,13.2-30,30c-2.6,66.8-5.3,133.6-7.9,200.4c-0.7,18.9-1.5,37.9-2.2,56.8
			c19.6-2.7,39.3-5.3,58.9-8c-19-63.9-38-127.7-57-191.6c-5.4-18.1-10.8-36.2-16.2-54.3c-4.3-14.4-18.1-23.5-32.9-21.5
			c-15,2-25.5,14.4-26,29.5c-2.4,67.2-4.8,134.4-7.3,201.6c-0.7,19.3-1.4,38.6-2.1,57.9c20,0,40,0,60,0
			c-8.9-77.8-17.8-155.6-26.6-233.4c-2.5-22.2-5.1-44.4-7.6-66.5c-0.9-8.2-2.7-15.2-8.8-21.2c-5.2-5.2-13.7-9.1-21.2-8.8
			c-15.1,0.7-31.4,13.3-30,30c8.2,96.8,15.5,193.8,24.7,290.5c4.6,49,10.5,98.1,21.1,146.2c5,22.7,11.3,47.4,29.7,63.3
			c19.3,16.6,43.8,20.7,67.9,25.5c95.4,18.8,192.4,30,289.6,33.3c47.3,1.6,94.6,1.3,141.8-0.8c24.8-1.1,49.8-2.1,74.4-5.8
			c24.2-3.6,46.5-14.4,61.6-34c13-16.8,20-37.1,24-57.8c4.7-24.6,7.7-49.7,10.4-74.6c5.1-47.5,7.2-95.3,6.1-143
			c-0.3-11.8-0.7-23.5-1.3-35.3c-0.8-15.6-13.2-30.8-30-30C1002.9,1147.9,987.5,1160.4,988.4,1177.2L988.4,1177.2z"/>
	</g>
</g>
<g>
	<g>
		<path class="st0" d="M300,845c-1.4,70.7,2,141.5,10.2,211.8c1,8.2,2.7,15.1,8.8,21.2c5.2,5.2,13.7,9.1,21.2,8.8
			c15.9-0.7,30.4-13.2,30-30c-1.6-67.6,0.9-135.4,7.6-202.7c1.9-19.2,4.1-38.3,6.7-57.5c-0.4,2.7-0.7,5.3-1.1,8
			c2.4-18.1,5.2-36.2,8.2-54.3c-19.3,0-38.6,0-57.9,0c14.2,45.2,38.4,86.6,70.8,121.2c10.1,10.8,32.6,12.5,42.4,0
			c13.7-17.6,27.5-35.2,41.2-52.8c6.7-8.5,13.3-17.1,20-25.6c3-3.9,6-7.9,9.2-11.6c1.5-1.7,3.1-3.1,4.7-4.8c2.1-2.2-5.4,3.4-2.6,2.1
			c1-0.5,2-1.2,3.1-1.7c-2.4,1-4.8,2-7.2,3c1.8-0.7,3.5-1.2,5.4-1.4c-2.7,0.4-5.3,0.7-8,1.1c1.1-0.1,2.2-0.1,3.4,0
			c-2.7-0.4-5.3-0.7-8-1.1c2.3,0.3,4.4,0.9,6.5,1.7c-2.4-1-4.8-2-7.2-3c8.6,3.8,16.5,9.4,24.5,14.3c7.9,4.9,15.9,9.7,23.8,14.6
			c16.2,9.9,32.3,19.8,48.5,29.8c32.6,20,65.2,40,97.8,60c10.9,6.7,27.6,4.9,36.4-4.7c9-9.8,11.7-24.5,4.7-36.4
			c-35.9-60.6-85.1-112.2-143.4-151.6c-5,18.6-10.1,37.3-15.1,55.9c29.8-0.4,59.6-0.9,89.4-1.3c0-20,0-40,0-60
			c-57.7,5.4-115.8,4.2-173.2-3.5c2.7,0.4,5.3,0.7,8,1.1c-19.8-2.7-39.4-6.1-58.9-10.3c-7.5-1.6-16.4-1.3-23.1,3
			c-6.1,4-12.6,10.4-13.8,17.9c-4.9,31.4-7,63-4.6,94.8c2.2,29.6,8.8,63.8,39.5,76.8c34,14.4,65.1-10.9,91.3-29.8
			c23.7-17.1,46.6-35.4,68.5-54.9c11.4-10.2,22.5-20.7,33.3-31.6c5.3-5.3,10.3-10.8,15.7-16c1-0.9,2-1.9,3-2.8
			c0.6-0.5,1.2-1.1,1.9-1.6c2.4-2,1.7-1.4-2.2,1.7c3.3-1.6,6.1-4.1,9.4-5.6c-2.4,1-4.8,2-7.2,3c2.8-1.1,5.6-1.9,8.6-2.3
			c-2.7,0.4-5.3,0.7-8,1.1c2-0.1,3.9-0.1,5.9,0.1c-2.7-0.4-5.3-0.7-8-1.1c1.9,0.4,3.7,0.9,5.6,1.6c-2.4-1-4.8-2-7.2-3
			c1,0.5,2,1.3,3,1.6c2.5,0.8-4.7-4.2-2.9-2.3c0.8,0.8,1.6,1.6,2.4,2.3c3.4,3.1-3.6-5.2-1.7-2.4c2.5,3.8,4.6,7.6,6.4,11.8
			c-1-2.4-2-4.8-3-7.2c8.6,20.3,14.7,41.9,20.2,63.2c5.7,22.2,10,44.8,13.2,67.5c-0.4-2.7-0.7-5.3-1.1-8c1.2,8.7,2.1,17.5,2.9,26.2
			c0.7,8.1,2.8,15.3,8.8,21.2c5.2,5.2,13.7,9.1,21.2,8.8c15.4-0.7,31.1-13.2,30-30c-2-31.1-1-62.3,3.1-93.1c-0.4,2.7-0.7,5.3-1.1,8
			c3.3-24.6,8.5-48.8,15.6-72.6c-19.3,0-38.6,0-57.9,0c3.4,14.5,6.2,29.1,8.2,43.8c-0.4-2.7-0.7-5.3-1.1-8c5.3,40,5.3,80.5,0,120.5
			c0.4-2.7,0.7-5.3,1.1-8c-3,22.1-7.6,44-13.9,65.4c19.3,0,38.6,0,57.9,0c-0.2-1.3-0.4-2.5-0.5-3.8c0.4,2.7,0.7,5.3,1.1,8
			c-5.5-41.8-5.4-84.1,0.1-125.8c-0.4,2.7-0.7,5.3-1.1,8c1.9-13.9,4.4-27.7,7.4-41.4c-19.3,0-38.6,0-57.9,0
			c22,64.8,43.9,129.7,65.9,194.5c4.1,12.1,15.3,22.6,28.9,22c13.4-0.6,25-8.9,28.9-22c20.1-67.1,40.2-134.1,60.3-201.2
			c-19.6-2.7-39.3-5.3-58.9-8c1.7,39.2,3.5,78.4,5.2,117.7c19.6-2.7,39.3-5.3,58.9-8c-0.4-2.3-0.7-4.6-1-6.9c0.4,2.7,0.7,5.3,1.1,8
			c-2.3-17.9-2.2-35.8,0.1-53.7c-0.4,2.7-0.7,5.3-1.1,8c2.5-17.8,7.2-35.2,14.1-51.8c-1,2.4-2,4.8-3,7.2c2.3-5.3,4.7-10.6,7.4-15.7
			c-18.6-5-37.3-10.1-55.9-15.1c6.1,78.8,10.6,157.6,13.5,236.6c0.8,22.6,1.5,45.1,2.1,67.7c0.4,15.7,13.5,30.7,30,30
			c16.9-0.8,29.1-13.2,30-30c3.3-64.1,6.6-128.2,9.8-192.3c-18.6,5-37.3,10.1-55.9,15.1c10,23,20,46,29.9,69c2.5,5.7,9,10,14.3,12.3
			c6,2.5,13.2,3.6,19.5,1.5c13-4.2,21.5-15.2,22-28.9c1.7-44.1,3.4-88.2,5.1-132.3c0.4-10.9,0.8-21.9,1.3-32.8
			c0.4-10.2,1.6-20.7,0.9-30.9c-1.3-16.8-8.2-32.5-23.9-40.5c-12.1-6.2-25.5-6.4-38.8-7c-20.2-1-40.4-2.3-60.6-2.7
			c-18.8-0.4-38.1,0.7-56.3,5.5c-19.3,5.1-38.5,15.5-51.5,30.9c-15.1,18-22.5,38.8-24.9,62c-5,48.7,23.2,91.8,52.3,127.9
			c2.9,3.6,8.9,6.5,13.2,7.7c6.5,1.8,13.4,1.1,19.5-1.5c10-4.2,19.7-15.7,18.4-27.4c-3.1-28-6.1-56-9.2-83.9
			c-0.9-8.2-2.8-15.2-8.8-21.2c-5.2-5.2-13.7-9.1-21.2-8.8c-16.7,0.7-29.4,13.2-30,30c-4.3,121.5-6.6,243.1-6.9,364.7
			c-0.1,34.6,0,69.1,0.2,103.7c19.6-2.7,39.3-5.3,58.9-8c-3.7-27.6-14.1-54.8-29.2-78.1c-4.2-6.5-8.8-13.6-14.3-18.9
			c-10.3-9.9-24.7-15.6-39-11.8c-12.7,3.3-22.1,13.5-26.2,25.7c-2,6-2.1,13.6-0.2,19.7c2.7,9,8.3,14.7,15.6,20.1
			c5.9,4.3,16.4,4.9,23.1,3c7-1.9,14.5-7.3,17.9-13.8c3.7-7,5.5-15.4,3-23.1c-2.5-7.9-7.2-13-13.8-17.9c3,2.9,6,5.8,9,8.6
			c1,2.4,2,4.8,3,7.2c-0.1-0.3-0.1-0.6-0.2-0.9c0.4,2.7,0.7,5.3,1.1,8c0-0.3,0-0.6,0-0.9c-0.4,2.7-0.7,5.3-1.1,8
			c0.1-0.7,0.2-1.3,0.5-1.9c-1,2.4-2,4.8-3,7.2c1.3-2.6,0.3-1.4-3,3.4c-4.9,3.3-6.1,4.2-3.5,2.9c-2.4,1-4.8,2-7.2,3
			c0.3-0.1,0.7-0.2,1-0.3c-2.7,0.4-5.3,0.7-8,1.1c0.8-0.1,1.6-0.1,2.5,0c-2.7-0.4-5.3-0.7-8-1.1c0.9,0.1,1.8,0.4,2.7,0.8
			c-2.4-1-4.8-2-7.2-3c4.3,2.2-6-5.5-0.4-0.3c2,2.3,1.4,1.5-1.9-2.6c0.7,0.9,1.3,1.8,2,2.7c2.3,3.2,4.5,6.5,6.5,9.9
			c4.4,7.2,8.2,14.8,11.6,22.6c-1-2.4-2-4.8-3-7.2c5.9,14.1,9.9,28.9,11.9,44c0.9,6.6,8.1,14.9,13.8,17.9c6.1,3.2,12.3,4.5,19.1,3.6
			c14.5-2,26.1-14.4,26-29.5c-0.8-121.6,0.4-243.2,3.5-364.8c0.9-34.5,2-69.1,3.2-103.6c-20,0-40,0-60,0c3.1,28,6.1,56,9.2,83.9
			c17.1-7.1,34.1-14.1,51.2-21.2c-1.6-2-3.2-4-4.8-6c-2.3-2.9,4.2,5.5,1,1.3c-0.7-0.9-1.4-1.8-2.1-2.7c-3.2-4.4-6.4-8.8-9.3-13.3
			c-5.7-8.8-10.8-18-15-27.6c1,2.4,2,4.8,3,7.2c-4-9.5-6.9-19.4-8.4-29.6c0.4,2.7,0.7,5.3,1.1,8c-1.1-8.5-1.1-17.1,0-25.6
			c-0.4,2.7-0.7,5.3-1.1,8c1.1-7.4,3-14.6,5.9-21.5c-1,2.4-2,4.8-3,7.2c1.6-3.6,3.4-7.1,5.5-10.4c0.5-0.8,1.1-1.6,1.7-2.4
			c2.4-3.5-1.6,2.6-2,2.6c0.6,0,4-4.4,4.5-4.9c1.4-1.4,3-2.6,4.4-4c2.6-2.3-5.5,3.9-2.6,2c0.8-0.5,1.6-1.1,2.4-1.6
			c3.5-2.2,7.1-4.1,10.9-5.8c-2.4,1-4.8,2-7.2,3c8.7-3.7,17.8-5.9,27.1-7.2c-2.7,0.4-5.3,0.7-8,1.1c16.5-2.2,33.2-1.7,49.9-1
			c10.5,0.5,21.1,1,31.6,1.5c9.9,0.5,20,0.4,29.8,1.7c-2.7-0.4-5.3-0.7-8-1.1c2.3,0.4,4.5,0.9,6.7,1.8c-2.4-1-4.8-2-7.2-3
			c3.3,1.6,2.6,2.9-1.6-1.7c-0.9-1.3-1.9-2.6-2.8-3.8c0.5,0.8,1,1.7,1.4,2.7c-1-2.4-2-4.8-3-7.2c0.5,1.5,0.9,2.9,1.1,4.4
			c-0.4-2.7-0.7-5.3-1.1-8c0.9,7.7,0,15.6-0.3,23.3c-0.3,8-0.6,15.9-0.9,23.9c-0.6,16.9-1.3,33.8-1.9,50.7
			c-1.3,33.5-2.6,67-3.8,100.4c18.6-5,37.3-10.1,55.9-15.1c-10-23-20-46-29.9-69c-2.5-5.7-9-10-14.3-12.3c-6-2.5-13.2-3.6-19.5-1.5
			c-13.1,4.2-21.3,15.2-22,28.9c-3.3,64.1-6.6,128.2-9.8,192.3c20,0,40,0,60,0c-1.9-79-5.5-157.9-10.7-236.7
			c-1.5-22.5-3.1-45-4.9-67.5c-1-12.8-8.6-25.9-22-28.9c-12.6-2.9-27.6,1.7-33.9,13.8c-11.5,22-20.1,45.8-23.9,70.4
			c-4.3,27.3-4.2,53.5,0.3,80.8c1.1,6.7,8,14.8,13.8,17.9c6.1,3.2,12.3,4.5,19.1,3.6c14.1-1.9,26.7-14.5,26-29.5
			c-1.7-39.2-3.5-78.4-5.2-117.7c-0.7-15-10.9-27.4-26-29.5c-14.8-2-28.6,7.1-32.9,21.5c-20.1,67.1-40.2,134.1-60.3,201.2
			c19.3,0,38.6,0,57.9,0c-22-64.8-43.9-129.7-65.9-194.5c-4.1-12.1-15.3-22.6-28.9-22c-12.8,0.6-26,8.8-28.9,22
			c-6.8,30.6-11,61.9-12.3,93.2c-1.3,31.5,1,62.6,5.3,93.8c1,2.4,2,4.8,3,7.2c1.9,3.5,4.5,6.3,7.7,8.4c5.1,3.9,11.6,6.7,18.2,6.4
			c13.4-0.6,25.1-8.9,28.9-22c23.1-79.7,24.8-165,5.6-245.6c-2.9-12.3-16.2-22.6-28.9-22c-13.4,0.6-25,8.9-28.9,22
			c-16.6,56-23.5,115.4-19.7,173.7c20,0,40,0,60,0c-3-33.3-8.3-66.5-16.5-98.9c-3.8-15.2-8.3-30.3-13.3-45.2
			c-4.8-14.1-9.3-29.4-18.3-41.4c-5.8-7.8-12.2-14.7-21.1-19c-12-5.8-24.4-7.1-37.5-4.3c-16.3,3.6-30.3,15.5-41.6,27.2
			c-20.9,21.5-42.5,42.1-65.6,61.2c-6.4,5.4-13.4,10.2-19.6,15.8c6.5-5.7,1.9-1.5,0.4-0.3c-1.9,1.5-3.8,2.9-5.7,4.3
			c-3.4,2.5-6.7,5-10.2,7.5c-13.4,9.7-27.1,20.7-42.3,27.4c2.4-1,4.8-2,7.2-3c-3.3,1.3-6.6,2.3-10.1,2.8c2.7-0.4,5.3-0.7,8-1.1
			c-1.8,0.1-3.4,0.1-5.1,0c2.7,0.4,5.3,0.7,8,1.1c-2.5-0.3-4.7-0.9-7-1.8c2.4,1,4.8,2,7.2,3c-1.5-0.7-2.8-1.7-4.2-2.4
			c4.4,3.6,5.5,4.3,3.3,2.3c-0.6-0.6-1.1-1.2-1.7-1.8c3.4,4.5,4.2,5.5,2.4,3.1c-0.5-0.7-0.9-1.4-1.3-2.1c-0.9-1.5-1.6-3.1-2.3-4.6
			c1,2.4,2,4.8,3,7.2c-2.6-6.3-4.1-12.8-5.1-19.5c0.4,2.7,0.7,5.3,1.1,8c-3.9-30-3-60.9,0.9-90.8c-0.4,2.7-0.7,5.3-1.1,8
			c0.4-3.2,0.9-6.4,1.4-9.6c-12.3,7-24.6,14-36.9,21c78.7,16.9,159.9,22.3,240.1,14.9c8.1-0.8,15.3-2.8,21.2-8.8
			c5.2-5.2,9.1-13.7,8.8-21.2c-0.7-16.1-13.2-30.3-30-30c-29.8,0.4-59.6,0.9-89.4,1.3c-12.7,0.2-26,9.1-28.9,22
			c-3.1,13.6,2.3,26.1,13.8,33.9c6.9,4.7,13.7,9.6,20.3,14.6c4.4,3.3-5.4-4.3-0.8-0.6c1.7,1.4,3.5,2.8,5.2,4.2c3,2.4,6,4.9,9,7.5
			c12,10.3,23.5,21.2,34.4,32.8c5.5,5.9,10.9,11.9,16.1,18c2.5,3,5,6,7.4,9c1,1.3,2,2.7,3.1,3.9c-6.2-7.2-0.9-1.2,0.4,0.5
			c9.7,12.9,18.6,26.3,26.8,40.2c13.7-13.7,27.4-27.4,41-41c-44.2-27.1-88.5-54.3-132.7-81.4c-10.8-6.6-21.5-13.2-32.3-19.8
			c-12.1-7.4-24-16-37.5-20.8c-18.4-6.4-36.9-0.1-50.8,12.5c-8.2,7.4-14.4,17.3-21.2,25.9c-17.8,22.8-35.6,45.5-53.4,68.3
			c14.1,0,28.3,0,42.4,0c-5.8-6.1-10.8-12.9-16.4-19.1c5.8,6.4,1.9,2.4,0.6,0.7c-1.3-1.8-2.7-3.6-4-5.4c-2.3-3.2-4.5-6.5-6.6-9.7
			c-8.8-13.7-16.4-28.1-22.8-43c1,2.4,2,4.8,3,7.2c-3.5-8.3-6.5-16.7-9.2-25.3c-3.8-12.2-15.5-22.6-28.9-22
			c-5.3,0.2-10.4,1.6-15.1,4.1c-5.9,3.1-12.7,11.2-13.8,17.9c-13.9,83.2-22.1,167.4-23.7,251.8c-0.4,23.5-0.4,47.1,0.2,70.6
			c20,0,40,0,60,0c-8.2-70.3-11.6-141-10.2-211.8c0.3-15.7-14-30.7-30-30C313.5,815.7,300.4,828.2,300,845L300,845z"/>
	</g>
</g>
<g>
	<g>
		<path class="st0" d="M304.7,1344.9c4.7,52.5,11.8,104.8,21.4,156.6c1.3,7,7.8,14.4,13.8,17.9c6.4,3.8,15.9,5.4,23.1,3
			c16.6-5.4,24-20.3,21-36.9c-4.8-25.9-8.9-51.9-12.5-78c0.4,2.7,0.7,5.3,1.1,8c-3.1-23.5-5.8-47-7.9-70.6
			c-0.7-8.1-2.9-15.3-8.8-21.2c-5.2-5.2-13.7-9.1-21.2-8.8C319.6,1315.6,303.2,1328.2,304.7,1344.9L304.7,1344.9z"/>
	</g>
</g>
<g>
	<g>
		<path class="st0" d="M281.2,1329c-2.9,23.5-5.8,46.9-8.6,70.4c-1.5,12.1-3,24.1-4.4,36.2c-1.3,10.6-2.8,21.3-2.6,32
			c0.4,24,8.7,47.9,26.7,64.3c14.7,13.3,33,21.8,52.2,26.3c18.4,4.4,37.6,5.9,56.5,6.5c24,0.8,47.9,1.6,71.9,2.3
			c47.9,1.6,95.9,3.1,143.8,4.7s95.9,3.1,143.8,4.7c24,0.8,47.9,1.6,71.9,2.3c23.7,0.8,47.5,2.1,71.2,1.8
			c45.1-0.6,94-10.7,125.5-45.7c17.9-19.9,26.8-43.6,28.6-70.2c1.5-22.4-2.7-45.1-5.4-67.3c-11.6-95.1-23.3-190.2-34.9-285.2
			c-1.5-11.9-2.9-23.8-4.4-35.7c-1-8.2-2.7-15.1-8.8-21.2c-5.2-5.2-13.7-9.1-21.2-8.8c-7.8,0.3-15.8,2.9-21.2,8.8
			c-5,5.4-9.7,13.5-8.8,21.2c12.7,104,25.5,208,38.2,312c3.3,27.3,9.3,55.8,5.8,83.3c0.4-2.7,0.7-5.3,1.1-8c-1,7-2.7,13.8-5.4,20.4
			c1-2.4,2-4.8,3-7.2c-2.2,5.2-5.1,9.9-8.2,14.6c-1.8,2.6,5.2-6.3,1.1-1.5c-0.8,0.9-1.6,1.8-2.4,2.7c-2,2.2-4.1,4.2-6.3,6.2
			c-1.1,1-2.2,1.9-3.4,2.9c-3.7,3.2,4.9-3.6,2-1.5c-2.2,1.5-4.5,3.1-6.8,4.6c-5.1,3.1-10.4,5.8-15.9,8.2c2.4-1,4.8-2,7.2-3
			c-11.6,4.8-23.8,7.7-36.2,9.4c2.7-0.4,5.3-0.7,8-1.1c-36.4,4.8-73.9,1.2-110.4,0c-38-1.2-75.9-2.5-113.9-3.7
			c-75.9-2.5-151.8-5-227.8-7.4c-21-0.7-42-1.4-62.9-2.1c-16.9-0.6-33.9-0.8-50.7-3c2.7,0.4,5.3,0.7,8,1.1
			c-12-1.7-23.9-4.3-35.1-8.9c2.4,1,4.8,2,7.2,3c-3.5-1.5-6.9-3.2-10.2-5.1c-1.6-1-3.1-2-4.7-3.1c-1-0.7-3.7-2.8,0.6,0.5
			c4.5,3.5,1,0.7,0.2,0c-1.2-1.1-2.4-2.2-3.5-3.4c-0.7-0.7-1.3-1.6-2-2.3c-2.2-2,4,5.7,2.4,3.2c-2.1-3.5-4.3-6.7-5.9-10.5
			c1,2.4,2,4.8,3,7.2c-1.9-4.8-3.2-9.8-4-14.9c0.4,2.7,0.7,5.3,1.1,8c-1.4-11.4-0.4-22.7,1-34c1.5-12.6,3.1-25.2,4.6-37.8
			c3.1-25.4,6.2-50.8,9.3-76.2c0.9-7.1-4-16.4-8.8-21.2c-5.2-5.2-13.7-9.1-21.2-8.8c-7.8,0.3-15.8,2.9-21.2,8.8
			C284.2,1314,282.2,1320.6,281.2,1329L281.2,1329z"/>
	</g>
</g>
<g>
	<g>
		<path class="st0" d="M360.8,1487.8c10.5,19.9,28,34.7,48.9,42.7c20.1,7.7,45.2,4.7,62.8-7.8c9.5-6.8,18.3-15.2,23.3-26
			c6.4-14,7.7-27.5,4.8-42.6c-1.9-10-6.2-19.7-9.2-29.4c-3-9.5-5.8-19.1-8.3-28.7c-5.8-22.3-10.3-45-13.4-67.8
			c0.4,2.7,0.7,5.3,1.1,8c-5.5-41.4-6.7-83.3-3.2-125c-18.6,5-37.3,10.1-55.9,15.1c4.6,8.4,8.8,17,12.6,25.8c-1-2.4-2-4.8-3-7.2
			c9.8,23.2,16.4,47.5,19.9,72.4c-0.4-2.7-0.7-5.3-1.1-8c0.6,4.7,1.1,9.5,1.5,14.3c18.6-5,37.3-10.1,55.9-15.1
			c-8.6-12.1-15.8-25-21.6-38.7c1,2.4,2,4.8,3,7.2c-7-16.9-11.8-34.5-14.3-52.6c0.4,2.7,0.7,5.3,1.1,8c-1.3-10.2-1.8-20.4-1.6-30.7
			c0.3-14.9-11.7-27.5-26-29.5c-6.4-0.9-13.5,0-19.1,3.6c-6.1,3.9-12.8,10.4-13.8,17.9c-4.1,29.7-8.2,59.4-12.3,89.1
			c16.7-4.4,33.4-8.8,50.1-13.2c-2.7-2.5-5.3-5.2-7.7-7.9c-0.7-0.8-5.1-6.3-1.7-1.9c3.4,4.5-0.8-1.2-1.4-2.1
			c-4.2-6.1-7.7-12.6-10.7-19.4c1,2.4,2,4.8,3,7.2c-3.7-8.8-6.2-18-7.6-27.4c0.4,2.7,0.7,5.3,1.1,8c-0.2-1.6-0.4-3.1-0.5-4.7
			c-0.8-8.1-2.8-15.2-8.8-21.2c-5.2-5.2-13.7-9.1-21.2-8.8c-17.1,0.8-29,13.2-30,30c-2.8,47.2-2.4,94.5,1.3,141.6
			c0.6,8.1,2.9,15.3,8.8,21.2c5.2,5.2,13.7,9.1,21.2,8.8c16.6-0.7,29.5-13.2,30-30c0.5-18.8,2.1-37.5,4.5-56.1
			c-0.4,2.7-0.7,5.3-1.1,8c5.4-39.7,15.3-78.7,29.4-116.3c-14.7,6-29.4,12-44.1,17.9c1.1,0.6,6.5,4.3,1.9,0.9
			c-4.9-3.6,1,0.7,1.2,1.8c-0.9-1.2-1.9-2.5-2.8-3.7c0.6,0.8,1.2,1.6,1.7,2.5c0.8,1.3,1.6,2.6,2.3,3.9c3.6,6.6,6.5,13.6,9.6,20.4
			c7,15.3,14,30.6,20.9,45.9c14.1,30.9,28.2,61.8,42.3,92.8c2.6,5.7,8.9,10,14.3,12.3c6,2.5,13.2,3.6,19.5,1.5
			c4.9-1.6,9.4-4.2,13.2-7.7c6.2-5.7,7.7-13.3,8.8-21.2c0.2-1.2,0.3-2.4,0.5-3.6c-0.4,2.7-0.7,5.3-1.1,8
			c9.2-67.2,27.2-133.1,53.5-195.7c-1,2.4-2,4.8-3,7.2c9.4-22.3,19.9-44.2,31.3-65.5c-18.6-5-37.3-10.1-55.9-15.1
			c8.1,71.7,9.5,144.1,4.2,216.2c20,0,40,0,60,0c-2.3-67.4-4.5-134.7-6.8-202.1c-19.6,2.7-39.3,5.3-58.9,8
			c10.3,63.7,25.9,126.4,46.6,187.5c4.8,14.2,17.7,23.5,32.9,21.5c14.7-2,25.9-14.4,26-29.5c0.1-9.9,0.8-19.8,2.1-29.7
			c-0.4,2.7-0.7,5.3-1.1,8c2.9-20.2,8.3-40,16.3-58.8c-1,2.4-2,4.8-3,7.2c5-11.7,10.9-22.9,17.7-33.6c3.3-5.1,6.8-10.1,10.3-15
			c3.6-5-4.5,5.6-0.6,0.8c1-1.3,2.1-2.6,3.1-3.8c2.1-2.5,4.3-5,6.5-7.5c-17.1-7.1-34.1-14.1-51.2-21.2c6.4,49.7,8.4,99.8,5.8,149.8
			c20,0,40,0,60,0c0.3-43,0.6-86.1,0.9-129.1c-19.6,2.7-39.3,5.3-58.9,8c0.2,1.3,0.4,2.6,0.5,3.9c-0.4-2.7-0.7-5.3-1.1-8
			c6.8,50.5,9.1,101.5,6.9,152.3c20,0,40,0,60,0c0-66.2,0-132.5,0-198.7c0-15.7-13.8-30.7-30-30c-17.1,0.8-28.9,13.2-30,30
			c-2.2,35,0.6,70.1,7.1,104.5c19.3-5.3,38.6-10.6,57.9-16c-10-48.8-19.9-97.5-29.9-146.3c-2.5-12.3-16.5-22.6-28.9-22
			c-12.5,0.6-26.3,8.8-28.9,22c-5.3,27.3-7.5,55.1-5.1,82.9c0.7,8.1,2.9,15.3,8.8,21.2c5.2,5.2,13.7,9.1,21.2,8.8
			c15.2-0.7,31.3-13.2,30-30c-2.2-27.5-4.4-55-6.5-82.4c-0.6-8.1-2.9-15.3-8.8-21.2c-5.2-5.2-13.7-9.1-21.2-8.8
			c-16.1,0.7-30.1,13.2-30,30c0.4,53.3,0.9,106.7,1.3,160c19.6-2.7,39.3-5.3,58.9-8c-8-45.3-16-90.5-24.1-135.8
			c-1.2-7-7.9-14.5-13.8-17.9c-6.4-3.8-15.9-5.4-23.1-3c-7.3,2.3-14.3,6.8-17.9,13.8c-4,7.5-4.4,14.7-3,23.1
			c1.5,9,2.9,18.1,4.2,27.2c-0.4-2.7-0.7-5.3-1.1-8c6,44.8,8.2,90.1,6.6,135.3c18.6-5,37.3-10.1,55.9-15.1
			c-20.6-27.3-37.7-56.9-51.1-88.3c1,2.4,2,4.8,3,7.2c-1.9-4.4-3.6-8.8-5.4-13.3c-5.4-14.1-17.2-23.6-32.9-21.5
			c-15.2,2-25.2,14.4-26,29.5c-0.9,16-2.4,31.9-4.5,47.7c0.4-2.7,0.7-5.3,1.1-8c-1.8,13.3-4.1,26.5-6.8,39.7
			c-2.4,11.8-4.5,24.1-9.1,35.2c1-2.4,2-4.8,3-7.2c-0.6,1.3-1.2,2.7-1.9,4c-0.4,0.6-0.7,1.3-1.1,1.8c-1.3,1.9-0.4,0.9,2.5-3.2
			c-0.3,0.4-0.6,0.7-1,1.1c-2.2,2.1-1.3,1.4,2.8-1.9c-1.2,0.4-2.5,1.5-3.7,2c2.4-1,4.8-2,7.2-3c-1.8,0.7-3.5,1.1-5.4,1.5
			c2.7-0.4,5.3-0.7,8-1.1c-2.4,0.3-4.7,0.3-7.1,0c2.7,0.4,5.3,0.7,8,1.1c-2.9-0.4-5.6-1.2-8.4-2.2c2.4,1,4.8,2,7.2,3
			c-1.8-0.8-3.5-1.8-5.2-2.7c-4.5-2.3,5.5,5.1,1.3,1.1c-1.2-1.1-2.4-2.2-3.5-3.4c-0.7-0.8-1.4-1.6-2.1-2.5c2.8,3.8,3.6,4.7,2.2,2.8
			c-4-6.2-7.5-12.6-10.8-19.3c-6.9-14.1-28.1-19.1-41-10.8c-14.5,9.3-18.2,25.9-10.8,41c8.1,16.6,18,32,33.7,42.4
			c17.2,11.3,42.3,13.4,60,2.1c17.7-11.2,24.7-29.8,29.3-49.2c3.8-16.2,7-32.5,9.4-49c3.1-21,5.5-42.1,6.7-63.3
			c-19.6,2.7-39.3,5.3-58.9,8c15,38.9,34.4,75.5,59.5,108.8c4.1,5.4,7.9,9.6,14.3,12.3c6,2.5,13.2,3.6,19.5,1.5
			c12.9-4.2,21.5-15.2,22-28.9c2-57.1-2.3-114.2-11.9-170.5c-19.3,5.3-38.6,10.6-57.9,16c8,45.3,16,90.5,24.1,135.8
			c1.2,6.7,7.9,14.8,13.8,17.9c6.1,3.2,12.3,4.5,19.1,3.6c14.5-1.9,26.1-14.4,26-29.5c-0.4-53.3-0.9-106.7-1.3-160c-20,0-40,0-60,0
			c2.2,27.5,4.4,55,6.5,82.4c20,0,40,0,60,0c-1.7-19.3-1.3-38.6,1.2-57.8c-0.4,2.7-0.7,5.3-1.1,8c0.8-5.7,1.7-11.5,2.8-17.1
			c-19.3,0-38.6,0-57.9,0c10,48.8,19.9,97.5,29.9,146.3c3.1,15.4,22.2,25.7,36.9,21c16.5-5.3,24.1-20.4,21-36.9
			c-1.3-7-2.5-14-3.4-21.1c0.4,2.7,0.7,5.3,1.1,8c-3.3-25-4.2-50.3-2.6-75.5c-20,0-40,0-60,0c0,66.2,0,132.5,0,198.7
			c0,15.7,13.8,30.7,30,30c16.8-0.8,29.3-13.2,30-30c2.4-55-0.9-109.7-8.5-164.2c-0.9-6.6-8.1-14.9-13.8-17.9
			c-6.1-3.2-12.3-4.5-19.1-3.6c-14.7,2-25.9,14.4-26,29.5c-0.3,43-0.6,86.1-0.9,129.1c-0.1,15.7,13.9,30.7,30,30
			c17-0.8,29.1-13.2,30-30c2.6-50,0.7-100.1-5.8-149.8c-0.7-5.3-1.3-10.4-4.1-15.1c-3.3-5.6-8.4-9.8-14.3-12.3
			c-10.6-4.5-24.7-2.7-32.8,6.2c-43.4,47.7-68.4,110.2-68.9,174.8c19.6-2.7,39.3-5.3,58.9-8c-20.7-61.1-36.3-123.8-46.6-187.5
			c-1.1-6.7-8-14.9-13.8-17.9c-6.1-3.2-12.3-4.5-19.1-3.6c-14.2,1.9-26.5,14.5-26,29.5c2.3,67.4,4.5,134.7,6.8,202.1
			c0.5,15.7,13.4,30.7,30,30c17.2-0.8,28.8-13.2,30-30c5.3-72,3.9-144.4-4.2-216.2c-0.8-6.9-2.1-12.5-6.4-18.2
			c-3.8-5-9.3-9.3-15.6-10.8c-12.7-2.9-27.4,1.8-33.9,13.8c-35.7,66.5-62.4,138.1-78,212c-4.8,22.5-8.3,45.1-11.3,67.9
			c18.6-5,37.3-10.1,55.9-15.1c-14.6-32.1-29.3-64.2-43.9-96.4c-7.3-15.9-14.5-31.8-21.8-47.7c-7.5-16.5-16.2-33-33-41.8
			c-8.6-4.6-17.7-5.3-26.7-1.5c-9.1,3.8-14,10.4-17.4,19.4c-21.7,57.6-33.2,118.9-35,180.4c20,0,40,0,60,0
			c-3.7-47.1-4.2-94.4-1.3-141.6c-20,0-40,0-60,0c3.4,34.5,17.6,66.8,43.1,90.7c7.9,7.4,18.6,10.6,29.2,7.7c9.1-2.5,19.6-11,21-21
			c4.1-29.7,8.2-59.4,12.3-89.1c-19.6-2.7-39.3-5.3-58.9-8c-1,48.3,13.6,97.6,41.6,137.1c7.5,10.6,20.5,18.1,33.9,13.8
			c11.9-3.8,23.2-15.5,22-28.9c-3.8-44.9-16.3-88-38.1-127.6c-6.1-11.2-21.6-17.8-33.9-13.8c-13.3,4.3-20.9,15.2-22,28.9
			c-5.7,69,1,139.4,19.1,206.3c2.5,9.3,5.3,18.6,8.3,27.8c3,9.1,6.8,18.1,8.3,27.7c-0.4-2.7-0.7-5.3-1.1-8c0.3,2.8,0.4,5.5,0.1,8.3
			c0.4-2.7,0.7-5.3,1.1-8c-0.4,2.7-1.1,5.3-2.1,7.9c1-2.4,2-4.8,3-7.2c-0.9,2.1-2,4-3.2,6c-2.4,4,4.2-4.7,1.8-2.3
			c-0.8,0.8-1.5,1.7-2.4,2.5c-0.7,0.6-1.4,1.2-2.1,1.8c5.4-5.5,4.4-3.3,2.1-1.8c-2.2,1.4-4.4,2.6-6.8,3.6c2.4-1,4.8-2,7.2-3
			c-3.5,1.4-7.1,2.3-10.8,2.9c2.7-0.4,5.3-0.7,8-1.1c-3.3,0.3-6.6,0.3-9.9-0.1c2.7,0.4,5.3,0.7,8,1.1c-3.8-0.6-7.5-1.6-11.1-3
			c2.4,1,4.8,2,7.2,3c-3.1-1.3-6.1-2.9-9-4.7c-2.5-1.6-4.1-4.3,1.3,1.2c-1.2-1.2-2.6-2.2-3.9-3.4c-1.2-1.2-2.4-2.4-3.6-3.7
			c-1.8-2-3.1-5.8,1,1.5c-1.7-3-3.8-5.7-5.4-8.8c-7.3-13.9-27.8-19.3-41-10.8C357.5,1455.8,353,1472.9,360.8,1487.8L360.8,1487.8z"
			/>
	</g>
</g>
<g>
	<g>
		<path class="st0" d="M351.7,1432.2c17.6,12.1,37.4,23.7,58.8,27c16.4,2.4,31.3,0.9,46.5-5.9c8.3-3.8,16.2-9.6,22.1-16.6
			c26.6-31.5,24.8-73.2,22.6-111.9c-1.5-26.4-3-52.8-4.5-79.1c-0.9-15.6-13.2-30.8-30-30c-16.4,0.7-29.8,13.2-30,30
			c-0.9,64.9-1.9,129.9-2.8,194.8c18.6-5,37.3-10.1,55.9-15.1c-12.8-18-25.5-36-38.3-54.1c-5.6-7.9-12.1-13-21.9-14.3
			c-10.2-1.4-17.4,2.1-25.2,8.3c-9,7.1-18,14.2-27.1,21.2c9.7-2.6,19.5-5.1,29.2-7.7c-2-0.4-3.9-1-5.9-1.8c2.4,1,4.8,2,7.2,3
			c-1.6-0.7-6.6-4.3-2.1-0.7c4.7,3.7-0.3-0.7-1.4-1.7c-2.8-2.6,2.5,2.8,2.4,3.2c0.1-0.2-1.2-1.8-1.4-2c-1.1-1.8-2.1-3.6-2.9-5.5
			c1,2.4,2,4.8,3,7.2c-1.7-4-2.8-8.1-3.5-12.3c0.4,2.7,0.7,5.3,1.1,8c-0.6-4.3-0.6-8.5-0.1-12.8c-0.4,2.7-0.7,5.3-1.1,8
			c0.8-5.9,2.6-11.5,4.8-16.9c-1,2.4-2,4.8-3,7.2c6.2-14.4,15.6-27,23.6-40.3c9.2-15.3,16.6-31.6,23.3-48.3
			c11.9-29.7,19.4-60.9,25.3-92.2c3.4-17.8,6.2-35.6,9-53.5c-14.7,6-29.4,12-44.1,17.9c1.4,1,2.8,2.1,4.1,3.1
			c5.1,3.8-5.6-4.4-0.6-0.5c2.5,2,5,3.9,7.4,5.9c4.9,4,9.8,8.1,14.5,12.3c9.7,8.6,19.1,17.6,28.1,26.9c8.8,9.1,17.2,18.6,25.3,28.4
			c2.2,2.7,4.4,5.4,6.5,8.1c3.3,4.1-3.2-4.2-1-1.3c0.9,1.1,1.7,2.3,2.6,3.4c4.2,5.5,8.2,11.2,12.1,16.9
			c7.3,10.6,20.7,18.1,33.9,13.8c12.1-3.9,22.8-15.5,22-28.9c-1.7-29.8-3.4-59.6-5.1-89.4c-20,0-40,0-60,0
			c0.9,6.6,0.9,13.2,0.1,19.9c0.4-2.7,0.7-5.3,1.1-8c-1,7.2-2.8,14.1-5.6,20.8c1-2.4,2-4.8,3-7.2c-2.2,5.1-4.9,9.9-8.1,14.4
			c17.3,0,34.5,0,51.8,0c-2.1-4.4-4.1-8.8-6-13.3c1,2.4,2,4.8,3,7.2c-8.6-20.8-14.6-42.5-17.7-64.8c0.4,2.7,0.7,5.3,1.1,8
			c-0.9-6.6-1.5-13.3-2-19.9c-19.6,2.7-39.3,5.3-58.9,8c3,18.1,5.7,36.3,8.1,54.4c-0.4-2.7-0.7-5.3-1.1-8c3.6,26.6,6.6,53.3,9,80.1
			c2.3,25.2,6,51.4,2.7,76.6c0.4-2.7,0.7-5.3,1.1-8c-1.1,7.6-3,15-6,22.1c1-2.4,2-4.8,3-7.2c-2.4,5.5-5.3,10.7-8.6,15.6
			c-1.5,2.3-3.1,4.5-4.7,6.7c-0.8,1.1-1.6,2.2-2.5,3.3c-2.9,3.8,0,0.2,1.2-1.5c-7.7,11.4-17.5,21.3-24.6,33.2
			c-16,26.8-22.1,60.1-6.4,88.5c4.9,8.9,15.7,15.3,25.9,14.9c114.2-4.5,228.6-5.3,342.8-2.2c15.9,0.4,31.9,0.9,47.8,1.5
			c15.2,0.6,30.9,0.2,46,2.2c-2.7-0.4-5.3-0.7-8-1.1c3.1,0.5,6.1,1.2,9,2.4c-2.4-1-4.8-2-7.2-3c1.2,0.6,5.9,3.8,1.2,0.3
			c-2.3-1.9-2.7-2.1-1.2-0.6c-3.1-4.4-4-5.5-2.7-3c-1-2.4-2-4.8-3-7.2c0.3,0.6,0.5,1.3,0.6,2c-0.4-2.7-0.7-5.3-1.1-8
			c0.1,1.1,0.1,2,0,3.1c0.4-2.7,0.7-5.3,1.1-8c-0.2,1.1-0.5,2-0.9,3c1-2.4,2-4.8,3-7.2c-2.7,5.3,3.5-3.7,2.1-2.2
			c-1.8,1.7,7.7-4.6,2.5-2.2c2.4-1,4.8-2,7.2-3c-0.5,0.2-1.1,0.4-1.7,0.4c2.7-0.4,5.3-0.7,8-1.1c-0.6,0.1-1.1,0.1-1.7-0.1
			c2.7,0.4,5.3,0.7,8,1.1c-0.3-0.1-0.6-0.2-0.8-0.2c2.4,1,4.8,2,7.2,3c-2.5-1.3-1.2-0.2,3.8,3.1c2.6,4.4,5.1,8.8,7.7,13.2
			c-3.1-12-5.4-24.2-7-36.5c0.4,2.7,0.7,5.3,1.1,8c-10.6-81.8,6.8-163.9,0-245.8c-2.1-24.9-6-49.8-13.3-73.7
			c-4.6-15-21.2-26-36.9-21c-15.5,5-25.4,20.7-21,36.9c7.6,27.6,13.4,55.7,17.3,84c-0.4-2.7-0.7-5.3-1.1-8
			c6,44.8,7.2,90.1,3.5,135.2c19.6-2.7,39.3-5.3,58.9-8c-2-8.7-3.6-17.5-4.8-26.3c0.4,2.7,0.7,5.3,1.1,8
			c-3.4-25.9-3.5-52.2-0.2-78.1c-20,0-40,0-60,0c2.6,42.4,5.2,84.7,7.7,127.1c1,15.6,13.1,30.8,30,30c16.8-0.8,29.3-13.2,30-30
			c1.8-46.7,3.7-93.4,5.5-140.2c-19.6,2.7-39.3,5.3-58.9,8c8.6,21,17.1,42,25.7,63.1c2.9,7.2,6.5,14.1,13.8,17.9
			c6.1,3.2,12.3,4.5,19.1,3.6c14.2-1.9,26.5-14.5,26-29.5c-0.5-14.9-1-29.7-1.4-44.6c-19.6,2.7-39.3,5.3-58.9,8
			c2.4,13.6,4.5,27.2,6.3,40.8c-0.4-2.7-0.7-5.3-1.1-8c3.2,24,5.6,48.2,7.1,72.4c0.7,11.8,1.3,23.6,1.6,35.3
			c0.3,11.6,1.2,23.5,0.1,35c0.4-2.7,0.7-5.3,1.1-8c-0.3,2-0.7,3.8-1.3,5.7c1-2.4,2-4.8,3-7.2c-1.2,2.8-3.3,4.4,1.7-1.1
			c-3.4,3.7,6.1-3.8,1.4-1.3c2.4-1,4.8-2,7.2-3c-2.3,1-4.7,1.5-7.2,1.9c2.7-0.4,5.3-0.7,8-1.1c-13.6,1.6-27.8,1-41.5,1.3
			c-14.6,0.3-29.3,0.6-43.9,0.8c-29.3,0.5-58.5,0.9-87.8,1.2c-58.5,0.6-117.1,0.8-175.6,0.6c-16.6-0.1-33.3-0.2-49.9-0.3
			c-15.5-0.1-31.7,1-47.1-0.9c2.7,0.4,5.3,0.7,8,1.1c-2-0.3-3.9-0.8-5.8-1.5c2.4,1,4.8,2,7.2,3c-0.9-0.4-1.8-0.8-2.7-1.3
			c3.9,3.3,4.8,4,2.7,2c6,6.8,2.5,3.5,1.2,0.6c1,2.4,2,4.8,3,7.2c-0.6-1.7-1-3.3-1.3-5.1c0.4,2.7,0.7,5.3,1.1,8
			c-0.4-3.7-0.3-7.4,0.2-11.2c-0.4,2.7-0.7,5.3-1.1,8c1.6-10.9,4.7-21.7,7.2-32.4c2.8-11.9,5.5-23.8,8.3-35.7
			c5.5-23.8,11.1-47.6,16.6-71.3c-19.6-2.7-39.3-5.3-58.9-8c4.7,45.7,6.1,91.6,4.3,137.5c20,0,40,0,60,0
			c-1.5-22.2-0.7-44.5,2.3-66.5c-0.4,2.7-0.7,5.3-1.1,8c1.6-11.3,3.7-22.6,6.4-33.7c-16.7,4.4-33.4,8.8-50.1,13.2
			c2.6,2.8,4.8,6,7.5,8.7c-3-3.9-3.6-4.7-1.7-2.2c0.6,0.9,1.3,1.8,1.9,2.7c1.1,1.6,2.2,3.2,3.2,4.8c4.3,6.7,7.9,13.7,11.1,21
			c-1-2.4-2-4.8-3-7.2c4.6,11.1,7.8,22.7,9.5,34.7c-0.4-2.7-0.7-5.3-1.1-8c0.1,1.1,0.3,2.2,0.4,3.3c1,8.2,2.7,15.1,8.8,21.2
			c5.2,5.2,13.7,9.1,21.2,8.8c16.2-0.7,30-13.2,30-30c0-6,0.4-12,1.1-17.9c-0.4,2.7-0.7,5.3-1.1,8c1.7-11.9,4.8-23.4,9.5-34.5
			c-1,2.4-2,4.8-3,7.2c2.9-6.8,6.3-13.3,10.3-19.5c1.9-3,4.1-5.7,6.1-8.7c-4.8,7.3-2.1,2.7-0.6,1c1.4-1.7,2.9-3.3,4.3-4.9
			c-16.7-4.4-33.4-8.8-50.1-13.2c2.8,8.2,4.8,16.5,6,25c-0.4-2.7-0.7-5.3-1.1-8c1.1,9.2,1.3,18.3,0.5,27.6c19.6-2.7,39.3-5.3,58.9-8
			c-1.1-4.1-2-8.3-2.6-12.5c0.4,2.7,0.7,5.3,1.1,8c-1.1-8.5-1.1-17,0.1-25.5c-0.4,2.7-0.7,5.3-1.1,8c0.4-2.4,0.8-4.8,1.3-7.2
			c-18.3,2.4-36.6,4.8-54.8,7.2c3.2,5,5.9,10.2,8.3,15.6c-1-2.4-2-4.8-3-7.2c3.4,8.2,5.8,16.7,7.1,25.5c0.9,6.2,6.1,12,10.8,15.6
			c5.1,3.9,11.6,6.7,18.2,6.4c5.3-0.2,10.4-1.6,15.1-4.1c5.7-3,12.8-11.3,13.8-17.9c3.6-24.3,5.3-48.5,3.6-73.1
			c-19.6,2.7-39.3,5.3-58.9,8c1,5.1,1.8,10.2,2.5,15.3c-0.4-2.7-0.7-5.3-1.1-8c3.2,24.3,3.2,48.9,0.1,73.3c0.4-2.7,0.7-5.3,1.1-8
			c-0.3,2.6-0.7,5.1-1.1,7.7c14.7-6,29.4-12,44.1-17.9c-7.8-3.6-15.6-7.2-23.4-10.7c-10-4.6-20.3-5.8-30.3,0
			c-8.3,4.8-16.1,15.8-14.9,25.9c1.1,9.1,1.1,18.2-0.1,27.4c0.4-2.7,0.7-5.3,1.1-8c-1.3,9.1-3.7,17.9-7.2,26.4c1-2.4,2-4.8,3-7.2
			c-1.6,3.7-3.4,7.3-5.3,10.8c18.6,5,37.3,10.1,55.9,15.1c-1.2-21.2-0.4-42.5,2.4-63.6c-0.4,2.7-0.7,5.3-1.1,8
			c4.1-29.9,12-59.1,23.6-86.9c-1,2.4-2,4.8-3,7.2c4.8-11.4,10.3-22.6,16.3-33.4c-15.7,2-31.4,4-47.1,6.1c0.5,0.6,1.8,1.7,2,2.5
			c-0.1-0.6-4.2-5.7-1.8-2.3c1.4,1.9,2.8,3.8,4.2,5.8c2.5,3.7,4.9,7.5,7.2,11.3c4.5,7.7,8.5,15.7,12,23.9c-1-2.4-2-4.8-3-7.2
			c11.4,27.1,17.7,56,21.6,85.1c-0.4-2.7-0.7-5.3-1.1-8c3.1,23.1,4.7,46.3,6.2,69.5c1,15.6,13.1,30.8,30,30c16-0.7,30.3-13.2,30-30
			c-1.2-58.6-2.4-117.2-3.6-175.8c-0.3-15.7-13.6-30.7-30-30c-16.2,0.7-30.1,13.2-30,30c0.1,41.3,0.3,82.6,0.4,123.8
			c18.6-5,37.3-10.1,55.9-15.1c-13.8-31.4-27.6-62.7-41.4-94.1c-2.5-5.7-8.9-10-14.3-12.3c-6-2.5-13.2-3.6-19.5-1.5
			c-12.4,4-22.4,15.4-22,28.9c0.8,32.4-0.9,64.7-5.1,96.8c0.4-2.7,0.7-5.3,1.1-8c-2.2,16.7-5.2,33.2-8.7,49.7c19.3,0,38.6,0,57.9,0
			c-1-5.4-1.9-10.9-2.6-16.3c0.4,2.7,0.7,5.3,1.1,8c-3.4-26.2-3.3-52.7,0.1-78.9c-0.4,2.7-0.7,5.3-1.1,8
			c2.5-18.3,6.5-36.2,12.2-53.7c-18.3,2.4-36.6,4.8-54.8,7.2c1.5,3.5,3,6.9,4.5,10.4c-1-2.4-2-4.8-3-7.2
			c10.8,25.6,19.9,51.8,27.2,78.6c4,14.4,18.3,23.4,32.9,21.5c14.3-1.9,26.4-14.5,26-29.5c-1.3-56.6,1.3-113.2,7.8-169.4
			c-19.6,2.7-39.3,5.3-58.9,8c16.8,43.7,28.5,89.2,34.9,135.6c-0.4-2.7-0.7-5.3-1.1-8c0.7,4.9,1.3,9.9,1.8,14.9
			c0.9,8.2,2.7,15.2,8.8,21.2c5.2,5.2,13.7,9.1,21.2,8.8c15.8-0.7,30.6-13.2,30-30c-1.5-41.9-3-83.8-4.6-125.7c-20,0-40,0-60,0
			c6.4,57.4,9,115.3,7.6,173.1c20,0,40,0,60,0c-1.1-39.9-2.2-79.7-3.2-119.6c-20,0-40,0-60,0c2,68.7,3.9,137.4,5.9,206.1
			c0.4,15.7,13.5,30.7,30,30c16.2-0.7,30-13.2,30-30c-0.1-67.3-0.3-134.7-0.4-202c-18.6,5-37.3,10.1-55.9,15.1
			c11.5,15.5,22.9,30.9,34.4,46.4c4,5.4,8,9.6,14.3,12.3c6,2.5,13.2,3.6,19.5,1.5c12.3-4,22.5-15.4,22-28.9
			c-1.2-36.3,0.7-72.7,5.4-108.7c-0.4,2.7-0.7,5.3-1.1,8c1.4-10.3,3-20.5,4.9-30.8c-19.6-2.7-39.3-5.3-58.9-8
			c7.1,66.4,14.3,132.8,21.4,199.1c0.9,8.2,2.8,15.2,8.8,21.2c5.2,5.2,13.7,9.1,21.2,8.8c16.1-0.7,30.1-13.2,30-30
			c-0.6-67.9-1.2-135.8-1.8-203.7c-20,0-40,0-60,0c2.8,49.2,5.7,98.4,8.5,147.6c0.9,15.6,13.2,30.8,30,30c16.8-0.8,29.3-13.2,30-30
			c2.3-58,4.6-115.9,7-173.9c-20,0-40,0-60,0c4.4,74.4,5.7,149.1,3.8,223.6c20,0,40,0,60,0c0.1-62,0.2-124,0.2-186c-20,0-40,0-60,0
			c5.2,52.2,10.5,104.5,15.7,156.7c0.8,8.2,2.8,15.2,8.8,21.2c5.2,5.2,13.7,9.1,21.2,8.8c17.1-0.8,28.9-13.2,30-30
			c4.1-63.3,8.2-126.6,12.4-189.8c-20,0-40,0-60,0c3.7,69.5,7.4,138.9,11.2,208.4c1.1,19.6,2.1,39.2,3.2,58.8
			c0.8,15.6,13.2,30.8,30,30c16.4-0.7,29.8-13.2,30-30c1-80.7,2.1-161.4,3.1-242.1c-19.6,2.7-39.3,5.3-58.9,8
			c2.3,12,4.3,24.1,6,36.3c-0.4-2.7-0.7-5.3-1.1-8c5.8,43.5,7,87.5,3.7,131.3c20,0,40,0,60,0c0.6-85,1.3-170.1,1.9-255.1
			c-20,0-40,0-60,0c0.7,17.9,1.3,35.7,2,53.6c0.3,8.6,0.6,17.2,1,25.8c0.3,8.1,1.2,16.4,0.5,24.4c0.4-2.7,0.7-5.3,1.1-8
			c-0.3,2.2-0.8,4.1-1.6,6.1c1-2.4,2-4.8,3-7.2c-1.5,2.6-0.6,1.5,2.7-3.2c4.7-3.2,5.8-4.1,3.1-2.7c2.4-1,4.8-2,7.2-3
			c-0.7,0.3-1.5,0.5-2.3,0.6c2.7-0.4,5.3-0.7,8-1.1c-0.7,0.1-1.5,0.1-2.2-0.1c2.7,0.4,5.3,0.7,8,1.1c-0.7-0.1-1.4-0.4-2.1-0.7
			c2.4,1,4.8,2,7.2,3c-4.1-2.1,5.7,5.4,2.2,1.9c-3.3-3.2,3.6,5.5,1.8,2.5c-1.3-2.2-2.5-4.3-3.5-6.7c1,2.4,2,4.8,3,7.2
			c-7.6-19.4-13.4-39.6-20-59.3c-3.4-10.1-10.4-18.1-21-21c-11-3-20.8,0.7-29.2,7.7c-44.6,37.3-77.1,88.7-94.3,144
			c-8.6,27.7-13.2,57.2-13.5,86.2c-0.2,18.7-0.6,40.5,14.1,54.3c19.5,18.2,48.4,10.9,64.6-7.7c13.6-15.7,22.1-36.3,29.4-55.4
			c6.3-16.4,10.6-33.5,13.1-50.9c-16.7,4.4-33.4,8.8-50.1,13.2c-0.7-0.9-3.9-5.2-1.6-2c0.7,0.9,1.4,1.8,2,2.8c1.5,2.1,3,4.2,4.4,6.3
			c2.7,4,5.3,8.2,7.8,12.4c4.9,8.4,9.3,17.2,13.1,26.1c-1-2.4-2-4.8-3-7.2c5.8,13.8,10.3,28,13.4,42.6c16.7-9.7,33.4-19.5,50.1-29.2
			c-3.2-3.5-6.4-7.1-9.4-10.8c-1.4-1.7-2.9-3.5-4.3-5.2c-0.9-1.1-1.7-2.2-2.6-3.3c-2.5-3.2,0.9,1.4,1.6,2.1
			c-3.2-3.3-5.8-7.8-8.4-11.6c-2.7-3.9-5.4-7.9-7.9-11.9c-10.2-16.1-19.1-33.1-26.5-50.6c1,2.4,2,4.8,3,7.2
			c-5.4-12.9-10-26.2-13.8-39.7c-14.7,11.3-29.4,22.6-44.1,33.9c12.5,6.5,24.3,14,35.7,22.3c2.5,1.9,1.7,1.2-2.4-1.9
			c0.8,0.6,1.6,1.3,2.4,1.9c1.2,1,2.4,2,3.6,3c2.8,2.3,5.6,4.7,8.2,7.1c5.2,4.7,10.2,9.6,15,14.7c4.8,5.1,9.3,10.5,13.8,15.9
			c3.6,4.4-4-5.4-0.9-1.1c1.2,1.7,2.5,3.3,3.7,5c2,2.7,3.9,5.5,5.7,8.3c7.9,11.9,14.7,24.5,20.4,37.6c13.7-13.7,27.4-27.4,41-41
			c-4.8-2.6-9.5-5.3-14-8.3c-2.1-1.4-4.1-2.8-6.1-4.2c-1-0.7-2-1.5-3-2.2c-2.9-2.1,5.8,4.6,2,1.5c-8.3-6.7-16-13.9-23.1-21.9
			c-1.6-1.8-3.3-3.7-4.8-5.6c-0.8-1-1.6-1.9-2.3-2.9c-3.6-4.4,4.4,6,1.1,1.4c-3-4.2-6-8.4-8.8-12.8c-5.7-9-10.6-18.5-14.8-28.3
			c1,2.4,2,4.8,3,7.2c-6.7-16-11.4-32.7-13.7-49.9c0.4,2.7,0.7,5.3,1.1,8c-1.4-11.3-1.9-22.7-1.3-34c-18.6,5-37.3,10.1-55.9,15.1
			c12.1,26.3,33.1,48.4,57.7,63.5c13.4,8.2,33.6,3.4,41-10.8c7.7-14.6,3.6-32.3-10.8-41c-2.5-1.5-4.9-3.1-7.3-4.8
			c-1.1-0.8-2.1-1.6-3.2-2.4c7.2,4.7,2.9,2.2,1.1,0.7c-4.3-3.6-8.2-7.5-12-11.7c-0.9-1-1.8-2-2.6-3c-0.8-0.9-3.8-4.8-0.6-0.7
			c3.2,4.1,0.2,0.2-0.5-0.8c-0.9-1.3-1.8-2.6-2.7-4c-3.2-4.9-5.9-10-8.4-15.4c-5.3-11.5-22.2-17.6-33.9-13.8
			c-13.1,4.2-21.3,15.2-22,28.9c-3.5,63.5,23.9,128.3,70.1,171.6c13.3,12.5,28.4,23.6,44.5,32.3c11.3,6.1,27.2,5.3,36.4-4.7
			c3.5-3.8,6.1-8.3,7.7-13.2c2.6-8.1,0.2-15.8-3-23.1c-25-57.2-71.4-105.9-126.9-134.5c-10.9-5.6-23.4-5.3-33.3,2.3
			c-9.4,7.3-14,19.9-10.8,31.5c15.8,55.9,44.7,107.3,83.8,150.3c8.6,9.4,25.6,11.6,36.4,4.7c11.7-7.5,16.7-20.4,13.8-33.9
			c-8.5-39.7-26.9-75.7-51.7-107.5c-6.3-8.1-19.9-10.3-29.2-7.7c-9.1,2.5-19.5,11-21,21c-2.9,20.1-8.3,39.7-16.1,58.4
			c1-2.4,2-4.8,3-7.2c-3.6,8.5-7.7,16.8-12.3,24.8c-1,1.8-2.1,3.6-3.2,5.4c-3.9,6.2,4.1-3.9,0.5-0.5c-0.7,0.7-1.3,1.4-2,2.1
			c-2.3,2-1.4,1.4,2.8-1.9c-1.6,0.8-3,1.9-4.7,2.7c2.4-1,4.8-2,7.2-3c-1.2,0.5-2.3,0.8-3.5,1.1c2.7-0.4,5.3-0.7,8-1.1
			c-1.2,0.1-2.2,0.1-3.4,0c2.7,0.4,5.3,0.7,8,1.1c-0.8-0.1-1.5-0.4-2.2-0.7c2.4,1,4.8,2,7.2,3c-2.5-1.4-1.5-0.6,3.1,2.5
			c3,4.4,3.8,5.2,2.5,2.6c1,2.4,2,4.8,3,7.2c-0.6-1.8-1-3.6-1.3-5.6c0.4,2.7,0.7,5.3,1.1,8c-1.8-18.5-0.8-37.4,1.6-55.7
			c-0.4,2.7-0.7,5.3-1.1,8c3.4-24.8,10.1-48.9,19.7-71.9c-1,2.4-2,4.8-3,7.2c8.5-19.9,19-38.8,31.8-56.2c0.8-1,1.5-2.1,2.3-3.1
			c3-4-3.6,4.6-1.4,1.7c1.6-2,3.2-4.1,4.9-6.1c3.5-4.2,7.1-8.3,10.8-12.3c7.5-8,15.4-15.4,23.8-22.4c-16.7-4.4-33.4-8.8-50.1-13.2
			c6.6,19.7,12.5,39.9,20,59.3c4.8,12.6,12,24.2,24.1,30.9c16.8,9.3,37.5,4.5,49.1-10.4c7.8-10.1,9.8-22.4,9.4-34.9
			c-0.4-10.6-0.8-21.2-1.2-31.8c-0.8-21.2-1.6-42.3-2.3-63.5c-0.6-15.7-13.4-30.7-30-30c-16.4,0.7-29.9,13.2-30,30
			c-0.6,85-1.3,170.1-1.9,255.1c-0.1,15.7,13.9,30.7,30,30c17.3-0.8,28.7-13.2,30-30c4.5-58.7,0.4-117.7-10.8-175.5
			c-1.3-6.8-7.8-14.8-13.8-17.9c-6.1-3.2-12.3-4.5-19.1-3.6c-14.7,2-25.8,14.4-26,29.5c-1,80.7-2.1,161.4-3.1,242.1c20,0,40,0,60,0
			c-3.7-69.5-7.4-138.9-11.2-208.4c-1.1-19.6-2.1-39.2-3.2-58.8c-0.8-15.6-13.2-30.8-30-30c-17.1,0.8-28.9,13.2-30,30
			c-4.1,63.3-8.2,126.6-12.4,189.8c20,0,40,0,60,0c-5.2-52.2-10.5-104.5-15.7-156.7c-0.8-8.2-2.8-15.2-8.8-21.2
			c-5.2-5.2-13.7-9.1-21.2-8.8c-16.3,0.7-30,13.2-30,30c-0.1,62-0.2,124-0.2,186c0,15.7,13.8,30.7,30,30c16.6-0.7,29.6-13.2,30-30
			c1.9-74.6,0.6-149.2-3.8-223.6c-0.9-15.6-13.1-30.8-30-30c-16.8,0.8-29.3,13.2-30,30c-2.3,58-4.6,115.9-7,173.9c20,0,40,0,60,0
			c-2.8-49.2-5.7-98.4-8.5-147.6c-0.9-15.6-13.2-30.8-30-30c-16.1,0.7-30.1,13.2-30,30c0.6,67.9,1.2,135.8,1.8,203.7c20,0,40,0,60,0
			c-7.1-66.4-14.3-132.8-21.4-199.1c-0.8-7.8-2.7-15.6-8.8-21.2c-5-4.5-10.5-7.4-17.2-8.3c-13.6-1.8-30.2,6.8-32.9,21.5
			c-8.8,48.6-13,98.1-11.4,147.5c18.6-5,37.3-10.1,55.9-15.1c-11.5-15.5-22.9-30.9-34.4-46.4c-4-5.4-8-9.6-14.3-12.3
			c-6-2.5-13.2-3.6-19.5-1.5c-12.6,4.1-22.1,15.3-22,28.9c0.1,67.3,0.3,134.7,0.4,202c20,0,40,0,60,0c-2-68.7-3.9-137.4-5.9-206.1
			c-0.4-15.7-13.5-30.7-30-30c-15.9,0.7-30.5,13.2-30,30c1.1,39.9,2.2,79.7,3.2,119.6c0.4,15.7,13.5,30.7,30,30
			c16.6-0.7,29.6-13.2,30-30c1.3-57.8-1.2-115.6-7.6-173.1c-0.9-8.2-2.7-15.2-8.8-21.2c-5.2-5.2-13.7-9.1-21.2-8.8
			c-15.8,0.7-30.6,13.2-30,30c1.5,41.9,3,83.8,4.6,125.7c20,0,40,0,60,0c-6.1-54.3-18.2-107.4-37.8-158.4
			c-5.4-14.1-17.2-23.6-32.9-21.5c-6.3,0.8-12.8,3.4-17.2,8.3c-5.7,6.2-7.8,12.9-8.8,21.2c-6.5,56.2-9.1,112.9-7.8,169.4
			c19.6-2.7,39.3-5.3,58.9-8c-9-33-20.9-65-34.7-96.2c-1.8-4.2-6.9-8.5-10.8-10.8c-5.8-3.4-12.5-4.4-19.1-3.6
			c-12.1,1.6-21.2,10-24.9,21.5c-17.2,53.2-19.8,110-9.7,164.9c2.3,12.3,16.7,22.6,28.9,22c12.7-0.6,26.1-8.8,28.9-22
			c11-50.6,16.2-102.7,14.9-154.5c-18.6,5-37.3,10.1-55.9,15.1c13.8,31.4,27.6,62.7,41.4,94.1c2.5,5.7,8.9,10,14.3,12.3
			c6,2.5,13.2,3.6,19.5,1.5c12.6-4.1,22.1-15.3,22-28.9c-0.1-41.3-0.3-82.6-0.4-123.8c-20,0-40,0-60,0c1.2,58.6,2.4,117.2,3.6,175.8
			c20,0,40,0,60,0c-3.9-60.8-9.2-122.7-35.8-178.4c-7.7-16.2-17.7-30.8-29.1-44.7c-12.2-15-38.5-9.5-47.1,6.1
			c-33.5,60.3-50.2,130.1-46.3,199.1c0.7,12.8,8.8,25.9,22,28.9c12.8,2.9,27.2-1.9,33.9-13.8c13.4-23.9,20.1-52.3,16.7-79.7
			c-15,8.6-30.1,17.3-45.1,25.9c7.8,3.6,15.6,7.2,23.4,10.7c9,4.1,17.3,5.5,26.7,1.5c7.8-3.3,16-10.5,17.4-19.4
			c5.9-37.7,5.5-74.6-1.5-112.1c-1.3-6.7-7.8-14.8-13.8-17.9c-6.1-3.2-12.3-4.5-19.1-3.6c-13.8,1.9-27.1,14.5-26,29.5
			c1.4,20.5,0.8,41-1.9,61.3c0.4-2.7,0.7-5.3,1.1-8c-0.2,1.3-0.4,2.5-0.5,3.8c19.3,0,38.6,0,57.9,0c-2.6-17-9.2-33.8-18.4-48.3
			c-6.5-10.3-17.7-16-29.9-14.3c-11.2,1.5-22.4,9.9-24.9,21.5c-4.4,20.3-4.3,40.9,1.2,61.1c3.9,14.4,18.4,23.4,32.9,21.5
			c15.5-2.1,24.7-14.4,26-29.5c1.7-20.2-1-41.4-7.6-60.6c-3.5-10.1-10.4-18-21-21c-10-2.8-22,0-29.2,7.7
			c-28.1,30.3-44.3,70.3-44.2,111.8c20,0,40,0,60,0c-2.4-20.2-7.2-38.3-15.7-56.8c-7.3-15.9-17.8-30.5-29.7-43.3
			c-15.2-16.3-44.9-8.4-50.1,13.2c-8.6,35.2-12.2,72-9.8,108.2c1,15.6,13.1,30.8,30,30c16.8-0.8,29.3-13.2,30-30
			c1.9-45.9,0.5-91.8-4.3-137.5c-0.8-7.8-2.7-15.6-8.8-21.2c-5-4.5-10.5-7.4-17.2-8.3c-14.2-1.9-29.5,6.9-32.9,21.5
			c-6.6,28.3-13.2,56.6-19.7,84.8c-3.4,14.5-6.7,28.9-10.1,43.4c-3.6,15.7-6,31.7,0.4,47c8.5,20.1,27.2,28.8,48.2,29.7
			c14.2,0.6,28.5,0.3,42.7,0.4c29.6,0.2,59.2,0.3,88.8,0.4c58.5,0,117.1-0.4,175.6-1.1c29.3-0.4,58.5-0.9,87.8-1.5
			c14.1-0.3,28.4,0,42.5-1c9.4-0.7,18.4-2.2,26.6-7c10.4-6.1,18.3-16.6,21-28.4c3.8-16.3,1.9-34.3,1.4-50.9
			c-0.5-16-1.4-32.1-2.7-48.1c-2.8-34.7-7.3-69.2-13.2-103.5c-1.2-6.7-7.9-14.8-13.8-17.9c-6.1-3.2-12.3-4.5-19.1-3.6
			c-14.2,1.9-26.5,14.5-26,29.5c0.5,14.9,1,29.7,1.4,44.6c19.6-2.7,39.3-5.3,58.9-8c-8.6-21-17.1-42-25.7-63.1
			c-2.9-7.2-6.5-14.1-13.8-17.9c-6.1-3.2-12.3-4.5-19.1-3.6c-15,2-25.4,14.4-26,29.5c-1.8,46.7-3.7,93.4-5.5,140.2c20,0,40,0,60,0
			c-2.6-42.4-5.2-84.7-7.7-127.1c-1-15.6-13.1-30.8-30-30c-7.8,0.3-15.8,2.9-21.2,8.8c-5.8,6.3-7.7,12.8-8.8,21.2
			c-4.8,37.5-2.3,75.6,6.1,112.4c3.3,14.6,18.9,23.4,32.9,21.5c15.5-2.1,24.8-14.4,26-29.5c6.2-76.1-1.5-153.6-21.9-227.2
			c-19.3,5.3-38.6,10.6-57.9,16c4.6,15.2,7.9,30.7,10.1,46.5c-0.4-2.7-0.7-5.3-1.1-8c7,52,2.4,104.5-0.1,156.6
			c-1.3,26.1-2,52.4-0.6,78.5c0.8,15,2.5,30,4.8,44.9c2.7,17.3,4.7,39,21.3,48.7c22.3,13,47.3-2,55.2-24.1
			c6.9-19.1-3.7-40.7-21.5-49.3c-14.6-7-30.4-7.2-46.2-7.8c-14.3-0.6-28.6-1.1-42.8-1.6c-58.1-1.9-116.3-2.8-174.4-2.8
			c-65.8,0.1-131.6,1.4-197.3,4.1c8.6,5,17.3,9.9,25.9,14.9c-0.8-1.4-1.5-2.8-2.1-4.2c1,2.4,2,4.8,3,7.2c-1.4-3.4-2.3-6.8-2.8-10.4
			c0.4,2.7,0.7,5.3,1.1,8c-0.5-4.7-0.4-9.3,0.2-14c-0.4,2.7-0.7,5.3-1.1,8c1-5.9,2.6-11.6,4.9-17.1c-1,2.4-2,4.8-3,7.2
			c3.8-8.9,8.8-16.9,14.6-24.6c0.7-0.9,1.3-1.8,2-2.6c2.2-3-4,5.1-1.7,2.2c1.5-1.9,3.1-3.9,4.6-5.8c4.1-5.2,8.2-10.5,12.2-15.9
			c7-9.5,12.4-19.3,16.8-30.2c4.7-11.3,6.6-23.2,7.7-35.4c2-21.3-0.8-43.2-2.7-64.4c-2-22.5-4.4-45-7.1-67.4
			c-3.4-27.4-7.3-54.7-11.7-81.9c-1.1-6.7-8-14.8-13.8-17.9c-6.1-3.2-12.3-4.5-19.1-3.6c-13.9,1.9-26.9,14.5-26,29.5
			c2.5,39.7,12.5,77.4,29.8,113.2c4.5,9.3,16,14.9,25.9,14.9c11.2,0,19.7-6,25.9-14.9c13.8-19.8,20.7-46.3,17.6-70.2
			c-1.1-8.3-2.6-15.1-8.8-21.2c-5.2-5.2-13.7-9.1-21.2-8.8c-15.5,0.7-31,13.2-30,30c1.7,29.8,3.4,59.6,5.1,89.4
			c18.6-5,37.3-10.1,55.9-15.1c-33.3-48.3-73.7-89.8-120.7-124.9c-14.5-10.8-41.2,0-44.1,17.9c-8,51-16.3,102.6-36.3,150.5
			c1-2.4,2-4.8,3-7.2c-6,14.1-12.9,27.7-21,40.7c-9.2,14.6-18.3,28.5-24.6,44.7c-12.2,31.3-3.8,73.5,27.3,90.8
			c4.4,2.5,9.5,4.7,14.6,5.8c8,1.8,16.5,1.3,23.7-2.9c3.5-2,6.6-5.1,9.8-7.6c7.8-6.1,15.5-12.2,23.3-18.3c-15.7-2-31.4-4-47.1-6.1
			c12.8,18,25.5,36,38.3,54.1c7.5,10.6,20.5,18.1,33.9,13.8c12.7-4.1,21.8-15.3,22-28.9c0.9-64.9,1.9-129.9,2.8-194.8
			c-20,0-40,0-60,0c1.4,25.1,2.8,50.1,4.2,75.2c1.1,19.4,2.8,38.9,0.4,58.2c0.4-2.7,0.7-5.3,1.1-8c-1.1,7.8-2.8,15.5-5.8,22.8
			c1-2.4,2-4.8,3-7.2c-1.1,2.7-2.4,5.3-3.9,7.7c-0.6,1-1.3,2-2,3.1c-2.7,4.1,5.6-6,1.3-1.8c-1,1-1.9,2-3,3c-2.1,1.9-5.2,2.5,2.3-1.6
			c-2.7,1.5-5.2,3.2-8.1,4.5c2.4-1,4.8-2,7.2-3c-3.5,1.4-7,2.4-10.8,2.9c2.7-0.4,5.3-0.7,8-1.1c-4.2,0.5-8.4,0.5-12.6,0
			c2.7,0.4,5.3,0.7,8,1.1c-7.1-1-13.9-3.1-20.5-5.9c2.4,1,4.8,2,7.2,3c-11-4.8-21.2-11.2-31.1-18c-13-8.9-33.9-2.9-41,10.8
			C332.9,1406.4,337.8,1422.7,351.7,1432.2L351.7,1432.2z"/>
	</g>
</g>
<g>
	<g>
		<path class="st0" d="M1043.1,1450.3c6.1-7.6,9.8-13.4,13.1-22.6c2.3-6.3,3-13.4,3.3-20c0.5-12.1-2.2-24.6-5.4-36.2
			c-6.3-23.1-12.2-46-15.5-69.8c0.4,2.7,0.7,5.3,1.1,8c-3-22.7-4.2-45.7-3.6-68.6c0.4-15.7-14.1-30.7-30-30
			c-16.6,0.7-29.5,13.2-30,30c-0.8,29.8,1.6,59.5,6.5,88.9c2.2,13.5,5.2,26.9,8.7,40.1c3.1,11.6,7,23,8.7,35c-0.4-2.7-0.7-5.3-1.1-8
			c0.6,5,0.8,9.9,0.2,15c0.4-2.7,0.7-5.3,1.1-8c-0.5,3.4-1.3,6.5-2.6,9.6c1-2.4,2-4.8,3-7.2c-1.2,2.6-5.9,8.7,0.1,1.3
			c-5.2,6.4-8.8,12.7-8.8,21.2c0,7.4,3.3,16.1,8.8,21.2C1011.6,1460.3,1032.6,1463.3,1043.1,1450.3L1043.1,1450.3z"/>
	</g>
</g>
<g>
	<g>
		<path class="st0" d="M1000.2,1143c1.9,8,3.4,16.1,4.5,24.3c-0.4-2.7-0.7-5.3-1.1-8c9.4,72-9.9,143.6-9.3,215.6
			c0.2,22.4,2.5,44.8,7.1,66.7c3.3,15.4,22.1,25.7,36.9,21c16.2-5.2,24.5-20.4,21-36.9c-1.4-6.3-2.5-12.7-3.4-19.2
			c0.4,2.7,0.7,5.3,1.1,8c-9.8-73.5,10.5-146.5,9.2-220.1c-0.4-22.6-2.9-45.4-8.1-67.4c-3.6-15.3-21.9-25.8-36.9-21
			C1005.2,1111.3,996.4,1126.6,1000.2,1143L1000.2,1143z"/>
	</g>
</g>
<g>
	<g>
		<path class="st0" d="M831.5,693.4c-40.1,55.5-63.4,121.7-70,189.6c-1.8,18.1-2.1,36.2-1.1,54.3c0.7,12.2,7,22.6,18.4,27.4
			c10.7,4.5,24.5,2.6,32.8-6.2c32.6-34.9,51.6-79.9,54-127.6c-17.1,7.1-34.1,14.1-51.2,21.2c25.2,30.6,50.4,61.2,75.6,91.8
			c4.4,5.4,14.4,9.1,21.2,8.8c6.8-0.3,12.8-2.3,18.2-6.4c10.8-8.3,16.6-26.6,7.7-38.7c-8.4-11.4-15.4-23.8-20.9-36.9
			c1,2.4,2,4.8,3,7.2c-6-14.7-10.2-30-12.4-45.7c0.4,2.7,0.7,5.3,1.1,8c-2-15.7-2.1-31.5-0.1-47.3c-0.4,2.7-0.7,5.3-1.1,8
			c0.5-3.8,1.2-7.5,1.9-11.3c-16.7,4.4-33.4,8.8-50.1,13.2c2.1,2.4,4.1,4.8,6.1,7.3c1.4,1.8,4.1,6.4-0.8-1c0.7,1.1,1.6,2.1,2.4,3.2
			c3.6,4.9,7,10,10.2,15.2c6.4,10.4,12,21.3,16.8,32.5c-1-2.4-2-4.8-3-7.2c8.7,20.6,14.6,42.2,17.6,64.4c-0.4-2.7-0.7-5.3-1.1-8
			c2.6,20.6,2.7,41.4,0.1,62c0.4-2.7,0.7-5.3,1.1-8c-0.4,3.2-0.9,6.3-1.4,9.5c18.3-2.4,36.6-4.8,54.8-7.2c-0.2-0.6-0.5-1.1-0.7-1.7
			c1,2.4,2,4.8,3,7.2c-14.8-35.3-24.8-72.3-30-110.2c0.4,2.7,0.7,5.3,1.1,8c-0.5-3.7-0.9-7.3-1.3-11c-18.6,5-37.3,10.1-55.9,15.1
			c2.7,4.9,5.1,9.8,7.3,14.9c-1-2.4-2-4.8-3-7.2c5.6,13.5,9.4,27.5,11.4,42c-0.4-2.7-0.7-5.3-1.1-8c2.6,19.5,2,39.1-0.6,58.5
			c0.4-2.7,0.7-5.3,1.1-8c-5.3,37.6-17.7,73.7-32.4,108.5c1-2.4,2-4.8,3-7.2c-12.6,29.9-27,58.9-40.9,88.2
			c-15.1,31.6-30.2,63.3-45.3,94.9c-8.6,17.9-17.1,35.8-25.7,53.7c18.3,2.4,36.6,4.8,54.8,7.2c-15.3-54.7-26.8-110.4-34.4-166.7
			c0.4,2.7,0.7,5.3,1.1,8c-9.4-70.2-12.7-141.2-9.9-212c-18.6,5-37.3,10.1-55.9,15.1c1,2.3,2,4.6,3,6.9c-1-2.4-2-4.8-3-7.2
			c27.5,65.4,49.1,133.3,64.3,202.6c19.3-5.3,38.6-10.6,57.9-16c-11.4-47.5-22.7-95.1-34.1-142.6c-3.5-14.5-18.7-23.4-32.9-21.5
			c-14.4,1.9-26.3,14.4-26,29.5c1.6,87.8,6.4,175.6,14.5,263.1c2.3,25,4.9,50,7.7,74.9c0.9,8.2,2.7,15.2,8.8,21.2
			c5.2,5.2,13.7,9.1,21.2,8.8c16.4-0.7,29.8-13.2,30-30c1-102,2.1-204,3.1-306c0.1-14.3,0.3-28.6,0.4-42.9
			c0.1-13.4-0.8-27.3,0.8-40.6c-0.4,2.7-0.7,5.3-1.1,8c0.3-1.8,0.7-3.4,1.2-5.1c-1,2.4-2,4.8-3,7.2c0.6-1.4,2.7-4.4-0.5-0.2
			c-0.9,1.5-2.1,2.7-3.7,3.6c-2.5,1.7-2.8,2-0.7,0.8c-2.4,1-4.8,2-7.2,3c1.5-0.6,2.8-0.9,4.4-1.2c-2.7,0.4-5.3,0.7-8,1.1
			c12.2-1.1,24.4-0.8,36.1-5.1c13.7-5.1,24.9-12,36.3-21c16.7-13.3,30.1-30.3,43.3-46.9c30.7-38.6,60.3-79.1,75.7-126.6
			c4.3-13.4,6.8-27.1,8.4-41.1c1.7-14.8,0.5-29.1-1.6-43.8c-19.3,5.3-38.6,10.6-57.9,16c0.6,3.9,1.1,7.7,1.7,11.6
			c-0.4-2.7-0.7-5.3-1.1-8c8.1,60.2,8.4,121.2,0.9,181.4c17.1-7.1,34.1-14.1,51.2-21.2c-6.1-5.4-12-11-17.5-17
			c-2.9-3.2-5.8-6.5-8.5-9.8c-1.5-1.8-5.4-8.2-0.3-0.3c-1-1.6-2.3-3.1-3.4-4.6c-9.7-13.5-17.7-28-24.2-43.3c1,2.4,2,4.8,3,7.2
			c-8-19.4-11-41-21-59.5c-7.3-13.6-19.2-23.2-33.5-28.6c-11.7-4.4-24.8-4.3-37.2-4.4c-49.6-0.3-99.2-0.5-148.7-0.8
			c-24.6-0.1-49.2-0.2-73.9-0.4c-24.2-0.1-49.1-1.1-72.8,4.9c-48,12.2-76.5,57.1-101.2,96.6c-27.6,44.1-49.7,91.8-66.4,141
			c14.7-6,29.4-12,44.1-17.9c-7.2-4.3-14.3-8.9-21.2-13.8c-1.7-1.2-3.4-2.5-5.1-3.7c-1.8-1.3-7.5-6.5-0.2-0.1
			c-2.8-2.4-5.8-4.6-8.6-7c-12.5-10.5-24.1-22-34.8-34.3c-2.8-3.2-5.5-6.4-8.1-9.7c-0.7-0.8-5-6.4-1.6-1.9c3.5,4.5-0.8-1.2-1.5-2
			c-5-6.8-9.7-13.8-14.2-20.9c-8.6-13.9-16.1-28.4-22.4-43.5c-2.4-5.7-9-10-14.3-12.3c-6-2.5-13.2-3.6-19.5-1.5
			c-13.4,4.3-20.8,15.2-22,28.9c-6.3,71.2-2.2,143,11,213.2c3.6,19.4,8.1,38.6,13.2,57.6c3.9,14.5,18.4,23.4,32.9,21.5
			c14.8-2,25.7-14.4,26-29.5c1.5-67.9,3-135.9,4.6-203.8c-18.6,5-37.3,10.1-55.9,15.1c0.7,1.6,1.5,3.2,2.2,4.9c-1-2.4-2-4.8-3-7.2
			c6.9,16.4,11.6,33.6,14.1,51.2c-0.4-2.7-0.7-5.3-1.1-8c2.3,17.7,2.4,35.5,0.1,53.1c0.4-2.7,0.7-5.3,1.1-8
			c-0.7,5.3-1.6,10.5-2.7,15.7c19.6,2.7,39.3,5.3,58.9,8c8.8-70.7,17.5-141.3,26.3-212c2.5-20.1,5-40.1,7.5-60.2
			c-19.6,2.7-39.3,5.3-58.9,8c18.7,47.5,32.6,96.7,41.3,147c0.8,4.6,4.5,10,7.7,13.2c4.7,4.7,10.7,7.4,17.2,8.3
			c11,1.5,24.8-3.6,29.9-14.3c8.1-16.9,17.1-33.4,27.1-49.3c4.8-7.7,9.9-15.2,15.1-22.6c2.8-3.9,5.7-7.8,8.6-11.7
			c0.7-1,1.5-1.9,2.2-2.9c-2.8,3.7-3.3,4.3-1.4,1.8c1.5-1.9,3-3.8,4.5-5.7c-16.7-4.4-33.4-8.8-50.1-13.2c2.6,8,5.2,15.9,7.8,23.9
			c4.9,14.9,21,26.1,36.9,21c16.5-5.4,24-20.3,21-36.9c-8.3-44.9-36.1-84.1-73.3-109.8c-5,18.6-10.1,37.3-15.1,55.9
			c80.2-3.4,160.4-4.4,240.6-2.8c20.1,0.4,40.3,1,60.3,3.7c-2.7-0.4-5.3-0.7-8-1.1c16.5,2.3,32.7,6.1,48.1,12.4c-2.4-1-4.8-2-7.2-3
			c6.9,2.9,13.7,6.3,20,10.4c1.2,0.8,2.5,1.6,3.7,2.5c0.8,0.6,1.6,1.2,2.4,1.8c-1.2-1-2.5-1.9-3.7-2.9c2.8,1.4,5.5,4.7,7.8,6.9
			c2.3,2.2,4.5,4.6,6.6,7c1.1,1.3,2.2,2.7,3.3,4c-6-6.8-2.5-3.2-1.2-1.3c3.9,5.6,7.2,11.5,9.9,17.8c-1-2.4-2-4.8-3-7.2
			c2.7,6.6,4.7,13.4,5.7,20.5c-0.4-2.7-0.7-5.3-1.1-8c0.8,6.1,0.8,12.2,0.1,18.3c0.4-2.7,0.7-5.3,1.1-8c-0.8,5.8-2.3,11.3-4.5,16.7
			c1-2.4,2-4.8,3-7.2c-2.1,4.9-4.7,9.4-7.7,13.8c-2.7,4,4-4.8,1.6-2.1c-0.8,0.9-1.5,1.8-2.3,2.7c-1.8,2-3.6,3.9-5.6,5.7
			c-0.9,0.8-1.8,1.6-2.7,2.4c-0.9,0.8-4.6,3.7-0.4,0.4c4.2-3.3,0.5-0.5-0.5,0.2c-1.2,0.8-2.4,1.6-3.7,2.4c-4.6,2.9-9.4,5.3-14.3,7.4
			c2.4-1,4.8-2,7.2-3c-8.4,3.4-17.2,5.7-26.2,7c2.7-0.4,5.3-0.7,8-1.1c-13.5,1.8-27,1.4-40.4-0.4c2.7,0.4,5.3,0.7,8,1.1
			c-24.8-3.5-48.9-11.2-71.9-20.9c2.4,1,4.8,2,7.2,3c-15.9-6.7-31.3-14.6-46-23.6c-7.4-4.5-14.6-9.2-21.6-14.3c-1.4-1-2.8-2-4.2-3
			c-1.7-1.2-7.9-6.6-0.8-0.5c-3.5-3-7.2-5.7-10.7-8.7c-4.4,16.7-8.8,33.4-13.2,50.1c14.4-2.7,28.7-5.4,43.2-7.4
			c-2.7,0.4-5.3,0.7-8,1.1c21.3-2.8,42.7-4,64-1.3c-2.7-0.4-5.3-0.7-8-1.1c12,1.7,23.6,4.5,34.8,9.1c-2.4-1-4.8-2-7.2-3
			c6.2,2.7,12.2,5.8,18,9.5c2.4,1.6,4.7,3.4,7.1,5c-8.1-5.2-2.4-1.8-0.4-0.2c1.1,0.9,2.2,1.9,3.2,2.9c2.3,2.1,4.5,4.3,6.5,6.6
			c1.1,1.2,2.2,2.5,3.2,3.8c3.6,4.2-4.3-6.1-1.2-1.6c3.7,5.4,7,10.9,9.6,16.9c-1-2.4-2-4.8-3-7.2c2.5,6,4.2,12.2,5.2,18.6
			c-0.4-2.7-0.7-5.3-1.1-8c0.4,3.3,0.7,6.5,0.7,9.8c0.2,15.7,13.7,30.7,30,30c7.8-0.3,15.8-2.9,21.2-8.8c5.7-6.2,7.9-12.9,8.8-21.2
			c4.2-41.5,3.7-83.4-1.5-124.8c-1-7.9-2.6-15.5-8.8-21.2c-5-4.5-10.5-7.4-17.2-8.3c-14.2-1.9-29.5,6.9-32.9,21.5
			c-5.8,24.4-5.6,49.9,1.4,74.1c4.1,14.4,18.2,23.5,32.9,21.5c15.2-2,25.2-14.4,26-29.5c1.4-26-0.4-51.6-4-77.3
			c-1.4-10-11.9-18.5-21-21c-10.1-2.8-21.9,0-29.2,7.7c-41.1,43-70.4,97.6-82.4,155.9c16.7-4.4,33.4-8.8,50.1-13.2
			c-4.7-4.2-9.2-8.5-13.5-13c-2.3-2.5-4.6-5-6.8-7.6c-0.9-1.1-1.8-2.2-2.7-3.3c-4.2-5.2,2.3,3.1,0.5,0.7
			c-7.6-10.3-14.4-21.1-20.1-32.6c-6.6-13.4-24.6-17.7-37.5-12.3c-5.8,2.4-11.3,6.6-14.3,12.3c-4,7.6-4.4,14.7-3,23.1
			c1.8,11.1,3.6,22.3,5.4,33.4c1.1,6.7,8,14.9,13.8,17.9c6.1,3.2,12.3,4.5,19.1,3.6c6.3-0.8,12.8-3.4,17.2-8.3
			c5-5.4,9.8-13.6,8.8-21.2c-1.7-12.6-1.7-25.2-0.1-37.7c-0.4,2.7-0.7,5.3-1.1,8c1.7-12.5,5-24.7,9.7-36.4c-1,2.4-2,4.8-3,7.2
			c2.6-6.2,5.6-12.4,9.2-18.2c0.7-1.1,1.4-2.9,2.5-3.7c-1,1.2-1.9,2.5-2.9,3.7c0.6-0.8,1.3-1.5,2-2.2c0.9-0.9,4.4-3.8,0.2-0.5
			c-4.4,3.4,0.5,0.1,1.7-0.5c-2.4,1-4.8,2-7.2,3c1.3-0.5,2.5-0.8,3.9-1.1c-2.7,0.4-5.3,0.7-8,1.1c1.4-0.1,2.7-0.1,4.1,0
			c-2.7-0.4-5.3-0.7-8-1.1c1.6,0.3,2.9,0.7,4.3,1.3c-2.4-1-4.8-2-7.2-3c0.9,0.4,1.8,0.9,2.6,1.5c-4-3.2-4.8-3.8-2.4-1.8
			c1.3,1.3,2.6,2.5,3.9,3.9c3.4,3.6,6.7,7.2,10.1,10.7c6.4,6.8,12.7,13.6,19.1,20.3c13.2,14,26.3,28.1,39.5,42.1
			c7.3,7.7,19.1,10.5,29.2,7.7c9.3-2.6,19.3-10.9,21-21c4.5-26.9,4.4-53.1-1.3-79.9c-9.6,12.7-19.3,25.3-28.9,38
			c26.3,0.2,44.4-17.7,56.9-39c4.4-7.4,8.3-15.1,13.1-22.2c0.6-0.8,1.2-1.6,1.7-2.5c2.8-4.1-5.1,6-1.8,2.3c1.3-1.4,2.5-2.9,3.9-4.3
			c0.9-0.9,1.8-1.6,2.7-2.4c2.6-2.4-6.1,4.2-2,1.7c2.4-1.5,4.9-2.9,7.5-4.1c-2.4,1-4.8,2-7.2,3c5.4-2.3,10.9-3.7,16.6-4.5
			c-2.7,0.4-5.3,0.7-8,1.1c13.6-1.8,27.2-0.7,40.7,1.1c-2.7-0.4-5.3-0.7-8-1.1c10.2,1.4,19.9,3.6,29.4,7.6c-2.4-1-4.8-2-7.2-3
			c2.6,1.1,5.1,2.3,7.6,3.7c1.3,0.7,2.5,1.5,3.8,2.3c2.2,1.4,4.7,4.5-2.1-1.8c1.7,1.6,3.4,3.1,5,4.7c3.3,3.4-4.2-6.4-2.1-2.6
			c0.7,1.2,1.4,2.4,2,3.7c-1-2.4-2-4.8-3-7.2c0.6,1.6,1.1,3.3,1.4,5c-0.4-2.7-0.7-5.3-1.1-8c0.3,2.2,0.3,4.3,0,6.5
			c0.4-2.7,0.7-5.3,1.1-8c-0.3,1.9-0.8,3.7-1.5,5.5c1-2.4,2-4.8,3-7.2c-1.2,2.8-2.8,5.2-4.4,7.7c5.3-8.2,3.2-4.1,1.4-2
			c-0.9,1-1.9,2-2.8,3c-4.1,4.2-8.4,8.1-12.3,12.5c-6.3,7.1-12,14.8-14.7,24.1c-3.4,12.1-1.1,22.9,3.9,34.1
			c2.9,6.4,11.4,12,17.9,13.8c7.2,2,16.7,1.1,23.1-3c6.4-4.1,12-10.3,13.8-17.9c1.9-8.3,0.5-15.4-3-23.1c-0.1-0.3-0.3-0.6-0.4-1
			c1,2.4,2,4.8,3,7.2c-0.5-1.2-0.8-2.4-1-3.8c0.4,2.7,0.7,5.3,1.1,8c-0.1-1.2-0.1-2.4,0-3.6c-0.4,2.7-0.7,5.3-1.1,8
			c0.2-1.5,0.7-2.9,1.2-4.3c-1,2.4-2,4.8-3,7.2c0.8-1.8,1.9-3.4,2.9-5c-5.4,8.8-2.7,3.5-0.6,1.1c3.2-3.4,6.6-6.6,9.9-9.9
			c9-9.1,16.9-19.3,20.7-31.8c8.8-29.3-11.2-56.6-36.9-68.5c-23-10.7-48.9-15-74.3-14.8c-15.8,0.1-30.8,3-45.2,9.6
			c-13.1,6-22.7,16-31.1,27.3c-6,8.2-10.6,17.4-15.8,26.1c-1.4,2.4-2.8,4.7-4.4,7c-0.4,0.6-0.9,1.2-1.3,1.9
			c-2.7,3.9,5.7-6.7,1.3-1.8c-1.4,1.6-3,2.9-4.5,4.4c6.4-6.2,5.2-3.8,2.8-2.3c-1.1,0.7-2.3,1.3-3.5,1.8c2.4-1,4.8-2,7.2-3
			c-1.9,0.8-3.9,1.3-5.9,1.6c2.7-0.4,5.3-0.7,8-1.1c-1.5,0.2-2.9,0.3-4.4,0.2c-9.5-0.1-17.9,4.5-23.6,11.8
			c-6.1,7.8-7.4,16.5-5.4,26.2c0.9,4.3,1.7,8.7,2.3,13c-0.4-2.7-0.7-5.3-1.1-8c1.9,15.1,1.9,30.2-0.1,45.3c0.4-2.7,0.7-5.3,1.1-8
			c-0.3,1.9-0.6,3.7-0.9,5.6c16.7-4.4,33.4-8.8,50.1-13.2c-12.9-13.8-25.9-27.6-38.8-41.4c-6.6-7-13.2-14-19.8-21.1
			c-7.1-7.6-13.9-15.2-22.4-21.3c-10.8-7.7-26-10.1-38.7-5.9c-13.1,4.3-22.4,13.3-30.3,24.2c-4.5,6.2-7.9,13.2-10.9,20.2
			c-4.1,9.5-7.9,19.1-10.4,29.2c-5,20-6.7,41.2-4,61.7c19.6-2.7,39.3-5.3,58.9-8c-1.8-11.1-3.6-22.3-5.4-33.4
			c-18.3,7.7-36.6,15.4-54.8,23.1c12.7,25.6,30.6,49.1,51.9,68c8.1,7.2,18.4,10.7,29.2,7.7c9.6-2.6,18.9-10.9,21-21
			c3.8-18.5,9.4-36.6,16.6-54c-1,2.4-2,4.8-3,7.2c6.8-16.1,15-31.6,24.5-46.3c2.3-3.5,4.6-6.9,7-10.3c1.3-1.8,2.6-3.6,3.9-5.4
			c0.7-0.9,1.3-1.8,2-2.7c-3,3.9-3.5,4.6-1.6,2.1c5.6-6.9,11.4-13.6,17.5-20.1c-16.7-4.4-33.4-8.8-50.1-13.2
			c0.2,1.3,0.4,2.6,0.5,3.8c-0.4-2.7-0.7-5.3-1.1-8c2.8,21.7,3.6,43.6,2.4,65.5c19.6-2.7,39.3-5.3,58.9-8
			c-1.5-5.3-2.7-10.7-3.5-16.2c0.4,2.7,0.7,5.3,1.1,8c-1.4-10.4-1.3-20.8,0-31.1c-0.4,2.7-0.7,5.3-1.1,8c0.5-3.6,1.2-7.2,2.1-10.8
			c-19.6-2.7-39.3-5.3-58.9-8c5.2,41.4,5.7,83.3,1.5,124.8c20,0,40,0,60,0c-0.5-39.9-23.7-73.2-55.4-95.5
			c-32.7-22.9-74.4-29.1-113.4-26.5c-24.8,1.6-49.5,6.1-73.9,10.8c-21.3,4-29.9,36.1-13.2,50.1c45,37.8,98.6,67,156.2,80
			c30.9,7,65,9.4,95.4-1.2c27.2-9.5,52.6-27.4,66.6-53.1c13.9-25.6,16-56.7,5.3-83.8c-10.9-27.6-30-50.6-55.1-66.5
			c-26.1-16.6-56.9-23.2-87.2-26.8c-28.4-3.3-57.3-3.2-85.8-3.5c-70-0.8-140,0.3-209.9,3.2c-12.7,0.5-25.9,8.9-28.9,22
			c-3.1,13.7,2.4,26,13.8,33.9c1.5,1,2.9,2.1,4.4,3.1c2.5,1.8-6.2-5-1.2-0.9c2.6,2.1,5.1,4.3,7.5,6.6c4.7,4.4,9,9.1,13.1,14.1
			c4.1,5-2.7-3.7-0.9-1.2c1,1.5,2.1,2.9,3.1,4.4c1.7,2.5,3.4,5.1,5,7.8c3.4,5.7,6.4,11.7,9,17.8c-1-2.4-2-4.8-3-7.2
			c3.9,9.5,6.9,19.3,8.8,29.4c19.3-5.3,38.6-10.6,57.9-16c-2.6-8-5.2-15.9-7.8-23.9c-3.3-10.1-10.5-18.1-21-21
			c-9.5-2.6-22.7-0.4-29.2,7.7c-25.6,31.7-47.9,65.7-65.6,102.5c18.3,2.4,36.6,4.8,54.8,7.2c-8.7-50.3-22.6-99.5-41.3-147
			c-2.8-7.2-6.6-14.1-13.8-17.9c-6.1-3.2-12.3-4.5-19.1-3.6c-6.3,0.8-12.8,3.4-17.2,8.3c-5.7,6.3-7.7,12.9-8.8,21.2
			c-8.8,70.7-17.5,141.3-26.3,212c-2.5,20.1-5,40.1-7.5,60.2c-0.8,6.8,3.9,16.7,8.8,21.2c5,4.5,10.5,7.4,17.2,8.3
			c13.9,1.9,29.8-6.8,32.9-21.5c5-23.7,7-48.3,4.2-72.4c-3-26.7-9.8-51.2-20.9-75.7c-2.6-5.7-8.9-10-14.3-12.3
			c-6-2.5-13.2-3.6-19.5-1.5c-12.8,4.1-21.7,15.3-22,28.9c-1.5,67.9-3,135.9-4.6,203.8c19.6-2.7,39.3-5.3,58.9-8
			c-8.5-31.3-14.9-63.2-19.3-95.3c0.4,2.7,0.7,5.3,1.1,8c-7.4-55.5-8.8-111.7-3.8-167.5c-18.6,5-37.3,10.1-55.9,15.1
			c27.8,65.8,78,121.9,139.2,158.5c17.4,10.4,38,0.1,44.1-17.9c5-14.7,10.5-29.2,16.5-43.5c-1,2.4-2,4.8-3,7.2
			c13.8-32.7,30.3-64.2,49.3-94.2c4.6-7.3,9.4-14.5,14.3-21.6c2.7-3.8,5.4-7.6,8.1-11.4c1-1.3,2-2.6,2.9-4c1.9-2.5,1.3-1.8-1.7,2.2
			c0.7-0.9,1.4-1.7,2-2.6c5.1-6.4,10.6-12.5,16.8-17.8c0.8-0.7,1.6-1.4,2.5-2.1c-1.2,0.9-2.4,1.8-3.5,2.7c1.6-1.4,3.5-2.6,5.3-3.7
			c3.8-2.4,7.7-4.4,11.8-6.2c-2.4,1-4.8,2-7.2,3c7.6-3,15.4-4.9,23.5-6.1c-2.7,0.4-5.3,0.7-8,1.1c17.8-2.4,35.9-1.6,53.9-1.5
			c19.6,0.1,39.3,0.2,58.9,0.3c39.6,0.2,79.2,0.4,118.8,0.6c11,0.1,22,0.1,32.9,0.2c10.2,0.1,20.6-0.5,30.8,0.9
			c-2.7-0.4-5.3-0.7-8-1.1c3.2,0.5,6.3,1.3,9.4,2.5c-2.4-1-4.8-2-7.2-3c0.9,0.4,4.8,3.2,5.5,3c-0.7,0.2-5.5-5.1-2.9-2.1
			c0.7,0.8,1.5,1.7,2.3,2.5c2.2,2.2-3.8-5.6-2.2-2.8c0.4,0.8,1,1.5,1.4,2.3c1,1.8,1.9,3.7,2.8,5.6c-1-2.4-2-4.8-3-7.2
			c4.6,11.1,6.8,22.9,10.7,34.3c4.9,14.5,11.1,28.7,18.5,42.1c13.6,24.7,31.8,47.4,53,65.9c9.3,8.1,21.1,11.1,32.8,6.2
			c4.9-2.1,8.7-5,12-9.2c4.4-5.7,5.6-11,6.4-18.2c8.3-67,6.4-134.3-3.7-201c-1-6.9-8-14.6-13.8-17.9c-6.4-3.8-15.9-5.4-23.1-3
			c-7.3,2.3-14.3,6.8-17.9,13.8c-4,7.6-4.2,14.6-3,23.1c0.1,0.6,0.2,1.1,0.2,1.7c-0.4-2.7-0.7-5.3-1.1-8c1.6,12.5,1.5,25-0.1,37.4
			c0.4-2.7,0.7-5.3,1.1-8c-2.3,16.2-6.9,31.8-13.2,46.9c1-2.4,2-4.8,3-7.2c-6.8,16-15.3,31.3-24.8,45.9c-4.7,7.2-9.5,14.3-14.6,21.2
			c-2.3,3.2-4.7,6.5-7.1,9.7c-1.4,1.8-2.8,3.6-4.1,5.5c-1.9,2.5-1.4,1.8,1.6-2c-0.7,0.9-1.4,1.8-2.1,2.7
			c-9.9,12.7-19.9,25.5-31,37.3c-5.3,5.7-10.9,11-16.9,16c-4,3.3,6.4-4.6,0-0.1c-1.6,1.1-3.3,2.2-5,3.3c-3.4,2-6.9,3.8-10.5,5.4
			c2.4-1,4.8-2,7.2-3c-5,2-10.1,3.5-15.5,4.3c2.7-0.4,5.3-0.7,8-1.1c-7.8,1-15.5,0.3-23.4,1.8c-11.5,2.3-21.6,9.8-27.4,19.9
			c-8.2,14.2-6.6,31.8-6.7,47.6c-0.3,29.6-0.6,59.1-0.9,88.7c-0.6,58.5-1.2,116.9-1.8,175.4c-0.3,33.2-0.7,66.4-1,99.7
			c20,0,40,0,60,0c-9.9-87.3-16.7-174.9-20.1-262.7c-1-25.1-1.7-50.2-2.1-75.3c-19.6,2.7-39.3,5.3-58.9,8
			c11.4,47.5,22.7,95.1,34.1,142.6c3.6,15.3,21.9,25.8,36.9,21c16.1-5.2,24.6-20.5,21-36.9c-16.4-74.5-40.3-146.7-70.3-216.7
			c-2.4-5.7-9-10-14.3-12.3c-6-2.5-13.2-3.6-19.5-1.5c-13,4.2-21.5,15.2-22,28.9c-4.1,102.1,4.7,204.8,25.5,304.8
			c5.7,27.5,12.4,54.8,19.9,81.8c3.2,11.5,13.2,19.9,24.9,21.5c11,1.5,24.8-3.6,29.9-14.3c30.9-64.8,62.1-129.5,92.8-194.4
			c28.1-59.3,54.5-121.8,57.6-188.2c1.8-37.6-6.1-75.3-24.3-108.4c-6.1-11.2-21.6-17.8-33.9-13.8c-4.9,1.6-9.4,4.2-13.2,7.7
			c-5,4.6-9.5,14.4-8.8,21.2c2.6,23.8,6.5,47.4,12.5,70.6c6,23.2,14.3,45.4,23.6,67.4c1.8,4.2,7,8.5,10.8,10.8
			c5.8,3.4,12.5,4.4,19.1,3.6c10.8-1.4,23-9.9,24.9-21.5c10.8-63.1,0.1-128.1-31.6-183.9c-9-15.8-19.9-30.6-31.8-44.4
			c-14.3-16.5-45.9-8.3-50.1,13.2c-11.2,56.5,0.1,117.5,34.5,164.2c15.7-12.1,31.4-24.2,47.1-36.4c-25.2-30.6-50.4-61.2-75.6-91.8
			c-3-3.6-8.8-6.5-13.2-7.7c-6.5-1.8-13.4-1.1-19.5,1.5c-11.3,4.8-17.8,15.2-18.4,27.4c-0.3,4.9-0.7,9.8-1.4,14.7
			c0.4-2.7,0.7-5.3,1.1-8c-2.1,14.7-6.1,28.9-11.8,42.5c1-2.4,2-4.8,3-7.2c-3.8,8.8-8.2,17.3-13.4,25.3c-1.2,1.8-2.4,3.7-3.7,5.4
			c-0.8,1.1-1.6,2.2-2.4,3.3c-2.4,3.3,1.3-1.4,1.7-2.2c-2,4.1-6.6,7.9-9.6,11.2c17.1,7.1,34.1,14.1,51.2,21.2
			c-1.2-22.1-0.4-44.2,2.5-66.1c-0.4,2.7-0.7,5.3-1.1,8c4.3-32.1,12.9-63.4,25.4-93.2c-1,2.4-2,4.8-3,7.2
			c10.5-24.5,23.5-47.8,39.2-69.4c4.3-6,4.9-16.3,3-23.1c-1.9-7-7.3-14.5-13.8-17.9c-7-3.7-15.4-5.5-23.1-3
			C841.6,682.2,836.3,686.8,831.5,693.4L831.5,693.4z"/>
	</g>
</g>
<g>
	<g>
		<path class="st1" d="M277.4,653.1c-1.6,20-3.3,40-4.9,59.9c-0.2,1.9,2.8,1.9,3,0c1.6-20,3.3-40,4.9-59.9
			C280.5,651.1,277.5,651.2,277.4,653.1L277.4,653.1z"/>
	</g>
</g>
<g>
	<g>
		<path class="st1" d="M389,676.7c-18.9,61.9-43.5,122.1-73.4,179.5c-8.5,16.3-17.4,32.3-26.7,48.2c-1,1.7,1.6,3.2,2.6,1.5
			c32.8-55.8,60.5-114.5,82.6-175.3c6.4-17.5,12.3-35.2,17.7-53.1C392.5,675.7,389.6,674.9,389,676.7L389,676.7z"/>
	</g>
</g>
<g>
	<g>
		<path class="st1" d="M507,713.8c-33.1,54.7-66.3,109.6-92.1,168.3c-12.6,28.8-23.4,58.4-31.2,88.8c-8.3,32.2-13.3,65.1-16.6,98.2
			c-3.8,38.1-5.2,76.4-6.5,114.7c-0.1,1.9,2.9,1.9,3,0c2.4-66.9,4.9-134.5,20.1-200c14.4-62.2,41.1-120.5,71.8-176.2
			c17.2-31.2,35.7-61.8,54.1-92.3C510.6,713.7,508,712.2,507,713.8L507,713.8z"/>
	</g>
</g>
<g>
	<g>
		<path class="st1" d="M704.4,768.8C675.7,855.4,635.6,938,585.1,1014c-24.6,37-52.7,71.6-77.4,108.5
			c-12.3,18.4-23.6,37.4-32.9,57.5c-8.7,19-15.2,38.9-20.9,59c-12.9,45.3-22.5,92.9-49.7,132.4c-1.1,1.6,1.5,3.1,2.6,1.5
			c23.8-34.5,34.3-75.4,45.1-115.3c5.5-20.4,11.2-40.8,18.9-60.5c8.2-20.9,18.9-40.8,30.9-59.8c23.8-37.8,52.1-72.3,77.4-109.1
			c25.8-37.5,49-76.7,69.5-117.3c23-45.5,42.6-92.7,58.7-141.2C707.9,767.8,705,767,704.4,768.8L704.4,768.8z"/>
	</g>
</g>
<g>
	<g>
		<path class="st1" d="M839.6,843.1c-36.7,85.6-69,173.1-96.6,262c-27.7,89.1-50.9,179.6-69.2,271.1c-9.1,45.4-16.4,94.1-46.2,131.4
			c0.8,0.2,1.7,0.4,2.5,0.7c-3.7-20.4,1.4-41.4,13.8-58c1.2-1.5-1.4-3-2.6-1.5c-12.9,17.3-18,39.2-14.1,60.4
			c0.2,1.1,1.8,1.5,2.5,0.7c25.4-31.9,34.9-72.3,42.7-111.4c9-45.1,18.6-90.1,29.6-134.8c22.5-91.2,49.7-181.3,81.5-269.7
			c18.1-50.3,37.7-100.1,58.7-149.2C842.9,842.8,840.3,841.3,839.6,843.1L839.6,843.1z"/>
	</g>
</g>
<g>
	<g>
		<path class="st1" d="M921.5,873.1c-6.1,67.8-26.2,133.3-47,197.8c-20.6,63.6-42.5,127.2-53.2,193.3c-5.9,36.4-8.1,73.4-4.8,110.3
			c0.1,1.1,1.7,2.2,2.6,1.1c3.7-4.7,7.5-9.5,11.2-14.2c1.2-1.5-0.9-3.6-2.1-2.1c-3.7,4.7-7.5,9.5-11.2,14.2c0.9,0.4,1.7,0.7,2.6,1.1
			c-6-67,6.7-133.5,25-197.7c18.4-64.9,42.3-128.1,59.6-193.3c9.6-36.2,17.1-73,20.5-110.3C924.7,871.2,921.7,871.2,921.5,873.1
			L921.5,873.1z"/>
	</g>
</g>
<g>
	<g>
		<path class="st1" d="M1018.5,961.1c3.6,121.8-6.3,243.9-29.6,363.5c-6.5,33.4-14.1,66.6-22.6,99.5c-0.5,1.9,2.4,2.7,2.9,0.8
			c30.5-117.6,48-238.4,52.1-359.8c1.2-34.6,1.2-69.3,0.2-104C1021.4,959.1,1018.4,959.1,1018.5,961.1L1018.5,961.1z"/>
	</g>
</g>
<g>
	<g>
		<path class="st1" d="M937,1084.6c-37.6,103.6-130.1,173.6-177.2,272c-12.5,26.2-21.4,54-24.6,82.9c0.9-0.4,1.7-0.7,2.6-1.1
			c-3.6-3.5-7.3-6.9-10.9-10.4c-1.4-1.3-3.5,0.8-2.1,2.1c3.6,3.5,7.3,6.9,10.9,10.4c1,1,2.4,0.2,2.6-1.1
			c12-110.4,102-187.9,160.4-275.1c16.6-24.7,31-50.9,41.2-79C940.5,1083.6,937.6,1082.8,937,1084.6L937,1084.6z"/>
	</g>
</g>
<g>
	<g>
		<path class="st1" d="M594.2,712.8c-9.8,38.8-31.4,72.9-55.8,104.1c-24.5,31.2-51.6,60.3-76.4,91.2
			c-49.6,61.6-94.1,128.1-125.6,200.8c-17.7,40.7-31.1,83.2-38.9,127c-0.3,1.9,2.6,2.7,2.9,0.8c14.1-79.2,46.8-153.6,89-221.7
			c21.3-34.3,44.9-67.2,70-98.8c24.6-30.9,51.3-59.9,76-90.6c26.9-33.4,51.1-69.9,61.8-112C597.6,711.7,594.7,710.9,594.2,712.8
			L594.2,712.8z"/>
	</g>
</g>
<g>
	<g>
		<path class="st1" d="M652.2,797c-2.7,97-34,189.8-73.6,277.5c-40.4,89.3-89,174.5-129,264c-22.2,49.5-41.7,100.4-55.2,153
			c1,0.1,2,0.3,2.9,0.4c2.3-17.9,8.5-34.8,18.2-50c1-1.6-1.6-3.1-2.6-1.5c-10,15.6-16.3,33.1-18.6,51.5c-0.2,1.7,2.5,2,2.9,0.4
			c24.6-95.7,68.7-184.7,113.2-272.4c43.8-86.4,89.4-172.9,117.7-265.9c15.6-51,25.5-103.6,27-157
			C655.3,795.1,652.3,795.1,652.2,797L652.2,797z"/>
	</g>
</g>
<g>
	<g>
		<path class="st1" d="M660.1,1029.5c19.6,125.2-48.8,240-98.7,349.3c-13.9,30.4-26.7,61.2-36.6,93.1c-0.5,1.7,1.9,2.6,2.7,1.2
			c28.4-44.8,56.9-89.6,85.3-134.4c1-1.6-1.6-3.1-2.6-1.5c-28.4,44.8-56.9,89.6-85.3,134.4c0.9,0.4,1.8,0.8,2.7,1.2
			c36.8-117.9,113.6-221.1,134-344.5c5.5-33,6.5-66.5,1.3-99.6C662.7,1026.8,659.8,1027.6,660.1,1029.5L660.1,1029.5z"/>
	</g>
</g>
<g>
	<g>
		<path class="st1" d="M756.4,1009c6.4,62-3.2,124-16,184.5c-12.7,60-28.7,119.5-36.1,180.5c-4.2,34.3-5.4,69-1.8,103.5
			c0.1,1.3,1.5,2,2.6,1.1c63.7-56.2,128.3-113.5,176.3-184.4c13.4-19.8,25.3-40.6,35.4-62.2c-0.9-0.1-1.8-0.2-2.7-0.4
			c7.8,53.4,1.9,108.2-17.1,158.6c1,0.1,2,0.3,2.9,0.4c6.4-50.3,29.4-97.7,64.9-134c-0.9-0.4-1.7-0.7-2.6-1.1
			c2.8,59.5-14,119-47.3,168.3c0.9,0,1.7,0,2.6,0c-5.4-12.3-7.3-25.6-5.9-38.9c0.2-1.9-2.8-1.9-3,0c-1.5,13.9,0.7,27.6,6.3,40.4
			c0.5,1.1,2,0.8,2.6,0c33.6-49.7,50.5-109.9,47.7-169.8c-0.1-1.3-1.6-2-2.6-1.1c-36,36.9-59.2,85-65.7,136.1
			c-0.2,1.8,2.4,1.9,2.9,0.4c19.2-51,25-106.3,17.1-160.2c-0.2-1.2-2.2-1.5-2.7-0.4c-35.9,77.4-95.1,140.4-157.2,197.6
			c-17.8,16.4-35.9,32.4-54,48.4c0.9,0.4,1.7,0.7,2.6,1.1c-6.5-62,3-124,15.9-184.5c12.7-60,28.7-119.5,36.1-180.5
			c4.2-34.3,5.5-69,1.9-103.5C759.2,1007.1,756.2,1007.1,756.4,1009L756.4,1009z"/>
	</g>
</g>
<g>
	<g>
		<path class="st1" d="M498.6,669.1c-23.4,75.1-64.1,142.8-105.5,209.1c-40.9,65.6-82.9,131.2-110.8,203.6
			c-15.5,40.2-26.2,82.1-29.4,125.1c-0.1,1.6,2,1.8,2.8,0.8c62.9-85.1,123.8-171.7,182.4-259.8c16.4-24.7,32.7-49.5,48.8-74.5
			c1.1-1.6-1.5-3.1-2.6-1.5c-57.4,88.9-117,176.4-178.7,262.3c-17.3,24.1-34.8,48.1-52.5,71.9c0.9,0.3,1.9,0.5,2.8,0.8
			c5.7-78.3,37-151.6,74.7-219.5C368.3,919.8,413,856.3,450,788.3c20.6-37.9,38.7-77.1,51.5-118.3
			C502.1,668.1,499.2,667.3,498.6,669.1L498.6,669.1z"/>
	</g>
</g>
<g>
	<g>
		<path class="st1" d="M590.5,764.7c-27.6,70.3-55.2,140.6-80.6,211.7c-25.3,71-48.5,142.8-67.1,215.8
			c-10.5,41.1-19.5,82.5-26.7,124.3c-0.3,1.9,2.6,2.7,2.9,0.8c12.8-74.2,31.4-147.3,53.5-219.3c22.2-72.2,47.8-143.2,74.7-213.7
			c15.1-39.7,30.7-79.3,46.2-118.9C594.1,763.7,591.2,762.9,590.5,764.7L590.5,764.7z"/>
	</g>
</g>
<g>
	<g>
		<path class="st1" d="M745.2,789.4c-14.5,78.3-27.3,156.8-38.5,235.6c-11.1,78.3-20.6,156.8-28.4,235.5
			c-4.4,44.5-8.3,89.1-11.7,133.7c-0.1,1.7,2.5,2,2.9,0.4c4.5-15.1,9.1-30.2,13.6-45.2c0.6-1.9-2.3-2.6-2.9-0.8
			c-4.5,15.1-9.1,30.2-13.6,45.2c1,0.1,2,0.3,2.9,0.4c6-78.7,13.6-157.3,22.8-235.7c9.3-78.9,20.3-157.6,32.9-236.1
			c7.1-44.2,14.7-88.2,22.8-132.2C748.4,788.4,745.5,787.5,745.2,789.4L745.2,789.4z"/>
	</g>
</g>
<g>
	<g>
		<path class="st1" d="M909,696c4.8,39.6,0.4,79.5-6.8,118.5c-7.2,39-16.4,77.6-23.7,116.5c-14.6,77.7-25.2,156.3-31.7,235.1
			c-3.7,44.9-6.1,89.9-7.2,134.9c0,1.9,3,1.9,3,0c1.9-79.6,7.9-159.1,18.1-238.1c5.1-40,11.3-79.9,18.6-119.5
			c7.1-39,16-77.7,23.6-116.6c8.4-43,14.4-87,9.1-130.8C911.8,694.1,908.8,694.1,909,696L909,696z"/>
	</g>
</g>
<g>
	<g>
		<path class="st1" d="M1007.8,701c2.6,81.4-1.7,162.9-12.8,243.6c-11,79.9-28.6,158.8-52.5,235.8c-13.5,43.4-29.1,86-46.6,127.9
			c-0.7,1.8,2.2,2.6,2.9,0.8c31.3-75,56.3-152.5,74.7-231.6c18.3-78.6,30.1-158.8,35.1-239.4c2.9-45.6,3.6-91.4,2.1-137.1
			C1010.7,699.1,1007.7,699.1,1007.8,701L1007.8,701z"/>
	</g>
</g>
<g>
	<g>
		<path class="st1" d="M964.2,1105.5c-25.2,99.2-50.5,198.4-75.7,297.6c-3.3,12.9-5.9,26.1-10.1,38.7c-3.3,9.9-8.8,20.8-20.1,22.8
			c-1.9,0.3-1.1,3.2,0.8,2.9c18.1-3.3,22.6-25.5,26.4-40.4c6.6-26.1,13.3-52.2,19.9-78.3c13.2-51.8,26.4-103.7,39.6-155.5
			c7.4-29,14.7-58,22.1-87C967.6,1104.4,964.7,1103.6,964.2,1105.5L964.2,1105.5z"/>
	</g>
</g>
<g>
	<g>
		<path class="st1" d="M981.1,1420.5c-15.8,27-43.1,43.8-69.4,59.3c-29.5,17.3-59.9,33.1-91,47.4c-18.3,8.4-36.7,16.2-55.5,23.6
			c-1.8,0.7-1,3.6,0.8,2.9c32.8-12.9,65.1-27.3,96.4-43.5c16-8.2,31.9-16.9,47.5-26c13.7-7.9,27.3-16,39.9-25.6
			c13.4-10.2,25.3-22.1,33.9-36.6C984.7,1420.3,982.1,1418.8,981.1,1420.5L981.1,1420.5z"/>
	</g>
</g>
<g>
	<g>
		<path class="st1" d="M465.9,1117.2c-2.4,18.8-8.8,36.7-16,54.1c-7.5,18.2-15.4,36.3-23.2,54.5c-15.5,36.4-31,72.7-46.5,109.1
			c-8.9,20.8-17.7,41.6-26.6,62.3c-0.7,1.8,1.8,3.3,2.6,1.5c31.5-73.8,63.3-147.5,94.4-221.5c8.1-19.4,15.5-39.1,18.2-60
			C469.2,1115.3,466.2,1115.3,465.9,1117.2L465.9,1117.2z"/>
	</g>
</g>
<g>
	<g>
		<path class="st1" d="M596.2,733c6.5,82.8-0.7,165.7-11.2,247.9c-10.5,82.5-24.2,164.7-30.5,247.8c-3.5,46.3-4.6,92.8-1.6,139.1
			c0.1,1.9,3,2,3,0c-0.1-22.3-0.3-44.5-0.4-66.8c0-1.9-3-1.9-3,0c0.1,22.3,0.3,44.5,0.4,66.8c1,0,2,0,3,0
			c-5.4-82.9,2.5-165.8,13.2-248c10.7-82.5,24.3-164.7,29.9-247.7c3.1-46.3,3.7-92.7,0.1-139C599,731.1,596,731.1,596.2,733
			L596.2,733z"/>
	</g>
</g>
<g>
	<g>
		<path class="st1" d="M854.1,664.7c-5.2,30.7-24.1,56-40.6,81.5c-16.2,25-29.6,51.7-40.5,79.4c-22.3,56.6-34,116.8-42,176.9
			c-4.6,34.7-7.9,69.5-11.1,104.4c1-0.1,2-0.3,2.9-0.4c-4.3-12.2-3.9-25,1-36.9c0.7-1.8-2.2-2.6-2.9-0.8c-5.1,12.4-5.5,25.9-1,38.5
			c0.6,1.6,2.8,1.3,2.9-0.4c5.7-61.5,11.6-123.1,24.5-183.6C760,864,779.6,805.7,812,754.1c17.6-28.1,39.4-55.1,45-88.6
			C857.3,663.6,854.4,662.8,854.1,664.7L854.1,664.7z"/>
	</g>
</g>
<g>
	<g>
		<path class="st1" d="M1016.6,703.4c-30.3,97.3-64.2,193.5-101.6,288.3c-37.5,95-78.5,188.5-122.9,280.4
			c-24.9,51.5-50.9,102.5-77.9,152.9c-0.9,1.7,1.7,3.2,2.6,1.5c48.4-90.4,93.5-182.6,135-276.3c41.1-92.7,78.8-186.9,113-282.4
			c19.4-54.2,37.6-108.7,54.7-163.6C1020.1,702.3,1017.2,701.5,1016.6,703.4L1016.6,703.4z"/>
	</g>
</g>
<g>
	<g>
		<path class="st1" d="M646.4,1261c-26.8,60-54.9,119.3-84.4,178c-8.5,16.9-17,33.6-25.7,50.4c0.9,0,1.7,0,2.6,0
			c-1.4-3.1-2.8-6.3-4.2-9.4c-0.8-1.8-3.4-0.2-2.6,1.5c1.4,3.1,2.8,6.3,4.2,9.4c0.5,1,2.1,0.9,2.6,0
			c30.2-58.3,59.2-117.3,86.7-176.9c7.9-17.1,15.7-34.3,23.4-51.5C649.7,1260.7,647.2,1259.2,646.4,1261L646.4,1261z"/>
	</g>
</g>
<g>
	<g>
		<path class="st1" d="M426.6,1152.8c-5.1,63-31.2,122.3-34.8,185.5c-1,17-0.1,34.1,3.2,50.9c0.4,1.9,3.3,1.1,2.9-0.8
			c-12.2-62.7,11.1-124.4,24-184.9c3.6-16.7,6.4-33.6,7.8-50.7C429.8,1150.9,426.8,1150.9,426.6,1152.8L426.6,1152.8z"/>
	</g>
</g>
<g>
	<g>
		<path class="st1" d="M457.7,961.1c-3,27.8-18.7,52.1-31.3,76.4c-12.3,23.8-24,48-34.2,72.8c-20.7,50.2-35.3,103.5-36.2,158.2
			c-0.5,30.1,3.4,60.2,12.4,89c0.6,1.8,3.5,1.1,2.9-0.8c-33.8-108.2,7.3-219.9,56.9-316c13.1-25.3,29.4-50.6,32.5-79.6
			C460.9,959.2,457.9,959.2,457.7,961.1L457.7,961.1z"/>
	</g>
</g>
<g>
	<g>
		<path class="st1" d="M665.8,741.7c-18.9,89.8-39.7,179.2-62.4,268.1c-6.5,25.4-13.1,50.8-19.9,76.1c1,0.1,2,0.3,2.9,0.4
			c0.3-4.4,0.7-8.8,1-13.2c0.1-1.9-2.9-1.9-3,0c-0.3,4.4-0.7,8.8-1,13.2c-0.1,1.7,2.5,2,2.9,0.4C610.2,998,632,908.9,652,819.3
			c5.7-25.6,11.3-51.2,16.7-76.9C669.1,740.6,666.2,739.8,665.8,741.7L665.8,741.7z"/>
	</g>
</g>
<g>
	<g>
		<path class="st1" d="M363,685c-0.1,10.8-6.6,20.6-16.7,24.6c-1.8,0.7-1,3.6,0.8,2.9c11.3-4.6,18.8-15.3,18.9-27.5
			C366.1,683.1,363.1,683.1,363,685L363,685z"/>
	</g>
</g>
<g>
	<g>
		<path class="st1" d="M278.4,660.9c-3.3,17.9-6.5,35.8-9.8,53.7c-0.2,1.2,1,2.4,2.2,1.7c26.2-15.2,52.5-30.5,78.7-45.7
			c-0.8-0.4-1.5-0.9-2.3-1.3c2,29.2-14.2,53.7-32.4,75c-18.6,21.8-39.9,41.7-54.7,66.5c-3.4,5.7-6.4,11.7-8.8,17.9
			c-2.7,6.8-5.9,15.2-3.9,22.6c3.6,13.3,20.3,12.8,31,10.1c17.7-4.5,35.2-13.2,51.5-21.3c17.9-8.9,35.2-19.1,52-30
			c37.6-24.4,72.6-52.6,107.5-80.7c-0.9-0.4-1.7-0.7-2.6-1.1c-1.2,76.7-2.3,153.3-3.5,230c0,1.5,2,2,2.8,0.8
			c52-79.9,113.6-153.5,183.1-218.8c19.5-18.3,39.7-36,60.4-53c-0.8-0.2-1.7-0.4-2.5-0.7c12.3,69,17.4,139.2,15,209.2
			c0,1.4,1.6,1.9,2.6,1.1c56.6-48.5,111-99.7,162.9-153.3c14.7-15.2,29.1-30.5,43.4-46c-0.8-0.2-1.7-0.4-2.5-0.7
			c16.8,52.6,28.5,106.8,35,161.7c0.2,1.6,2.4,2.1,2.9,0.4c6.6-19.9,7.5-41,2.8-61.3c-0.4-1.7-3-1.3-2.9,0.4
			c1.6,122.6,3.2,245.3,4.9,367.9c0.8,61.3,1.6,122.6,2.4,184c0.4,30.7,0.8,61.3,1.2,92c0.2,12.3,2.8,30.4-9.2,38.3
			c-10,6.7-25.3,4.8-36.7,4.6c-50.5-1.2-108.8-11.1-151.8,22.3c0.9,0.4,1.7,0.7,2.6,1.1c-4.3-47.8-8.6-95.7-13-143.5
			c-0.1-1.1-1.2-1.9-2.3-1.3c-45.6,26.9-92.9,51-141.6,72c-12.3,5.3-24.9,11.5-38,14.6c-13.8,3.3-26.1,0.5-37.7-7.5
			c-10.2-7-19.5-15.4-28.9-23.3c-9-7.6-18-15.3-26.6-23.4c-19.7-18.4-37.6-38.7-50.9-62.3c-0.7,0.7-1.4,1.4-2.1,2.1
			c32.4,16.1,40.6,65,15.1,90.7c0.8,0.5,1.7,1,2.5,1.5c11.1-27.1,27.3-51.8,47.6-72.9c1.3-1.4-0.8-3.5-2.1-2.1
			c-20.7,21.5-37,46.7-48.4,74.3c-0.6,1.4,1.5,2.4,2.5,1.5c26.8-27,18.4-78.5-15.7-95.4c-1.3-0.7-2.8,0.7-2.1,2.1
			c12.1,21.5,28.2,40.5,45.9,57.6c17.6,17.1,36.6,33.2,56,48.3c8.6,6.6,18,12.5,29.1,13.5c13.4,1.2,26.3-4.3,38.4-9.3
			c25.5-10.6,50.6-22,75.3-34.2c28.3-14,56-29,83.2-45c-0.8-0.4-1.5-0.9-2.3-1.3c4.3,47.8,8.6,95.7,13,143.5
			c0.1,1.4,1.5,1.9,2.6,1.1c40.4-31.4,95.7-23.2,143.4-21.6c19.2,0.6,49.2,4.5,54.4-20.2c2.7-13,0.9-27.4,0.7-40.5
			c-0.2-15.7-0.4-31.3-0.6-47c-1.6-124-3.3-247.9-4.9-371.9c-0.9-70-1.8-140-2.8-210c-1,0.1-2,0.3-2.9,0.4
			c4.7,19.9,3.7,40.4-2.8,59.7c1,0.1,2,0.3,2.9,0.4c-6.5-55.1-18.3-109.5-35.1-162.5c-0.3-1-1.7-1.5-2.5-0.7
			c-50.4,55-103.4,107.6-158.7,157.6c-15.6,14.1-31.5,28.1-47.5,41.8c0.9,0.4,1.7,0.7,2.6,1.1c2.4-70.3-2.7-140.8-15.1-210
			c-0.2-1.2-1.7-1.3-2.5-0.7c-73.7,60.5-140.1,129.7-197.4,205.9c-16.3,21.6-31.8,43.8-46.6,66.5c0.9,0.3,1.9,0.5,2.8,0.8
			c1.2-76.7,2.3-153.3,3.5-230c0-1.4-1.6-1.8-2.6-1.1c-59.5,48-120.6,97.2-192.6,125.2c-10.9,4.2-35.8,15.3-43.5,0.3
			c-3.8-7.4,0.7-17.8,3.7-25c2.7-6.5,6-12.7,9.8-18.7c14.9-23.6,35.6-42.9,53.5-64.1c18.2-21.6,34-46.4,32-75.7
			c-0.1-1.1-1.2-1.9-2.3-1.3c-26.2,15.2-52.5,30.5-78.7,45.7c0.7,0.6,1.5,1.1,2.2,1.7c3.3-17.9,6.5-35.8,9.8-53.7
			C281.6,659.8,278.7,659,278.4,660.9L278.4,660.9z"/>
	</g>
</g>
<g>
	<g>
		<path class="st1" d="M610,800.5c9.7,0,9.7-15,0-15C600.3,785.5,600.3,800.5,610,800.5L610,800.5z"/>
	</g>
</g>
<g>
	<g>
		<path class="st1" d="M1063.6,712.2c-6.9,7.3-12.2,15.8-15.3,25.4c-3.5,10.7-3.8,22.4-4.7,33.6c-1.9,23.9-3.9,47.8-5.8,71.8
			c-0.8,9.6,14.2,9.6,15,0c1.8-21.9,3.5-43.9,5.3-65.8c1.6-19.6,1.8-39.2,16.1-54.3C1080.8,715.8,1070.2,705.1,1063.6,712.2
			L1063.6,712.2z"/>
	</g>
</g>
<g>
	<g>
		<path class="st1" d="M1035.8,845.1c2.7,88.6,5.9,177.3,8,266c1,43.9,1.4,87.8,0,131.7c-1.5,44-5.3,87.8-10.6,131.5
			c-5.9,48.9-12.4,97.7-18.7,146.5c-0.5,4,3.8,7.5,7.5,7.5c4.5,0,7-3.5,7.5-7.5c11.1-86.8,24.8-173.7,28.7-261.2
			c3.9-88.2,0-176.6-2.7-264.8c-1.5-49.9-3.1-99.8-4.6-149.7C1050.5,835.5,1035.5,835.4,1035.8,845.1L1035.8,845.1z"/>
	</g>
</g>
<g>
	<g>
		<path class="st1" d="M249.8,748.4c-15.5-7.7-22.4-25.6-37.4-34.3c-15.4-8.8-36.6-8.1-48.1-23.1c-9.6-12.4-10.4-30.3-1.1-43
			c9.5-12.9,25.9-18.8,41-21.8c21.3-4.3,43.8-3.6,65.5-2.6c23.8,1.1,47.6,3,71.4,4.3c47.7,2.5,95.4,4.1,143.2,4.8
			c95.9,1.6,191.8,0.1,287.7-2.2c95.6-2.3,191.2-5.3,286.8-7c11.9-0.2,23.9-0.4,35.8-0.6c9.6-0.1,20.6-1.2,29.4,3.4
			c11.3,5.8,16.8,19.2,16.3,31.5c-1.4,31.7-44.3,31-64.9,43.7c-6.4,4-11.8,9.2-15.5,15.8c-4.7,8.4,8.2,16,13,7.6
			c7.4-13.1,23.6-16.6,36.9-20.8c15.1-4.8,31.4-11,39.7-25.4c7.9-13.5,7.3-30.6,1-44.6c-7.4-16.3-22.2-24.8-39.8-26
			c-12.3-0.8-24.8,0-37,0.2c-12.3,0.2-24.6,0.4-36.8,0.7c-25.2,0.5-50.5,1.1-75.7,1.7c-50.5,1.2-100.9,2.7-151.4,4
			c-100.2,2.5-200.4,4.5-300.6,3.4c-50.1-0.5-100.1-1.9-150.2-4.3c-24.8-1.2-49.6-2.8-74.4-4.4c-24.4-1.5-49-2.6-73.3,0.5
			c-17.9,2.3-35.9,7.5-50.2,19c-14.2,11.4-21.4,28.9-18.8,47c2.7,18.4,14.7,33.1,31.8,40.1c9.4,3.8,19.7,5.3,28.7,9.9
			c8,4.1,13.6,10.9,19.3,17.7c5.8,6.9,12,13.6,20.3,17.7C250.9,765.6,258.5,752.7,249.8,748.4L249.8,748.4z"/>
	</g>
</g>
<g>
	<g>
		<path class="st1" d="M238.5,759.2c5.5,108.9,11,217.8,16.6,326.7c2.7,53.8,5.5,107.6,8.2,161.3c1.4,27.1,2.5,54.2,4.2,81.2
			c0.8,13.1,2,26.3,4.7,39.1c1.2,5.7,2.9,11.1,4.4,16.7c1.7,6.4,1.9,12.6,1.6,19.2c-2.4,44.7-13.8,97.6,16.5,135.8
			c23.9,30.1,64.8,38.2,101,40.9c23,1.7,46.1,1.4,69.1,1.7c27.1,0.4,54.1,0.7,81.2,1.1c54.2,0.7,108.4,1.4,162.6,2.2
			c54.3,0.7,108.6,1.5,162.8,2.2c14,0.2,28,0.4,42,0.6c12.5,0.2,25.4,1.2,37.9,0c12.2-1.2,22.2-6.2,30.8-15
			c8.8-9.1,16.7-19.3,24.8-29.1c8.2-10,16.3-20.1,24.4-30.3c2.5-3.2,3.1-7.5,0-10.6c-2.6-2.6-8.1-3.2-10.6,0
			c-15.6,19.8-31.1,40.4-48.5,58.8c-3.6,3.8-7.6,7.5-12.7,9.3c-5.3,2-11.1,2.2-16.7,2.3c-13.1,0.1-26.1-0.3-39.2-0.5
			c-53.3-0.7-106.6-1.4-159.8-2.1c-106.1-1.4-212.3-2.7-318.4-4.3c-35.3-0.5-75.7-2-105.4-23.5c-37.1-26.8-31.3-76-28.4-116
			c0.9-12.4,2.9-25.3,1.3-37.7c-1.6-12.1-6.2-23.7-7.9-35.8c-3.7-25.7-3.7-52.2-5-78.1c-2.7-52.8-5.4-105.6-8-158.4
			c-5.4-105.9-10.7-211.8-16.1-317.7c-0.7-13.3-1.3-26.6-2-39.8C253,749.6,238,749.5,238.5,759.2L238.5,759.2z"/>
	</g>
</g>
<g>
	<g>
		<path d="M985,1580.2c20.1-10.1,31.7-31.5,43.8-49.4c6.8-10,13.3-20.1,17.5-31.5c3.9-10.4,5.7-21.5,6.7-32.6
			c2.1-22.7,0-45.6,3.2-68.2c1.7-11.7,5.6-22.6,9.5-33.7c3.8-11.1,5.8-22.3,5.1-34c-1.5-26-13.6-51.6-9.6-77.8
			c1.2-7.6-10.4-10.8-11.6-3.2c-3.4,22.4,3.2,43.8,7.2,65.7c2,11.1,3.2,22.8,0.8,34c-2.5,11.5-7.7,22.1-10.6,33.5
			c-5.4,21.6-4.5,44-5.1,66.1c-0.6,23-3.7,44.7-16.1,64.5c-6.7,10.8-14,21.3-21.3,31.7c-6.9,9.9-14.7,19.2-25.6,24.7
			C972.1,1573.3,978.1,1583.6,985,1580.2L985,1580.2z"/>
	</g>
</g>
<g>
	<g>
		<path d="M1086.8,728.2c16.3-13.1,34.1-25.4,48.5-40.8c12.1-12.9,21.1-29.6,17-47.8c-3.9-17.3-18.7-30.2-34.6-36.5
			c-20.2-8-42.8-6.8-64.1-6.9c-94.9-0.5-189.9-0.3-284.8,0.4c-94.9,0.7-189.9,2-284.8,3.9c-95.2,1.9-190.5,4.2-285.7,7.4
			c-18.2,0.6-37.6,2.4-50.6,16.7c-10.1,11-14.7,26.1-14.6,40.9c0.2,36.2,28.6,61.7,59.7,75.1c8.3,3.6,16.7,6.5,25.4,9
			c-1.2-0.9-2.4-1.8-3.6-2.8c10.1,23.2,11.7,48.8,12.4,73.8c0.7,27.5,1,55.1,1.5,82.7c1,56.3,2,112.6,3,168.8
			c0.6,31.6,1.1,63.3,1.7,94.9c0.1,7.7,12.1,7.7,12,0c-1.1-59.9-2.1-119.9-3.2-179.8c-1-58.5-1-117.1-3.3-175.5
			c-0.5-13-1.5-26.1-3.9-38.9c-1.2-6.4-2.7-12.7-4.7-18.9c-1.7-5.2-3.2-13.5-8.6-15.8c-5.1-2.1-10.8-3.3-16.1-5.2
			c-5.8-2.2-11.4-4.6-16.9-7.5c-9.8-5.2-19-11.5-26.6-19.7c-13.3-14.2-19.8-33.6-15.4-52.8c2-8.6,6-16.7,12.7-22.6
			c8.7-7.8,20.9-9.4,32.1-10c29.6-1.5,59.3-1.9,89-2.8c29.3-0.8,58.6-1.6,87.9-2.3c59.3-1.5,118.6-2.7,177.8-3.7
			c119.2-2,238.5-3.2,357.7-3.4c29.3,0,58.6,0,87.9,0c29.4,0.1,58.8-0.6,88.2,0.5c22.2,0.8,51,6.3,59.8,30.2
			c8.3,22.8-13.1,42.1-28.8,55c-10.7,8.8-21.6,17.3-32.4,26C1072.3,724.5,1080.8,733,1086.8,728.2L1086.8,728.2z"/>
	</g>
</g>
<g>
	<g>
		<path d="M233.7,1164c12.2,35.3,10.8,73.5,11.5,110.3c0.7,39.1,1.4,78.2,2,117.2c0.3,19.5,0.7,39.1,1,58.6
			c0.3,17.7,0.2,35.7,4.3,53.1c7.2,30.3,29.8,53.2,57.3,66.5c31.9,15.5,68,17.8,102.8,19.9c38.6,2.4,77.3,4.7,115.9,7.1
			c78.1,4.8,156.3,9.5,234.6,9.4c39.4-0.1,78.8-1.7,118.2-4.3c19.5-1.3,39-2.8,58.5-4.4c9.6-0.8,19.2-1.5,28.7-2.3
			c7.5-0.6,15.9-1.5,20.8-8c4.3-5.7,4.2-12.8-0.3-18.2c-4.9-5.9-13.4,2.6-8.5,8.5c1.8,2.1-3.9,4.5-4.9,4.8
			c-3.9,1.1-8.1,1.1-12.1,1.4c-9.2,0.8-18.5,1.5-27.7,2.3c-18.8,1.5-37.7,2.9-56.5,4.2c-37,2.4-74.1,4-111.2,4.2
			c-74.6,0.4-149.2-3.8-223.7-8.4c-37.1-2.2-74.1-4.5-111.2-6.8c-35.1-2.1-71.4-2.5-104.9-14.4c-26.1-9.2-51.4-27.6-61.2-54.4
			c-5.8-15.8-6.5-32.9-6.8-49.5c-0.4-18.7-0.7-37.5-1-56.2c-0.6-37.1-1.3-74.2-1.9-111.3c-0.6-35.6,0.8-72.2-5.6-107.3
			c-1.6-8.5-3.8-16.9-6.6-25.1C242.7,1153.6,231.1,1156.7,233.7,1164L233.7,1164z"/>
	</g>
</g>
<g>
	<g>
		<path d="M1073.7,727.2c-9.6,34.1-8.6,69.9-8.4,105c0.2,37,0.4,74,0.6,110.9c0.4,74.3,0.9,148.6,1.3,222.9
			c0.2,36.9,4,77.6-13.1,111.7c-3.5,6.9,6.9,13,10.4,6.1c14.9-29.7,15-63.2,14.9-95.7c-0.2-37.6-0.4-75.3-0.6-112.9
			c-0.4-74.6-0.9-149.2-1.3-223.9c-0.2-40.1-3.2-81.8,7.8-120.8C1087.4,722.9,1075.8,719.8,1073.7,727.2L1073.7,727.2z"/>
	</g>
</g>
<g>
	<g>
		<path class="st1" d="M1057.6,1188.8c6,11.3,2.5,24.5-1.2,36c-4.1,12.6-8.8,25.2-7.7,38.6c0.5,6.5,1.6,12.8,1,19.4
			c-0.7,6.8-2.3,13.6-3.5,20.4c-2.6,14.1-5.2,28.2-7.8,42.2c-1.4,7.5,10.2,10.8,11.6,3.2c2.8-15,5.5-30.1,8.3-45.1
			c1.3-6.9,2.8-13.7,3.4-20.7c0.7-7.2-0.8-14-1.1-21.2c-0.7-14.1,5.9-27.1,9.5-40.4c3.5-12.9,4.3-26.5-2.1-38.6
			C1064.4,1175.9,1054,1181.9,1057.6,1188.8L1057.6,1188.8z"/>
	</g>
</g>
<g>
	<g>
		<path class="st1" d="M556.1,1586c70.7,4.1,141.6,6.2,212.4,6.4c33.8,0.1,67.9,0.7,101.6-1.7c29.7-2.2,59.7-8.5,84-26.7
			c25.9-19.4,43.5-47.1,60.4-74.2c4.1-6.6-6.3-12.6-10.4-6.1c-14.5,23.4-29.4,47.3-50.5,65.5c-22.5,19.3-51,26.9-80,29.3
			c-32.5,2.7-65.5,2-98.1,2c-34.4,0-68.9-0.5-103.3-1.4c-38.7-1.1-77.4-2.7-116.1-5C548.4,1573.5,548.4,1585.6,556.1,1586
			L556.1,1586z"/>
	</g>
</g>
<g>
	<g>
		<path class="st1" d="M295.6,738.4c-1.2,6.7-1.6,13.3-1.1,20.1c0.1,1.6,2.5,2.1,2.9,0.4c2.2-9.2,8-16.7,16.3-21.1
			c-0.7-0.3-1.5-0.6-2.2-0.9c1.1,4.1,2.2,8.3,3.3,12.4c0.5,1.9,3.4,1.1,2.9-0.8c-1.1-4.1-2.2-8.3-3.3-12.4c-0.3-1-1.4-1.3-2.2-0.9
			c-9,4.7-15.4,13-17.7,22.8c1,0.1,2,0.3,2.9,0.4c-0.5-6.5-0.3-12.9,0.9-19.3C298.9,737.3,296,736.5,295.6,738.4L295.6,738.4z"/>
	</g>
</g>
<g>
	<g>
		<path class="st1" d="M741.1,776.7c-2.7,17.1-11.1,32.3-20.1,46.8c-8.7,14-17.4,28-25.3,42.5c-15.8,28.7-29.5,58.6-41.1,89.3
			c-23.3,61.8-37.7,127-42.8,192.8c-2.9,37.5-2.7,75.2,0.6,112.6c0.2,1.9,3.2,1.9,3,0c-5.8-66.4-1.9-133.6,11.5-198.9
			c13.3-65,35.9-128.1,67.1-186.7c8.7-16.3,18.2-32.2,28.1-47.9c9.7-15.5,19-31.5,21.8-49.8C744.3,775.6,741.4,774.8,741.1,776.7
			L741.1,776.7z"/>
	</g>
</g>
<g>
	<g>
		<path class="st1" d="M748.9,946.9c4.6,56.1-14.1,110.3-36.5,160.9c-21.1,47.9-43.3,96.1-70.4,141c-15.1,25-32.1,48.7-52.1,69.9
			c0.9,0.4,1.7,0.7,2.6,1.1c-2.4-38.2-1.9-76.6,1.4-114.8c0.2-1.9-2.8-1.9-3,0c-3.3,38.2-3.8,76.5-1.4,114.8
			c0.1,1.2,1.6,2.1,2.6,1.1c36.2-38.4,62.3-84.5,85.4-131.5c12-24.5,23.7-49.2,34.9-74.1c11.2-24.8,21.5-50.1,29-76.4
			c8.5-29.9,13.1-60.9,10.5-92C751.8,945,748.8,945,748.9,946.9L748.9,946.9z"/>
	</g>
</g>
<g>
	<g>
		<path class="st1" d="M360.9,1251c-0.6,64.3-0.7,128.6-0.2,192.8c0,1.2,1.7,2.1,2.6,1.1c1.3-1.6,2.5-3.2,3.8-4.8
			c1.2-1.5-0.9-3.6-2.1-2.1c-1.3,1.6-2.5,3.2-3.8,4.8c0.9,0.4,1.7,0.7,2.6,1.1c-0.5-64.3-0.4-128.6,0.2-192.8
			C363.9,1249,360.9,1249,360.9,1251L360.9,1251z"/>
	</g>
</g>
<g>
	<g>
		<path class="st1" d="M408.3,1419.4c3,21.7-1.3,43.3-8,63.9c-3.2,9.8-7,19.5-10.9,29.1c-3.6,8.8-7.8,17.6-6.4,27.3
			c0.1,0.6,0.9,1.2,1.4,1.1c8.9-1.2,17.5-3.3,25.9-6.4c1.8-0.7,1-3.6-0.8-2.9c-8.1,3-16.5,5.2-25.1,6.3c0.5,0.4,1,0.7,1.4,1.1
			c-1.6-10.9,4.9-22,8.8-31.8c3.9-9.9,7.7-19.9,10.7-30.2c5.6-19,8.4-38.6,5.8-58.3C410.9,1416.7,408.1,1417.5,408.3,1419.4
			L408.3,1419.4z"/>
	</g>
</g>
<g>
	<g>
		<path class="st1" d="M666.4,1425c1.7,13-6.1,23.8-13.9,33.3c-7.7,9.4-15.1,18.7-21,29.4c-5.8,10.6-10.2,21.9-13.2,33.6
			c-1.5,6.1-7,20.9,0.9,24.8c1.7,0.9,3.2-1.7,1.5-2.6c-5.1-2.5-1.4-13.2-0.5-17.3c1.2-5.5,2.8-11,4.7-16.4
			c4-11.4,9.5-22.3,16.3-32.3c10.8-15.8,30.9-31.4,28.2-52.7C669.2,1423.1,666.2,1423.1,666.4,1425L666.4,1425z"/>
	</g>
</g>
<g>
	<g>
		<path class="st1" d="M888,1417c-2.7,25.8-5.5,51.6-8,77.4c-0.6,6.3-1,15.9,6.3,18.6c4.8,1.9,11.2-0.4,11.4-6.1
			c0.1-1.9-2.9-1.9-3,0c-0.2,5.5-7.9,4-10.1,1c-2.4-3.4-2.1-8.2-1.7-12.1c0.7-8.4,1.7-16.9,2.6-25.3c1.8-17.9,3.7-35.7,5.5-53.6
			C891.2,1415.1,888.2,1415.1,888,1417L888,1417z"/>
	</g>
</g>
<g>
	<g>
		<path class="st1" d="M1036.8,710.9c-2.6,63-77.5,104.3-64.6,170.4c0.4,1.9,3.3,1.1,2.9-0.8c-6.4-33.1,12.7-63.8,30.3-90.1
			c16.1-24.1,33.2-49.5,34.5-79.5C1039.9,709,1036.9,709,1036.8,710.9L1036.8,710.9z"/>
	</g>
</g>
</svg>
