<?xml version="1.0" encoding="utf-8"?>
<!-- Generator: Adobe Illustrator 22.0.1, SVG Export Plug-In . SVG Version: 6.00 Build 0)  -->
<svg version="1.1" id="Layer_1" xmlns="http://www.w3.org/2000/svg" xmlns:xlink="http://www.w3.org/1999/xlink" x="0px" y="0px"
	 viewBox="0 0 1242 2208" style="enable-background:new 0 0 1242 2208;" xml:space="preserve">
<style type="text/css">
	.st0{fill:#BAE01B;}
	.st1{fill:#603813;}
	.st2{fill:#0F380A;}
</style>
<g>
	<g>
		<path class="st0" d="M522.4,717c-1.4,43.3-2.7,86.7-4.1,130c-0.1,1.9,2.9,1.9,3,0c1.4-43.3,2.7-86.7,4.1-130
			C525.5,715.1,522.5,715.1,522.4,717L522.4,717z"/>
	</g>
</g>
<g>
	<g>
		<path class="st0" d="M482.1,536.9c-13.3,93.9-21.4,188.2-21.2,283.1c0.1,25,0.7,49.9,1.7,74.8c-0.5,12.4,2.1,23.9,7.8,34.7
			c3.6,11.2,9.8,20.8,18.6,29c8.2,8.8,17.8,15,29,18.6c10.7,5.6,22.3,8.2,34.7,7.8c23.3-1,47.4-8.7,63.6-26.4
			c15.8-17.2,27.4-39.7,26.4-63.6c-3.6-83.3-1.5-166.9,6.3-249.9c2.2-23.5,4.9-47,8.1-70.5c-1.1,8-2.1,16-3.2,23.9
			c0.6-4.6,1.2-9.1,1.9-13.7c3.8-12,4.3-23.9,1.6-35.9c-0.5-12-4.1-23.1-10.7-33.5c-5.7-10.5-13.4-18.9-23.2-25.3
			c-8.7-8-18.9-13.3-30.6-16.1c-8-1.1-16-2.1-23.9-3.2c-16.2,0.1-31.4,4.1-45.4,12.3c-6.1,4.7-12.1,9.4-18.2,14.1
			C494.1,508.4,486.4,521.7,482.1,536.9L482.1,536.9z"/>
	</g>
</g>
<g>
	<g>
		<path class="st0" d="M466.8,580.6c-3.9,33.4-8,66.7-12.5,100c1.1-8,2.1-16,3.2-23.9c-9.2,68.6-18.8,137.5-31.8,205.5
			c-3.4,18.1-7.8,36-14.9,53c3-7.2,6-14.3,9.1-21.5c-11.1,26-28.5,48.4-45.2,70.9c-20.9,28.2-38.5,57.3-49.1,91.1
			c-4.3,13.9-5.7,28.3-7.5,42.6c-0.8,6.7-1.2,13.4-0.8,20.1c0.8,14.4,2.7,29,5.9,43.1c3.2,13.9,9.5,27,15.1,40
			c8.2,19,21.4,36.3,35.6,51.1c9.8,10.2,21.8,18.9,33.3,26.9c6.2,4.3,12.9,7.9,19.8,11c20.7,9.2,40.7,17.1,63.1,21
			c22.4,3.9,45,6.4,67.7,8.1c33.5,2.4,67.3,3.7,100.8,0.7c48-4.2,94.3-13.2,137.6-34.9c19.7-9.8,35-26.1,47-44.2
			c5.8-8.7,9.4-19.4,13-29.1c1.4-3.7,2.5-7.5,3.3-11.4c3.7-16,6.8-32.3,9.6-48.5c6.8-40,12.9-81.4,7.6-121.9
			c-2-15.6-3.7-31.3-7.7-46.6c-4-15-10.4-29.2-16.6-43.5c-6.5-14.9-14.7-28.9-24.1-42.2c-13.3-19-27.8-37.2-42.4-55.3
			c-5-6.1-10-12.1-15.5-17.8c-10.4-10.8-22.4-19.7-34.4-28.6c-6.4-4.7-13.2-8.7-20.5-11.9c-13.6-6-27.3-12.3-41.9-15.7
			c-15.1-3.5-30.7-5.3-46.1-6.7c-8-0.7-16.1-1-24.1-0.8c-15.2,0.4-30.4,2.8-45.4,4.9c-8,1.1-15.9,2.6-23.6,4.7
			c-7.8,2.1-15.3,4.7-22.7,7.8c-14,5.8-28.3,11.3-41.4,19.2c-12.7,7.6-24.4,17.2-36,26.4c-6.4,5-12.4,10.4-18.2,16
			c-11.4,11-22,22.8-32.3,34.7c-14.8,17.1-29.3,35-41.4,54.1c-4.1,6.5-7.8,13.3-10.9,20.3c-5.8,13.1-12.2,26.7-15.7,40.7
			c-1.8,7.4-2.6,14.9-3.7,22.4c-1,7.1-2.2,14.3-2.4,21.4c-0.5,14.1,2.2,28.6,4.4,42.4c1.1,6.3,2.7,12.6,5,18.6
			c4.8,12.9,10,26.3,17.1,38.2c7.1,11.8,16,22.9,25,33.2c4.4,5,9.3,9.5,14.5,13.7c10.6,8.3,21.1,17.4,33.3,23.5
			c13.2,6.6,27.4,12.8,41.8,16.4c15.5,3.9,31.7,5.5,47.5,7.1c8.6,0.8,17.2,1.2,25.9,1.6c18,0.7,36.1,1.5,54.1,2.2
			c17.6,0.7,35.3,1.8,53,2c15.1,0.2,29.7-2.1,44.7-4.3c14.8-2.1,28.3-8.4,41.7-14.8c3.1-1.5,6-3.3,8.8-5.3
			c8.6-6.2,18-12.5,25.2-20.5c9.1-10,18.2-21.1,24.2-33.4c6.1-12.6,12.2-26.1,15.5-39.8c3.5-14.7,5.2-29.9,6.4-44.9
			c1.4-17.3,0.7-34.8,2.9-52.1c-1.1,8-2.1,16-3.2,23.9c0.2-1.3,0.4-2.5,0.6-3.8c-50.1,13.2-100.3,26.5-150.4,39.7
			c8.2,7.9,15.8,16.3,22.8,25.3c-4.7-6.1-9.4-12.1-14.1-18.2c9.3,12.1,17.9,25.2,24.1,39.2c-3-7.2-6-14.3-9.1-21.5
			c0.6,1.6,1.1,3.2,1.5,4.9c-1.1-8-2.1-16-3.2-23.9c0.2,1.1,0.3,2.2,0.2,3.3c1.1-8,2.1-16,3.2-23.9c-0.1,1.1-0.3,2.2-0.8,3.2
			c3-7.2,6-14.3,9.1-21.5c-0.3,0.8-0.8,1.5-1.3,2.2c4.7-6.1,9.4-12.1,14.1-18.2c-0.5,0.7-1.1,1.2-1.8,1.8
			c6.1-4.7,12.1-9.4,18.2-14.1c-1.4,1-2.9,1.8-4.5,2.5c7.2-3,14.3-6,21.5-9.1c-6.9,2.5-14.5,3.4-21.8,4.4c8-1.1,16-2.1,23.9-3.2
			c-21.8,2.9-43.8,2.8-65.6-0.1c8,1.1,16,2.1,23.9,3.2c-21.2-3-41.9-8.5-61.6-16.7c7.2,3,14.3,6,21.5,9.1
			c-10.8-4.6-21.9-9.5-31.5-16.4c6.1,4.7,12.1,9.4,18.2,14.1c-2.5-2-4.8-4.1-6.8-6.7c4.7,6.1,9.4,12.1,14.1,18.2
			c-1.2-1.7-2.2-3.5-3.1-5.5c3,7.2,6,14.3,9.1,21.5c-0.7-1.9-1.2-3.9-1.6-5.9c1.1,8,2.1,16,3.2,23.9c-0.3-2.6-0.3-5.1-0.1-7.7
			c-1.1,8-2.1,16-3.2,23.9c0.5-3.7,1.5-7.1,2.9-10.6c-3,7.2-6,14.3-9.1,21.5c1.6-3.4,3.5-6.5,5.8-9.5c-4.7,6.1-9.4,12.1-14.1,18.2
			c4.5-5.5,9.8-10.2,15.4-14.6c-6.1,4.7-12.1,9.4-18.2,14.1c2.2-1.7,4.4-3.3,6.6-4.9c-36.4-4.7-72.7-9.4-109.1-14.1
			c0.5,0.6,1.1,1.2,1.6,1.9c-4.7-6.1-9.4-12.1-14.1-18.2c2.5,3.2,4.5,6.7,6.1,10.4c-3-7.2-6-14.3-9.1-21.5c1.7,4.2,2.8,8.4,3.4,12.9
			c-1.1-8-2.1-16-3.2-23.9c0.6,4.9,0.5,9.8-0.1,14.7c1.1-8,2.1-16,3.2-23.9c-0.7,4.9-2,9.6-3.9,14.2c3-7.2,6-14.3,9.1-21.5
			c-1.8,4.1-4,7.9-6.7,11.5c4.7-6.1,9.4-12.1,14.1-18.2c-2.5,3.2-5.4,6-8.6,8.5c6.1-4.7,12.1-9.4,18.2-14.1
			c-1.7,1.2-3.4,2.3-5.1,3.3c41,10.8,82.1,21.5,123.1,32.3c-0.6-1.2-1.1-2.4-1.7-3.6c3,7.2,6,14.3,9.1,21.5
			c-2.7-6.5-4.6-13.2-5.6-20.2c1.1,8,2.1,16,3.2,23.9c-1-7.9-1-15.8,0-23.6c-1.1,8-2.1,16-3.2,23.9c1.2-8.3,3.4-16.4,6.6-24.2
			c-3,7.2-6,14.3-9.1,21.5c3.2-7.3,7.1-14.1,12-20.4c-4.7,6.1-9.4,12.1-14.1,18.2c4.4-5.5,9.3-10.5,14.9-14.8
			c-6.1,4.7-12.1,9.4-18.2,14.1c3.2-2.4,6.5-4.5,10-6.4c-41-10.8-82.1-21.5-123.1-32.3c1.5,2.6,2.8,5.3,4,8.1
			c-3-7.2-6-14.3-9.1-21.5c2.3,5.6,3.8,11.4,4.6,17.4c-1.1-8-2.1-16-3.2-23.9c0.8,6.5,0.7,13-0.1,19.6c1.1-8,2.1-16,3.2-23.9
			c-0.9,6-2.5,11.8-4.8,17.4c3-7.2,6-14.3,9.1-21.5c-2.2,5.1-4.9,9.9-8.2,14.4c51.8,0,103.6,0,155.4,0c-4.3-5.9-8.7-11.8-13-17.7
			c-5.7-10.5-13.4-18.9-23.2-25.3c-8.7-8-18.9-13.3-30.6-16.1c-12-3.8-23.9-4.3-35.9-1.6c-12,0.5-23.1,4.1-33.5,10.7
			c-19.2,12.4-36.1,30.8-41.4,53.8c-1.1,8-2.1,16-3.2,23.9c0.1,16.2,4.1,31.4,12.3,45.4c4.3,5.9,8.7,11.8,13,17.7
			c8,13.5,18.8,24.3,32.3,32.3c14,8.1,29.2,12.2,45.4,12.3c16.2-0.1,31.4-4.1,45.4-12.3c13.5-8,24.3-18.8,32.3-32.3
			c8.7-11.8,14.3-26.6,18.9-40.1c1.1-3.3,2-6.7,2.7-10.2c2-10.8,3.7-21.9,4.3-32.9c0.8-14.5-1.7-29.4-4.7-43.4
			c-3.1-14.4-9.4-28.4-16.7-41.1c-5.7-10.5-13.4-18.9-23.2-25.3c-8.7-8-18.9-13.3-30.6-16.1c-8-1.1-16-2.1-23.9-3.2
			c-16.2,0.1-31.4,4.1-45.4,12.3c-39.9,22-67.5,60.8-81.2,103.5c-2.9,9.2-3.9,18.5-5.2,28.1c-1.3,9.5-2.8,18.8-2.3,28.4
			c0.7,13.2,2.3,26.6,5.5,39.5c3.2,12.8,9.1,25.3,14.7,37c5.7,10.5,13.4,18.9,23.2,25.3c8.7,8,18.9,13.3,30.6,16.1
			c23.8,5.4,47.8,3.2,69.4-9.1c20.5-11.6,35.3-27.7,48.1-47.1c6.2-9.4,10.2-20.9,14.1-31.2c1.5-3.8,2.5-7.8,3.2-11.8
			c4.3-25,5.3-43.9-0.7-69.1c-0.5-2-1.1-3.9-1.8-5.8c-3.1-8.7-6.9-17.7-11-25.9c-0.9-1.8-1.9-3.6-3.1-5.2
			c-5.3-7.8-11.3-15.4-17.5-22.6c-6.1-4.7-12.1-9.4-18.2-14.1c-10.3-6.6-21.5-10.1-33.5-10.7c-8-2.1-16-2.1-23.9,0
			c-12,0.5-23.1,4.1-33.5,10.7c-22.9,17-43.2,32-57.9,57.1c-6.4,11-12.1,23.6-14.1,36.3c-1.7,10.3-4.1,21.1-3.1,31.6
			c2,23.2,4,31.1,14.2,52c11.8,24.2,35.6,42,59.2,53.7c18.7,9.3,38.4,17.6,58.5,23.8c12.7,3.9,25.7,6.6,38.9,8.5
			c21.2,3,42.2,5.9,63.6,5.4c20.7-0.5,41.5-3.4,61.8-7.2c47.4-8.9,86.9-52.5,84-102.1c-0.5-8-1.4-18.6-4.1-27.2
			c-2.5-8.1-6.8-17-10.4-24.7c-1.7-3.6-3.6-7.1-5.5-10.6c-3.6-6.5-7.5-12.7-11.8-18.8c-12.8-18.3-26.8-36.3-43-51.8
			c-23.3-22.3-56.1-31.8-87.6-23.1c-15.2,4.3-28.5,12-39.7,23.1c-11.2,11.2-18.9,24.5-23.1,39.7c-2.9,18.7-5.1,36.9-5.6,55.7
			c-0.3,11.1-0.6,22.3-2,33.3c1.1-8,2.1-16,3.2-23.9c-1.3,9-3.4,17.7-6.8,26.1c3-7.2,6-14.3,9.1-21.5c-2.3,5.5-5.2,10.6-8.7,15.3
			c4.7-6.1,9.4-12.1,14.1-18.2c-3,3.9-6.4,7.3-10.3,10.3c6.1-4.7,12.1-9.4,18.2-14.1c-3.4,2.5-7.1,4.6-11,6.3c7.2-3,14.3-6,21.5-9.1
			c-6.1,2.5-12.3,3.9-18.8,4.8c8-1.1,16-2.1,23.9-3.2c-12.1,1.4-24.3,0.9-36.5,0.4c-14.1-0.6-28.2-1.1-42.3-1.7
			c-27.3-1.1-55.1-0.9-82.3-4.5c8,1.1,16,2.1,23.9,3.2c-10.7-1.5-21.1-4-31.1-8.1c7.2,3,14.3,6,21.5,9.1c-7-3.1-13.5-6.9-19.6-11.5
			c6.1,4.7,12.1,9.4,18.2,14.1c-6.8-5.3-12.8-11.3-18.2-18.1c4.7,6.1,9.4,12.1,14.1,18.2c-5.5-7.2-10.1-15-13.7-23.4
			c3,7.2,6,14.3,9.1,21.5c-3.5-8.4-5.9-17.1-7.1-26.1c1.1,8,2.1,16,3.2,23.9c-1-8.1-1-16.3,0.1-24.4c-1.1,8-2.1,16-3.2,23.9
			c1.5-9.8,4.2-19.1,8.1-28.2c-3,7.2-6,14.3-9.1,21.5c6.4-14.8,15.2-28.2,25-40.9c-4.7,6.1-9.4,12.1-14.1,18.2
			c19.1-24.5,40.5-48.8,65.1-68.1c-6.1,4.7-12.1,9.4-18.2,14.1c11.4-8.8,23.7-16.2,37-21.9c-7.2,3-14.3,6-21.5,9.1
			c14.9-6.2,30.4-10.3,46.4-12.5c-8,1.1-16,2.1-23.9,3.2c17.7-2.3,35.6-2.4,53.4-0.1c-8-1.1-16-2.1-23.9-3.2
			c12,1.7,23.7,4.5,34.8,9.2c-7.2-3-14.3-6-21.5-9.1c7.8,3.4,15,7.7,21.8,12.9c-6.1-4.7-12.1-9.4-18.2-14.1
			c17.8,14,31.7,32.5,45.5,50.4c-4.7-6.1-9.4-12.1-14.1-18.2c14.4,18.7,27.9,38.3,37.3,60.1c-3-7.2-6-14.3-9.1-21.5
			c6,14.3,9.8,29.3,12,44.6c-1.1-8-2.1-16-3.2-23.9c3.5,26.3,2.1,52.8-1.4,79c1.1-8,2.1-16,3.2-23.9c-1.9,13.9-4.4,27.7-7.1,41.5
			c-2.5,12.6-4.2,26.1-9,38.1c3-7.2,6-14.3,9.1-21.5c-1.3,2.9-2.7,5.5-4.6,8.1c4.7-6.1,9.4-12.1,14.1-18.2c-1.7,2.1-3.5,3.9-5.6,5.6
			c6.1-4.7,12.1-9.4,18.2-14.1c-4.3,3.2-9.1,5.6-14,7.7c7.2-3,14.3-6,21.5-9.1c-22.2,9.1-45.5,14.8-69.3,18.1c8-1.1,16-2.1,23.9-3.2
			c-25.5,3.4-51.3,4.1-77,3.4c-24.7-0.7-49.5-2.1-74-5.4c8,1.1,16,2.1,23.9,3.2c-17.4-2.4-34.5-6.1-50.7-12.9c7.2,3,14.3,6,21.5,9.1
			c-9-3.9-17.4-8.6-25.2-14.5c6.1,4.7,12.1,9.4,18.2,14.1c-7.1-5.5-13.4-11.8-18.9-18.9c4.7,6.1,9.4,12.1,14.1,18.2
			c-5.7-7.6-10.4-15.8-14.1-24.5c3,7.2,6,14.3,9.1,21.5c-3.8-9.3-6.4-18.9-7.7-28.8c1.1,8,2.1,16,3.2,23.9
			c-1.1-9.4-1.1-18.9,0.1-28.3c-1.1,8-2.1,16-3.2,23.9c1.6-10.7,4.6-21,8.8-31c-3,7.2-6,14.3-9.1,21.5
			c11.1-25.9,28.8-48.2,45.5-70.7c8.5-11.5,16.9-23.2,24.2-35.6c11.4-19.5,20.4-40.8,27-62.4c5.1-16.8,8.2-34,11.2-51.3
			c3.1-18.1,6.1-36.2,9-54.4c5.9-36.7,11.4-73.5,16.5-110.4c6.8-49.1,13.2-98.2,18.9-147.4c0.5-12.4-2.1-23.9-7.8-34.7
			c-3.6-11.2-9.8-20.8-18.6-29c-8.2-8.8-17.8-15-29-18.6c-10.7-5.6-22.3-8.2-34.7-7.8c-23.3,1-47.4,8.7-63.6,26.4
			c-4.7,6.1-9.4,12.1-14.1,18.2C470.9,549.2,466.8,564.4,466.8,580.6L466.8,580.6z"/>
	</g>
</g>
<g>
	<g>
		<path class="st0" d="M331.9,1005.2c-5.5,12-11.4,24.1-15.3,36.6c-0.9,2.9-1.5,5.8-1.9,8.8c-1.5,9.8-3.9,20.1-3.4,30.1
			c0.4,8.2,2.1,17.3,3.3,25.4c0.2,1.4,0.4,2.9,0.8,4.3c0.2,0.9,0.6,1.8,0.9,2.7c2.6,7.4,6.4,16.5,9.9,23.5c0.5,1.1,1.1,2.1,1.7,3.1
			c3.9,6.3,10.5,14.4,15.3,19.9c6.4,7.3,15.1,13,23,18.2c10.3,6.6,21.5,10.1,33.5,10.7c12,2.7,23.9,2.1,35.9-1.6
			c11.7-2.8,21.9-8.2,30.6-16.1c9.8-6.3,17.5-14.8,23.2-25.3c11-20.9,16.6-46.2,9.1-69.4c-3-7.2-6-14.3-9.1-21.5
			c-8-13.5-18.8-24.3-32.3-32.3c-0.4-0.3-0.8-0.5-1.2-0.8c6.1,4.7,12.1,9.4,18.2,14.1c-1.5-1.2-2.8-2.4-4-3.9
			c4.7,6.1,9.4,12.1,14.1,18.2c-1.1-1.6-2-3.1-2.9-4.9c3,7.2,6,14.3,9.1,21.5c-1.1-2.7-1.8-5.4-2.2-8.4c1.1,8,2.1,16,3.2,23.9
			c-0.2-2.6-0.2-5,0-7.6c-1.1,8-2.1,16-3.2,23.9c0.8-5.4,2.4-10.5,4.5-15.6c-3,7.2-6,14.3-9.1,21.5c1.2-2.8,2.4-5.6,3.7-8.3
			c6.6-10.3,10.1-21.5,10.7-33.5c2.7-12,2.1-23.9-1.6-35.9c-2.8-11.7-8.2-21.9-16.1-30.6c-6.3-9.8-14.8-17.5-25.3-23.2
			c-20.9-11-46.2-16.6-69.4-9.1c-7.2,3-14.3,6-21.5,9.1C350.7,980.9,339.9,991.7,331.9,1005.2L331.9,1005.2z"/>
	</g>
</g>
<g>
	<g>
		<path class="st0" d="M840.6,1037.1c6.1-12.8,12.9-27,15.4-41.3c2.6-14.8,5.3-30.5,4.3-45.7c-1.5-23.3-5.3-45.9-14.2-67.4
			c-9.3-22.3-19.3-43.2-31-64.2c-8.1-14.6-15.9-29.3-23.1-44.3c-8.4-17.3-16.2-34.8-23.7-52.5c3,7.2,6,14.3,9.1,21.5
			c-14.8-35.2-28.2-71-41.2-106.8c-6.5-17.8-12.9-35.6-19.4-53.4c-5.3-14.5-11.1-28.6-17.3-42.7c-3.1-7-6.7-13.7-11.3-19.9
			c-6.1-8.3-12.3-17.4-19.8-24.7c-1.4-1.3-2.8-2.6-4.3-3.8c-7-5.7-14.1-11.7-21.8-16.6c-9-5.7-19.6-9.5-29.4-13
			c-7-2.5-14.1-3-21.4-4c-7-0.9-14-2.3-21.1-2c-5.3,0.3-10.8,1.3-15.9,2c-5.6,0.8-11.6,1.3-17.2,2.5c-3.3,0.8-6.5,1.8-9.6,3.1
			c-10.1,4-20.7,7.8-30.1,13.3c-3,1.7-5.9,3.7-8.6,5.8c-8.4,6.4-17.4,12.5-25,20.1c-7.5,7.5-13.7,16.5-20,25
			c-2.3,3.1-4.5,6.3-6.3,9.7c-7.6,13.8-13.8,28.7-18.1,43.8c-4.4,15.5-6,31.9-8,47.8c-2.5,19.6-2.8,39.3-3.9,58.9
			c-1.2,21.4-3,42.7-5.8,63.9c1.1-8,2.1-16,3.2-23.9c-4.8,35.6-12.7,70.7-26.5,103.9c3-7.2,6-14.3,9.1-21.5
			c-9.5,22.4-21.6,43.5-31.2,65.8c-7.5,17.2-15.5,34.6-19.9,53c-4.4,18.1-7.2,37.2-6.9,55.9c0.6,37.2,10.7,74.5,29.5,106.7
			c2.7,4.6,5.7,9,9,13.3c7.5,9.9,14.8,20.2,23.6,29c12.7,12.8,27.6,24.3,43.2,33.4c16.6,9.8,35,17.5,53.6,22.5
			c19.3,5.1,40,7.9,60,7.2c23.6-0.8,46.8-9.5,63.6-26.4c8.8-8.2,15-17.8,18.6-29c5.6-10.7,8.2-22.3,7.8-34.7
			c-1-23.3-8.7-47.4-26.4-63.6c-17.3-15.9-39.6-27.2-63.6-26.4c-6.9,0.2-13.7-0.1-20.6-0.9c8,1.1,16,2.1,23.9,3.2
			c-11-1.5-21.7-4.4-32-8.7c7.2,3,14.3,6,21.5,9.1c-10.3-4.4-19.8-9.9-28.7-16.7c6.1,4.7,12.1,9.4,18.2,14.1
			c-8-6.3-15.1-13.3-21.4-21.3c4.7,6.1,9.4,12.1,14.1,18.2c-6.5-8.6-11.9-17.8-16.2-27.7c3,7.2,6,14.3,9.1,21.5
			c-4.3-10.4-7.3-21.3-8.9-32.5c1.1,8,2.1,16,3.2,23.9c-1.4-10.7-1.4-21.4-0.1-32.1c-1.1,8-2.1,16-3.2,23.9
			c2.1-15.3,6.9-29.9,12.8-44.2c-3,7.2-6,14.3-9.1,21.5c7.7-18.1,17.1-35.3,25.5-53c11.6-24.6,22.1-50,29.4-76.3
			c5.4-19.6,9.3-39.7,12.1-59.9c3.9-28,7.3-55.9,9-84.2c1.4-22.1,1.5-44.3,4.4-66.3c-1.1,8-2.1,16-3.2,23.9
			c1.7-12.8,4.5-25.3,9.5-37.2c-3,7.2-6,14.3-9.1,21.5c2.9-6.6,6.3-12.9,10.7-18.7c-4.7,6.1-9.4,12.1-14.1,18.2
			c3.8-4.7,8-9,12.7-12.7c-6.1,4.7-12.1,9.4-18.2,14.1c5.1-4,10.6-7.2,16.6-9.8c-7.2,3-14.3,6-21.5,9.1c5-2,10.1-3.5,15.5-4.2
			c-8,1.1-16,2.1-23.9,3.2c4.4-0.5,8.7-0.5,13,0c-8-1.1-16-2.1-23.9-3.2c3.9,0.6,7.7,1.6,11.3,3.1c-7.2-3-14.3-6-21.5-9.1
			c3.4,1.5,6.6,3.4,9.6,5.7c-6.1-4.7-12.1-9.4-18.2-14.1c3.8,3,7.1,6.4,10.1,10.2c-4.7-6.1-9.4-12.1-14.1-18.2
			c5,6.8,8.9,14.2,12.2,21.9c-3-7.2-6-14.3-9.1-21.5c8.4,20,15.2,40.8,22.5,61.2c7.8,21.6,15.7,43.2,23.9,64.7
			c18.9,49.5,39.1,98.7,63.4,145.8c11.7,22.7,25.5,44.4,35.6,67.9c-3-7.2-6-14.3-9.1-21.5c5,11.8,8.8,24,10.6,36.7
			c-1.1-8-2.1-16-3.2-23.9c1.1,9,1.3,17.9,0.1,26.9c1.1-8,2.1-16,3.2-23.9c-1,6.7-2.7,13-5.3,19.3c3-7.2,6-14.3,9.1-21.5
			c-0.4,1-0.9,2-1.4,3.1c-6.6,10.3-10.1,21.5-10.7,33.5c-2.7,12-2.1,23.9,1.6,35.9c2.8,11.7,8.2,21.9,16.1,30.6
			c6.3,9.8,14.8,17.5,25.3,23.2c20.9,11,46.2,16.6,69.4,9.1c7.2-3,14.3-6,21.5-9.1C821.8,1061.4,832.6,1050.6,840.6,1037.1
			L840.6,1037.1z"/>
	</g>
</g>
<g>
	<g>
		<path class="st1" d="M630.1,939.6c-1.2-0.2-2.2-0.5-3.3-1c9.6,4,19.1,8.1,28.7,12.1c-1.1-0.6-2-1.1-2.9-1.8
			c8.1,6.3,16.2,12.5,24.3,18.8c-0.9-0.8-1.7-1.6-2.4-2.5c6.3,8.1,12.5,16.2,18.8,24.3c-0.9-1.3-1.7-2.6-2.3-4.1
			c4,9.6,8.1,19.1,12.1,28.7c-0.4-1.1-0.7-2.2-0.9-3.4c1.4,10.6,2.9,21.3,4.3,31.9c-0.2-1.6-0.2-3,0-4.6
			c-1.4,10.6-2.9,21.3-4.3,31.9c0.3-1.2,0.6-2.2,1-3.3c-4,9.6-8.1,19.1-12.1,28.7c0.4-0.7,0.8-1.4,1.3-2.1
			c-6.3,8.1-12.5,16.2-18.8,24.3c1-1.3,2.2-2.4,3.5-3.5c-8.1,6.3-16.2,12.5-24.3,18.8c1-0.7,2.1-1.3,3.2-1.8
			c-9.6,4-19.1,8.1-28.7,12.1c2.4-1,4.9-1.6,7.4-2c-10.6,1.4-21.3,2.9-31.9,4.3c5.4-0.7,10.8-0.5,16.2,0.2
			c-10.6-1.4-21.3-2.9-31.9-4.3c0.9,0.1,1.7,0.4,2.5,0.8c-17.7-10.3-35.3-20.6-53-30.9c0.3,0.3,0.7,0.5,1,0.8
			c-6.3-8.1-12.5-16.2-18.8-24.3c0.2,0.3,0.5,0.7,0.7,1.1c-4-9.6-8.1-19.1-12.1-28.7c0.3,0.8,0.5,1.6,0.6,2.5
			c-1.4-10.6-2.9-21.3-4.3-31.9c0.5,10.1,1.4,20.9,0.1,30.9c1.4-10.6,2.9-21.3,4.3-31.9c-0.2,1-0.4,1.9-0.8,2.9
			c4-9.6,8.1-19.1,12.1-28.7c-0.4,0.9-0.8,1.8-1.4,2.6c6.3-8.1,12.5-16.2,18.8-24.3c-0.5,0.7-1.2,1.3-1.9,1.8
			c8.1-6.3,16.2-12.5,24.3-18.8c-0.7,0.5-1.4,1-2.2,1.3c9.6-4,19.1-8.1,28.7-12.1c-1.7,0.7-3.4,1.1-5.2,1.4
			c10.6-1.4,21.3-2.9,31.9-4.3c-4.6,0.5-9.4,0.3-14-0.2c10.6,1.4,21.3,2.9,31.9,4.3c-2.8-0.4-5.5-1-8.2-1.9
			c9.6,4,19.1,8.1,28.7,12.1c-2-0.8-3.7-1.8-5.5-3c8.1,6.3,16.2,12.5,24.3,18.8c-1.2-1-2.2-1.9-3.2-3.1c6.3,8.1,12.5,16.2,18.8,24.3
			c-0.9-1.2-1.6-2.3-2.3-3.7c4,9.6,8.1,19.1,12.1,28.7c-0.6-1.4-0.9-2.6-1.2-4.1c1.4,10.6,2.9,21.3,4.3,31.9
			c-0.1-0.9-0.2-1.9-0.1-2.8c-1.4,10.6-2.9,21.3-4.3,31.9c0.1-0.5,0.1-0.9,0.2-1.4c5-16,5.7-31.9,2.1-47.9
			c-0.7-16-5.5-30.8-14.2-44.6c-7.5-14-17.8-25.2-30.9-33.7c-11.6-10.6-25.2-17.8-40.8-21.5c-10.6-1.4-21.3-2.9-31.9-4.3
			c-21.7,0.1-41.8,5.5-60.6,16.4c-8.1,6.3-16.2,12.5-24.3,18.8c-14.9,15-25.2,32.6-30.9,53c-1.7,11.8-4.8,23.5-4.5,35.4
			c0.1,4.2,3.3,28.4,4.3,32.6c0.2,0.9,0.4,1.8,0.7,2.7c1.5,4.8,7.6,18,6.6,15.7c-0.7-1.6,4.1,11.3,6.7,15.6c0.5,0.9,1.1,1.6,1.7,2.4
			c6.3,8.1,12.5,16.2,18.8,24.3c0.3,0.4,0.6,0.7,1,1.1c0.7,0.7,1.4,1.3,2.2,2c4.8,4.2,19.6,15.8,24.9,19.2c1.6,1,3.2,1.8,4.9,2.6
			c7.2,3.3,22,10,29.5,12.4c1.1,0.3,2.1,0.7,3.2,0.9c0.8,0.2,1.7,0.3,2.5,0.5c10.7,1.9,22.8,3.5,33.6,4.5c3.7,0.4,7.5,0.6,11.2,0.4
			c0.9,0,1.8-0.1,2.8-0.2c8.2-0.8,24.6-2.9,32.6-4.4c6.6-1.3,12.8-4.8,18.8-7.3c18.3-7.7,24.2-9.4,40.9-26.1c0.5-0.5,1-0.9,1.4-1.3
			c2.4-2.7,17.3-21.5,19.2-24.8c0.5-0.9,1-1.7,1.4-2.6c2.1-4.1,11.2-25.1,12.3-29.4c3.1-11.8,4.2-24.2,5.1-36.3
			c0.6-8.7,0-17.6-0.3-26.3c-0.2-6.2-1.3-11.2-2.2-18.2c1.5,11.3-1.1-12.9-2.3-17.2c-1.4-5.1-6-14.6-6.4-15.5
			c-7.7-18.3-4-11.9-16.1-27.5c-14.9-19.3-5.4-8.1-10.4-12.9c-4-3.1-8.1-6.3-12.1-9.4c-11.6-10.6-25.2-17.8-40.8-21.5
			c-0.6-0.2-1.2-0.5-1.9-0.6c-8.2-1.9-24.8-3.7-33.2-4.5c-3.1-0.3-6.3-0.5-9.4-0.5c-1.6,0-3.2,0.1-4.8,0.3
			c-5.6,0.5-13.4,1.8-17.3,2.3c-4.6,0.6-12.7,1.3-18.5,2.6c-1.3,0.3-2.5,0.7-3.7,1.1c-7.9,2.7-22.3,8.7-29.8,12.6
			c-0.5,0.3-1.1,0.6-1.6,0.8c-9.9,5.3-18.7,12.8-26.8,20.5c-0.4,0.4-0.9,0.8-1.3,1.3c-0.4,0.4-0.8,0.9-1.2,1.4
			c-6.3,8.1-12.5,16.2-18.8,24.3c-6,9.9-10.6,20.8-13.8,31.9c-0.2,0.6-0.3,1.1-0.5,1.7c-1.2,5.4-1.9,10.9-2.3,16.5
			c-0.8,5.7-1.6,11.4-2.3,17.1c-0.3,11.1,4,33.4,4.4,35.4c1.5,6.4,4,10.7,7,17.7c2.6,6.2,4.5,12.3,8,17.9c6,9.7,13.1,18.8,21.1,26.9
			c7.8,8,17.4,14.8,27.1,20.7c3,1.8,25.7,11.1,29.2,12.4c1.2,0.4,2.1,0.8,3.3,1c16,5,31.9,5.7,47.9,2.1c16-0.7,30.8-5.5,44.6-14.2
			c14-7.5,25.2-17.8,33.7-30.9c10.6-11.6,17.8-25.2,21.5-40.8c1.4-10.6,2.9-21.3,4.3-31.9c-0.1-21.7-5.5-41.8-16.4-60.6
			c-6.3-8.1-12.5-16.2-18.8-24.3C668.1,955.6,650.4,945.3,630.1,939.6L630.1,939.6z"/>
	</g>
</g>
<g>
	<g>
		<path class="st2" d="M704.7,1319.8c17.1-3.1,33.5-8.6,49.5-15.1c16.1-6.5,32.4-13,47.7-21.2c27.5-14.6,45.6-38.1,57.1-66.7
			c11.2-28,15.9-58.5,20.1-88.3c4.8-34.6,7.6-69.5,6.5-104.5c-1.2-38.9-7.2-77.7-19.8-114.6c-3.7-10.9-21.1-6.2-17.4,4.8
			c21.5,62.8,22.7,130,15.1,195.4c-3.5,29.5-7.8,59.6-16.8,88c-8,25.3-21.2,49.8-44,64.6c-14.9,9.6-31.9,16.2-48.2,23
			c-17.7,7.4-35.8,13.9-54.7,17.3c-4.8,0.9-7.5,6.7-6.3,11.1C695,1318.6,699.9,1320.7,704.7,1319.8L704.7,1319.8z"/>
	</g>
</g>
<g>
	<g>
		<path class="st2" d="M558.1,467.6c20.1,4.3,40.1,8.6,60.2,13c7.8,1.7,17.3,2.5,23.1,8.6c6,6.4,10.5,14.9,15.2,22.3
			c20.2,31.8,37.9,65.4,52.4,100.2c15.6,37.4,28.5,76,42.2,114.1c7,19.4,14,38.8,21,58.2c6.7,18.6,12.8,37.4,20.6,55.6
			c7.5,17.6,18.5,31.3,32.1,44.5c11.1,10.9,23.3,21.9,26.8,37.7c2.5,11.3,19.8,6.5,17.4-4.8c-7-31.9-39.9-46.8-54.8-74.1
			c-9.1-16.7-14.5-35.6-20.9-53.4c-7.1-19.7-14.2-39.4-21.3-59.1c-14.3-39.5-27.7-79.5-43.5-118.4c-14.7-36.1-32.3-71-52.9-104.1
			c-5.5-8.9-11.1-18-17.4-26.4c-6.7-9-15.2-13.8-26-16.3c-23-5.4-46.1-10-69.2-14.9C551.6,447.8,546.8,465.1,558.1,467.6
			L558.1,467.6z"/>
	</g>
</g>
<g>
	<g>
		<path class="st2" d="M699.4,1302c-42,6.3-84.9,7.4-127.2,3.7c-41.6-3.6-83.7-11.7-123.1-25.7c-17.9-6.4-32.4-16.9-44.9-31.2
			c-11.9-13.7-21.4-29.5-30.9-45c-11-17.9-21.5-36-28.4-55.9c-6.7-19.5-10.8-39.9-13.8-60.2c-3.3-21.9-6.1-44.1-7.4-66.2
			c-1.2-21.1,0-42.8,10.4-61.7c5.6-10.2-10-19.3-15.5-9.1c-20.3,37-12.6,81.4-7.6,121.3c2.7,21.9,6,43.8,11.8,65.2
			c5.9,21.6,14.9,42,26.2,61.3c10.1,17.3,20.6,34.7,32.6,50.8c11.7,15.6,25.3,30,42.5,39.5c19,10.3,41,15.7,61.9,20.9
			c22,5.4,44.3,9.4,66.7,12.1c50.4,6.2,101.3,5.2,151.5-2.3c4.8-0.7,7.5-6.8,6.3-11.1C709,1303.2,704.2,1301.3,699.4,1302
			L699.4,1302z"/>
	</g>
</g>
<g>
	<g>
		<path class="st2" d="M557.1,458.4c-20.8,5.2-41.1,12-60.9,20.3c-16.2,6.8-32.6,15-44.6,28.2c-13.3,14.7-18.2,33.7-22.5,52.6
			c-4.7,20.7-8.7,41.6-11.9,62.6c-6.5,42.5-10.1,85.5-10.4,128.5c-0.2,20.5,2.2,41.8-1.8,62.1c-3.6,18.3-13.9,33.7-24.9,48.4
			c-13,17.4-25.5,34.6-35.8,53.9c-10.8,20.3-19.8,41.5-28.7,62.7c-1.9,4.5-1.3,9.6,3.2,12.3c3.8,2.2,10.4,1.3,12.3-3.2
			c15.3-36.3,31.1-72.2,54.9-103.9c10.8-14.4,22.4-28.5,29.7-45c8.3-19,9.5-39.1,9.3-59.6c-0.5-41.8,1-83.4,6-125
			c2.5-21,5.8-41.8,9.9-62.5c2-10.1,4.1-20.2,6.5-30.2c2.1-8.9,4.1-18,7.8-26.4c8-18.1,24.4-28.4,41.8-36.3
			c20.8-9.5,42.8-16.5,64.9-22.1C573.1,472.9,568.4,455.6,557.1,458.4L557.1,458.4z"/>
	</g>
</g>
<g>
	<g>
		<path class="st2" d="M328.4,967.3c16.4-27,31.1-55,44.7-83.5c13.5-28.2,27.3-56.8,38.8-85.8c5.8-14.5,9.2-31.9-0.3-45.6
			c-4.8-6.9-17-5-16.8,4.5c0.4,15.7,0.7,31.4,1.1,47.1c0.2,10,2.6,24.3-5.9,31.7c-8.8,7.6,4,20.3,12.7,12.7
			c11.1-9.6,11.6-25,11.3-38.6c-0.4-17.6-0.8-35.3-1.3-52.9c-5.6,1.5-11.2,3-16.8,4.5c9.1,13.2-1.3,31.4-6.9,44
			c-7.6,17.2-15.3,34.3-23.2,51.4c-16.1,34.6-33.3,68.8-53.1,101.4C306.8,968.2,322.4,977.2,328.4,967.3L328.4,967.3z"/>
	</g>
</g>
<g>
	<g>
		<path class="st2" d="M840.1,850.9c-5.6-6.9-8.4-15.7-11.1-24c-3-9.4-6-18.8-10.7-27.5c-9.6-17.8-24.4-32.1-39-45.8
			c-6.1-5.8-18.2-0.1-15,8.8c8.5,23.7,19.6,46.5,33.4,67.6c6.8,10.5,14.3,20.6,22.3,30.2c6.9,8.3,16.3,16.2,18.2,27.3
			c0.8,4.8,6.7,7.5,11.1,6.3c5-1.4,7.1-6.3,6.3-11.1c-2.1-12-10.7-21.1-18.4-30c-8-9.2-15.3-18.9-22.1-29
			c-13.8-20.6-25.1-42.8-33.4-66.2c-5,2.9-10,5.8-15,8.8c14.2,13.5,28.9,27.3,37.7,45.1c4,8.1,6.2,17,9.1,25.5
			c3.3,9.7,7.5,18.7,14,26.7c3.1,3.8,9.5,3.2,12.7,0C843.9,859.8,843.2,854.7,840.1,850.9L840.1,850.9z"/>
	</g>
</g>
<g>
	<g>
		<path d="M546,469c7.7,0,7.7-12,0-12C538.3,457,538.3,469,546,469L546,469z"/>
	</g>
</g>
<g>
	<g>
		<path d="M781.8,757.3c29.6,23.1,33,64.8,48.4,96.7c9.6,19.9,23.2,37.6,32.5,57.7c9.5,20.6,12.4,43.5,13.8,66
			c2.9,49.4,2.5,99.2,0,148.6c-0.6,12.6-1.4,25.1-2.4,37.7c-0.9,11.3-1.5,22.9-5.7,33.5c-3.8,9.7-10.6,17.9-17,26
			c-6.4,8-11.9,16.2-17.3,24.8c-5.1,8.2-10.6,15.9-19.9,19.6c-9.5,3.7-19.9,4.1-29.6,7.4c-19.1,6.5-32.3,22.1-49,32.5
			c-18.2,11.3-39.8,14-60.8,13.6c-22.9-0.4-45.9-3.8-68.6-6.7c-48.8-6.2-97.5-13.4-145.8-22.5c-19-3.6-38.5-8.1-54.7-19.2
			c-18.3-12.6-28.3-35-39.4-53.6c-12.3-20.6-26-41-34.2-63.6c-7.8-21.6-12-44.3-15.4-66.9c-3.6-24.1-6.7-48.2-9.4-72.4
			c-2.5-22.2-5-45.8,3.4-67c3.6-9.1,9.3-17.6,17.1-23.5c6.1-4.6,0.1-15-6.1-10.4c-40.3,30.4-28.4,88-22.9,131
			c6,47.6,10.8,97.7,34.3,140.4c12.3,22.2,25.6,44.1,39,65.7c5.8,9.4,12.2,18.5,20.8,25.6c7.7,6.4,16.4,11.2,25.7,15
			c20.6,8.4,43.1,11.4,64.9,15.1c25.6,4.4,51.3,8.4,77,12.1c25.6,3.7,51.3,7,77,10c22.3,2.6,44.9,4.5,67.3,0.9
			c10.8-1.7,21.4-5,31.1-10c9.2-4.8,17.3-11.4,25.3-17.9c7.9-6.3,16.1-12.9,25.8-16.3c10.1-3.6,21.1-4,31.1-7.9
			c20.4-7.9,27.9-29.8,40.7-45.9c6.7-8.4,13.8-16.7,18.5-26.5c4.9-10.3,6.8-21.3,7.8-32.6c4.9-52.1,6-104.7,4.7-157
			c-0.6-24.4-1-49.2-5.2-73.3c-4.1-23.4-13.7-43.9-26-64c-6-9.9-12.3-19.8-17.4-30.2c-4.4-8.9-7.8-18.3-11-27.8
			c-6.1-17.9-11.6-36.5-21.8-52.6c-4.9-7.7-10.9-14.7-18.2-20.3C784.2,744.1,775.7,752.6,781.8,757.3L781.8,757.3z"/>
	</g>
</g>
<g>
	<g>
		<path d="M553.2,453c-20,3.8-39,11-57.6,19.2c-17.4,7.7-36.9,14.9-51.5,27.4c-26.9,22.9-23,61.2-23.6,92.9
			c-0.7,40.4-16.3,78.4-19.6,118.6c-1.7,20.5-1.2,41.2-4.4,61.5c-3.1,19.9-10.5,38-20.3,55.5c-11.3,20.1-24,39.4-35.2,59.5
			c-11.7,21-22.8,42.4-33.8,63.8c-3.5,6.9,6.8,12.9,10.4,6.1c18.9-36.7,38.6-72.7,60-108c10.1-16.6,19.8-33.6,25.7-52.2
			c6-19.1,7.3-39.3,8.2-59.2c0.9-20.4,2.3-40.4,6.5-60.4c4.2-19.7,9.7-39.2,12.5-59.2c2.4-17.3,1.8-34.6,2.1-52
			c0.3-15.5,1.3-32,9.3-45.8c10.4-17.8,31.7-25.3,49.5-33.5c20.9-9.6,42.2-18.3,64.9-22.6C564,463.2,560.7,451.6,553.2,453
			L553.2,453z"/>
	</g>
</g>
<g>
	<g>
		<path d="M553.9,462.3c14.3-4.3,27.6-1.3,40,6.6c5.7,3.7,11.4,7.5,18.1,9.4c7.3,2.2,14.9,1.9,22.4,2.6c27.5,2.6,42.6,29.3,50.1,53
			c4.6,14.4,7.6,29.3,12.5,43.7c4.5,13.3,10.6,26,17.2,38.5c12.8,24.2,27.7,47.8,34.7,74.5c3.6,13.9,3.4,29.5,11.3,42
			c4.1,6.5,10.2,10.9,16.3,15.4c5.5,4,13.5,10.1,11.9,17.9c-1.6,7.5,10,10.8,11.6,3.2c3.2-15.5-9-25.2-20.1-33.4
			c-6-4.4-10.4-9.4-12.8-16.6c-2.1-6.4-2.9-13.2-4.1-19.8c-5-29.1-19.8-54.8-33.8-80.4c-7-12.8-13.9-25.8-19-39.5
			c-5.6-15-8.8-30.6-13.4-45.9c-7.8-25.8-22.4-53.3-49.8-62.1c-8.3-2.7-17-2.2-25.5-3.2c-8.6-1-15.2-5.4-22.3-9.9
			c-14.7-9.3-31.7-12.5-48.5-7.4C543.3,453,546.4,464.6,553.9,462.3L553.9,462.3z"/>
	</g>
</g>
</svg>
