<?xml version="1.0" encoding="utf-8"?>
<!-- Generator: Adobe Illustrator 22.0.1, SVG Export Plug-In . SVG Version: 6.00 Build 0)  -->
<svg version="1.1" id="Layer_1" xmlns="http://www.w3.org/2000/svg" xmlns:xlink="http://www.w3.org/1999/xlink" x="0px" y="0px"
	 viewBox="0 0 672 393.7" style="enable-background:new 0 0 672 393.7;" xml:space="preserve">
<style type="text/css">
	.st0{fill:#F20808;stroke:#F20808;stroke-miterlimit:10;}
	.st1{fill:#FFFFFF;}
	.st2{fill:none;}
	.st3{font-family:'MyriadPro-Regular';}
	.st4{font-size:95px;}
	.st5{fill:url(#SVGID_1_);stroke:#F20808;stroke-miterlimit:10;}
	.st6{fill:#FCEE21;}
</style>
<path class="st0" d="M654.5,384.2h-630c-6.6,0-12-5.4-12-12v-351c0-6.6,5.4-12,12-12h630c6.6,0,12,5.4,12,12v351
	C666.5,378.8,661.1,384.2,654.5,384.2z"/>
<g id="Layer_2">
	<rect x="60.5" y="46.2" class="st1" width="576" height="302"/>
	<rect x="97" y="93.7" class="st2" width="507" height="264"/>
	<text transform="matrix(1 0 0 1 156.418 161.1159)"><tspan x="0" y="0" class="st3 st4">dish out a</tspan><tspan x="-47.7" y="114" class="st3 st4">compliment</tspan></text>
</g>
<linearGradient id="SVGID_1_" gradientUnits="userSpaceOnUse" x1="33.5" y1="194.6667" x2="79.5" y2="194.6667">
	<stop  offset="0" style="stop-color:#FFFFFF"/>
	<stop  offset="1" style="stop-color:#000000"/>
</linearGradient>
<path class="st5" d="M67.5,288.2h-22c-6.6,0-12-5.4-12-12v-163c0-6.6,5.4-12,12-12h22c6.6,0,12,5.4,12,12v163
	C79.5,282.8,74.1,288.2,67.5,288.2z"/>
<g id="Layer_3">
	<g>
		<g>
			<path class="st6" d="M60.1,142.8c11.1-10.8,27.3-2.3,33.4,9.4c6.6,12.6,6.4,28.4,3.8,42.1c-2.8,14.4-8.6,28.1-15.2,41.1
				c-1.6,3.2-3.5,8.6-6.7,10.5c-3.1,1.9-7.8,1.3-11.1,0.1c-6.6-2.3-11.3-8-12.5-14.8c-0.3-1.9-3.2-1.1-2.9,0.8
				c1.9,10.4,11.7,18.7,22.4,17.9c6.1-0.4,8.6-3.9,11.3-9c3.4-6.6,6.7-13.2,9.5-20.1c5.9-14.1,10.1-29.3,9.8-44.7
				c-0.3-12.1-3.2-25.4-12.2-34.1c-8.6-8.2-22.9-10-31.8-1.3C56.6,142,58.8,144.2,60.1,142.8L60.1,142.8z"/>
		</g>
	</g>
	<g>
		<g>
			<path class="st6" d="M51.2,146.4c-1.5-4.7,1.7-12.3,8-10.6c2-0.1,3,1.2,2.9,4.1c-1,0.8-1.9,1.7-2.9,2.5c-1.4,1.2-2.9,2.5-4.3,3.7
				c-1.6,1.4-5,5.4-7.6,2.3c-1.3-1.6-1-4.5-0.4-6.3c1.5-4.5,6.4-6.8,10.6-8.4c-0.6-0.6-1.2-1.2-1.8-1.8c-0.6,4.2-2.2,7.8-4.9,11
				c0.8,0.1,1.6,0.2,2.4,0.3c0-1.4-0.1-2.9-0.1-4.3c-0.9-0.1-1.8-0.2-2.7-0.4c0.5,3.2,1.5,6,3.2,8.7c0.7,1.1,2.3,0.9,2.7-0.4
				c1.1-3.3,1.5-6.4,1.2-9.9c-0.2-1.9-3-2-3,0c0,6.6,0,13.1,0,19.7c0,1.9,3,1.9,3,0c0-6.6,0-13.1,0-19.7c-1,0-2,0-3,0
				c0.3,3.2-0.1,6.1-1.1,9.1c0.9-0.1,1.8-0.2,2.7-0.4c-1.6-2.6-2.5-5-2.9-8c-0.2-1.3-2.2-1.5-2.7-0.4c-1.3,2.6-1.3,4.8,0.1,7.3
				c0.4,0.8,1.7,1,2.4,0.3c3.1-3.6,5-7.6,5.7-12.3c0.2-1-0.7-2.3-1.8-1.8c-6.8,2.5-14.5,7.4-13.1,15.7c0.4,2.7,2.2,5.9,5.2,6.6
				c4,0.9,8.6-5.3,11.1-7.5c2.2-2,7.1-4.7,6.2-8.4c-0.7-2.9-4.1-4.4-6.8-4.6c-8.1-0.8-13.4,7-11.1,14.5
				C48.9,149,51.8,148.2,51.2,146.4L51.2,146.4z"/>
		</g>
	</g>
	<g>
		<g>
			<path class="st6" d="M52.6,239.2c-0.5-2.7,0.1-5.1,1.6-7.3c-0.9,0-1.7,0-2.6,0c3.8,5.9,6.1,12.3,6.8,19.3
				c0.9-0.4,1.7-0.7,2.6-1.1c-1.8-2.1-2.5-4.1-2.4-6.8c-1,0-2,0-3,0c-0.2,1.2-0.4,2.3-0.6,3.5c0.7-0.2,1.4-0.4,2.1-0.5
				c-2.2-1.3-4.5-2.9-5.8-5.3c-1.7-3.1-0.6-6.8,3.1-7.2c2.8-0.3,5.2,1.2,5.5,4.3c0,1.3-0.3,2.4-0.9,3.5c-0.9,2.1-1.9,1.9-3.1-0.4
				c-1,0-1.9,0-2.9,0c1.2,4.6,1,8.8-0.5,13.3c1,0,1.9,0,2.9,0c-0.6-4.1,0.3-7.6,2.7-11c-0.9-0.3-1.9-0.5-2.8-0.8
				c0,1.3-0.1,2.6-0.1,3.9c0.9-0.4,1.7-0.7,2.6-1.1c-1.1-1.3-2.2-2.6-3.2-4c-0.6,0.8-1.2,1.6-1.8,2.4c0.1,0.3,0.2,0.7,0.3,1
				c0.7,0.3,1.5,0.6,2.2,0.9c-1-3.2-0.9-5.9,0.2-9c-0.7,0.3-1.5,0.6-2.2,0.9c4.2,2,7.1,4.9,9.1,9c0.6-0.7,1.1-1.5,1.7-2.2
				c-5.8-1.3-11.3-2.1-16.9,0.3c-1.8,0.8-0.2,3.3,1.5,2.6c4.8-2.1,9.7-1.1,14.6,0c1.3,0.3,2.3-1,1.7-2.2c-2.2-4.5-5.6-7.9-10.1-10.1
				c-0.9-0.4-1.9-0.1-2.2,0.9c-1.3,3.5-1.3,7-0.2,10.6c0.3,0.9,1.4,1.4,2.2,0.9c2.3-1.5,2.5-5-0.3-6.2c-1.6-0.7-2.9,1-1.8,2.4
				c1.1,1.3,2.2,2.6,3.2,4c0.9,1.1,2.5,0.1,2.6-1.1c0-1.3,0.1-2.6,0.1-3.9c0-1.6-2-1.9-2.8-0.8c-2.8,4-3.7,8.4-3,13.3
				c0.2,1.6,2.5,1.3,2.9,0c1.6-4.9,1.8-9.8,0.5-14.8c-0.4-1.5-2.4-1.3-2.9,0c-1.7,4.8,2.3,8.6,6.5,5.1c3.8-3.2,4.9-9.7,0.7-13.1
				c-3.3-2.6-9-2.2-11.5,1.4c-4.1,5.9,2.2,12.2,7,15c0.7,0.4,1.7,0.2,2.1-0.5c0.9-1.7,1.2-3,1-5c-0.2-1.9-3-2-3,0
				c-0.1,3.5,1,6.3,3.3,9c0.8,0.9,2.7,0.2,2.6-1.1c-0.7-7.6-3.1-14.5-7.2-20.9c-0.6-1-1.9-0.9-2.6,0c-2.1,3-2.6,6-1.9,9.6
				C50,241.9,52.9,241.1,52.6,239.2L52.6,239.2z"/>
		</g>
	</g>
</g>
</svg>
