<?xml version="1.0" encoding="utf-8"?>
<!-- Generator: Adobe Illustrator 22.0.1, SVG Export Plug-In . SVG Version: 6.00 Build 0)  -->
<svg version="1.1" id="Layer_1" xmlns="http://www.w3.org/2000/svg" xmlns:xlink="http://www.w3.org/1999/xlink" x="0px" y="0px"
	 viewBox="0 0 226 125.8" style="enable-background:new 0 0 226 125.8;" xml:space="preserve">
<style type="text/css">
	.st0{fill:#DD6666;}
	.st1{fill:none;}
	.st2{font-family:'Roboto-Regular';}
	.st3{font-size:36px;}
</style>
<g>
	<g>
		<path class="st0" d="M46.3,100.4c46.3-0.7,92.6-1.4,138.9-2c23.2-0.3,36.7-25.1,25.9-45.1c-16.5-30.7-52.6-39-84.7-38.1
			c-7.2,0.2-14.4,0.6-21.7,0.6c-7.8-0.1-15.7-0.9-23.5-0.8c-18.9,0.1-37.5,5.1-51.7,17.9C15,46,8.7,67.6,14.2,86.4
			c3.3,11.1,10.7,20.4,20.4,26.6c8.8,5.6,18.4,7.4,28.6,8.4c14,1.3,28.4,0.4,42.4-0.1c15.2-0.5,30.4-1.4,45.5-2.8
			c9.7-0.8,20.7-1,30-3.7c14.4-4.2,23.8-17.2,26.3-31.5c3.7-21.7-2.3-43.1-17.7-59c-10.9-11.3-31.6-11.8-42.4,0
			c-11.1,12.1-11.7,30.4,0,42.4c0.7,0.7,1.4,1.4,2,2.2c-3.1-4.2-3.8-5-2.1-2.5c1,1.7,1.9,3.4,2.8,5.2c-1-2.4-2-4.8-3-7.2
			c1.3,3.3,2.2,6.5,2.7,10c-0.4-2.7-0.7-5.3-1.1-8c0.3,3,0.3,5.9-0.1,8.9c0.4-2.7,0.7-5.3,1.1-8c-0.4,2.3-0.9,4.6-1.8,6.8
			c1-2.4,2-4.8,3-7.2c-2.5,4.4-0.1,2.1,7.2-7c2.4-1,4.8-2,7.2-3c-0.9,0.4-1.8,0.6-2.8,0.7c2.7-0.4,5.3-0.7,8-1.1
			c-18.5,2.3-37.2,3.5-55.8,4.3c-17.3,0.8-35.6,2.4-52.8,0.3c2.7,0.4,5.3,0.7,8,1.1c-2.9-0.4-5.6-1.1-8.3-2.1c2.4,1,4.8,2,7.2,3
			c-2.9-1.3-6.4-5,0.2,1c-2.1-2.2-1.4-1.3,2,2.9c-0.5-0.8-0.9-1.6-1.3-2.4c1,2.4,2,4.8,3,7.2c-0.7-1.7-1.1-3.4-1.3-5.3
			c0.4,2.7,0.7,5.3,1.1,8c-0.1-1.9-0.1-3.7,0.1-5.5c-0.4,2.7-0.7,5.3-1.1,8c0.3-1.9,0.8-3.6,1.5-5.4c-1,2.4-2,4.8-3,7.2
			c0.5-1.1,1.7-2.6,1.9-3.8c-3.4,4.2-4.1,5-2,2.7c0.5-0.6,1.1-1.1,1.6-1.6c2-2.1-6.6,4.3-1.2,1.1c1.6-0.9,3.2-1.7,4.8-2.4
			c-2.4,1-4.8,2-7.2,3c3.9-1.5,7.9-2.5,12-3.1c-2.7,0.4-5.3,0.7-8,1.1c12.5-1.5,25.2,0.4,37.8,0.2c12.8-0.2,25.6-1.3,38.3,0.2
			c-2.7-0.4-5.3-0.7-8-1.1c5.9,0.8,11.6,2.3,17.1,4.6c-2.4-1-4.8-2-7.2-3c1.8,0.8,3.5,1.7,5.2,2.6c0.8,0.5,1.6,1,2.5,1.5
			c4.1,2.5-4.6-4-2.1-1.6c1.4,1.3,2.7,2.7,4.1,4c2.2,2.2-3.5-5.5-2.1-2.6c0.5,1.1,1.3,2.1,1.8,3.1c8.6-15,17.3-30.1,25.9-45.1
			c-46.3,0.7-92.6,1.4-138.9,2c-15.7,0.2-30.7,13.6-30,30C17,86.5,29.5,100.7,46.3,100.4L46.3,100.4z"/>
	</g>
</g>
<g>
	<g>
		<path class="st0" d="M54.4,72.6c18.4,0.7,36.8,1.4,55.3,2.2c17,0.7,34.4,0.3,51.3,2.3c-2.7-0.4-5.3-0.7-8-1.1
			c3.9,0.5,7.8,1.4,11.5,2.8c-2.4-1-4.8-2-7.2-3c1,0.4,1.9,0.9,2.8,1.3c2.8,1.3,1.8,3.2-2.6-2.3c0.4,0.5,1.2,1.3,1.7,1.7
			c-4.2-3-3.9-5.8-2.1-2c-1-2.4-2-4.8-3-7.2c0.6,1.4,0.9,2.8,1.2,4.3c-0.4-2.7-0.7-5.3-1.1-8c0.8,7.1-1.5,14.1-0.8,21.2
			c0.6,6.8,2.1,12.6,6.4,18.2c3.8,5,9.3,9.3,15.6,10.8c12.5,2.8,27.7-1.7,33.9-13.8c7.2-14.3,13.5-30.1,14.4-46.2
			c1-18.2-10-39.8-29.5-43.1c-8.2-1.4-15.7-1.3-23.1,3c-6.2,3.6-12.2,10.8-13.8,17.9c-3.3,14.6,4.4,34.1,21,36.9
			c0.7,0.1,1.4,0.2,2.1,0.5c-2.4-1-4.8-2-7.2-3c2.5,1.4,1.3,0.4-3.7-3c-3.4-4.9-4.4-6-3-3.4c-1-2.4-2-4.8-3-7.2
			c0.6,1.5,0.9,2.9,1.2,4.4c-0.4-2.7-0.7-5.3-1.1-8c0.2,2,0.2,4,0,6.1c0.4-2.7,0.7-5.3,1.1-8c-1,7.4-3.5,14.7-6.3,21.6
			c1-2.4,2-4.8,3-7.2c-1.2,2.8-2.5,5.6-3.9,8.3c18.6,5,37.3,10.1,55.9,15.1c-0.6-6.9,1.4-13.6,0.9-20.4c-0.9-12.1-5.2-23.6-14.4-32
			c-13.2-12.1-30.6-15.3-47.9-16c-32.6-1.3-65.1-2.6-97.7-3.8c-15.7-0.6-30.7,14.2-30,30C25.1,59.4,37.5,71.9,54.4,72.6L54.4,72.6z"
			/>
	</g>
</g>
<g>
	<g>
		<path class="st0" d="M180.3,6.5c-24.7-2.1-49.5-3.1-74.4-3.1c-12.4,0-24.8,0.3-37.2,0.9c-5.9,0.3-11.7,0.6-17.6,1
			c-9.9,0.6-20,0.8-28.8,6C3.8,22.1,2.3,43.8,4.8,62.8c1.9,14.4,6.1,29.5,15.1,41.2c7.6,9.8,17.3,14.6,29.7,15.6
			c5.7,0.5,11.6,0.1,17.3,0c12.5-0.1,25-0.2,37.5-0.4c28.3-0.3,56.5-0.5,84.8-0.8c-5-18.6-10.1-37.3-15.1-55.9
			c-0.5,0.2-1,0.5-1.5,0.7c2.4-1,4.8-2,7.2-3c-3,1.3-6.1,2-9.3,2.5c2.7-0.4,5.3-0.7,8-1.1c-6.1,0.6-12.1,0.1-18.1-0.6
			c-7.2-0.8-16.3,3.9-21.2,8.8c-5.2,5.2-9.1,13.7-8.8,21.2c0.3,7.8,2.9,15.8,8.8,21.2c6.2,5.7,12.9,7.9,21.2,8.8
			c15.5,1.6,29.9,0.2,44-6.7c11.4-5.6,17.6-22,13.8-33.9c-4.1-12.5-15.3-22.2-28.9-22c-23.7,0.2-47.3,0.5-71,0.7
			c-11.5,0.1-23,0.2-34.5,0.3c-5.9,0.1-11.8,0.1-17.8,0.2c-5.6,0.1-11.4,0.6-17-0.1c2.7,0.4,5.3,0.7,8,1.1c-0.4-0.1-0.9-0.2-1.3-0.3
			c2.4,1,4.8,2,7.2,3c-2.7-1.3-1.8-0.5,2.7,2.4c3.2,4.3,4,5.2,2.4,2.6c-0.8-2.1-2.1-4.2-3-6.3c1,2.4,2,4.8,3,7.2
			c-2.4-6-4-12-4.9-18.4c0.4,2.7,0.7,5.3,1.1,8c-0.6-5.1-0.7-10.2-0.3-15.3c-0.4,2.7-0.7,5.3-1.1,8c0.1-1,0.3-2,0.7-2.9
			c-1,2.4-2,4.8-3,7.2c-9,6.8-11.3,9-6.7,6.8c-2.4,1-4.8,2-7.2,3c1-0.3,2-0.5,3-0.6c-2.7,0.4-5.3,0.7-8,1.1
			c45.9-4.1,92.6-3.3,138.5,0.6c7.3,0.6,16.2-3.8,21.2-8.8c5.2-5.2,9.1-13.7,8.8-21.2C209.5,19.1,197.1,7.9,180.3,6.5L180.3,6.5z"/>
	</g>
</g>
<rect x="23.3" y="21.5" class="st1" width="176" height="72"/>
<text transform="matrix(1 0 0 1 59.0648 48.4615)"><tspan x="0" y="0" class="st2 st3">use as </tspan><tspan x="-29.1" y="43.2" class="st2 st3">staff meal</tspan></text>
<g>
	<g>
		<path d="M88.7,124.8c8.4-1.8,17-1.6,25.5-1.7c8.4-0.1,16.9-0.2,25.3-0.2c16.2-0.2,32.9,0.8,49-1c6.4-0.7,13.2-2.1,18.8-5.4
			c5.2-3.1,6.2-7.6,7.2-13.2c1.4-7.5,5.5-13.9,6.8-21.5c1.1-7.1,0.9-14.4,0.7-21.6c-0.1-1.9-3.1-1.9-3,0c0.2,7.5,0.5,15.1-0.9,22.5
			c-1.2,6.7-5,12.4-6.3,19c-0.7,3.7-0.9,7.2-3.5,10.1c-2.6,2.7-6.4,4-9.9,5.1c-7.2,2.1-14.8,2.5-22.3,2.6
			c-14.8,0.3-29.6,0.3-44.4,0.4c-14.4,0.1-29.7-1.1-43.9,2C86,122.3,86.8,125.2,88.7,124.8L88.7,124.8z"/>
	</g>
</g>
<g>
	<g>
		<path d="M112.3,4.9c12.8,0,25.6,0,38.5,0c6.2,0,12.5,0,18.7,0c6.3,0,13.3-0.7,19.4,1c5.8,1.5,9.5,5.8,14.1,9.3
			c4.4,3.4,9.2,6.1,11.8,11.2c2.9,5.8,3.2,13.1,3.8,19.5c0.5,6.2,0.7,12.3,0.5,18.5c0,1.9,3,1.9,3,0c0.3-12,0.6-26.5-4-37.8
			c-2-4.9-5.5-8.1-9.7-11.1c-4.6-3.3-8.7-7.8-13.6-10.5c-4.8-2.6-10.4-3-15.7-3c-7.1-0.1-14.3,0-21.4,0c-15.1,0-30.2,0-45.4,0
			C110.4,1.9,110.4,4.9,112.3,4.9L112.3,4.9z"/>
	</g>
</g>
<g>
	<g>
		<path d="M111.3,1.9C90.8,2,69.9,1.1,49.5,3.1C33.6,4.6,17.3,8.6,9,23.3C5.2,30,1.2,38,2.1,45.9c1,9.3,3.6,18.6,5.4,27.8
			c0.9,4.7,1.9,9.4,2.8,14c0.8,3.8,1.3,7.8,3.8,11c2.4,2.9,6,4.5,8.3,7.4c2.1,2.6,2.8,6.1,5.6,8.1c3.4,2.5,8.1,2.6,12.1,3.2
			c5.5,0.7,11,1.5,16.5,2.2c12,1.6,23.9,3.3,35.9,4.9c1.9,0.3,2.7-2.6,0.8-2.9c-17.8-2.4-35.6-4.8-53.4-7.3
			c-4.4-0.6-9.2-0.7-11.9-4.8c-1.6-2.5-2.4-5-4.7-7c-2.5-2.3-5.8-3.9-7.6-6.8c-2.4-3.9-2.7-10-3.6-14.4C10.4,72.8,8.7,64.4,7,56
			C6.1,51.7,4.8,47,4.9,42.6c0.1-4.7,2.5-9.3,4.5-13.5c3.6-7.5,8.3-13.6,16-17.3c7.7-3.7,16.6-5,25-5.8c20.2-1.8,40.7-1,60.9-1.1
			C113.3,4.9,113.3,1.9,111.3,1.9L111.3,1.9z"/>
	</g>
</g>
</svg>
