<?xml version="1.0" encoding="utf-8"?>
<!-- Generator: Adobe Illustrator 22.0.1, SVG Export Plug-In . SVG Version: 6.00 Build 0)  -->
<svg version="1.1" id="Layer_1" xmlns="http://www.w3.org/2000/svg" xmlns:xlink="http://www.w3.org/1999/xlink" x="0px" y="0px"
	 viewBox="0 0 1242 2208" style="enable-background:new 0 0 1242 2208;" xml:space="preserve">
<style type="text/css">
	.st0{fill:#FBB03B;}
	.st1{fill:#FFFFFF;}
</style>
<g>
	<g>
		<path class="st0" d="M449.7,1005c14.7-3.7,29.5-6.5,44.5-8.5c-8,1.1-16,2.1-23.9,3.2c34.4-4.5,69.2-4.5,103.7,0
			c-8-1.1-16-2.1-23.9-3.2c16.7,2.3,34.4,4.6,50.1,11c-7.2-3-14.3-6-21.5-9.1c3.9,1.7,7.5,3.7,10.9,6.3c-6.1-4.7-12.1-9.4-18.2-14.1
			c2.3,1.9,4.3,3.8,6.1,6.1c-4.7-6.1-9.4-12.1-14.1-18.2c1.8,2.4,3.2,4.9,4.4,7.7c-3-7.2-6-14.3-9.1-21.5c1.1,2.8,1.8,5.6,2.2,8.5
			c-1.1-8-2.1-16-3.2-23.9c0.5,3.9,0.5,7.7,0,11.6c1.1-8,2.1-16,3.2-23.9c-0.7,4.9-2,9.5-3.9,14.1c3-7.2,6-14.3,9.1-21.5
			c-1.8,4.1-4.1,8-6.7,11.6c4.7-6.1,9.4-12.1,14.1-18.2c-2.8,3.6-6,6.8-9.6,9.6c6.1-4.7,12.1-9.4,18.2-14.1
			c-5.1,3.9-10.6,7-16.5,9.5c7.2-3,14.3-6,21.5-9.1c-10,4.1-20.5,6.4-31.2,7.9c8-1.1,16-2.1,23.9-3.2c-18.5,2.4-37.9,3.6-56.5,1.2
			c8,1.1,16,2.1,23.9,3.2c-8.9-1.3-17.3-3.7-25.6-7.2c7.2,3,14.3,6,21.5,9.1c-16.9-7.3-33-17.7-47.8-28.7
			c6.1,4.7,12.1,9.4,18.2,14.1c-3.4-2.7-6.6-5.5-9.4-8.8c4.7,6.1,9.4,12.1,14.1,18.2c-2.1-2.7-3.8-5.5-5.2-8.6
			c3,7.2,6,14.3,9.1,21.5c-1.6-3.9-2.7-7.9-3.3-12.1c1.1,8,2.1,16,3.2,23.9c-0.5-4.2-0.4-8.4,0.1-12.6c-1.1,8-2.1,16-3.2,23.9
			c0.6-4.2,1.8-8.2,3.4-12.1c-3,7.2-6,14.3-9.1,21.5c1.4-3.1,3-5.9,5-8.7c-4.7,6.1-9.4,12.1-14.1,18.2c2.1-2.7,4.4-5,7-7.2
			c-6.1,4.7-12.1,9.4-18.2,14.1c3.4-2.5,6.9-4.5,10.8-6.2c-7.2,3-14.3,6-21.5,9.1c6-2.4,12.3-3.8,18.7-4.7c-8,1.1-16,2.1-23.9,3.2
			c11.8-1.4,23.7-1.5,35.6-1.6c13-0.1,26,0.2,38.9,2c-8-1.1-16-2.1-23.9-3.2c11.1,1.6,22,4.3,32.4,8.6c-7.2-3-14.3-6-21.5-9.1
			c7.3,3.1,14.1,7,20.5,11.7c-6.1-4.7-12.1-9.4-18.2-14.1c5.4,4.2,10.3,8.9,14.5,14.4c-4.7-6.1-9.4-12.1-14.1-18.2
			c1.9,2.6,3.6,5.4,5,8.3c-3-7.2-6-14.3-9.1-21.5c1.1,2.6,1.8,5,2.3,7.8c-1.1-8-2.1-16-3.2-23.9c0.3,2.7,0.2,5.4-0.1,8.1
			c1.1-8,2.1-16,3.2-23.9c-0.5,2.7-1.3,5.3-2.3,7.8c3-7.2,6-14.3,9.1-21.5c-2.3,5.3-5.3,10-8.7,14.6c4.7-6.1,9.4-12.1,14.1-18.2
			c-7.5,9.6-15.9,18.7-25.5,26.3c6.1-4.7,12.1-9.4,18.2-14.1c-5.2,4-10.7,7.4-16.7,10c7.2-3,14.3-6,21.5-9.1
			c-4.2,1.7-8.6,2.8-13.1,3.4c8-1.1,16-2.1,23.9-3.2c-4,0.5-7.9,0.5-11.9,0c8,1.1,16,2.1,23.9,3.2c-3.4-0.5-6.7-1.3-9.9-2.6
			c7.2,3,14.3,6,21.5,9.1c-2.7-1.2-5.2-2.6-7.6-4.4c-10.3-6.6-21.5-10.1-33.5-10.7c-12-2.7-23.9-2.1-35.9,1.6
			c-11.7,2.8-21.9,8.2-30.6,16.1c-9.8,6.3-17.5,14.8-23.2,25.3c-11,20.9-16.6,46.2-9.1,69.4c3,7.2,6,14.3,9.1,21.5
			c8,13.5,18.8,24.3,32.3,32.3c8.5,6.3,19.4,9.8,29.1,13.5c7.2,2.7,14.2,3.2,21.9,4.2c7.2,1,14.3,2.4,21.6,1.8
			c11-0.9,22.7-1.9,33.5-4.9c10.3-2.9,20.4-7.7,30-12.3c3.7-1.8,7.2-3.9,10.6-6.2c12.3-8.7,24.5-17.9,34.9-28.8
			c10.3-10.8,19.6-22.8,28.2-34.9c2.3-3.3,4.3-6.7,6-10.3c3.8-8.1,7.7-16.8,10.6-25.3c3-9,3.8-22.2,4.6-29.4
			c0.2-1.6,0.4-3.2,0.4-4.8c0-1.1-0.1-2.2-0.2-3.3c-0.6-6.9-2-18-3.3-24.7c-2.1-11-7.3-21.7-12.7-31.3c-5.3-9.5-12.7-17.8-19.6-26.2
			c-2.5-3-5.3-5.8-8.2-8.4c-23-20.1-47.7-34.3-77.2-42.8c-15.3-4.4-31.6-6-47.4-7.8c-9.1-1.1-18.3-1.4-27.5-1.5
			c-24.3-0.2-48,1.2-72,5.5c-3.7,0.7-7.4,1.6-10.9,2.8c-8.5,3-17,6.8-25.2,10.5c-1.9,0.9-3.8,1.8-5.7,2.9c-1.5,0.9-2.9,1.9-4.4,3
			c-6.9,5.1-14.3,10.3-20.6,16.1c-1.1,1-2.1,2.1-3,3.2c-5.7,6.7-11.4,14-16.4,21.2c-1.7,2.4-3,5-4.3,7.7
			c-4.3,9.3-9.2,19.1-11.6,29.3c-2.4,10.2-3.6,21-4.4,31.4c-0.2,3.2-0.1,6.3,0.2,9.5c1.1,10.3,1.7,21.3,4.8,31.3
			c0.4,1.4,1,2.8,1.5,4.1c3.3,8.3,6.5,17,10.7,24.9c6.6,12.4,16.1,24.1,27.3,32.8c18.7,14.7,38.2,29.4,59.7,39.9
			c9.8,4.8,20.1,8.9,30.2,12.9c4,1.6,8.1,3,12.3,4.1c11.3,2.9,23.2,3.9,34.8,5.3c4.6,0.6,9.3,1,13.9,1.1c24,0.7,48.6-2.5,72.1-6.4
			c7.7-1.3,15.3-3.1,22.6-5.9c13.5-5.2,28.4-10.5,40.3-19.3c8.3-6.1,17.3-12.1,24.5-19.6c7.3-7.6,13.7-16.4,19.6-25
			c1.8-2.6,3.3-5.4,4.6-8.2c4.4-9.3,9-19.1,11.9-29c2.9-10.2,3.8-21.3,4.8-31.7c0.3-3.2,0.4-6.4,0.2-9.7c-0.7-8.8-2-18.4-3.6-27.1
			c-0.3-1.5-0.6-2.9-1-4.3c-2.5-8.4-6.6-16.5-10.1-24.5c-0.7-1.5-1.4-3.1-2.2-4.5c-2.5-4.3-6.3-8.6-9.2-12.3
			c-3-3.8-6.1-8.4-9.6-12.1c-3.7-3.8-8.6-7.1-12.6-10.2c-4.3-3.3-8.8-7.3-13.6-10.1c-12.7-7.5-27.2-13.1-41.6-16.6
			c-24.6-6-50.2-9.2-75.3-11.5c-43.6-4.1-87.3-0.1-130.3,7.7c-9,1.6-17.9,3.6-26.8,5.8c-11.7,2.8-21.9,8.2-30.6,16.1
			c-9.8,6.3-17.5,14.8-23.2,25.3c-6.6,10.3-10.1,21.5-10.7,33.5c-2.7,12-2.1,23.9,1.6,35.9c7,21.8,20.5,42.8,41.4,53.8
			c7.2,3,14.3,6,21.5,9.1C417.8,1009.3,433.8,1009.3,449.7,1005L449.7,1005z"/>
	</g>
</g>
<g>
	<g>
		<path class="st1" d="M470.4,1034c-5-3.4-9.9-7-14.7-10.6c6.1,4.7,12.1,9.4,18.2,14.1c-20-15.5-37.9-33.5-53.4-53.5
			c4.7,6.1,9.4,12.1,14.1,18.2c-12.5-16.2-23.8-33.7-32-52.5c3,7.2,6,14.3,9.1,21.5c-4.3-10.2-7.5-20.7-9.1-31.7
			c1.1,8,2.1,16,3.2,23.9c-0.9-7-1.1-14-0.2-21c-1.1,8-2.1,16-3.2,23.9c0.8-5.4,2.1-10.5,4.2-15.5c-3,7.2-6,14.3-9.1,21.5
			c1.9-4.2,4.1-8,6.8-11.7c-4.7,6.1-9.4,12.1-14.1,18.2c3.3-4.1,7-7.7,11.1-10.9c-6.1,4.7-12.1,9.4-18.2,14.1
			c6.4-4.8,13.4-8.5,20.7-11.6c-7.2,3-14.3,6-21.5,9.1c14.6-6,30.1-10.3,45.8-12.6c-8,1.1-16,2.1-23.9,3.2c11-1.5,21.9-1.8,32.9-0.4
			c-8-1.1-16-2.1-23.9-3.2c9.2,1.3,17.9,3.9,26.5,7.4c-7.2-3-14.3-6-21.5-9.1c14.1,6.1,26.9,14.5,39,23.9
			c-6.1-4.7-12.1-9.4-18.2-14.1c19.9,15.5,38.3,33,53.9,52.9c-4.7-6.1-9.4-12.1-14.1-18.2c11,14.2,20.3,29.6,27.4,46.1
			c-3-7.2-6-14.3-9.1-21.5c3.1,7.5,5.8,15.1,7,23.2c-1.1-8-2.1-16-3.2-23.9c0.6,4.4,0.7,8.8,0.2,13.2c1.1-8,2.1-16,3.2-23.9
			c-0.4,2.9-1.1,5.7-2.2,8.4c3-7.2,6-14.3,9.1-21.5c-0.8,1.9-1.8,3.6-3,5.2c4.7-6.1,9.4-12.1,14.1-18.2c-1.3,1.6-2.7,3-4.4,4.3
			c6.1-4.7,12.1-9.4,18.2-14.1c-1.6,1.1-3.3,2.1-5.1,2.8c7.2-3,14.3-6,21.5-9.1c-1.9,0.7-3.8,1.2-5.8,1.6c8-1.1,16-2.1,23.9-3.2
			c-4.2,0.5-8.2,0.4-12.4-0.2c8,1.1,16,2.1,23.9,3.2c-10.2-1.6-20.1-5.1-29.6-9c7.2,3,14.3,6,21.5,9.1c-13.3-5.7-25.7-13-37.2-21.7
			c6.1,4.7,12.1,9.4,18.2,14.1c-11.4-8.9-21.6-19.1-30.4-30.5c4.7,6.1,9.4,12.1,14.1,18.2c-6.5-8.6-12.5-17.7-16.8-27.6
			c3,7.2,6,14.3,9.1,21.5c-1.5-3.8-2.7-7.7-3.3-11.8c1.1,8,2.1,16,3.2,23.9c-0.4-3.2-0.4-6.3,0-9.5c-1.1,8-2.1,16-3.2,23.9
			c0.5-2.8,1.2-5.4,2.3-8c-3,7.2-6,14.3-9.1,21.5c1.3-3,3-5.8,4.9-8.5c-4.7,6.1-9.4,12.1-14.1,18.2c2.7-3.4,5.7-6.4,9.1-9.2
			c-6.1,4.7-12.1,9.4-18.2,14.1c3.9-3,8.1-5.4,12.6-7.4c-7.2,3-14.3,6-21.5,9.1c6-2.5,12.3-4.1,18.8-4.9c-8,1.1-16,2.1-23.9,3.2
			c8.1-0.9,16.2-0.7,24.3,0.3c-8-1.1-16-2.1-23.9-3.2c12.3,1.8,24.1,5.4,35.6,10.2c-7.2-3-14.3-6-21.5-9.1
			c15.5,6.6,29.9,15.2,43.3,25.4c-6.1-4.7-12.1-9.4-18.2-14.1c13.7,10.6,26,22.9,36.7,36.5c-4.7-6.1-9.4-12.1-14.1-18.2
			c10.6,13.7,19.4,28.6,26.2,44.6c-3-7.2-6-14.3-9.1-21.5c2.2,5.2,4.2,10.3,5,15.9c-1.1-8-2.1-16-3.2-23.9c0.1,1.8,0.1,3.4,0,5.1
			c1.1-8,2.1-16,3.2-23.9c-0.2,1.4-0.6,2.6-1,4c3-7.2,6-14.3,9.1-21.5c-0.7,1.7-1.6,3.2-2.7,4.8c4.7-6.1,9.4-12.1,14.1-18.2
			c-1.2,1.5-2.4,2.7-3.9,4c6.1-4.7,12.1-9.4,18.2-14.1c-1.9,1.5-3.8,2.6-6,3.6c7.2-3,14.3-6,21.5-9.1c-2.2,0.9-4.4,1.5-6.8,1.9
			c8-1.1,16-2.1,23.9-3.2c-2.6,0.3-5.2,0.2-7.8-0.1c8,1.1,16,2.1,23.9,3.2c-3.2-0.5-6.2-1.4-9.3-2.6c7.2,3,14.3,6,21.5,9.1
			c-4-1.8-7.7-4-11.2-6.6c6.1,4.7,12.1,9.4,18.2,14.1c-4.6-3.6-8.6-7.6-12.2-12.1c4.7,6.1,9.4,12.1,14.1,18.2
			c-3.7-4.9-6.8-10.2-9.3-15.9c3,7.2,6,14.3,9.1,21.5c-2.5-6.2-4.3-12.6-5.2-19.2c1.1,8,2.1,16,3.2,23.9c-0.7-6.2-0.8-12.3,0-18.4
			c-1.1,8-2.1,16-3.2,23.9c0.8-5.7,2.3-11.2,4.4-16.5c-3,7.2-6,14.3-9.1,21.5c2.3-5.3,5.2-10.3,8.7-14.9
			c-4.7,6.1-9.4,12.1-14.1,18.2c3.9-5,8.3-9.4,13.3-13.2c-6.1,4.7-12.1,9.4-18.2,14.1c5-3.8,10.4-7,16.2-9.5c-7.2,3-14.3,6-21.5,9.1
			c5.8-2.4,11.8-4.1,18-5c-8,1.1-16,2.1-23.9,3.2c5.8-0.7,11.4-0.7,17.2,0c-8-1.1-16-2.1-23.9-3.2c6.1,0.9,12,2.6,17.7,5
			c-7.2-3-14.3-6-21.5-9.1c5.7,2.5,10.9,5.6,15.9,9.4c-6.1-4.7-12.1-9.4-18.2-14.1c4.9,3.8,9.2,8.2,13.1,13
			c-4.7-6.1-9.4-12.1-14.1-18.2c3.5,4.6,6.3,9.4,8.7,14.6c-3-7.2-6-14.3-9.1-21.5c2.2,5.1,3.7,10.4,4.5,15.9c-1.1-8-2.1-16-3.2-23.9
			c0.6,4.7,0.7,9.4,0.2,14.1c1.1-8,2.1-16,3.2-23.9c-0.6,4.1-1.6,8-3.2,11.8c3-7.2,6-14.3,9.1-21.5c-1.3,2.8-2.9,5.4-4.8,7.9
			c4.7-6.1,9.4-12.1,14.1-18.2c-1.8,2.1-3.7,3.9-5.8,5.7c6.1-4.7,12.1-9.4,18.2-14.1c-2.5,1.9-5.2,3.4-8.1,4.7
			c7.2-3,14.3-6,21.5-9.1c-3.8,1.6-7.7,2.6-11.8,3.2c8-1.1,16-2.1,23.9-3.2c-5.1,0.6-10.1,0.6-15.2-0.1c8,1.1,16,2.1,23.9,3.2
			c-5.1-0.8-10-2.2-14.8-4.2c7.2,3,14.3,6,21.5,9.1c-5.3-2.4-10.2-5.3-14.9-8.8c6.1,4.7,12.1,9.4,18.2,14.1
			c-4.6-3.6-8.6-7.7-12.2-12.3c4.7,6.1,9.4,12.1,14.1,18.2c-3.8-5-7-10.4-9.5-16.2c3,7.2,6,14.3,9.1,21.5
			c-2.2-5.4-3.8-10.9-4.6-16.7c1.1,8,2.1,16,3.2,23.9c-0.6-4.9-0.7-9.8,0-14.7c-1.1,8-2.1,16-3.2,23.9c0.5-3.4,1.4-6.6,2.7-9.8
			c-3,7.2-6,14.3-9.1,21.5c1.2-2.6,2.6-5.1,4.3-7.4c-4.7,6.1-9.4,12.1-14.1,18.2c1.3-1.5,2.6-2.9,4.1-4.1
			c-6.1,4.7-12.1,9.4-18.2,14.1c2.4-1.9,5-3.3,7.8-4.6c-7.2,3-14.3,6-21.5,9.1c3.4-1.3,6.8-2.1,10.4-2.7c-8,1.1-16,2.1-23.9,3.2
			c6.1-0.7,12.1-0.6,18.2,0.2c-8-1.1-16-2.1-23.9-3.2c6.9,1,13.6,2.9,20.1,5.5c-7.2-3-14.3-6-21.5-9.1c6.9,3,13.3,6.7,19.3,11.3
			c-6.1-4.7-12.1-9.4-18.2-14.1c5.1,4.1,9.7,8.6,13.8,13.7c-4.7-6.1-9.4-12.1-14.1-18.2c2.6,3.4,5.3,7,7.1,10.9
			c-3-7.2-6-14.3-9.1-21.5c0.1,0.3,0.2,0.7,0.3,1c-1.1-8-2.1-16-3.2-23.9c0.1,1.1,0.2,2.1,0,3.3c1.1-8,2.1-16,3.2-23.9
			c-0.1,0.7-0.3,1.3-0.5,2c3-7.2,6-14.3,9.1-21.5c-0.2,0.6-0.5,1.1-0.8,1.5c4.7-6.1,9.4-12.1,14.1-18.2c-0.2,0.2-0.4,0.3-0.5,0.5
			c6.1-4.7,12.1-9.4,18.2-14.1c-0.2,0.1-0.4,0.2-0.6,0.3c15.1-4.1,30.3-8.2,45.4-12.3c-0.2,0-0.4,0-0.6,0c8,1.1,16,2.1,23.9,3.2
			c-0.2-0.1-0.4-0.2-0.7-0.2c13.2,7.7,26.5,15.4,39.7,23.1c-0.2-0.2-0.5-0.4-0.7-0.5c-8.2-8.8-17.8-15-29-18.6
			c-10.7-5.6-22.3-8.2-34.7-7.8c-12.4-0.5-23.9,2.1-34.7,7.8c-11.2,3.6-20.8,9.8-29,18.6c-15.7,17.2-27.4,39.7-26.4,63.6
			c1.1,8,2.1,16,3.2,23.9c4.3,15.2,12,28.5,23.1,39.7c4.9,3.9,13.5,11.5,18.9,14.6c3,1.7,19,8.4,22.2,9.3c1.7,0.5,22.6,3.1,24.2,3.2
			c17.1,0.7,21.9-2.3,35-7.8c14-5.9,8.5-2.6,20.4-11.9c5.9-4.5,6.5-4.6,9.6-7.5c10.5-9.7,20.8-27.9,24.1-41.7c1.1-4.5,1.2-8,2-13.5
			c-0.9,6.5,1.8-9.5,1.7-13c0-0.8-0.1-1.4-0.2-2.2c-0.4-6-1.8-19.2-3.5-24.9c-1.5-5.2-6.9-17.7-9.5-22.4c-0.4-0.7-0.7-1.3-1.1-1.9
			c-1.2-1.9-2.4-3.8-3.7-5.6c-8.7-11.9-17.5-24.4-29-33.8c-11.5-9.3-23.1-19.2-36.7-25.3c-13.4-6-26.9-12.5-41.5-15
			c-11-1.8-22.4-3.8-33.6-4.1c-11.4-0.3-24.2,2-34.7,3.8c-10.9,1.8-21.4,7.1-31.1,11.6c-1.6,0.7-3.2,1.5-4.7,2.4
			c-0.9,0.5-1.7,1.1-2.5,1.7c-6.3,4.6-14.3,10.1-20,15.5c-3.8,3.7-6.7,8-10,12.3c-3,3.9-6.8,8.2-9.5,12.6c-4.6,7.8-7.8,16.9-11,25.3
			c-0.7,1.8-1.3,3.6-1.8,5.5c-2.3,9.1-3,18.9-4.1,28.2c-0.2,1.7-0.4,3.4-0.5,5.1c-0.4,11.6,2,23.7,3.9,34.9c0.6,3.3,1.3,6.6,2.4,9.8
			c3.4,10.5,8,20.9,12.9,30.9c1.6,3.2,3.5,6.4,5.6,9.3c6.3,9,12.9,18,20.5,26.1c2.5,2.6,5.2,5,8,7.3c8.5,6.8,17.1,14.3,26.6,19.7
			c9.2,5.2,19.5,9,29.3,12.8c3.5,1.4,7,2.4,10.7,3.1c10.8,2.1,21.9,3.9,32.9,4.2c11.2,0.3,22.7-2,33.6-3.8c3.4-0.6,6.6-1.4,9.8-2.6
			c9.6-3.6,20.8-7.4,29.7-13.5c7.3-5,14.8-10.7,21.3-16.6c1.2-1.1,2.2-2.2,3.3-3.4c12.5-14.3,17.1-21.4,23.8-37.4
			c3-7.1,6.2-13.6,7.5-21.1c1.9-10.8,4.4-23.3,3.7-34.8c-0.6-11.1-2.1-22.5-4.5-33.3c-0.9-3.9-2.2-7.6-3.7-11.2
			c-3.9-9.4-7.8-20.6-13.3-29.7c-5.7-9.3-13-18-19.8-26.3c-2.3-2.7-4.7-5.3-7.4-7.7c-8.1-7.3-17-14.1-26-20.3c-2.9-2-6-3.8-9.2-5.4
			c-9.9-4.9-20.2-9.4-30.7-12.8c-14.1-4.6-29.5-6.5-44.2-6.5c-10.9,0-21.9,2.2-32.6,3.8c-3.8,0.6-7.6,1.3-11.3,2.5
			c-13.9,4.3-28.2,10-40.4,18.1c-8.9,6-17.6,12.7-25.7,19.8c-2.9,2.5-5.6,5.3-8.1,8.2c-6.9,8.2-13.9,16.7-19.6,25.8
			c-4,6.4-6.6,13.4-9.5,20.4c-2.8,6.7-5.9,13.2-7.7,20.3c-2.7,11-3.8,22.5-4.8,33.7c-0.3,3.3-0.4,6.6-0.2,9.9
			c0.6,11.3,2.3,22.7,4.4,33.8c0.7,3.5,1.6,7,2.7,10.3c3.6,10.4,8,20.8,12.9,30.7c1.6,3.2,3.4,6.2,5.5,9.1
			c6.3,8.9,12.8,18,20.4,25.9c5,5.2,11,9.4,16.7,13.8c6.4,5,12.3,9.9,19.6,13.3c10,4.6,20.5,10.1,31.5,12c9,1.6,18.7,3.4,27.9,3.5
			c1,0,2.1-0.1,3.1-0.1c7.9-0.6,18.2-1.8,26-3.5c10.3-2.2,20.3-6.8,29.4-12c0.8-0.5,1.6-1,2.4-1.5c6-4.1,13.9-10.1,19.3-14.9
			c1.4-1.2,2.6-2.5,3.9-4c12.6-14.9,21.4-27.1,26.4-46.4c1.1-4.4,1.6-10.5,2-14c0.5-4,1.7-9.8,1.8-14.5c0.1-9.7-1.8-19.5-3.7-29
			c-0.8-4.1-2.4-8.1-4-12c-4.3-10.4-8.5-21-13.4-31.3c-3.4-7.1-7.3-14-11.5-20.6c-8.1-12.7-17.6-24.5-26.9-36.2
			c-4.8-6-9.9-11.6-15.3-17c-5.6-5.6-11.5-10.8-17.7-15.7c-11.8-9.3-23.5-18.8-36.3-26.8c-6.7-4.2-13.6-7.9-20.8-11.3
			c-14.3-6.7-29.1-13.3-44.4-17.9c-15.5-4.7-32.1-6.6-48.1-8c-16.3-1.4-33.3,1.2-49,4.5c-3.9,0.8-7.7,1.9-11.4,3.4
			c-9.9,3.8-21.2,7.9-30.6,13.7c-9.1,5.7-17.8,12.6-25.8,19.8c-7.8,7-15.5,18.1-20.8,25.6c-13.1,18.7-17.3,40.6-19.2,62.8
			c-0.2,1.8-0.2,3.6-0.1,5.5c0.6,9.2,2,19.2,3.7,28.2c2.3,11.6,8,22.6,12.8,33.2c3.5,7.7,8,14.9,12.9,21.7
			c8.7,12.2,17.9,24.5,28.3,35.4c5.5,5.8,11.4,11.2,17.6,16.1c11.8,9.3,23.6,19,36.6,26.8c6.6,4,13.5,7.4,20.6,10.4
			c13.9,6,27.9,12.5,42.6,16.3c23.7,6.2,44.9,6.6,68.7,1.9c10.8-2.1,21.4-6.7,30.7-12.4c15.2-9.3,21.5-15.9,31.4-28.6
			c2.6-3.4,6.7-7.9,9-12.1c4.2-7.6,7.7-16.7,10.6-24.8c0.5-1.4,0.9-2.7,1.2-4.2c2-9.1,3.2-19,3.9-28.3c0.2-3.1,0.3-6.2,0-9.3
			c-1-11.1-2.2-22.5-4.8-33.3c-3.4-14.4-10.5-28.5-16.4-41.8c-3.5-7.7-7.4-15.1-11.8-22.3c-6.3-10.3-13.6-19.7-21-29.2
			c-7.4-9.6-14.8-19-23-27.8c-11.5-12.2-24-23.4-37.2-33.7c-12.4-9.7-24.9-19.9-38.4-28.3c-13.6-8.4-28.5-14.3-43.3-20.2
			c-15.4-6.2-31.6-7.7-48.1-9.7c-9.1-1.1-18.3-1.2-27.4-0.3c-25.8,2.6-51.1,6.7-75.2,16.5c-14.1,5.8-29.1,11.1-41.6,20.2
			c-8.8,6.4-18.2,12.9-25.9,20.7c-1.3,1.3-2.5,2.7-3.6,4.1c-5.9,7.3-12.1,14.7-17.2,22.6c-5.8,9-9.3,19.6-13.3,29.4
			c-1.5,3.6-2.7,7.3-3.5,11.2c-2.9,14.5-5.6,30.4-4.2,45.5c1.4,15.3,3.2,31.2,7.8,46c4.6,14.7,10.9,29,17.6,42.8
			c7.2,14.8,16.4,28.8,26.3,42c14.6,19.3,29.3,38.3,47,55c17.1,16.2,36,30.7,55.4,44c10.3,6.6,21.5,10.1,33.5,10.7
			c12,2.7,23.9,2.1,35.9-1.6c11.7-2.8,21.9-8.2,30.6-16.1c9.8-6.3,17.5-14.8,23.2-25.3c11-20.9,16.6-46.2,9.1-69.4
			c-3-7.2-6-14.3-9.1-21.5C494.7,1052.7,483.9,1042,470.4,1034L470.4,1034z"/>
	</g>
</g>
<g>
	<g>
		<path class="st1" d="M383.9,1034.6c-0.8-0.6-1.5-1.1-2.3-1.7c6.1,4.7,12.1,9.4,18.2,14.1c-7-5.5-13.2-11.8-18.7-18.9
			c4.7,6.1,9.4,12.1,14.1,18.2c-6.5-8.6-11.7-18-16-27.9c3,7.2,6,14.3,9.1,21.5c-7.7-18.4-12-38-14.8-57.8c1.1,8,2.1,16,3.2,23.9
			c-3.5-26.5-6.2-54.7-2.8-81.4c-1.1,8-2.1,16-3.2,23.9c1.1-8.2,3-16.1,6.1-23.7c-3,7.2-6,14.3-9.1,21.5c2.5-5.9,5.6-11.3,9.5-16.3
			c-4.7,6.1-9.4,12.1-14.1,18.2c3.9-4.9,8.4-9.2,13.4-13.1c-6.1,4.7-12.1,9.4-18.2,14.1c7.5-5.6,15.6-10,24.2-13.7
			c-7.2,3-14.3,6-21.5,9.1c17-7.1,35-11.2,52.9-15.1c21.4-4.6,42.9-8.4,64.6-11.3c-8,1.1-16,2.1-23.9,3.2
			c71-9.4,143.1-9.6,214.1-0.1c-8-1.1-16-2.1-23.9-3.2c39.6,5.4,80.2,12.4,117.2,27.9c-7.2-3-14.3-6-21.5-9.1
			c14.5,6.2,28.3,13.8,40.8,23.3c-6.1-4.7-12.1-9.4-18.2-14.1c10.3,8,19.4,17.2,27.4,27.5c-4.7-6.1-9.4-12.1-14.1-18.2
			c8.5,11.1,15.5,23.2,21,36.1c-3-7.2-6-14.3-9.1-21.5c5.8,13.8,9.7,28.3,11.8,43.1c-1.1-8-2.1-16-3.2-23.9
			c1.8,13.9,1.9,27.8,0.1,41.7c1.1-8,2.1-16,3.2-23.9c-1.8,13.6-5.5,26.7-10.8,39.3c3-7.2,6-14.3,9.1-21.5
			c-5.8,13.6-13.4,26.3-22.5,38c4.7-6.1,9.4-12.1,14.1-18.2c-10.7,13.7-23.2,25.9-37,36.5c6.1-4.7,12.1-9.4,18.2-14.1
			c-16.4,12.5-34.3,22.8-53.2,30.9c7.2-3,14.3-6,21.5-9.1c-26.2,11-54.1,17.7-82.2,21.5c8-1.1,16-2.1,23.9-3.2
			c-27.6,3.6-55.4,4.6-83.1,4.1c-27.5-0.5-55.1-1.7-82.3-5.4c8,1.1,16,2.1,23.9,3.2c-22.8-3.1-45.2-8.3-66.5-17.3
			c7.2,3,14.3,6,21.5,9.1c-9.9-4.3-19.3-9.3-27.8-15.9c6.1,4.7,12.1,9.4,18.2,14.1c-4.7-3.8-9-8-12.8-12.7
			c4.7,6.1,9.4,12.1,14.1,18.2c-4.4-5.7-7.9-11.9-10.7-18.6c3,7.2,6,14.3,9.1,21.5c-3.9-9.7-6.3-19.8-7.8-30.1
			c1.1,8,2.1,16,3.2,23.9c-2.2-16.9-2.6-34.4-0.3-51.3c-1.1,8-2.1,16-3.2,23.9c1.1-7.5,2.9-14.8,5.9-21.8c-3,7.2-6,14.3-9.1,21.5
			c1.9-4.2,4.1-8.1,6.9-11.8c-4.7,6.1-9.4,12.1-14.1,18.2c2.7-3.5,5.8-6.6,9.2-9.4c-6.1,4.7-12.1,9.4-18.2,14.1
			c3.1-2.4,6.3-4.3,9.8-5.9c-7.2,3-14.3,6-21.5,9.1c3.1-1.3,6.2-2.2,9.5-2.8c-8,1.1-16,2.1-23.9,3.2c3.5-0.4,6.9-0.4,10.5,0.1
			c-8-1.1-16-2.1-23.9-3.2c3.7,0.6,7.1,1.7,10.6,3.1c-7.2-3-14.3-6-21.5-9.1c5.4,2.5,10.4,5.6,15.1,9.3c-6.1-4.7-12.1-9.4-18.2-14.1
			c11.3,9,21.3,19.6,30.2,31c-4.7-6.1-9.4-12.1-14.1-18.2c8.4,11,15.9,22.8,21.5,35.5c-3-7.2-6-14.3-9.1-21.5
			c2,4.8,3.6,9.7,4.4,14.8c-1.1-8-2.1-16-3.2-23.9c0.4,3,0.5,5.9,0.2,8.8c1.1-8,2.1-16,3.2-23.9c-0.4,2.4-1,4.6-1.9,6.9
			c3-7.2,6-14.3,9.1-21.5c-0.7,1.3-1.4,2.5-2.2,3.8c4.7-6.1,9.4-12.1,14.1-18.2c-1.2,1.5-2.5,2.9-4,4.1c6.1-4.7,12.1-9.4,18.2-14.1
			c-2,1.5-4,2.6-6.2,3.7c7.2-3,14.3-6,21.5-9.1c-5.6,2.4-11.5,3.5-17.5,4.3c8-1.1,16-2.1,23.9-3.2c-17.5,2.3-35.2,2.2-52.7,0
			c8,1.1,16,2.1,23.9,3.2c-18.1-2.5-35.7-7.2-52.6-14.2c7.2,3,14.3,6,21.5,9.1c-12.1-5.1-24.3-11.2-34.8-19.2
			c6.1,4.7,12.1,9.4,18.2,14.1c-3.6-2.9-6.8-6-9.6-9.6c4.7,6.1,9.4,12.1,14.1,18.2c-1.4-2-2.6-4-3.6-6.2c3,7.2,6,14.3,9.1,21.5
			c-0.7-1.8-1.2-3.5-1.6-5.4c1.1,8,2.1,16,3.2,23.9c-0.3-1.9-0.3-3.8-0.2-5.7c-1.1,8-2.1,16-3.2,23.9c0.3-2.1,0.8-4,1.6-6
			c-3,7.2-6,14.3-9.1,21.5c0.9-1.9,1.9-3.6,3.1-5.2c-4.7,6.1-9.4,12.1-14.1,18.2c1.6-2,3.4-3.7,5.3-5.3c-6.1,4.7-12.1,9.4-18.2,14.1
			c3.9-3,8.2-5.3,12.7-7.3c-7.2,3-14.3,6-21.5,9.1c12.2-5.1,25.4-8.4,38.5-10.3c-8,1.1-16,2.1-23.9,3.2c8.1-1.1,16.2-1.4,24.3-0.4
			c-8-1.1-16-2.1-23.9-3.2c4.5,0.7,8.8,1.8,13,3.5c-7.2-3-14.3-6-21.5-9.1c3.3,1.5,6.3,3.2,9.2,5.4c-6.1-4.7-12.1-9.4-18.2-14.1
			c2.6,2.1,4.9,4.5,7.1,7.1c-4.7-6.1-9.4-12.1-14.1-18.2c2.5,3.4,4.5,7,6.1,10.9c-3-7.2-6-14.3-9.1-21.5c2.9,7.5,4.5,15.3,5.6,23.2
			c-1.1-8-2.1-16-3.2-23.9c1.4,10.6,1.8,21.2,0.5,31.8c1.1-8,2.1-16,3.2-23.9c-0.9,6.4-2.3,12.6-4.7,18.6c3-7.2,6-14.3,9.1-21.5
			c-1.6,3.7-3.5,7.2-5.9,10.5c4.7-6.1,9.4-12.1,14.1-18.2c-1.9,2.5-4.1,4.7-6.5,6.8c6.1-4.7,12.1-9.4,18.2-14.1
			c-2.6,2-5.3,3.6-8.3,4.9c7.2-3,14.3-6,21.5-9.1c-2.6,1.1-5.3,1.8-8.1,2.2c8-1.1,16-2.1,23.9-3.2c-2.9,0.3-5.7,0.4-8.6,0.1
			c8,1.1,16,2.1,23.9,3.2c-3.4-0.5-6.5-1.3-9.7-2.5c7.2,3,14.3,6,21.5,9.1c-2.7-1.2-5.1-2.6-7.5-4.2c6.1,4.7,12.1,9.4,18.2,14.1
			c-2.3-1.8-4.3-3.8-6.1-6c4.7,6.1,9.4,12.1,14.1,18.2c-1.7-2.3-3.1-4.8-4.3-7.4c3,7.2,6,14.3,9.1,21.5c-1.1-2.7-1.8-5.4-2.3-8.3
			c1.1,8,2.1,16,3.2,23.9c-0.4-3.4-0.5-6.6-0.1-10c-1.1,8-2.1,16-3.2,23.9c0.4-2.9,1.2-5.6,2.2-8.3c-3,7.2-6,14.3-9.1,21.5
			c0.6-1.3,1.2-2.6,1.9-3.9c11.5-20.8,15.4-46.3,9.1-69.4c-2.8-11.7-8.2-21.9-16.1-30.6c-6.3-9.8-14.8-17.5-25.3-23.2
			c-20.9-11-46.2-16.6-69.4-9.1c-22,7.1-42.3,20.6-53.8,41.4c-5.7,10.3-11,21.3-13.1,32.9c-4.2,23.5-4.9,36.5,0.2,60
			c4.6,21.3,18.5,46.2,35.6,60.1c18.5,15,26.2,20.2,49.2,28.2c2.1,0.7,4.1,1.2,6.3,1.6c9.8,1.7,20.2,3.9,30.4,3.6
			c11.8-0.3,24.4-1.5,35.6-5.7c21.5-8,30.5-13.2,48-28.1c8.2-6.9,14.5-16.4,20.6-25c4.7-6.5,7.3-13.8,10.4-21.3
			c3-7.2,6.2-14,7.9-21.6c2.6-11.7,3.9-23.7,5-35.6c0.7-8.3,0.5-16.7-0.5-25c-1.5-12.5-2.8-25.4-5.5-37.8
			c-2.7-12.1-8.2-24.1-13.4-35.1c-1-2.1-2-4.2-3.3-6.2c-5-7.9-11.2-15.6-17.3-22.7c-7.7-8.9-17.8-16.1-27.6-22.3
			c-21-13.2-44.2-17.4-68.5-19.3c-4.3-0.3-8.6-0.3-12.8,0c-12.4,0.9-24.8,2.7-37,5c-9.1,1.7-18.2,4-26.9,7.1
			c-23.8,8.4-41.4,17.2-60.1,34.3c-21.7,19.8-35.4,52-34.5,81.4c0.7,20.9,5.3,37.9,15.4,56.2c4.4,7.9,10.9,14.9,16.4,21.9
			c1.9,2.4,3.9,4.6,6.1,6.6c12.8,11.6,27.2,21.8,42.6,29.7c16.5,8.4,33.8,15.8,51.4,21.5c10.3,3.3,20.8,5.8,31.5,7.5
			c18.2,2.9,36.8,5.7,55.4,5.7c18.3,0,37-2.6,54.9-5.6c4.5-0.8,8.7-2,12.9-3.6c7.2-2.9,18.8-6.7,26.5-11.9
			c6.1-4.1,13.8-10,19.4-14.9c1.3-1.1,2.4-2.3,3.6-3.6c12.7-14.8,23.2-30,27.6-49.5c5-22.7,4.2-37-0.2-59.6c-0.9-4.6-2.4-9-4.2-13.3
			c-4.9-11.9-9.5-23.5-15.7-34.6c-9-15.9-20.5-30.4-32-44.6c-22.4-27.6-52.2-50.3-86.3-61.2c-21.6-6.9-51.3-7.3-72.7,0.7
			c-22.4,8.4-44.2,19.4-59.6,38.4c-7.3,9-15.6,18.4-20.7,29c-5.4,11-11.2,23.9-14.1,36.3c-4.2,17.9-6.2,36.8-6.2,55.3
			c0,18.2,2.4,36,5.1,54c1.5,9.8,3.9,19.3,7.5,28.6c4.2,10.6,8.8,23,15,33.1c6.6,10.7,14.4,20.8,23,30c8.3,8.8,18.6,15.8,28.2,23
			c4.5,3.4,9.2,6.3,14.2,9c26.6,14.2,56.1,24.6,85.9,29.9c54,9.6,110.3,13,165.1,10.2c11.7-0.6,23.4-1.5,35-3
			c19.2-2.4,38.5-4.8,57.5-8.9c28.7-6.2,56.1-16.9,82.7-29.4c24.2-11.4,45.2-27,66-43.8c20.8-16.7,37.5-37.4,52.8-59.1
			c5.6-8,10.6-16.6,14.8-25.5c7-14.9,13.9-30.4,18.3-46.4c4.5-16.3,6.4-33.5,7.9-50.2c0.8-9.3,0.8-18.8,0-28.1
			c-1.5-16.7-3.6-33.9-7.7-50.3c-4.1-16.2-11-31.5-17.7-46.8c-3.7-8.4-7.9-16.5-12.9-24.2c-4.4-6.9-9.5-13.2-14.5-19.7
			c-5.3-6.9-10.4-13.8-16.3-20.1c-11.1-12-24.4-21.7-37.5-31.5c-8.8-6.6-18.2-12.3-28.1-17.2c-26.3-13-54-23.3-82.6-30
			c-30.2-7.1-60.9-11.4-91.6-15.4c-24.5-3.2-49.1-5.4-73.8-6.4c-57.1-2.3-113.4,2.6-169.9,10.5c-24.5,3.5-48.8,8-72.8,13.7
			c-25.9,6.1-52.1,14.8-75.1,28.3c-9.9,5.8-19,13.6-27.9,20.5c-3.8,3-7.4,6.2-10.6,9.8c-7.9,8.8-15.5,18.2-21.6,28.4
			c-1.3,2.1-2.4,4.3-3.5,6.5c-4.3,9.2-8.4,18.7-11.8,28.3c-1.7,4.9-3,9.9-3.9,15c-2.2,12.8-4.1,25.8-4.9,38.8
			c-0.7,10.9-0.3,21.8,0.3,32.6c1.4,26.4,4.4,52.9,9.3,78.8c4.8,25.5,14.1,50.4,26,73.4c7.4,14.2,17.7,26.9,27.8,39.1
			c10.3,12.4,23.8,21.9,36.6,31.4c10.3,6.6,21.5,10.1,33.5,10.7c12,2.7,23.9,2.1,35.9-1.6c11.7-2.8,21.9-8.2,30.6-16.1
			c9.8-6.3,17.5-14.8,23.2-25.3c11-20.9,16.6-46.2,9.1-69.4c-3-7.2-6-14.3-9.1-21.5C408.2,1053.4,397.4,1042.6,383.9,1034.6
			L383.9,1034.6z"/>
	</g>
</g>
<g>
	<g>
		<path class="st1" d="M143.4,1067.4c0.7,0.4,1.4,0.8,2.2,1.1c7.2,3,14.3,6,21.5,9.1c1.2,0.4,2.3,0.7,3.5,0.9
			c20,4.5,32.8,3.6,52.7,0.1c1.2-0.2,2.4-0.4,3.6-0.8c7.8-2.4,16.6-6.3,23.8-9.9c8.8-4.5,17-10.8,23.8-17.8c3.4-3.5,6-7.3,9.1-11.3
			c3.4-4.4,6.1-7.4,8.6-11.7c9.2-15.4,10.2-23.4,12.3-39.2c2.4-17.7,1.6-23.7-2-43.6c-0.7-3.8-1.6-7.5-2.1-11.3
			c1.1,8,2.1,16,3.2,23.9c-0.3-2.9-0.3-5.7,0-8.6c-1.1,8-2.1,16-3.2,23.9c0.7-4.6,2.1-9,3.8-13.3c-3,7.2-6,14.3-9.1,21.5
			c6.2-14.2,14.3-27.8,21.7-41.4c11.3-21.1,15.5-46,9.1-69.4c-2.8-11.7-8.2-21.9-16.1-30.6c-6.3-9.8-14.8-17.5-25.3-23.2
			c-20.9-11-46.2-16.6-69.4-9.1c-21.9,7.1-42.6,20.6-53.8,41.4c-7.1,13.2-14.8,26.2-21,39.8c-10.2,22.6-15.8,37-17,62.1
			c-0.7,14.5,3.2,28.8,5.6,43c-1.1-8-2.1-16-3.2-23.9c0.3,2.3,0.4,4.6,0.3,6.9c1.1-8,2.1-16,3.2-23.9c-0.3,1.8-0.6,3.5-1.4,5.2
			c3-7.2,6-14.3,9.1-21.5c-0.6,1.1-1.1,2.1-1.9,3.1c4.7-6.1,9.4-12.1,14.1-18.2c-1,1.3-2.1,2.4-3.4,3.4c6.1-4.7,12.1-9.4,18.2-14.1
			c-1.3,1-2.7,1.8-4.2,2.5c7.2-3,14.3-6,21.5-9.1c-1.9,0.8-3.8,1.3-5.9,1.6c8-1.1,16-2.1,23.9-3.2c-1.6,0.1-3.2,0.1-4.8-0.1
			c8,1.1,16,2.1,23.9,3.2c-1.2-0.2-2.3-0.5-3.5-0.9c7.2,3,14.3,6,21.5,9.1c-0.8-0.3-1.5-0.7-2.2-1.1c-20.9-11.4-46.1-15.5-69.4-9.1
			c-11.7,2.8-21.9,8.2-30.6,16.1c-9.8,6.3-17.5,14.8-23.2,25.3c-11,20.9-16.6,46.2-9.1,69.4C109.1,1035.5,122.6,1056,143.4,1067.4
			L143.4,1067.4z"/>
	</g>
</g>
<g>
	<g>
		<path class="st1" d="M169,1102.7c22.1-7.8,44-17.3,62.8-31.5c12-9.1,24.2-18,34.8-28.7c10.8-10.9,19.9-23.4,29.1-35.5
			c9.8-13,18-27.1,24.5-42c9.7-22.2,18.8-44,23.5-67.8c3.2-16.3,5.4-32.8,6.7-49.4c0.8-10,0-20.1,1.4-30.1c-1.1,8-2.1,16-3.2,23.9
			c0.4-2.6,1.1-5.1,2-7.6c-3,7.2-6,14.3-9.1,21.5c0.9-2,1.9-3.7,3.2-5.4c-4.7,6.1-9.4,12.1-14.1,18.2c1.4-1.7,2.9-3.1,4.6-4.5
			c-6.1,4.7-12.1,9.4-18.2,14.1c4.1-3,8.5-5.1,13.1-7.1c-7.2,3-14.3,6-21.5,9.1c8.9-3.7,18.2-6,27.7-7.4c-8,1.1-16,2.1-23.9,3.2
			c17.8-2.3,35.6-1.1,53.3,1.3c-8-1.1-16-2.1-23.9-3.2c43.9,6,87.4,16.5,131.9,16c26.3-0.3,52.7-3.9,78.6-8
			c19.1-3.1,37.9-7.4,56.5-12.8c18.1-5.2,35.9-11.4,54.6-14c-8,1.1-16,2.1-23.9,3.2c8.1-1,16.2-1.3,24.3-0.3c-8-1.1-16-2.1-23.9-3.2
			c5.4,0.8,10.5,2.1,15.5,4.2c-7.2-3-14.3-6-21.5-9.1c4.1,1.9,7.9,4.1,11.5,6.9c-6.1-4.7-12.1-9.4-18.2-14.1c5.5,4.5,10,10,15,15
			c4.9,5,10.4,9,16,13.3c5.9,4.6,11.5,9.3,18.1,12.7c19.4,10.1,39.8,16.7,60.9,21.5c23,5.2,46.4,8.3,69.8,11.1
			c15.7,1.9,31.6,2.9,47.4,3.1c9.2,0.1,18.4,0,27.6-0.5c8.8-0.4,17.6-1.5,26.4-0.3c-8-1.1-16-2.1-23.9-3.2c2.9,0.5,5.6,1.2,8.3,2.3
			c-7.2-3-14.3-6-21.5-9.1c2.8,1.3,5.3,2.8,7.7,4.7c-6.1-4.7-12.1-9.4-18.2-14.1c4.8,3.9,8.8,8.5,12.6,13.4
			c-4.7-6.1-9.4-12.1-14.1-18.2c15.9,20.8,31.2,42.5,41.5,66.7c-3-7.2-6-14.3-9.1-21.5c4.1,9.9,7.3,20.1,8.9,30.8
			c-1.1-8-2.1-16-3.2-23.9c1.1,8.3,1.2,16.5,0.1,24.8c1.1-8,2.1-16,3.2-23.9c-1,6.8-2.8,13.3-5.4,19.7c3-7.2,6-14.3,9.1-21.5
			c-4.3,10.1-10.1,19.3-16.8,27.9c4.7-6.1,9.4-12.1,14.1-18.2c-24.2,30.7-56.2,53.8-83.7,81.3c-6.4,6.4-12.5,13-18.2,20
			c-10,12.2-20,24.7-28.5,38.1c-8.6,13.7-14.6,28.7-20.6,43.7c-3.3,8.2-5.9,16.7-7.3,25.5c-3.1,19-5.1,37.4-5,56.5
			c0.1,11.6,0.3,23.2-1.2,34.8c1.1-8,2.1-16,3.2-23.9c-1.1,7.9-3,15.6-5.9,23c3-7.2,6-14.3,9.1-21.5c-2.1,4.9-4.7,9.5-7.9,13.8
			c4.7-6.1,9.4-12.1,14.1-18.2c-2.7,3.4-5.7,6.4-9.1,9.1c6.1-4.7,12.1-9.4,18.2-14.1c-3,2.2-6.2,4-9.6,5.5c7.2-3,14.3-6,21.5-9.1
			c-5.6,2.3-11.4,3.7-17.4,4.5c8-1.1,16-2.1,23.9-3.2c-12.9,1.6-25.9,1-38.8,0.8c-14.1-0.2-28.2-0.4-42.2-0.8
			c-28.4-0.9-56.7-2.8-84.9-6.6c8,1.1,16,2.1,23.9,3.2c-19.2-2.6-38.8-6.1-58.2-6.7c-6.3-0.2-12.6,0-18.9,0.7
			c-13,1.4-26.5,2.7-39.1,6.3c-29,8.3-55,24.3-82.5,36.1c7.2-3,14.3-6,21.5-9.1c-23.5,9.9-48.4,18.1-73.7,21.5
			c8-1.1,16-2.1,23.9-3.2c-9.6,1.2-19.2,1.5-28.8,0.3c8,1.1,16,2.1,23.9,3.2c-6.2-0.9-12.2-2.3-18-4.6c7.2,3,14.3,6,21.5,9.1
			c-5.4-2.3-10.3-5.1-14.9-8.7c6.1,4.7,12.1,9.4,18.2,14.1c-3.7-3-7.1-6.4-10.1-10.1c4.7,6.1,9.4,12.1,14.1,18.2
			c-2.6-3.4-4.7-7-6.4-10.8c3,7.2,6,14.3,9.1,21.5c-1.4-3.5-2.4-7-3-10.7c1.1,8,2.1,16,3.2,23.9c-0.4-3.6-0.4-7-0.1-10.6
			c-1.1,8-2.1,16-3.2,23.9c1.3-9.3,4.9-18,7.7-26.9c5.1-16.1,7-33,9-49.8c1.1-9.1,1.6-18.2,1.1-27.4c-0.6-11.8-2.5-23.5-4.2-35.2
			c-0.6-4.4-1.5-8.7-2.9-12.9c-2.8-8.6-6.8-17-10.5-25.3c-0.9-2-1.8-4-2.9-5.8c-2.7-4.6-6.6-9-9.8-13.2c-3.4-4.4-6.9-9.6-11.1-13.6
			c-6.4-6-14-11.2-21-16.4c-1.6-1.2-3.1-2.2-4.8-3.2c-1.5-0.8-3-1.5-4.6-2.2c-8.5-3.9-17.3-8.1-26.3-10.8
			c-10.7-3.1-22.4-4.1-33.4-5.1c-4-0.4-7.9-0.3-11.9,0.1c-11,1.1-22.6,2.1-33.4,5c-11.2,3-22.2,8.4-32.5,13
			c-18.1,8.1-32.1,22.9-50.2,30.9c7.2-3,14.3-6,21.5-9.1c-3.5,1.4-6.9,2.5-10.6,3c8-1.1,16-2.1,23.9-3.2c-2.1,0.2-4,0.2-6.1,0.1
			c8,1.1,16,2.1,23.9,3.2c-2.6-0.4-5.1-1-7.5-2c7.2,3,14.3,6,21.5,9.1c-1.5-0.7-2.9-1.6-4.3-2.5c6.1,4.7,12.1,9.4,18.2,14.1
			c-1.6-1.3-3-2.7-4.4-4.2c4.7,6.1,9.4,12.1,14.1,18.2c-1.5-2-2.7-4.1-3.8-6.3c3,7.2,6,14.3,9.1,21.5c-1.3-3.2-2.2-6.4-2.8-9.9
			c1.1,8,2.1,16,3.2,23.9c-0.6-4.4-0.6-8.8-0.1-13.2c-1.1,8-2.1,16-3.2,23.9c0.9-6.2,3-12.1,5.4-17.8c-3,7.2-6,14.3-9.1,21.5
			c8.6-19.9,20.4-39.1,24.9-60.4c4.8-23,5.8-44.9,4.1-68c-30,30-60,60-90,90c3.3-0.4,6.5-0.4,9.9-0.1c-8-1.1-16-2.1-23.9-3.2
			c3.7,0.5,7.3,1.5,10.8,3c-7.2-3-14.3-6-21.5-9.1c3.9,1.8,7.6,3.9,11,6.6c-6.1-4.7-12.1-9.4-18.2-14.1c3.8,3.1,7.2,6.5,10.3,10.4
			c-4.7-6.1-9.4-12.1-14.1-18.2c3.3,4.3,6,8.9,8.1,13.9c-3-7.2-6-14.3-9.1-21.5c2.6,6.4,4.2,13.1,5.2,19.9c-1.1-8-2.1-16-3.2-23.9
			c2.1,16.7,0.4,33.4-1.5,50.1c-0.5,12.4,2.1,23.9,7.8,34.7c3.6,11.2,9.8,20.8,18.6,29c8.2,8.8,17.8,15,29,18.6
			c10.7,5.6,22.3,8.2,34.7,7.8c23.3-1,47.4-8.7,63.6-26.4c4.7-6.1,9.4-12.1,14.1-18.2c8.1-14,12.2-29.2,12.3-45.4
			c1.6-13.7,3.1-27.5,2.3-41.2c-1.5-28.7-7.2-53.3-20.4-78.8c-11.7-22.6-31-40.7-52-54.5c-10.3-6.8-22.4-11.7-34.3-15
			c-1.4-0.4-2.7-0.7-4.1-0.9c-8.5-1.5-18.1-3-26.7-3.6c-2.9-0.2-5.6-0.1-8.5,0.2c-12.4-0.5-23.9,2.1-34.7,7.8
			c-11.2,3.6-20.8,9.8-29,18.6c-15.5,16.9-28.1,39.9-26.4,63.6c0.9,12.9,1.7,25.8,0,38.7c1.1-8,2.1-16,3.2-23.9
			c-1.1,7.1-3,13.9-5.8,20.6c3-7.2,6-14.3,9.1-21.5c-6.5,15.2-13.8,29.9-20,45.3c-5.9,14.4-7.6,28.6-8.9,44.4
			c-0.2,3.1-0.1,6.2,0.2,9.2c1,10.1,1.6,22.5,5.2,32.7c7,19.5,15.9,39,32.3,52.6c16.1,13.4,26.5,20.6,47,26.8
			c10.5,3.2,22,4.6,33,4.2c23.4-0.9,44.8-7.5,65-19.2c15.2-8.8,27.9-20.8,44.2-27.8c-7.2,3-14.3,6-21.5,9.1c5.7-2.3,11.4-4,17.5-4.9
			c-8,1.1-16,2.1-23.9,3.2c5-0.6,9.9-0.7,14.8-0.1c-8-1.1-16-2.1-23.9-3.2c4.4,0.6,8.7,1.7,12.8,3.4c-7.2-3-14.3-6-21.5-9.1
			c3.6,1.6,6.9,3.5,10,5.9c-6.1-4.7-12.1-9.4-18.2-14.1c2.3,1.9,4.4,4,6.2,6.4c-4.7-6.1-9.4-12.1-14.1-18.2c2.3,3.1,4.1,6.3,5.6,9.9
			c-3-7.2-6-14.3-9.1-21.5c2.2,5.7,3.6,11.5,4.4,17.6c-1.1-8-2.1-16-3.2-23.9c1.5,12.6,1.4,25.3-0.2,37.8c1.1-8,2.1-16,3.2-23.9
			c-4,28.6-18.6,54.1-17,83.8c1.3,23.4,6.5,45.6,18.9,65.8c3,4.8,6.8,9.3,10.2,13.7c3.5,4.5,6.8,9.3,10.7,13.4
			c7.9,8.3,17.7,15,26.9,21.6c3.3,2.4,6.9,4.4,10.6,6.1c10.9,4.9,22.5,10.6,34.4,13.3c17.1,3.8,35.7,6.3,53.4,4.8
			c29.2-2.5,57.6-8.2,85.2-18.1c18.3-6.5,36.3-14.1,53.8-22.5c10.7-5.1,21.1-10.6,31.9-15.3c-7.2,3-14.3,6-21.5,9.1
			c9.4-3.9,18.9-7,29-8.5c-8,1.1-16,2.1-23.9,3.2c17.1-2.2,34.3-0.2,51.3,2.1c-8-1.1-16-2.1-23.9-3.2c30.7,4.1,61.1,8,92,9.5
			c23.5,1.1,47.1,1.4,70.7,1.7c10.3,0.1,20.7,0.3,31-0.9c11.6-1.4,23.9-2.2,35.2-5.5c5.8-1.7,11.4-4.4,16.9-6.7
			c5.8-2.4,11.9-4.6,17.3-7.9c7.8-4.9,15.4-11.2,22.4-17.1c1.5-1.2,2.9-2.5,4.2-3.9c4-4.1,7.3-9,10.8-13.4
			c3.6-4.7,7.6-9.3,10.7-14.5c8.1-13.6,14.5-29.3,17.9-44.9c3.9-18.4,5.8-37.4,5.8-56.1c0-13.2-0.4-26.3,1.2-39.4
			c-1.1,8-2.1,16-3.2,23.9c1.4-10.4,4.2-20.4,8.2-30.1c-3,7.2-6,14.3-9.1,21.5c5.5-13,13-25,21.5-36.2c-4.7,6.1-9.4,12.1-14.1,18.2
			c19.9-25.7,45.2-46.1,69.1-67.9c12.1-11,23.8-22.5,34.2-35.1c9.5-11.6,19.4-23.5,27-36.5c2-3.4,3.9-7,5.5-10.7
			c4.5-10.2,9.4-20.4,12.7-31.1c1.1-3.5,1.9-7.1,2.5-10.8c1.9-11.3,3.9-23.1,4.3-34.7c0.1-3.6,0-7.2-0.3-10.7
			c-1-11.6-2.5-23.2-4.8-34.6c-1.5-7.8-3.9-15.3-6.9-22.7c-5.7-14.2-11.5-28.5-18.9-42c-7.9-14.2-17.2-27.6-26.8-40.7
			c-8.6-11.7-16.9-23.8-26.9-34.3c-7.3-7.7-16.4-14.1-25-20.1c-1.2-0.9-2.5-1.7-3.8-2.4c-0.9-0.5-1.8-0.9-2.7-1.3
			c-7.1-3.4-15.5-7.1-22.9-9.6c-2.3-0.8-4.5-1.3-6.9-1.8c-9.5-1.8-19.5-3.3-29.2-3.7c-4.5-0.2-9,0.1-13.5,0.4
			c-10.1,0.6-20.2,1-30.4,1c-20-0.1-39.9-1.5-59.7-4.1c8,1.1,16,2.1,23.9,3.2c-24.2-3.4-49.9-7.5-72.6-16.9c7.2,3,14.3,6,21.5,9.1
			c-5-2.2-9.7-4.8-14.2-8.1c6.1,4.7,12.1,9.4,18.2,14.1c-7.1-5.7-12.5-13-19.3-19.1c-18.4-16.6-34.4-25.8-57.9-33.8
			c-3.7-1.3-7.5-2-11.4-2.6c-10.7-1.7-23-3.9-34.4-3.9c-15.8,0-31.7,2.7-47.2,5.8c-17.5,3.4-34.4,9.5-51.6,14.2
			c-19.5,5.4-39.4,9.6-59.5,12.4c8-1.1,16-2.1,23.9-3.2c-30.5,4.1-61.3,4.6-91.9,0.5c8,1.1,16,2.1,23.9,3.2
			c-16.2-2.2-32.2-5.3-48.3-7.9c-23.1-3.7-46.6-7.7-70.1-7.7c-15.1,0-30.1,2.4-45.1,4.6c-7.8,1.2-15.5,3-22.9,5.7
			c-10.2,3.8-20.4,8-30.2,12.8c-9.8,4.8-18.4,12.2-26.6,19.1c-1.5,1.2-2.8,2.4-4.1,3.9c-5.6,6.1-11.5,13.7-16,20.8
			c-0.6,0.9-1,1.8-1.5,2.8c-3,6-7.1,15.9-9.4,22.2c-0.7,2-1.3,3.9-1.8,6c-4.7,22.8-3.2,45.5-6.2,68.3c1.1-8,2.1-16,3.2-23.9
			c-2.7,19.4-7.9,38.3-15.4,56.4c3-7.2,6-14.3,9.1-21.5c-6.8,16.1-15.5,31.3-26.1,45.2c4.7-6.1,9.4-12.1,14.1-18.2
			c-9.1,11.7-19.5,22.3-31.2,31.4c6.1-4.7,12.1-9.4,18.2-14.1c-10,7.6-20.7,13.9-32.2,18.9c7.2-3,14.3-6,21.5-9.1
			c-3,1.3-6.1,2.5-9.2,3.6c-11.7,2.8-21.9,8.2-30.6,16.1c-9.8,6.3-17.5,14.8-23.2,25.3c-6.6,10.3-10.1,21.5-10.7,33.5
			c-2.7,12-2.1,23.9,1.6,35.9c7,21.8,20.5,42.8,41.4,53.8C120.2,1104.5,146.3,1110.8,169,1102.7L169,1102.7z"/>
	</g>
</g>
<g>
	<g>
		<path class="st1" d="M125.1,1107.5c-4,17.2-8.1,34.4-12.1,51.6c-2,8.4-4,16.9-5.9,25.3c-3.6,15.3-7.3,30.6-8,46.4
			c-0.1,1.6,0,3.1,0.1,4.7c0.5,5.5,2,19.4,3.4,24.7c1.2,4.6,3.1,8.1,5.2,13c5.4,12.8,4.5,11.5,13,22.5c3.4,4.3,6,8.6,10,12.2
			c5.3,4.8,13.4,11.1,19.4,14.9c0.6,0.4,1.2,0.8,1.9,1.1c4.4,2.5,9.7,4.3,14.1,6.2c7,3,13.9,6.1,21.3,8.3
			c14.4,4.2,29.8,5.6,44.5,7.1c7.9,0.8,15.9,0.9,23.8,0.6c25.4-1,50.7-5.6,75.8-9c-8,1.1-16,2.1-23.9,3.2
			c92.6-12.3,186.5-3,279.1-15c33.4-4.4,66.4-9.2,98.7-19.1c22-6.7,42-21.3,53.8-41.4c6.6-10.3,10.1-21.5,10.7-33.5
			c2.7-12,2.1-23.9-1.6-35.9c-7-21.8-20.5-42.8-41.4-53.8c-21.1-11.1-45.9-16.2-69.4-9.1c-24.1,7.4-48.9,12.4-73.9,15.8
			c8-1.1,16-2.1,23.9-3.2c-77.3,10.2-155.5,5.1-233.1,10.5c-29.1,2-58,6.2-86.9,10.1c8-1.1,16-2.1,23.9-3.2
			c-21.2,2.8-42.7,5.2-64,2.5c8,1.1,16,2.1,23.9,3.2c-9.2-1.3-18.2-3.6-26.8-7.1c7.2,3,14.3,6,21.5,9.1c-2.3-1-4.4-2.1-6.4-3.6
			c6.1,4.7,12.1,9.4,18.2,14.1c-1.1-1-2-1.9-3-3.1c4.7,6.1,9.4,12.1,14.1,18.2c-0.6-0.8-1.1-1.7-1.4-2.6c3,7.2,6,14.3,9.1,21.5
			c-0.4-1-0.6-2-0.8-3c1.1,8,2.1,16,3.2,23.9c-0.2-2.1-0.2-4.1,0-6.3c-1.1,8-2.1,16-3.2,23.9c2.4-16.2,7.3-32.2,11-48.1
			c3.9-16.5,7.7-33.1,11.6-49.6c5.5-23.3,3.2-48.4-9.1-69.4c-5.7-10.5-13.4-18.9-23.2-25.3c-8.7-8-18.9-13.3-30.6-16.1
			c-8-1.1-16-2.1-23.9-3.2c-16.2,0.1-31.4,4.1-45.4,12.3C147.2,1066.2,130.5,1084.6,125.1,1107.5L125.1,1107.5z"/>
	</g>
</g>
<g>
	<g>
		<path class="st0" d="M533.7,1060.5c0.8-3.2,1.9-6.2,3.1-9.3c-3,7.2-6,14.3-9.1,21.5c2.4-5.5,5.4-10.6,9-15.4
			c-4.7,6.1-9.4,12.1-14.1,18.2c4.6-5.9,9.9-11,15.8-15.6c-6.1,4.7-12.1,9.4-18.2,14.1c8-6.1,16.8-11,26.1-14.9
			c-7.2,3-14.3,6-21.5,9.1c13.1-5.4,26.8-8.7,40.8-10.6c-8,1.1-16,2.1-23.9,3.2c13.3-1.7,26.9-2.5,40.3-0.9c-8-1.1-16-2.1-23.9-3.2
			c5.9,0.8,11.6,2.2,17.2,4.6c-7.2-3-14.3-6-21.5-9.1c3.2,1.5,6.1,3.2,8.9,5.3c-6.1-4.7-12.1-9.4-18.2-14.1c2.7,2.2,5.1,4.5,7.3,7.3
			c-4.7-6.1-9.4-12.1-14.1-18.2c1.7,2.4,3.2,4.9,4.3,7.6c-3-7.2-6-14.3-9.1-21.5c0.9,2.4,1.5,4.7,1.8,7.2c-1.1-8-2.1-16-3.2-23.9
			c0.2,2.5,0.2,4.9,0,7.4c1.1-8,2.1-16,3.2-23.9c-0.5,3.5-1.4,6.7-2.8,9.9c3-7.2,6-14.3,9.1-21.5c-1.9,4.3-4.4,8.1-7.3,11.9
			c4.7-6.1,9.4-12.1,14.1-18.2c-4.7,5.8-10.1,10.9-16,15.6c6.1-4.7,12.1-9.4,18.2-14.1c-8.9,6.9-18.3,13.1-28.6,17.6
			c7.2-3,14.3-6,21.5-9.1c-7,2.9-14.2,4.9-21.7,6c8-1.1,16-2.1,23.9-3.2c-7.9,1-15.8,1-23.7,0c8,1.1,16,2.1,23.9,3.2
			c-7.9-1.1-15.5-3.1-22.9-6.1c7.2,3,14.3,6,21.5,9.1c-6.9-2.9-13.3-6.6-19.3-11c6.1,4.7,12.1,9.4,18.2,14.1
			c-5-3.9-9.5-8.2-13.5-13.1c4.7,6.1,9.4,12.1,14.1,18.2c-2-2.7-3.7-5.5-5.2-8.6c3,7.2,6,14.3,9.1,21.5c-1.6-3.9-2.7-7.8-3.3-12
			c1.1,8,2.1,16,3.2,23.9c-0.6-4.5-0.7-8.9-0.2-13.5c-1.1,8-2.1,16-3.2,23.9c0.5-3.3,1.3-6.4,2.6-9.5c-3,7.2-6,14.3-9.1,21.5
			c1-2.1,2.1-4,3.5-5.9c-4.7,6.1-9.4,12.1-14.1,18.2c1.2-1.4,2.4-2.7,3.8-3.9c-6.1,4.7-12.1,9.4-18.2,14.1c1.7-1.2,3.3-2.2,5.2-3
			c-7.2,3-14.3,6-21.5,9.1c2.9-1.1,5.9-1.9,9-2.3c-8,1.1-16,2.1-23.9,3.2c14.7-1.9,30.5-2.1,45.2-0.2c-8-1.1-16-2.1-23.9-3.2
			c6.1,0.9,12,2.4,17.7,4.6c-7.2-3-14.3-6-21.5-9.1c4,1.7,7.8,3.8,11.4,6.3c-6.1-4.7-12.1-9.4-18.2-14.1c2.5,1.9,4.7,4,6.6,6.5
			c-4.7-6.1-9.4-12.1-14.1-18.2c1.2,1.7,2.1,3.4,2.9,5.3c-3-7.2-6-14.3-9.1-21.5c0.6,1.8,1.1,3.5,1.4,5.4c-1.1-8-2.1-16-3.2-23.9
			c0.2,2.3,0.2,4.6-0.1,6.9c1.1-8,2.1-16,3.2-23.9c-0.5,2.8-1.3,5.5-2.4,8.1c3-7.2,6-14.3,9.1-21.5c-1.2,2.6-2.7,5.1-4.4,7.4
			c4.7-6.1,9.4-12.1,14.1-18.2c-2.2,2.8-4.7,5.1-7.5,7.3c6.1-4.7,12.1-9.4,18.2-14.1c-4.1,2.9-8.4,5.3-13,7.3c7.2-3,14.3-6,21.5-9.1
			c-17.1,7-36.3,12-54.6,14.5c8-1.1,16-2.1,23.9-3.2c-8.2,1-16.3,1.2-24.5,0.2c8,1.1,16,2.1,23.9,3.2c-12.3-1.9-23.5-5.5-36.4-5.6
			c-19.7-0.1-36.8,4.4-53.8,14.3c-28.7,16.7-47,48.9-47.1,82c-0.1,16.7,4.3,33.2,12.7,47.7c8.1,14,13.4,18.5,24.5,27.1
			c11.9,9.2,15.4,12.4,32.6,17.2c15.9,4.4,34,4.4,50,0c22.8-6.3,42.8-21.5,54.8-41.9c9.7-16.5,11.3-30.1,12.8-49
			c0.8-9.6-0.7-19.2,0.6-28.7c-1.1,8-2.1,16-3.2,23.9c0.5-2.9,1.3-5.6,2.3-8.3c-3,7.2-6,14.3-9.1,21.5c4.1-9.1,10.9-16.9,16.9-24.8
			c6.5-8.5,12.9-17.1,19.5-25.6c-4.7,6.1-9.4,12.1-14.1,18.2c2.6-3.3,5.4-6.4,8.8-9.1c-6.1,4.7-12.1,9.4-18.2,14.1
			c1.9-1.3,3.8-2.4,5.8-3.3c-7.2,3-14.3,6-21.5,9.1c4.6-1.9,9.3-3.1,14.3-3.8c-8,1.1-16,2.1-23.9,3.2c5.4-0.6,10.7-0.6,16,0
			c-8-1.1-16-2.1-23.9-3.2c5.3,0.8,10.5,2.1,15.5,4.1c-7.2-3-14.3-6-21.5-9.1c4.4,1.9,8.6,4.2,12.4,7.1c-6.1-4.7-12.1-9.4-18.2-14.1
			c4,3.1,7.5,6.6,10.7,10.6c-4.7-6.1-9.4-12.1-14.1-18.2c3,4.1,5.5,8.4,7.5,13.1c-3-7.2-6-14.3-9.1-21.5c1.7,4.2,2.9,8.6,3.6,13.1
			c-1.1-8-2.1-16-3.2-23.9c0.6,4.7,0.6,9.3,0.1,13.9c1.1-8,2.1-16,3.2-23.9c-0.7,5.3-2.1,10.3-4.1,15.3c3-7.2,6-14.3,9.1-21.5
			c-2.5,5.9-5.8,11.4-9.7,16.5c4.7-6.1,9.4-12.1,14.1-18.2c-4.5,5.7-9.7,10.6-15.4,15.1c6.1-4.7,12.1-9.4,18.2-14.1
			c-9.4,7.1-19.6,12.9-30,18.3c7.2-3,14.3-6,21.5-9.1c-1,0.5-2.1,0.9-3.3,1c8-1.1,16-2.1,23.9-3.2c-0.5,0-1-0.1-1.6-0.1
			c8,1.1,16,2.1,23.9,3.2c-0.5-0.1-1-0.3-1.5-0.4c7.2,3,14.3,6,21.5,9.1c-8.8-3.9-17.2-9.2-25.6-13.8c-8.7-4.8-17.5-9.5-26.2-14.3
			c-20.9-11.4-46.2-15.5-69.4-9.1c-11.7,2.8-21.9,8.2-30.6,16.1c-9.8,6.3-17.5,14.8-23.2,25.3c-11,20.9-16.6,46.2-9.1,69.4
			c7.1,22,20.6,42.5,41.4,53.8c14.5,7.9,29.1,15.9,43.6,23.8c9.4,5.2,19.3,10.4,29.6,13.3c18,5.1,36.4,4.8,54.2-0.4
			c13.7-4,27.6-11.9,39.9-19.5c12-7.4,23.3-16.2,33.9-25.3c10.3-8.8,18.6-20.5,26.3-31.3c8-11,12.9-24.2,17.8-36.8
			c5.1-13.3,6.7-28.4,7.6-42.3c0.9-13.5-1.4-27.7-4.8-40.6c-3.4-13.2-8.9-26.5-16.4-38c-14.2-21.9-33.8-42.9-58-53.7
			c-8.5-3.8-19.3-9-29.1-11.6c-10-2.7-22.7-3.8-31.8-4.8c-14.4-1.5-29.1,1.1-43.1,3.7c-3.3,0.6-6.4,1.5-9.6,2.7
			c-9.8,3.6-20,7.3-28.8,13c-20.5,13.4-28.1,24.4-43,43.9c-5.5,7.2-10.9,14.4-16.4,21.5c-5.1,6.7-10.6,13.2-15,20.4
			c-12.3,20.2-17.1,41.6-18.2,65c-0.4,8.4,0.7,16.8-0.3,25.2c1.1-8,2.1-16,3.2-23.9c-0.1,0.6-0.2,1.2-0.3,1.8
			c13.8-17.9,27.6-35.9,41.4-53.8c-0.3,0.2-0.7,0.3-1,0.5c15.1-4.1,30.3-8.2,45.4-12.3c-0.4,0-0.7,0.1-1.1,0.1
			c8,1.1,16,2.1,23.9,3.2c-0.4-0.1-0.7-0.1-1.1-0.2c7.2,3,14.3,6,21.5,9.1c-0.7-0.2-1.4-0.6-1.9-1.1c6.1,4.7,12.1,9.4,18.2,14.1
			c-0.3-0.3-0.5-0.6-0.8-0.9c4.7,6.1,9.4,12.1,14.1,18.2c-0.2-0.3-0.4-0.7-0.6-1c3,7.2,6,14.3,9.1,21.5c-0.1-0.4-0.2-0.7-0.3-1.1
			c1.1,8,2.1,16,3.2,23.9c0-0.4,0-0.8,0-1.2c-1.1,8-2.1,16-3.2,23.9c0.1-0.4,0.2-0.8,0.3-1.3c-3,7.2-6,14.3-9.1,21.5
			c0.3-0.8,0.7-1.5,1.3-2.2c-4.7,6.1-9.4,12.1-14.1,18.2c0.3-0.3,0.6-0.6,1-0.9c-6.1,4.7-12.1,9.4-18.2,14.1c0.7-0.6,1.5-1,2.3-1.3
			c-7.2,3-14.3,6-21.5,9.1c0.8-0.3,1.7-0.6,2.6-0.7c-8,1.1-16,2.1-23.9,3.2c1.2-0.1,2.3-0.1,3.5,0c-8-1.1-16-2.1-23.9-3.2
			c14.6,2,29.1,5.6,43.9,6.2c15.5,0.6,31.5-2.3,46.6-4.9c14.6-2.5,29.5-6.6,43.5-11.6c12.6-4.5,25.9-9.2,37.3-16.6
			c19.3-12.6,31.6-24.6,44.2-43.9c12-18.3,15.5-37.4,17.5-58.6c1.9-20.4-5-42.8-14.8-60.4c-16.8-29.9-48.7-50.7-81.3-59.4
			c-20.7-5.6-43-6.9-64.4-6c-13.4,0.6-26.8,1.9-40,4.5c-19.9,3.9-40.2,15.8-54.4,30.1c-14.3,14.3-24.2,32.2-29.8,51.6
			c-3.7,13-5.7,27.5-4.4,41.2c2.3,24,5.2,39.2,16.6,60.8c6.5,12.4,15.9,24,26.2,33.5c21.1,19.4,42,30.9,68.8,40.5
			c5.1,1.8,10.4,3.2,15.8,4.1c13.4,2.2,27.8,4.8,41.7,4.4c13.4-0.4,27-2.3,40.1-5.3c13.5-3,26.9-9.4,39.1-15.2
			c5.9-2.8,11.5-6.2,16.9-9.9c11.8-8.1,23.5-16.7,34-26.4c9.9-9.2,18.1-20.3,25.6-31.4c7.6-11.3,13.5-24.7,16.1-38
			c2-10,4.1-20.8,3.6-31.3c-0.4-7.9-2-17.6-3.4-25.4c-0.3-1.5-0.5-3-0.9-4.4c-5.8-20.3-16.7-38.3-31.3-53.4
			c-9-9.3-19.9-17.7-31.6-23.3c-8.1-3.9-20-9.4-29.9-12c-11.1-2.9-23.3-4-34.5-5.1c-23.7-2.3-48.6,1.6-71.7,5.8
			c-20.9,3.8-40.7,12-59.7,21.2c-5.6,2.7-11,5.8-16.1,9.4c-11,7.8-22.6,16-32,25.9c-18.9,19.9-33.6,43.9-40.6,70.6
			c-3.8,12-4.3,23.9-1.6,35.9c0.5,12,4.1,23.1,10.7,33.5c5.7,10.5,13.4,18.9,23.2,25.3c8.7,8,18.9,13.3,30.6,16.1
			c8,1.1,16,2.1,23.9,3.2c16.2-0.1,31.4-4.1,45.4-12.3C512,1101.7,527.7,1083.6,533.7,1060.5L533.7,1060.5z"/>
	</g>
</g>
<g>
	<g>
		<path d="M708,1015c-1.3,32.5-27,59.4-48.3,81.5c-22,22.8-46.7,43.6-75.5,57.4c-28.9,13.8-60.9,18-92,9.6
			c-33.1-8.9-62.8-28.2-91.1-46.8c-12.7-8.3-25.6-17.8-32.8-31.5c-8.2-15.5-7.4-34.3-6.7-51.3c1.3-33.1,7.5-66.3,27.9-93.3
			c38.6-51.1,107.2-66.6,167.7-56.6c17.6,2.9,34.9,7.6,51.7,13.5c16.5,5.8,33.2,12.6,48.3,21.5c14.2,8.4,24.1,20.3,31.1,35.2
			c7,14.8,11.1,30.8,15.7,46.5c2.7,9,5.3,17.9,8,26.9c2.2,7.4,13.8,4.2,11.6-3.2c-5.5-18.5-10.6-37.3-16.8-55.6
			c-5.2-15.6-11.9-30.9-22.9-43.4c-12-13.6-28.8-21.6-45.1-28.8c-17.7-7.7-35.8-14.4-54.5-19.1c-35.5-9.1-73.4-11.8-109.3-3.4
			c-30.5,7.1-59.6,22.2-81.9,44.4c-24.7,24.6-37.2,56.2-41.5,90.4c-2.3,18.5-3.6,38-1.3,56.5c2.2,17.6,9.6,32.7,22.6,44.9
			c12.8,11.9,28.3,20.9,43,30.1c15.7,9.8,31.8,19,48.8,26.2c32.6,13.8,67.5,17.7,101.7,7.1c32.4-10,60.8-30,85.5-52.7
			c12.5-11.6,24.3-24,35.3-37c11.2-13.2,21.5-27.4,27.7-43.7c3.1-8.1,4.8-16.6,5.1-25.3C720.3,1007.3,708.3,1007.3,708,1015
			L708,1015z"/>
	</g>
</g>
<g>
	<g>
		<path d="M712.4,687.9c19.2,46.8,74.3,57.3,119.4,57.6c30.1,0.2,61.1-2.2,90.3,6.7c26.9,8.2,49.9,25.5,71.1,43.5
			c21.6,18.3,41.6,37.6,54.3,63.3c11.4,23.1,16.9,48.9,19.7,74.4c1.5,13.6,2.3,27.3,2.9,41.1c0.5,13.5,1.4,27.2,0.6,40.7
			c-0.9,15.3-7.1,26.8-17.5,37.7c-10.3,10.9-21.2,21.3-31.9,31.7c-25.4,24.8-51.3,49.2-77.5,73.1c-20.4,18.6-42.2,40-43.8,69.3
			c-0.4,7.7,11.6,7.7,12,0c1.4-26,23.1-45.2,41-61.5c23.6-21.6,46.9-43.5,69.8-65.7c11.1-10.8,22.2-21.7,33.1-32.7
			c9.6-9.7,19.1-19.8,23.5-33c4.5-13.3,3.5-27.9,3.2-41.7c-0.3-13.7-0.8-27.4-1.8-41c-1.9-26.4-5.6-53-14.4-78
			c-9.1-25.9-23.9-48.3-43.6-67.4c-20.1-19.3-42.3-38.2-66.6-52c-25.9-14.7-54-19.9-83.5-20.6c-30.6-0.7-61.8,2.4-91.7-5.7
			c-23.5-6.4-47.4-19.6-57.1-43.1C721.1,677.7,709.5,680.8,712.4,687.9L712.4,687.9z"/>
	</g>
</g>
<g>
	<g>
		<path d="M905.3,1224.3c9.3,28.3,11.8,59.3,2.3,87.9c-7.8,23.5-24.2,44.6-46.3,56.2c-26.4,13.9-57.8,11.6-86.7,11.1
			c-33.2-0.6-66.5-1.1-99.7-1.7c-16-0.3-31.9-0.6-47.9-0.8c-14.9-0.3-30.8-1.8-45.3,2.5c-25.2,7.5-35.5,33.5-57.3,45.8
			c-11.8,6.7-25.7,8.3-39,9c-15.8,0.8-31.7,0.9-47.6,1c-32.7,0.2-65.6-0.4-98.2-2.4c-6.9-0.4-14.4-1-20.1-5.4
			c-5.8-4.4-9.2-11.4-12.1-17.9c-6.7-14.8-11.7-30.3-18.8-44.9c-12.6-25.8-35.6-50.8-66.5-50c-7.7,0.2-7.7,12.2,0,12
			c28.8-0.8,47.7,25.3,58.4,48.8c6.1,13.4,10.8,27.5,16.9,40.9c5.6,12.3,13.9,23.2,27.7,26.7c6.9,1.7,14.1,1.9,21.2,2.2
			c8.5,0.4,17.1,0.8,25.6,1.1c16.8,0.6,33.5,0.9,50.3,1c16.4,0.1,32.9-0.1,49.3-0.5c14.4-0.4,29.2-0.7,43.1-4.6
			c13.1-3.7,23.9-10.8,33.4-20.5c8.6-8.7,16.1-19.1,26.5-25.8c12.8-8.2,28-7.4,42.6-7.1c17,0.3,33.9,0.6,50.9,0.9
			c33.9,0.6,67.8,1.2,101.7,1.8c30.6,0.5,62.9,2.8,91.7-9.8c23.3-10.2,41.9-30.1,52.5-53c12.5-26.8,14.3-57,8.7-85.8
			c-1.4-7.4-3.4-14.6-5.7-21.7C914.5,1213.8,902.9,1217,905.3,1224.3L905.3,1224.3z"/>
	</g>
</g>
<g>
	<g>
		<path d="M220.9,1315.4c-15.1,5.6-31.9,5-46.7-1.5c-16.3-7.2-27.3-20.3-33.6-36.8c-7.5-19.7-12.6-40.7-17.6-61.1
			c-5.3-21.6-9.5-43.5-10.2-65.7c-0.3-10.6,0-21.4,1.6-31.9c1.5-10.3,5.1-20.3,6.5-30.6c1.3-9.6-1.1-18.4-8.2-25.2
			c-6.4-6.1-13.4-10.9-19.1-17.8c-23.3-28.6-23.9-69.5-2.5-99.3c11.6-16.1,28.7-24.8,45.5-34.3c16.8-9.4,30.7-21.1,42.3-36.5
			c11.3-15,19.8-31.8,28.1-48.5c10.1-20.4,20.2-40.8,30.3-61.3c4.9-10,9.8-19.9,14.8-29.9c4.1-8.2,8.1-17.7,16-23
			c8.1-5.5,18.5-5.7,27.9-5.8c11.2-0.2,22.3-0.3,33.5-0.2c23,0.1,46,0.9,68.9,3.5c21.8,2.5,43.4,6.3,65,9.7
			c43.2,6.7,86.9,11.4,130.1,2.3c39.8-8.3,78.4-26.3,119.6-26.5c9.8,0,19.5,1.1,29,3.6c7.5,1.9,10.7-9.6,3.2-11.6
			c-41.6-10.8-83.1,3.3-123,14.7c-21.1,6-42.3,11.2-64.3,12.5c-22.8,1.4-45.7-0.4-68.3-3.3c-46.2-6-91.6-15.4-138.4-16.6
			c-11.9-0.3-23.9-0.3-35.8-0.3c-10.9,0.1-22-0.4-32.9,0.9c-9.7,1.2-19,4.2-26.2,11.1c-7.1,6.8-11.3,16-15.6,24.7
			c-10.4,21.1-20.9,42.2-31.3,63.3c-9.3,18.9-18.2,38.2-28.9,56.4c-9.9,16.8-22,32.5-38.5,43.4c-16.8,11.1-35.8,18.5-50.4,32.6
			c-27.3,26.5-35.8,68-21,103c3.6,8.6,8.5,16.5,14.4,23.8c2.9,3.6,6.2,7,9.7,10c3.4,3,7.3,5.5,10.5,8.9c7.4,7.9,2.7,19.2,0.5,28.4
			c-2.7,10.8-4.2,21.9-4.8,33c-2.4,45.1,10.6,90.1,23.4,132.9c5.5,18.3,12.9,36.2,28.3,48.4c13.2,10.5,29.9,16.4,46.8,16.6
			c8.4,0.1,16.8-1.4,24.7-4.3C231.3,1324.3,228.2,1312.7,220.9,1315.4L220.9,1315.4z"/>
	</g>
</g>
</svg>
