<?xml version="1.0" encoding="utf-8"?>
<!-- Generator: Adobe Illustrator 22.0.1, SVG Export Plug-In . SVG Version: 6.00 Build 0)  -->
<svg version="1.1" id="Layer_1" xmlns="http://www.w3.org/2000/svg" xmlns:xlink="http://www.w3.org/1999/xlink" x="0px" y="0px"
	 viewBox="0 0 1242 2208" style="enable-background:new 0 0 1242 2208;" xml:space="preserve">
<style type="text/css">
	.st0{fill:#FFFFFF;}
	.st1{fill:#42210B;}
	.st2{fill:#8C6239;}
	.st3{fill:#C7B299;}
</style>
<g>
	<g>
		<path class="st0" d="M214,921.2c-2.1-64.3,33.5-121.8,76.4-166.8c22-23,46.2-43.8,70.3-64.4c24-20.5,48.9-41.2,80.4-48.4
			c16.5-3.8,33.6-4.4,50.4-4.5c17.3-0.1,34.7,0,52,0c35.2,0,70.4,0,105.6-0.1c33.1,0,66.6-0.8,96.5,15.7c25.3,14,45.4,35.9,62.3,59
			c36.7,49.9,62.5,107.8,75.5,168.3c1.6,7.6,3.1,15.3,4.3,23c0.3,1.9,3.2,1.1,2.9-0.8c-10.2-62.9-33.9-123.5-69.3-176.5
			c-16.1-24.1-34.5-47.4-57.8-64.9c-11.2-8.4-23.5-15.2-36.8-19.6c-15.7-5.2-32.3-6.6-48.8-7c-36.5-0.8-73-0.1-109.5-0.1
			c-18.6,0-37.2,0-55.8,0c-17.1,0-34.3-0.3-51.3,1.3c-15.5,1.5-30.6,4.9-44.8,11.4c-14.2,6.6-27.1,15.7-39.3,25.5
			c-25.5,20.4-50.4,42.2-73.9,64.9c-44.7,43.2-84.5,96.6-91.5,160.1c-0.9,7.9-1.1,15.9-0.9,23.9C211,923.1,214,923.1,214,921.2
			L214,921.2z"/>
	</g>
</g>
<g>
	<g>
		<path class="st1" d="M273.1,807c-11.1,0.5-22.1,0.4-33.1-1c2.7,0.4,5.3,0.7,8,1.1c-7.9-1.1-15.7-2.9-23.1-5.9c2.4,1,4.8,2,7.2,3
			c-2.9-1.3-5.8-2.6-8.5-4.3c-1.1-0.7-2.2-1.5-3.4-2.2c7.8,4.9,3.4,2.7,1.4,0.8c-1.2-1.1-2.2-2.3-3.4-3.4c-3.5-3.6,4.2,6.5,1.1,1.6
			c-2-3.1-3.8-6.2-5.3-9.6c1,2.4,2,4.8,3,7.2c-2.6-6.4-4.1-13.1-5-19.9c0.4,2.7,0.7,5.3,1.1,8c-2.8-23.5-1.2-48.4,1.9-71.7
			c-0.4,2.7-0.7,5.3-1.1,8c2.3-16.7,6.2-33,12.7-48.6c-1,2.4-2,4.8-3,7.2c4.1-9.6,9.1-19.8,16-27.8c-1.6,1.8-4,5-0.9,1.3
			c1-1.1,1.9-2.2,2.9-3.3c2-2.2,4-4.3,6.1-6.4c4.2-4.2,8.6-8.1,13.1-12c4.5-3.8,9.1-7.6,13.7-11.3c2.2-1.8,4.4-3.6,6.7-5.4
			c0.9-0.7,1.8-1.4,2.7-2.1c4.8-3.8-4.2,3.1-1.3,1c9.5-6.9,19.1-13.4,29.9-18.2c-2.4,1-4.8,2-7.2,3c10.7-4.5,21.9-6.9,33.4-8.4
			c-2.7,0.4-5.3,0.7-8,1.1c46.7-6,94.1-9.1,141.1-11.5c47.5-2.4,95-3.1,142.5-1.4c26.3,1,52.7,2.2,78.8,5.7c-2.7-0.4-5.3-0.7-8-1.1
			c20.3,2.8,40.3,7.3,59.3,15.1c-2.4-1-4.8-2-7.2-3c16,6.8,31.1,15.5,45.4,25.3c3.1,2.1,6.3,4.3,9.3,6.5c1.8,1.3,3.5,2.6,5.2,3.9
			c0.7,0.5,1.3,1,1.9,1.5c2.8,2.1-6.2-4.9-1.6-1.2c6.2,4.9,12.2,9.9,18.1,15.2c11.7,10.5,22.8,21.7,33,33.6c2.5,2.9,4.9,5.8,7.3,8.7
			c1.2,1.5,2.4,3,3.6,4.4c3,3.8-1.5-2-1.7-2.2c0.7,0.8,1.3,1.7,2,2.6c4.9,6.5,9.6,13.2,14,20c9.9,15.1,19.2,31,26.2,47.6
			c-1-2.4-2-4.8-3-7.2c1.8,4.4,3.2,8.8,4,13.4c-0.4-2.7-0.7-5.3-1.1-8c0.4,3.3,0.5,6.5,0.1,9.8c0.4-2.7,0.7-5.3,1.1-8
			c-0.5,3.2-1.3,6.2-2.6,9.2c1-2.4,2-4.8,3-7.2c-0.8,1.9-1.8,3.7-2.9,5.4c-0.4,0.6-1.2,2.5-1.9,2.9c0.1-0.1,5-5.8,2.1-2.8
			c-3,3.1-6.2,6-9.4,8.9c7.1-6.5,1.7-1.4-0.5,0.2c-1.8,1.3-3.7,2.5-5.6,3.7c-4.2,2.7-8.6,5.2-13,7.7c-19.8,11.4-39.4,24.3-60.5,33.2
			c2.4-1,4.8-2,7.2-3c-9.7,3.9-19.6,6.4-30,7.9c2.7-0.4,5.3-0.7,8-1.1c-14.6,1.9-29.4,2-44.2,2.1c-15.9,0.2-31.8,0.5-47.7,0.9
			c-31.1,0.8-62.2,2-93.3,3.2c-62.8,2.5-125.7,5-188.6,5.1c-34.7,0-70.2,0.7-104.7-3.6c2.7,0.4,5.3,0.7,8,1.1
			c-12.5-1.7-24.7-4.4-36.4-9.2c2.4,1,4.8,2,7.2,3c-6.7-2.9-13.2-6.3-19.2-10.3c-1.6-1.1-3.1-2.3-4.8-3.4c8.1,5.1,2.3,1.8,0.4,0.2
			c-2.6-2.2-5.1-4.5-7.5-6.9c-2.4-2.4-4.7-4.9-6.9-7.5c-5-5.9,3.1,4.5,0.2,0.3c-1.1-1.6-2.3-3.2-3.3-4.8c-4-6.1-7.5-12.5-10.3-19.2
			c1,2.4,2,4.8,3,7.2c-3.6-8.8-6.1-17.8-7.5-27.2c0.4,2.7,0.7,5.3,1.1,8c-1.4-10.3-1.4-20.7,0-31c-0.4,2.7-0.7,5.3-1.1,8
			c1.5-10.3,4.2-20.4,8.1-30c-1,2.4-2,4.8-3,7.2c3-7.2,6.7-14.1,11.1-20.5c1.4-2,6.3-7.3-0.1-0.2c1-1.2,2-2.4,3-3.6
			c2.7-3.1,5.5-6,8.5-8.8c1.5-1.4,2.9-2.7,4.5-4c1.8-1.5,8.3-5.5,0.6-0.6c3.4-2.1,6.5-4.6,9.9-6.7c7.4-4.6,15.1-8.4,23.1-11.8
			c-2.4,1-4.8,2-7.2,3c20.2-8.5,41.6-13.4,63.3-16.4c-2.7,0.4-5.3,0.7-8,1.1c37.4-4.8,75.3-4.3,112.9-4.3c19.9,0,39.9,0.1,59.8,0.3
			c19.3,0.2,39.1-0.9,58.2,1.4c-2.7-0.4-5.3-0.7-8-1.1c4.9,0.7,9.7,1.8,14.3,3.6c-2.4-1-4.8-2-7.2-3c2.5,1.1,4.6,2.6,7,3.8
			c-6-3-4.3-3.6-1.8-1.2c0.8,0.8,1.6,1.6,2.4,2.4c2,2.2,1.4,3.8-1.7-2.4c0.5,1,1.3,1.9,1.9,2.9c1.3,2.2,2.4,4.4,3.5,6.8
			c-1-2.4-2-4.8-3-7.2c3.9,9.4,5.9,19.3,7.2,29.3c-0.4-2.7-0.7-5.3-1.1-8c0.3,2.4,0.6,4.7,0.9,7.1c0.9,8.2,2.7,15.2,8.8,21.2
			c5.2,5.2,13.7,9.1,21.2,8.8c7.8-0.3,15.8-2.9,21.2-8.8c5-5.5,9.7-13.5,8.8-21.2c-2.3-20.6-5-43.1-17.2-60.6
			c-7.2-10.4-16.1-19.4-27.8-24.7c-13.1-6-26.7-8.1-41.1-8.6c-46.3-1.4-92.9-1.1-139.3-0.7c-43.9,0.4-89.1,1.5-131.3,14.4
			c-43.4,13.3-85.2,39.3-105.9,81.1c-10,20.2-15.8,42-16.4,64.7c-0.6,22.3,4.7,43.5,13.8,63.6c17,37.7,52.4,66.7,91.9,78.1
			c22.8,6.6,47.1,7.7,70.8,8.4c23.5,0.8,47,1.1,70.5,1c46.7-0.1,93.3-1.6,139.9-3.4c47-1.8,93.9-3.8,140.9-5
			c22.6-0.6,45.2-0.4,67.7-1.3c13-0.5,26.1-1.9,38.9-4.6c12.4-2.7,24.2-7.6,35.5-13.3c19.8-9.9,38.9-21.7,58-32.9
			c17.5-10.3,36.3-23.6,45.4-42.4c7-14.4,9-29.3,5.8-45c-2.3-11.5-8-22.4-13.3-32.7c-8.8-17.1-18.9-33.6-30.3-49.1
			c-25.2-34.5-54.6-64.2-88.9-89.7c-16.5-12.3-34.1-23.6-52.9-32.1c-22-10.1-44.6-16.7-68.6-20.2c-47.2-6.9-95.3-8.2-142.9-8.2
			c-46.6,0-93.1,2-139.5,5.4c-23.4,1.7-46.8,3.8-70.1,6.1c-12.9,1.3-25.9,2.5-38.6,4.8c-12.6,2.3-24.6,6.5-36.1,12.2
			c-19.8,9.7-36.8,24.7-53.7,38.7c-17.3,14.3-33.3,30.2-44.6,49.8c-21.4,37-26.7,81-27.2,123.1c-0.3,22.9,1.3,46.1,12.2,66.7
			c10.8,20.5,31.2,34.2,53.1,40.4c17.9,5.1,37.2,5.9,55.7,5.1c15.7-0.7,30.7-13.3,30-30C302.4,821.3,289.9,806.3,273.1,807
			L273.1,807z"/>
	</g>
</g>
<g>
	<g>
		<path class="st1" d="M265.3,753c2.3-3.6-2.2,2.7-2.2,2.7c-0.2-0.5,5.3-4.5,0.1-0.4c-4,3.1-1.2,1-0.1,0.4c1-0.6,2.1-1.1,3.2-1.6
			c-2.4,1-4.8,2-7.2,3c8-3.4,16.8-4.6,25.4-5.8c-2.7,0.4-5.3,0.7-8,1.1c19.2-2.5,38.8-3.1,58-0.6c-2.7-0.4-5.3-0.7-8-1.1
			c8.2,1.2,16.2,3.1,23.9,6.2c-2.4-1-4.8-2-7.2-3c3.5,1.5,6.8,3.1,10,5.2c1.3,0.8,2.5,1.7,3.7,2.5c-7.6-4.9-2.8-2.2-0.9-0.4
			c1.3,1.2,2.4,2.5,3.6,3.7c3.6,3.6-3.9-6-1-1.4c1.9,2.9,3.6,5.8,4.9,9c-1-2.4-2-4.8-3-7.2c1.3,3.3,2.1,6.5,2.6,10
			c-0.4-2.7-0.7-5.3-1.1-8c0.2,2.5,0.3,4.9,0,7.5c0.4-2.7,0.7-5.3,1.1-8c-0.4,2.5-1,4.7-1.9,7.1c1-2.4,2-4.8,3-7.2
			c-0.1,0.2-1.4,2.5-1.4,2.6c-0.1-0.1,5.2-6.6,1.4-2.2c-1.8,2,5.1-3,2.5-2.1c-1.1,0.4-2.2,1.1-3.3,1.6c2.4-1,4.8-2,7.2-3
			c-2.8,1.1-5.7,1.8-8.7,2.2c2.7-0.4,5.3-0.7,8-1.1c-8.3,1.1-16.8,0.8-25.1-0.2c2.7,0.4,5.3,0.7,8,1.1c-10.1-1.4-19.8-4-29.2-7.9
			c2.4,1,4.8,2,7.2,3c-7.9-3.4-15.1-7.6-22.2-12.4c-2.5-1.8-1.7-1.2,2.3,1.8c-0.8-0.7-1.7-1.3-2.5-2c-1.6-1.4-3.2-2.8-4.8-4.2
			c-1.5-1.5-3-3-4.5-4.5c-2-2.3-1.5-1.5,1.6,2.3c-0.6-0.9-1.2-1.8-1.6-2.8c1,2.4,2,4.8,3,7.2c-0.4-0.9-0.8-1.9-0.9-3
			c0.4,2.7,0.7,5.3,1.1,8c-0.2-1-0.2-2.1,0-3.1c-0.4,2.7-0.7,5.3-1.1,8c0.1-0.4,0.2-0.9,0.4-1.3c-1,2.4-2,4.8-3,7.2
			c1.3-2.7,0.4-1.8-2.6,2.8c1.6-1.5,1.3-1.3-1,0.6c-4.3,3.5,0.5,0.3,1.9-0.3c-2.4,1-4.8,2-7.2,3c6.7-2.5,13.7-4,20.8-4.9
			c-2.7,0.4-5.3,0.7-8,1.1c9.3-1.1,18.5-1.1,27.8,0c-2.7-0.4-5.3-0.7-8-1.1c6.2,0.9,12.3,2.1,18.1,4.4c-2.4-1-4.8-2-7.2-3
			c1.3,0.6,2.6,1.1,3.8,1.8c1.1,0.6,6.2,4.2,1.5,0.7c-5.8-4.5,2.9,4.3-1.5-1.6c-3.5-4.6,0,0.4,0.6,1.5c-1-2.4-2-4.8-3-7.2
			c0.7,1.7,1.2,3.4,1.6,5.3c-0.4-2.7-0.7-5.3-1.1-8c0.3,2.3,0.2,4.5-0.1,6.8c0.4-2.7,0.7-5.3,1.1-8c-0.4,2.3-1.1,4.5-2,6.7
			c1-2.4,2-4.8,3-7.2c-0.5,1-1.8,4.6-2.8,5c1-1.3,2-2.5,2.9-3.8c-0.6,0.7-1.3,1.4-2,2.1c-0.5,0.5-1,1-1.6,1.4
			c-1.8,1.5-0.7,0.7,3.2-2.5c-1.7,0.3-4.1,2.4-5.8,3.2c2.4-1,4.8-2,7.2-3c-4.7,1.9-9.5,3.1-14.4,3.8c2.7-0.4,5.3-0.7,8-1.1
			c-9.5,1.1-19.2,0.9-28.7-0.2c2.7,0.4,5.3,0.7,8,1.1c-6.2-0.9-12.1-2.3-17.9-4.6c2.4,1,4.8,2,7.2,3c-2.3-1-4.5-2.1-6.7-3.4
			c-1-0.6-4.1-2.9-0.1,0.2c4.3,3.4,0.2,0.1-0.4-0.6c-0.7-0.7-1.4-1.5-2.1-2.2c-2.9-2.9,1.5,2.3,1.8,2.5c-1.6-0.9-3-4.9-3.7-6.5
			c1,2.4,2,4.8,3,7.2c-1.1-2.8-1.9-5.5-2.4-8.5c0.4,2.7,0.7,5.3,1.1,8c-0.3-2.5-0.2-4.8,0-7.3c-0.4,2.7-0.7,5.3-1.1,8
			c0.4-2.1,0.9-4,1.6-5.9c-1,2.4-2,4.8-3,7.2c0.9-2.2,2.2-4.1,3.2-6.2c1.5-3-4.2,4.7-1.9,2.3c0.7-0.8,1.4-1.6,2.1-2.4
			c1.6-1.7,3.4-3.4,5.2-4.9c0.7-0.6,1.6-1.7,2.5-2c-1.8,0.8-5.4,4.1-1.3,1.2c8.2-5.9,17.1-10.7,26.4-14.7c-2.4,1-4.8,2-7.2,3
			c8.8-3.6,17.9-6.5,27.3-7.9c-2.7,0.4-5.3,0.7-8,1.1c4.9-0.6,9.7-0.7,14.6-0.2c-2.7-0.4-5.3-0.7-8-1.1c3.1,0.5,6.1,1.2,9,2.4
			c-2.4-1-4.8-2-7.2-3c1.8,0.8,3.5,1.6,5.1,2.6c0.4,0.3,0.8,0.5,1.2,0.8c2.5,1.8,1.6,1.1-2.7-2.1c0.8,1,2,2.1,2.9,3
			c-3.2-4.3-3.9-5.2-2.3-2.7c0.5,0.8,0.9,1.6,1.3,2.5c-1-2.4-2-4.8-3-7.2c0.9,2.1,1.5,4.2,1.8,6.4c-0.4-2.7-0.7-5.3-1.1-8
			c0.1,1.7,0.1,3.3,0,5c0.4-2.7,0.7-5.3,1.1-8c-0.3,2.1-0.8,4-1.6,6c1-2.4,2-4.8,3-7.2c-0.7,1.6-1.5,3-2.4,4.5
			c-2.3,4.1,5.7-6.1,0.6-1.1c-5.1,5.1,5.1-2.9,1-0.6c-1.5,0.9-3,1.8-4.6,2.5c2.4-1,4.8-2,7.2-3c-2.5,1-4.9,1.8-7.5,2.2
			c2.7-0.4,5.3-0.7,8-1.1c-2.6,0.3-5.2,0.4-7.8,0c2.7,0.4,5.3,0.7,8,1.1c-2.2-0.4-4.3-1-6.4-1.8c2.4,1,4.8,2,7.2,3
			c-2.1-0.9-3.9-2-5.8-3.1c-4-2.3,4.6,4.4,2.4,1.9c-0.7-0.8-1.7-1.5-2.4-2.3c-0.6-0.6-1.2-1.4-1.8-2c5.6,5.5,3.4,4.5,1.9,2.3
			c-1.4-2.1-2.5-4.3-3.6-6.6c1,2.4,2,4.8,3,7.2c-1.6-3.8-2.7-7.7-3.4-11.8c0.4,2.7,0.7,5.3,1.1,8c-0.6-4.2-0.5-8.4,0-12.6
			c-0.4,2.7-0.7,5.3-1.1,8c0.7-4.7,2-9.1,3.7-13.5c-1,2.4-2,4.8-3,7.2c2.3-5.4,5.4-10.1,8.6-15c-5.2,8.1,0,0.2,2-1.9
			c2-2.1,4.1-4.2,6.3-6.1c1-0.9,2.1-1.7,3.1-2.6c2.8-2.4-5.6,4.1-1.4,1.1c2.7-2,5.5-3.9,8.4-5.6c5.3-3.2,10.8-6,16.5-8.4
			c-2.4,1-4.8,2-7.2,3c7.5-3,15.2-5.5,23.2-6.9c-2.7,0.4-5.3,0.7-8,1.1c3.2-0.4,6.2-0.5,9.4-0.1c-2.7-0.4-5.3-0.7-8-1.1
			c1.5,0.3,2.9,0.7,4.4,1.2c-2.4-1-4.8-2-7.2-3c0.4,0.2,4.7,2.2,4.6,2.5c-0.2,0.5-5.8-5.4-3.1-2.2c0.7,0.8,1.5,1.7,2.3,2.4
			c2.2,2.1-3.7-5.5-2.3-2.8c0.4,0.8,1,1.5,1.4,2.3c1,1.8,1.9,3.7,2.8,5.6c-1-2.4-2-4.8-3-7.2c2.9,6.8,4.7,14,5.9,21.3
			c-0.4-2.7-0.7-5.3-1.1-8c0.7,5.1,0.9,10.2,0.4,15.4c0.4-2.7,0.7-5.3,1.1-8c-0.5,3.5-1.3,6.8-2.6,10.1c1-2.4,2-4.8,3-7.2
			c-0.8,1.7-2.3,3.6-2.8,5.3c3.3-4.1,4-5,2.1-2.7c-0.6,0.7-1.2,1.3-1.9,1.9c-3.2,3.5,6.9-4.4,0.7-0.7c-1.5,0.9-3.1,1.7-4.8,2.4
			c2.4-1,4.8-2,7.2-3c-3.9,1.5-7.8,2.6-11.9,3.2c2.7-0.4,5.3-0.7,8-1.1c-6.6,0.8-13.2,0.7-19.8-0.2c2.7,0.4,5.3,0.7,8,1.1
			c-6.9-1-13.6-2.8-20.1-5.5c2.4,1,4.8,2,7.2,3c-3-1.3-6-2.7-8.8-4.4c-1.6-0.9-3.1-2-4.7-3c-4.5-2.9,6.1,5.1,1.2,0.9
			c-1.2-1-2.3-2.1-3.4-3.2c-0.9-0.9-4.7-5.6-1.1-1c3.6,4.6,0.1-0.1-0.5-1.2c-0.9-1.5-1.6-3-2.2-4.6c1,2.4,2,4.8,3,7.2
			c-0.9-2.4-1.6-4.9-2.1-7.4c0.4,2.7,0.7,5.3,1.1,8c-0.4-3.1-0.5-6.2-0.1-9.3c-0.4,2.7-0.7,5.3-1.1,8c0.4-3,1.2-5.9,2.3-8.7
			c-1,2.4-2,4.8-3,7.2c1.2-2.8,2.9-5.2,4.4-7.8c-3.4,4.3-4.2,5.3-2.2,3c0.6-0.7,1.2-1.3,1.8-1.9c1.1-1.1,2.2-2.2,3.4-3.2
			c4.9-4.2-5.7,3.8-1.2,0.9c1.4-0.9,2.7-1.8,4.1-2.6c3-1.8,6.2-3.3,9.4-4.7c-2.4,1-4.8,2-7.2,3c7.5-3.1,15.3-5.1,23.4-6.2
			c-2.7,0.4-5.3,0.7-8,1.1c8.2-1,16.4-1.2,24.7-0.1c-2.7-0.4-5.3-0.7-8-1.1c5.5,0.9,10.8,2.3,16,4.4c-2.4-1-4.8-2-7.2-3
			c3,1.3,5.7,3,8.5,4.7c2.6,1.5-6.1-5.2-1.3-1c5,4.5-3-5.4-0.3-0.8c-1-2.4-2-4.8-3-7.2c0.5,0.9,0.7,1.8,0.9,2.8
			c-0.4-2.7-0.7-5.3-1.1-8c0,0.4,0,0.8,0,1.2c0.4-2.7,0.7-5.3,1.1-8c0,0.8-0.2,1.5-0.5,2.3c1-2.4,2-4.8,3-7.2
			c-1.3,2.6-0.4,1.5,2.7-3.1c-1.5,1.4-1.2,1.2,1.1-0.7c4.4-3.5-0.3-0.4-1.6,0.2c2.4-1,4.8-2,7.2-3c-9.2,3.5-19.7,4.6-29.4,5.9
			c2.7-0.4,5.3-0.7,8-1.1c-23,2.9-46.4,3.1-69.5,0.1c2.7,0.4,5.3,0.7,8,1.1c-5.2-0.8-10.3-2-15.2-4.1c2.4,1,4.8,2,7.2,3
			c-1.6-0.7-3.1-1.4-4.6-2.3c-2.9-1.7-2.7-3.9,2.1,1.9c-0.6-0.8-1.8-1.9-2.5-2.5c5.8,5.1,3.3,4.8,1.7,1.1c1,2.4,2,4.8,3,7.2
			c-0.4-1.2-0.7-2.2-0.9-3.4c0.4,2.7,0.7,5.3,1.1,8c-0.2-1.5-0.2-2.8-0.1-4.3c-0.4,2.7-0.7,5.3-1.1,8c0.3-2.1,0.8-3.9,1.6-5.9
			c-1,2.4-2,4.8-3,7.2c0.4-0.9,0.9-1.9,1.4-2.8c0.5-0.8,3.6-5.1,0.4-0.9c-3.1,4.1,1.4-1.3,2.5-2.3c1.8-1.7,3.6-3.4,5.4-5
			c0.6-0.5,1.8-1.9,2.5-2.1c-1.5,0.4-5.7,4.3-1.5,1.2c7.8-5.7,16.2-10.3,25-14c-2.4,1-4.8,2-7.2,3c9.7-3.9,19.7-6.7,30.1-8.1
			c-2.7,0.4-5.3,0.7-8,1.1c1.8-0.2,3.4-0.3,5.2-0.1c-2.7-0.4-5.3-0.7-8-1.1c0.6,0.2,1.1,0.3,1.7,0.5c-2.4-1-4.8-2-7.2-3
			c-1.3-1.1-2.6-2.2-3.9-3.3c-3-4.3-3.9-5.5-2.6-3.5c0.3,0.9,1.1,2,1.5,2.9c-1-2.4-2-4.8-3-7.2c0.8,2,1.3,4,1.6,6.1
			c-0.4-2.7-0.7-5.3-1.1-8c0.2,2.1,0.2,4.2-0.1,6.3c0.4-2.7,0.7-5.3,1.1-8c-0.4,2.6-1.1,4.9-2,7.4c1-2.4,2-4.8,3-7.2
			c-0.7,1.6-1.5,3-2.4,4.5c-2.3,4.1,5.2-5.4,1.6-2.1c-2.9,2.6-2.9,1.1,2.3-1.4c-1.5,0.7-2.9,1.8-4.4,2.5c2.4-1,4.8-2,7.2-3
			c-1.8,0.7-3.5,1.2-5.4,1.5c2.7-0.4,5.3-0.7,8-1.1c-2.6,0.3-5.1,0.4-7.7,0.1c2.7,0.4,5.3,0.7,8,1.1c-3.1-0.5-6-1.3-9-2.4
			c2.4,1,4.8,2,7.2,3c-1.7-0.8-5.9-2.2-6.9-3.8c0.7,1.2,5.5,4.7,1.8,1.2c-1-0.9-1.9-1.9-2.8-2.9c-3-3.2,1.4,2.2,1.7,2.2
			c-0.5-0.1-1.9-2.8-2.2-3.4c-1.6-2.6-2.9-5.3-4.1-8c1,2.4,2,4.8,3,7.2c-6-14.5-8-30.2-22.8-39.2c-11-6.7-25.3-6.6-36.4-0.1
			c-6.8,4-11.8,10.2-17,15.9c-16.6,18.1-33.3,36.2-49.9,54.3c-8.6,9.3-18.9,18.7-25.2,29.8c-9.1,16.1-7.8,33.3-2.2,50.3
			c6.3,19.3,13.3,38.7,23.2,56.5c11.5,20.9,28.3,40.2,49.8,51.1c0-17.3,0-34.5,0-51.8c-17.6,9.4-27.5,27.9-28.6,47.5
			c-0.8,15.7,14.4,30.7,30,30c17-0.8,29.1-13.2,30-30c0-0.9,0.1-1.9,0.2-2.8c-0.4,2.7-0.7,5.3-1.1,8c0.3-1.9,0.8-3.6,1.5-5.4
			c-1,2.4-2,4.8-3,7.2c0.6-1.3,1.2-2.5,1.9-3.8c2.2-4.2-4.2,4.4-1.8,2.1c0.4-0.4,2.4-2.1,2.5-2.5c-0.4,1.7-6.6,4.4-1.4,1.6
			c19.2-10.3,19.9-41.7,0-51.8c-3-1.5-5.9-3.2-8.7-5.1c-1.9-1.3-5.6-4.7,1.5,1.3c-1.1-0.9-2.2-1.8-3.2-2.7c-2.3-2-4.5-4.2-6.5-6.4
			c-1.1-1.2-2.2-2.5-3.3-3.7c-3.3-3.8,4.4,6,1.2,1.6c-7.5-10.3-13.3-21.6-18.3-33.3c1,2.4,2,4.8,3,7.2c-5.7-13.6-12-28.4-14.6-42.9
			c0.4,2.7,0.7,5.3,1.1,8c-0.3-2.5-0.4-4.9-0.1-7.4c-0.4,2.7-0.7,5.3-1.1,8c0.3-1.7,0.7-3.1,1.3-4.7c-1,2.4-2,4.8-3,7.2
			c0.8-1.8,2.4-3.6,3-5.3c-3.2,4-3.8,4.8-1.8,2.4c0.7-0.8,1.4-1.6,2.1-2.3c3.5-3.8,7-7.6,10.5-11.4c7.2-7.8,14.4-15.6,21.6-23.5
			s14.4-15.6,21.6-23.5c3.6-3.9,7.2-7.8,10.8-11.7c1.8-2,3.6-3.9,5.4-5.9c0.8-0.9,1.6-1.8,2.4-2.6c-4.2,2.7-4.9,3.4-2.2,2
			c-2.4,1-4.8,2-7.2,3c0.5-0.1,1-0.2,1.5-0.3c-2.7,0.4-5.3,0.7-8,1.1c0.4,0,0.8,0.1,1.2,0.1c-2.7-0.4-5.3-0.7-8-1.1
			c0.4,0.1,0.7,0.2,1.1,0.3c-2.4-1-4.8-2-7.2-3c-3.1-1.9-5.5-4.4-7.4-7.5c0.4,0.8,0.8,1.6,1.2,2.4c-1-2.4-2-4.8-3-7.2
			c3.6,9.6,6.1,19.3,10.9,28.5c5.8,11,14.4,20.3,24.6,27.2c22.1,15,51.8,13.7,71.7-4.1c18.5-16.6,22.9-44.4,12.5-66.4
			c-6.9-14.6-22.4-23.5-38.5-22.1c-10.5,0.9-21.1,3.1-31.1,6.6c-20.2,6.9-38.2,17.4-54.1,31.6c-9.2,8.2-17,18.2-20.8,30
			c-4.1,12.6-2.4,27.7,4.9,38.9c12.7,19.6,34.5,25.8,56.3,28.3c19.5,2.3,39.3,2.4,58.8,0.4c11.8-1.2,23.6-2.9,35.2-5.3
			c11.2-2.3,22.7-6.6,30.4-15.4c14.2-16,13.1-38.5-1.4-53.9c-8.3-8.8-18.9-14.4-30-18.8c-18.7-7.3-39.6-6.4-59-3.2
			c-18.6,3.1-35.6,11.7-50.1,23.6c-15.2,12.4-25.5,33-24.4,52.8c1.3,23.3,13.6,41.2,31.8,54.8c15.2,11.4,33.7,16.6,52.3,18.7
			c17.9,2.1,38.8-1.1,53.6-12c11.5-8.5,19.2-18.7,24-32.3c3.2-9.3,3.9-20,2.8-29.8c-2.4-20.5-8.3-42.9-23.8-57.7
			c-10.1-9.6-22.9-15-36.9-15.2c-11-0.2-22.6,3-32.9,6.8c-20,7.5-38.6,18.2-53.8,33.3c-15.3,15.1-26.6,34.5-29.5,56
			c-3,22.1,3.6,43,18,60c14.5,17,39.4,25.2,60.9,18.7c24-7.2,41.3-27.6,43.5-52.5c2.4-26.2-18.4-47.6-41.5-55.7
			c-21-7.3-45.5-2-65.5,6.2c-9.9,4.1-19.6,8.5-28.6,14.3c-8.7,5.6-17.7,11.9-24.6,19.7c-10,11.2-15.9,23.3-17.5,38.2
			c-1.3,11.7,2.4,24.2,8.2,34.3c11.4,19.9,32.9,32.3,55.3,35.6c23.2,3.4,47.2,3.5,68.6-7.2c22.9-11.4,37.3-39,31-64.2
			c-5.9-23.2-27.6-37.4-50.1-41.6c-22.5-4.2-46.9-4.1-68.7,3.6c-14.9,5.2-27.3,14.6-31.7,30.4c-4.8,17,4.4,33.1,16.1,44.7
			c27.3,27,68,43.7,106.7,40.5c14.7-1.2,27.2-4.8,38.8-14.2c11-9,15.8-22.4,17.1-36.1c2.1-21.2-9.5-44-25.3-57.6
			c-35.1-30.3-84.8-29.9-128.3-23.8c-21.8,3.1-42.6,9.5-55,29.3c-8.4,13.3-3.3,33.6,10.8,41C239,771.6,256.3,767.2,265.3,753
			L265.3,753z"/>
	</g>
</g>
<g>
	<g>
		<path class="st1" d="M184.4,849.5c14.7,17.7,34,31.2,55.1,40.1c23.2,9.8,48,13.3,73,14.4c23,1.1,46.1,0.8,69.2,1.1
			c24.3,0.3,48.7,0.5,73,0.8c48.3,0.5,96.6,1,145,1.5c47.8,0.5,95.7,1.6,143.5,1.3c48.6-0.4,97.7-4.9,142.7-24.4
			c21.9-9.6,40.8-24.1,54.9-43.4c15.3-20.9,20.7-47.4,16-72.6c-4.2-22.5-19.7-43-36.9-57.5c-17.4-14.5-37.2-25-55.7-37.9
			c-1-0.7-1.9-1.3-2.8-2c-0.7-0.5-5.3-4-1.2-0.8c3.7,2.9,0.5,0.4-0.4-0.3c-1.1-0.9-2.2-1.8-3.3-2.8c-3.5-3-6.8-6.3-9.9-9.6
			c-6.2-6.5-11.9-13.3-18.2-19.7c-7.6-7.7-16.2-15.1-25.7-20.4c-12.9-7.2-26.7-10.2-41.3-11.1c-23.5-1.4-47.3-0.2-70.9-0.2
			c-24.3,0-48.6,0.1-72.9,0.1c-48.3,0.1-96.5,0.1-144.8,0.2c-12,0-24,0-35.9,0c-15.7,0-30.7,13.8-30,30c0.7,16.2,13.2,30,30,30
			c86.5-0.1,173.1-0.2,259.6-0.3c12,0,24,0,35.9,0c12,0,24.3-0.6,36.3,0.9c-2.7-0.4-5.3-0.7-8-1.1c4.5,0.7,8.8,1.8,13,3.5
			c-2.4-1-4.8-2-7.2-3c3.5,1.5,6.9,3.3,10,5.4c0.9,0.6,6.2,4.6,1.6,1c-4.6-3.5,0.5,0.6,1.4,1.4c5.5,4.9,10.5,10.4,15.5,15.9
			c12.1,13.4,24.7,25,39.6,35.3c7,4.8,14.2,9.2,21.4,13.6c7.3,4.5,14.1,9.7,21.4,14.2c-7.9-4.9-1.9-1.5,0.1,0.2c1.2,1,2.4,2,3.6,3.1
			c3.1,2.8,6.1,5.8,8.8,8.9c1,1.2,1.9,2.5,3,3.6c-6.4-6.5-1.7-2.1-0.2,0.2c2.2,3.4,4.1,7,5.7,10.7c-1-2.4-2-4.8-3-7.2
			c1.9,4.8,3.3,9.7,4,14.8c-0.4-2.7-0.7-5.3-1.1-8c0.5,4.8,0.5,9.5-0.1,14.2c0.4-2.7,0.7-5.3,1.1-8c-0.8,5.8-2.4,11.4-4.6,16.8
			c1-2.4,2-4.8,3-7.2c-2.4,5.5-5.6,10.3-8.8,15.3c4.4-7,2.3-2.9,0.7-1.1c-0.9,1-1.8,2-2.7,3c-2.1,2.2-4.3,4.2-6.6,6.2
			c-0.9,0.8-4.9,3.9-0.8,0.7c4.1-3.2,0-0.1-0.9,0.6c-2.7,1.9-5.5,3.6-8.3,5.2c-5.2,3-10.7,5.6-16.3,8c2.4-1,4.8-2,7.2-3
			c-20.1,8.3-41.4,13.1-62.8,16c2.7-0.4,5.3-0.7,8-1.1c-31.8,4.1-63.8,3.9-95.8,3.6c-34.6-0.4-69.3-0.7-103.9-1.1
			c-68.6-0.7-137.3-1.4-205.9-2.1c-19.3-0.2-38.7-0.4-58-0.6c-17.9-0.2-35.9-0.4-53.6-2.7c2.7,0.4,5.3,0.7,8,1.1
			c-13-1.8-25.8-4.8-38-9.8c2.4,1,4.8,2,7.2,3c-8.6-3.7-16.5-8.3-24.1-13.7c-3.4-2.4,1.5,1.5,2.2,1.7c-0.8-0.2-1.9-1.6-2.5-2.1
			c-1.7-1.4-3.3-2.9-4.9-4.4c-3.6-3.4-6.9-7-10-10.8c-4.6-5.6-14.2-8.8-21.2-8.8c-7.4,0-16.1,3.3-21.2,8.8
			c-5.2,5.7-9.1,13.2-8.8,21.2C175.9,836.7,179,843.1,184.4,849.5L184.4,849.5z"/>
	</g>
</g>
<g>
	<g>
		<path class="st1" d="M277.4,718c17.9-11.8,36.7-21.9,56.4-30.2c-2.4,1-4.8,2-7.2,3c16.4-6.9,33.3-12.6,50.6-16.9
			c15.4-3.9,31.1-6.7,46.7-10.1c34-7.6,67.7-19.3,93.2-44c16.1-15.5,8.5-44.6-13.2-50.1c-14.5-3.7-29.8-5.4-44.8-4
			c-8.1,0.8-15.3,2.8-21.2,8.8c-5.2,5.2-9.1,13.7-8.8,21.2c0.7,15,13.3,31.5,30,30c8.1-0.7,16.1-0.6,24.1,0.4
			c-2.7-0.4-5.3-0.7-8-1.1c4.3,0.6,8.5,1.4,12.7,2.5c-4.4-16.7-8.8-33.4-13.2-50.1c-2.6,2.5-5.3,4.6-8,7c6.6-5.9,3.2-2.5,1.3-1.1
			c-1.4,1-2.9,2-4.4,2.9c-5.7,3.6-11.7,6.6-17.9,9.3c2.4-1,4.8-2,7.2-3c-30.9,13-64.6,16.4-96.7,25c-38.5,10.3-75.7,26.9-109,48.8
			c-13.1,8.6-19.9,26.9-10.8,41C244.8,720.3,263.4,727.3,277.4,718L277.4,718z"/>
	</g>
</g>
<g>
	<g>
		<path class="st1" d="M420.1,621.8c70.2-0.4,140.4-0.7,210.6-1.1c18-0.1,36.1-0.8,53.9,1.4c-2.7-0.4-5.3-0.7-8-1.1
			c8.4,1.2,16.6,3.1,24.5,6.3c-2.4-1-4.8-2-7.2-3c10.7,4.6,19.5,12,29.1,18.6c6.4,4.4,12.9,7.7,20.1,10.5c7.1,2.8,14.3,3.5,21.9,4.4
			c-2.7-0.4-5.3-0.7-8-1.1c1.7,0.2,3.4,0.6,5,1.1c-2.4-1-4.8-2-7.2-3c4.6,2.3,2.2-0.4-7.3-8c-1-2.4-2-4.8-3-7.2
			c0.1,0.4,0.3,0.7,0.4,1.1c-0.4-2.7-0.7-5.3-1.1-8c0,0.5,0.1,1,0.1,1.5c0.4-2.7,0.7-5.3,1.1-8c-0.1,1.1-0.4,2.1-0.8,3
			c1-2.4,2-4.8,3-7.2c-4.8,9.6-8.7,18.9-10.3,29.5c-1.6,10.5-2.2,21-3.6,31.4c0.4-2.7,0.7-5.3,1.1-8c-0.7,5.3-1.8,10.4-3.8,15.4
			c1-2.4,2-4.8,3-7.2c-0.6,1.4-1.3,2.8-2.1,4.1c-3.5,5.8,4.6-4.6,1.3-1.4c-0.5,0.6-1.1,1.1-1.7,1.7c-2.2,1.9-1.2,1.1,3.2-2.4
			c-1.9,0.6-4,2.3-5.8,3.1c2.4-1,4.8-2,7.2-3c-7.4,2.7-15.3,3.5-23.1,4.6c-8.8,1.3-17.6,2.5-26.4,3.7c2.7-0.4,5.3-0.7,8-1.1
			c-23.1,3.1-46.4,5.9-69.7,7.4c-22.7,1.5-45.3,1.2-68,1.4c-24.2,0.2-48.9,1.9-72.3,8.3c-21.3,5.8-41.8,15-61.5,24.7
			c-20.8,10.2-41.1,21.4-62.5,30.5c2.4-1,4.8-2,7.2-3c-29.7,12.5-65.9,23.2-80.4,55.4c-4.5,10.1-5.9,20.3,0,30.3
			c5.3,9.1,15.3,14.9,25.9,14.9c87,0,174,0,261,0c86.7,0,173.3,0,260,0c16.8,0,33-0.1,45.9-12.6c10-9.6,13.3-24.8,15.3-38
			c4-26.2,2.8-52.8-5.5-78.1c-14.7,11.3-29.4,22.6-44.1,33.9c1.8,1,3.4,2.1,5.1,3.2c4.4,2.8-5.4-4.7-1.3-1c2.5,2.2,4.8,4.4,7,6.9
			c4.5,5.1-3.5-5.3-0.4-0.7c0.8,1.3,1.7,2.5,2.5,3.8c1.9,3,3.5,6.2,4.9,9.4c-1-2.4-2-4.8-3-7.2c1.9,4.7,3.3,9.5,4.3,14.5
			c1.2,6.7,7.9,14.8,13.8,17.9c6.1,3.2,12.3,4.5,19.1,3.6c14.4-1.9,26.3-14.4,26-29.5c-0.2-14.1-3.8-27.2-10.1-39.8
			c-6.3-12.5-16-21.8-27-30.2c-7.4-5.6-18.8-4.9-26.7-1.5c-8.1,3.4-15.5,10.4-17.4,19.4c-1.4,6.7-3.4,13.1-6,19.4c1-2.4,2-4.8,3-7.2
			c-2.7,6.3-5.9,12.2-9.7,17.9c18.3,2.4,36.6,4.8,54.8,7.2c-15.3-39.9-30.6-79.8-45.9-119.8c-5.4-14.1-17.2-23.6-32.9-21.5
			c-14.5,1.9-26.2,14.4-26,29.5c0.6,47.2,1.2,94.3,1.8,141.5c19.6-2.7,39.3-5.3,58.9-8c-9.8-36.6-19.6-73.3-29.4-109.9
			c-4.1-15.2-21.6-25.9-36.9-21c-15.7,5.1-25.1,20.6-21,36.9c4.3,17.1,8.6,34.2,12.9,51.2c18.3-7.7,36.6-15.4,54.8-23.1
			c-10.4-19-20.7-38-31.1-57c-7.2-13.1-24.2-17.9-37.5-12.3c-5.8,2.4-11.3,6.6-14.3,12.3c-4,7.6-4.4,14.7-3,23.1
			c0.8,5.2,1.6,10.4,2.3,15.5c-0.4-2.7-0.7-5.3-1.1-8c3.8,28.6,5.8,57.3,5.9,86.2c19.6-2.7,39.3-5.3,58.9-8
			c-6.2-20.8-12.4-41.5-18.7-62.3c-4.3-14.4-18.1-23.5-32.9-21.5c-14.8,2-25.7,14.4-26,29.5c-0.5,28.2-1,56.3-1.5,84.5
			c19.6-2.7,39.3-5.3,58.9-8c-8.8-28.7-16.3-57.8-22.6-87.2c-3.1-14.6-19-23.4-32.9-21.5c-13.4,1.8-27.7,14.6-26,29.5
			c0.8,6.9,1.6,13.9,2.4,20.8c0.7,6.1,2.2,12.6,1.6,18.7c0.4-2.7,0.7-5.3,1.1-8c-0.1,0.5-0.2,0.9-0.3,1.4c1-2.4,2-4.8,3-7.2
			c-1.5,2.9-0.3,2,3.5-2.7c4.7-3.9,5.7-5,2.9-3.4c2.4-1,4.8-2,7.2-3c-1.3,0.5-2.5,0.8-3.9,1.1c2.7-0.4,5.3-0.7,8-1.1
			c-9,1.1-18.4,0.3-27.4,0.3c-10,0-19.9-0.1-29.9-0.1c-20.2-0.1-40.5-0.1-60.7-0.2c-40-0.1-80-0.5-120-0.4
			c-23.8,0.1-47.7,1.3-70.9,6.7c-14.6,3.4-23.4,18.8-21.5,32.9c2,14.6,14.4,26,29.5,26c58.1-0.1,116.2-0.1,174.2-0.2c0-20,0-40,0-60
			c-42.6,2-85.2,4-127.8,6.1c-15.7,0.7-30.7,13.3-30,30c0.7,16.6,13.2,29.6,30,30c72.6,1.6,145.3,0.8,217.8-2.7
			c17.4-0.8,35.7-3.6,53.1-1.3c-2.7-0.4-5.3-0.7-8-1.1c3.6,0.6,7,1.4,10.3,2.8c-2.4-1-4.8-2-7.2-3c1.5,0.7,6.9,4.3,2.5,0.9
			c-4.1-3.2-1.5-1.1-0.6-0.3c1.7,1.5,3.3,5-1.8-2.5c4.5,6.5,10.1,11.6,17.9,13.8c7.2,2,16.7,1.1,23.1-3c14-9,18.8-26.3,10.8-41
			c-3.7-6.8-7-13.8-10.1-20.9c1,2.4,2,4.8,3,7.2c-7.8-18.7-13.1-38.3-16-58.4c0.4,2.7,0.7,5.3,1.1,8c-0.6-4.7-1.1-9.4-1.5-14.2
			c-0.5-6.3-0.3-13.3-2.1-19.4c-3-9.9-9.1-18.1-17.9-23.6c-6.9-4.3-15.4-5.5-23.3-5.9c-21.1-0.9-42.3-0.7-63.4-1.1
			c-42.5-0.7-85-2-127.4-1.7c-20.7,0.1-41.4,0.7-62.1,2.5c-12.3,1-24.6,2.6-36.9,4.3c-11.7,1.7-22.6,5.9-31.1,14.4
			c-12.7,12.7-13.6,32-7.2,47.9c4.8,11.8,9.4,22.7,17.2,32.8c13.2,17.1,33,26.9,54.2,29.8c23.5,3.2,46.3-2,67-13.3
			c19.5-10.6,36-26.3,51.2-42.2c8.4-8.8,11-21.5,6.2-32.8c-4.8-11.4-15.2-17.7-27.4-18.4c-36.6-2.1-73.2-3.3-109.8-3.4
			c0,20,0,40,0,60c22.9-0.1,45.7-0.2,68.6-0.2c-2.7-19.6-5.3-39.3-8-58.9c-5.9,2.4-10.2,4-14.7,8.6c-4,4.1-6.9,9.2-8.3,14.7
			c-2.4,9.2-0.6,19,4.2,27.1c4.8,7.9,12.6,14,21.5,16.3c6.9,1.8,12.5,0.4,19.2,0.9c-2.7-0.4-5.3-0.7-8-1.1c0.5,0.1,1,0.2,1.5,0.4
			c-2.4-1-4.8-2-7.2-3c-3.3-2.2-6-5-8.2-8.3c-1-2.4-2-4.8-3-7.2c0.3,0.6,0.5,1.1,0.6,1.8c-0.4-2.7-0.7-5.3-1.1-8
			c0.1,0.6,0.1,1.2,0.1,1.8c0.4-2.7,0.7-5.3,1.1-8c0,0.5-0.2,1-0.4,1.5c1-2.4,2-4.8,3-7.2c-0.1,0.2-0.3,0.4-0.4,0.6
			c3.6-3.6,7.2-7.2,10.8-10.8c-0.2,0.1-0.4,0.3-0.6,0.4c2.4-1,4.8-2,7.2-3c-0.2,0.1-0.5,0.1-0.7,0.2c2.7-0.4,5.3-0.7,8-1.1
			c-0.3,0-0.6,0-0.8,0c-15.7-0.4-30.7,14.1-30,30c0.7,16.6,13.2,29.5,30,30c22.8,0.6,38.1-23.4,31.2-44.1
			c-3.8-11.3-12.1-19.8-23.5-23.4c-7.2-2.2-13.7-0.5-20.8-1.3c2.7,0.4,5.3,0.7,8,1.1c-0.3-0.1-0.6-0.2-0.9-0.3c2.4,1,4.8,2,7.2,3
			c2.5,1.5,4.6,3.4,6.1,5.8c1.8,2.6,2.2,3,1.3,1.3c1,2.4,2,4.8,3,7.2c-0.3-0.6-0.4-1.2-0.5-1.8c0.4,2.7,0.7,5.3,1.1,8
			c0-0.3,0-0.6,0-0.9c-0.4,2.7-0.7,5.3-1.1,8c0.1-0.3,0.1-0.5,0.2-0.8c-1,2.4-2,4.8-3,7.2c-1.2,1.6-2.5,3.3-3.7,4.9
			c-4.4,2.6-8.8,5.1-13.2,7.7c0.3-0.1,0.6-0.2,0.8-0.3c7.2-2.9,14.1-6.6,17.9-13.8c3.2-6.1,4.5-12.3,3.6-19.1
			c-2-14.6-14.4-26.1-29.5-26c-22.9,0.1-45.7,0.2-68.6,0.2c-15.7,0.1-30.7,13.8-30,30c0.7,16.3,13.2,29.9,30,30
			c36.6,0.1,73.2,1.2,109.8,3.4c-7.1-17.1-14.1-34.1-21.2-51.2c-7.6,8.1-15.5,16-24,23c-0.8,0.7-1.8,1.4-2.6,2.1
			c6.5-5.8,2.5-1.9,0.8-0.7c-2,1.5-4,2.9-6.1,4.2c-4.8,3.1-9.9,5.8-15.2,8.1c2.4-1,4.8-2,7.2-3c-6.5,2.7-13,4.7-19.9,5.7
			c2.7-0.4,5.3-0.7,8-1.1c-6.6,0.9-13.2,0.9-19.9,0.1c2.7,0.4,5.3,0.7,8,1.1c-5.1-0.8-10-2-14.8-3.9c2.4,1,4.8,2,7.2,3
			c-3-1.3-5.8-2.7-8.5-4.4c-0.8-0.5-1.5-1-2.3-1.5c4,3.2,5.2,4.1,3.4,2.6c-1.2-1.1-2.4-2.1-3.5-3.3c-0.6-0.7-1.3-1.4-1.9-2.1
			c0.9,1.2,1.8,2.4,2.7,3.6c-1.6-1.5-2.7-4-3.8-5.9c-2-3.6-3.7-7.4-5.3-11.2c1,2.4,2,4.8,3,7.2c-1.8-4.4-3.7-8.7-4.6-13.4
			c0.4,2.7,0.7,5.3,1.1,8c-0.2-1.1-0.2-2.3-0.1-3.4c-0.4,2.7-0.7,5.3-1.1,8c0.1-1.1,0.4-2.2,0.8-3.3c-1,2.4-2,4.8-3,7.2
			c1-1.9,0.7-1.6-1,0.9c-1.4,2.2-3.3,3.9-5.7,5.1c1.2-0.5,2.3-1.3,3.4-1.8c-2.4,1-4.8,2-7.2,3c4.8-1.8,9.9-2.4,15-3.1
			c-2.7,0.4-5.3,0.7-8,1.1c36-4.8,72.3-5.6,108.5-5.3c37,0.3,74,1.1,111,1.8c10.7,0.2,21.3,0.4,32,0.5c10,0.2,20.3-0.3,30.3,0.7
			c-2.7-0.4-5.3-0.7-8-1.1c1.4,0.2,2.7,0.5,4.1,1c-2.4-1-4.8-2-7.2-3c2.8,1.5,1.9,0.4-2.7-3.3c-3.7-4.6-4.8-5.5-3.2-2.6
			c-1-2.4-2-4.8-3-7.2c0.4,0.9,0.6,1.9,0.8,2.9c-0.4-2.7-0.7-5.3-1.1-8c1.5,11.3,1.9,22.6,3.6,33.9c1.3,9.1,3.2,18.2,5.6,27.1
			c5.4,20,13.4,39.4,23.2,57.6c17.3-10.1,34.5-20.2,51.8-30.3c-7.9-11.6-17.9-19.1-31.2-23.6c-8.9-3-19.1-3.7-28.4-3.6
			c-20.1,0.3-40.2,2.1-60.3,2.9c-42.2,1.7-84.5,2.6-126.7,2.6c-23.8,0-47.5-0.3-71.3-0.8c0,20,0,40,0,60c42.6-2,85.2-4,127.8-6.1
			c15.7-0.7,30.7-13.3,30-30c-0.7-16.2-13.2-30-30-30c-58.1,0.1-116.2,0.1-174.2,0.2c2.7,19.6,5.3,39.3,8,58.9
			c5.6-1.3,11.3-2.3,17-3.1c-2.7,0.4-5.3,0.7-8,1.1c22.7-3,45.6-2.5,68.5-2.4c23.2,0.1,46.4,0.2,69.7,0.2
			c46.8,0.2,93.6,0.9,140.3,0.5c9-0.1,17.7-1.7,25.7-6.1c11.7-6.5,18.2-19.7,18.6-32.8c0.1-5.7-1.1-11.6-1.8-17.3
			c-0.8-6.9-1.6-13.9-2.4-20.8c-19.6,2.7-39.3,5.3-58.9,8c6.3,29.4,13.8,58.5,22.6,87.2c4.4,14.4,18,23.5,32.9,21.5
			c14.8-2,25.7-14.4,26-29.5c0.5-28.2,1-56.3,1.5-84.5c-19.6,2.7-39.3,5.3-58.9,8c6.2,20.8,12.4,41.5,18.7,62.3
			c4.3,14.4,18.1,23.5,32.9,21.5c14.5-2,26.1-14.4,26-29.5c-0.2-36.8-3.5-73.4-9.3-109.7c-18.3,7.7-36.6,15.4-54.8,23.1
			c10.4,19,20.7,38,31.1,57c7.2,13.1,24.2,17.9,37.5,12.3c13.8-5.8,21.1-20.7,17.4-35.4c-4.3-17.1-8.6-34.2-12.9-51.2
			c-19.3,5.3-38.6,10.6-57.9,16c9.8,36.6,19.6,73.3,29.4,109.9c3.9,14.5,18.4,23.4,32.9,21.5c14.5-1.9,26.2-14.4,26-29.5
			c-0.6-47.2-1.2-94.3-1.8-141.5c-19.6,2.7-39.3,5.3-58.9,8c15.3,39.9,30.6,79.8,45.9,119.8c4.4,11.4,12.2,19.8,24.9,21.5
			c12.3,1.7,23.1-4.1,29.9-14.3c8.9-13.3,15.4-28.8,18.7-44.4c-14.7,6-29.4,12-44.1,17.9c-0.6-0.5-5.3-4.5-2.5-1.8
			c0.7,0.7,1.5,1.4,2.3,2.1c0.7,0.7,1.4,1.5,2.1,2.3c0.8,0.9,3.8,4.7,0.6,0.6c-3.2-4.1,0.8,1.5,1.5,2.8c1.2,2,2.2,4.1,3.1,6.3
			c-1-2.4-2-4.8-3-7.2c1.8,4.3,3,8.8,3.8,13.4c-0.4-2.7-0.7-5.3-1.1-8c0.3,2.6,0.5,5.1,0.6,7.7c19.6-2.7,39.3-5.3,58.9-8
			c-4.9-26.9-23.2-51.2-46.7-64.7c-10.5-6.1-23.8-5-33.3,2.3c-9.1,7-14.5,20.1-10.8,31.5c2.6,8,4.5,16.2,5.7,24.5
			c-0.4-2.7-0.7-5.3-1.1-8c1.5,12,1.6,23.9,0.1,35.9c0.4-2.7,0.7-5.3,1.1-8c-1,7.3-2.3,14.8-4.9,21.7c1-2.4,2-4.8,3-7.2
			c-0.6,1.3-2.9,4.7,0.3,0.6c0.9-1.4,2-2.5,3.4-3.4c2.4-1.6,2.6-1.9,0.6-0.8c2.4-1,4.8-2,7.2-3c-1.4,0.5-2.7,0.9-4.2,1.1
			c2.7-0.4,5.3-0.7,8-1.1c-7.9,0.9-16,0.3-24,0.3c-9,0-18,0-27,0c-17.3,0-34.7,0-52,0c-35.3,0-70.7,0-106,0c-70,0-140,0-210,0
			c-39.7,0-79.3,0-119,0c8.6,15,17.3,30.1,25.9,45.1c0.8-1.9,1.7-3.7,2.8-5.4c0.2-0.3,1.4-2.8,1.9-2.8c0.2,0-5.1,6-2.2,3
			c1.5-1.6,3-3.2,4.7-4.7c0.6-0.5,1.6-1.1,2-1.7c-0.6,0.9-6.4,4.7-2.3,1.8c7.1-5,15-8.7,22.9-12.1c-2.4,1-4.8,2-7.2,3
			c19.8-8.3,39.7-16.3,58.9-25.9c18.6-9.4,37-19.2,56.1-27.4c-2.4,1-4.8,2-7.2,3c17.4-7.3,35.3-12.9,54.1-15.5
			c-2.7,0.4-5.3,0.7-8,1.1c21.6-2.8,43.4-2.5,65.1-2.5c21.9,0,43.8-1.1,65.6-3.1c24-2.3,47.8-5.5,71.7-8.9
			c10.2-1.4,20.9-2.1,30.7-5.1c14.1-4.3,25.3-12.5,33.6-24.6c11.8-17.1,11-39,13.6-58.7c-0.4,2.7-0.7,5.3-1.1,8
			c0.8-6,2-11.8,4.3-17.4c-1,2.4-2,4.8-3,7.2c2.2-5,5.2-9.7,6.7-15c2.8-9.2,1.1-20.1-3.9-28.2c-4.8-7.8-13.1-13.8-21.9-16.1
			c-5.2-1.3-10.6-1.6-15.8-2.2c2.7,0.4,5.3,0.7,8,1.1c-3.5-0.6-6.7-1.5-9.9-2.9c2.4,1,4.8,2,7.2,3c-8.4-3.8-15.5-9.4-22.9-14.8
			c-9.6-7-19.7-12.3-31-16.1c-21.5-7.4-45.3-7.2-67.8-7.1c-47.7,0.3-95.4,0.5-143,0.8c-27.2,0.1-54.3,0.3-81.5,0.4
			c-15.7,0.1-30.7,13.7-30,30C390.9,608,403.3,621.9,420.1,621.8L420.1,621.8z"/>
	</g>
</g>
<g>
	<g>
		<path class="st1" d="M898.3,765.5c1.7,5.7,3.3,11.5,4.3,17.4c-0.4-2.7-0.7-5.3-1.1-8c0.5,3.9,0.6,7.7,0.2,11.6
			c0.4-2.7,0.7-5.3,1.1-8c-0.4,3-1.2,5.8-2.3,8.6c1-2.4,2-4.8,3-7.2c-0.7,1.6-1.6,3-2.4,4.5c-1.3,1.9-0.5,0.8,2.4-3.2
			c-0.7,0.7-1.4,1.4-2.1,2c-11.9,10.4-11.4,32,0,42.4c12.6,11.6,29.8,11,42.4,0c11.6-10.1,16.6-25.1,18-39.9
			c1.1-12.2-2.2-24.6-5.6-36.2c-4.5-15-21.3-26-36.9-21C904,733.5,893.5,749.4,898.3,765.5L898.3,765.5z"/>
	</g>
</g>
<g>
	<g>
		<path class="st2" d="M348.2,871.4c2.9-1.4-0.9,0.2-1.4,0.4c-3.2,1.1,2.2,0.5-1.2,0.1c-0.6-0.1-4.7-0.7-1.3,0
			c-1.3-0.3-2.6-0.6-3.9-1.1c3,0.9-0.9-0.5-1.4-0.7c-0.8-0.5-1.6-0.9-2.3-1.5c2.5,1.7-0.8-0.9-1.1-1.2c-0.6-0.6-1.2-1.3-1.8-2
			c1,1.3,1,1.1-0.1-0.5c0,0-2.1-4.5-1.1-2c-0.6-1.5-0.9-3-1.3-4.5c-1.3-4.4,0,1.2-0.3-1.4c-0.1-1.3-0.2-2.6-0.2-3.9
			c0-4.8,1.4-11.2,3.8-15.7c6.1-11.5,13.3-20,22.7-29.4c9.5-9.6,18.3-15.2,31.1-18.4c6.7-1.7,9.8-2,16-2.5
			c6.8-0.5,13.6-0.7,20.4-0.8c15.7-0.2,31.5-0.2,47.2-0.4c31.2-0.2,62.4-0.5,93.6-0.7c31.2-0.2,62.4-0.5,93.6-0.7
			c14.8-0.1,29.7-0.4,44.6-0.3c5.4,0.1,10.8,0.2,16.2,0.6c1.5,0.1,2.9,0.2,4.4,0.4c0.2,0,5,0.6,1.8,0.2c2.9,0.4,5.7,0.9,8.6,1.5
			c2.8,0.6,5.6,1.3,8.3,2.2c1.3,0.4,2.7,0.9,4,1.4c4.2,1.3-2.4-1.3,1.6,0.6c2.1,1,4.1,2,6.1,3.2c1.2,0.7,2.3,1.5,3.5,2.2
			c1.4,1,1.5,1.1,0.3,0.2c0.7,0.6,1.4,1.2,2.1,1.8c8.8,8,12.5,18,15.3,30.2c0.6,2.4,1,4.7,1.4,7.1c0.9,4.6-0.2-2.9,0.3,1.8
			c0.1,1.5,0.3,2.9,0.4,4.4c0.2,2.9,0.2,5.9,0.1,8.8c0,1-0.1,1.9-0.2,2.9c-0.1,1-0.2,1.9-0.3,2.9c0.2-1.6,0.2-1.5-0.1,0.3
			c-0.6,2.8-1.2,5.5-2.1,8.2c-0.1,0.3-1.8,4.5-0.5,1.6c-0.6,1.3-1.2,2.5-1.9,3.7c-0.4,0.8-0.9,1.6-1.4,2.4c-0.2,0.3-2.9,3.7-0.9,1.4
			c-0.9,1.1-1.9,2.1-2.9,3.1c-0.7,0.7-1.4,1.3-2.1,1.9c1-0.7,0.8-0.6-0.6,0.4c-2.1,1.4-4.3,2.6-6.5,3.7c2.6-1.2-1.9,0.7-2,0.7
			c-1.4,0.5-2.9,0.9-4.4,1.3c-1.5,0.4-3,0.7-4.5,1c0,0-5,0.9-2.1,0.4c-3.1,0.4-6.2,0.6-9.4,0.8c-14.6,0.8-29.4,0.4-44,0.5
			c-31.3,0.2-62.6,0.4-93.9,0.6c-62.9,0.4-125.9,0.8-188.8,1.2c-7.4,0-14.9,0.2-22.3,0.1c-7.3,0-11.3,0-17.2-2.1
			c2.2,0.8-2.4-1.2-2.3-1.2c-0.4-0.2-3.7-2.8-1.4-0.8c-1.7-1.5-3.2-3.1-4.7-4.8c-2.8-3.2,1.4,2.3-0.9-1.3c-0.7-1.2-1.5-2.3-2.3-3.4
			c-1.7-2.7-3.4-5.5-5-8.3c-3.1-5.1-6.3-10-10.1-14.5c-1.8-2.1-3.7-4-5.7-5.9c-0.8-0.7-1.6-1.7-2.5-2.3c-0.7-0.8-0.6-0.6,0.3,0.4
			c0.8,1.4,1.2,2.8,1.1,4.4c-0.1,0.2-0.2,0.5-0.3,0.7c0.5-0.9,1-1.8,1.6-2.7c0.8-1.2,1.6-2.4,2.5-3.6c2.6-3.7-1.8,1.9,1.2-1.5
			c0.9-1.1,1.8-2.2,2.8-3.2c1.6-1.7,3.3-3.4,5-5c1-1,2.1-1.9,3.2-2.8c0.7-0.6,1.4-1.2,2.2-1.8c-1.2,0.9-1.1,0.8,0.3-0.3
			c4.2-3.1,8.6-5.9,13.2-8.4c2.5-1.4,5.1-2.6,7.7-3.8c4.2-2-2.6,0.9,1.8-0.7c1.4-0.5,2.7-1.1,4.1-1.5c5.5-2,11.2-3.6,16.9-5
			c2.4-0.6,4.8-1.1,7.2-1.5c1.5-0.3,2.9-0.5,4.4-0.8c0.5-0.1,6.3-0.9,3.3-0.5c26.7-3.2,54.4-0.2,80.4,3.4c30.8,4.3,61.2,8.5,92.4,8
			c15.5-0.3,30.9-1,46.4-0.2c6.6,0.3,12.8,0.7,19,2c7.2,1.5-4.4,0.5-4-8.4c0.1-1.3,1.1-3-0.3-1c-0.3,0.4-2.7,3.8-0.5,1.1
			c-0.9,1.1-1.9,2.1-2.9,3.1c-0.6,0.6-2.8,2.1-0.3,0.3c-1,0.7-2,1.4-3.1,2c-1.1,0.6-2.2,1.2-3.3,1.7c3.1-1.5-0.7,0.2-1.2,0.4
			c-2.3,0.8-4.6,1.4-7,2c-1.1,0.3-2.2,0.5-3.3,0.7c-0.6,0.1-6.2,0.9-2.7,0.5c-13,1.5-26.3,1.1-39.4,1.3c-31.2,0.4-62.3,0.7-93.5,1.1
			c-15.3,0.2-30.5,0.4-45.8,0.5c-7.8,0.1-15.4,6.8-15,15c0.4,8.2,6.6,15,15,15c30.2,0.1,60.5,0.2,90.7,0.3c0-10,0-20,0-30
			c-38,2.3-76.1,4.6-114.1,6.9c-7.8,0.5-15.4,6.6-15,15c0.4,8.5,6.6,14.5,15,15c24,1.3,48.4-2.8,70.6-12.1c7-2.9,11.8-8.4,10.7-16.5
			c-1-7.4-7.2-12.8-14.7-13c-36.6-0.9-73.3-1.8-109.9-2.7c-7.8-0.2-15.4,7-15,15c0.4,8.3,6.6,14.8,15,15
			c36.6,0.9,73.3,1.8,109.9,2.7c-1.3-9.8-2.7-19.6-4-29.5c-20.6,8.6-40.7,12.2-62.6,11c0,10,0,20,0,30c38-2.3,76.1-4.6,114.1-6.9
			c7.8-0.5,15.4-6.6,15-15c-0.4-8.2-6.6-15-15-15c-30.2-0.1-60.5-0.2-90.7-0.3c0,10,0,20,0,30c34.5-0.4,69-0.8,103.5-1.2
			c17.2-0.2,34.5-0.4,51.7-0.6c13.2-0.2,26.6-0.5,39.4-3.8c13.2-3.4,25.2-10.4,33-21.8c5.2-7.6,8-18.1,3-26.5
			c-5-8.5-14.1-10.2-23-11.4c-34.3-4.7-68.9,0.1-103.4-2.8c-59.3-5.1-121.4-23.1-179.6,0.4c-13.2,5.3-25.1,12-36.2,21.1
			c-4.8,3.9-9.2,8.2-13.1,13c-5,6.1-10.4,12.8-12.5,20.5c-2.5,9.8,1.1,19,8.4,25.5c2.2,2,4.3,4,6.2,6.3c-1.5-1.9,0.5,0.7,0.9,1.4
			c0.9,1.3,1.8,2.7,2.6,4.1c7.2,11.6,13.6,23.3,25.2,31.2c13.6,9.3,31,8.5,46.7,8.4c17.3-0.1,34.6-0.2,51.9-0.3
			c35-0.2,69.9-0.4,104.9-0.7c34.6-0.2,69.3-0.4,103.9-0.7c17.3-0.1,34.6-0.2,51.9-0.3c15.2-0.1,30.5,0.2,45.5-2.8
			c14.1-2.7,28-9.6,37.1-20.9c9.5-11.7,13.9-25.7,15-40.6c2.1-27.5-7.1-61.4-29.2-79.1c-22-17.5-50.6-20.3-77.8-20.3
			c-33.8-0.1-67.6,0.5-101.4,0.7c-34.9,0.3-69.7,0.5-104.6,0.8c-17.3,0.1-34.5,0.3-51.8,0.4c-15.4,0.1-31-0.3-46.4,1.7
			c-16,2-31.9,6.1-45.2,15.7c-13.3,9.6-24.5,22-34.4,35.1c-9.5,12.7-16.1,27.7-16.5,43.7c-0.4,16.6,6.7,32.1,20.2,41.7
			c12.5,8.9,28.8,9.8,42.3,3.1c7.2-3.6,9.3-13.9,5.4-20.5C364.4,869.4,355.5,867.7,348.2,871.4L348.2,871.4z"/>
	</g>
</g>
<g>
	<g>
		<path class="st2" d="M335.3,844.6c4.5,12.5,10,24.6,17,35.9c3.5,5.7,10.4,8.7,16.9,6.9c6.8-1.9,10.3-7.8,11-14.5
			c1.6-14.1-0.4-28.8-5.7-42c-8.4,4.9-16.7,9.7-25.1,14.6c11,12,22.8,23.5,35.8,33.3c13.1,9.9,31.3,16.3,46.6,7.2
			c13.2-7.9,17.6-24.4,13.9-38.7c-4-15.3-17.2-25.4-31.9-29.8c-16.5-4.9-35.1-1.2-50.7-4c-1.3,9.8-2.7,19.6-4,29.5
			c63.4,0.2,126.8,0.3,190.2,0.5c0-10,0-20,0-30c-22.8,1.9-45.6,1.9-68.4-0.2c4.3,7.5,8.6,15,13,22.6c0.4-0.9,1.1-1.9,1.4-2.8
			c0.6-0.9,0.4-0.7-0.4,0.6c0.3-0.3,0.6-0.6,0.9-0.8c-1.3,0.9-1.5,1.1-0.6,0.5c0.3-0.2,0.7-0.5,1.1-0.7c1.1-0.6,2.5-1.2,0.5-0.4
			c4.1-1.7,8.6-2.5,12.9-3.1c11.6-1.6,24.5-2.7,36.6-3.2c12.6-0.6,25.2-0.6,37.8,0c3.2,0.1,6.5,0.3,9.7,0.5c1.4,0.1,2.8,0.2,4.2,0.3
			c3.7,0.2-1.5-0.6,0.5,0.1c1,0.3,2.2,0.4,3.2,0.7c0.4,0.1,3.8,1,1.8,0.5c-1-0.4-0.9-0.3,0.4,0.3c-0.4-0.3-0.7-0.6-1.1-0.9
			c0.3,0.3,0.6,0.5,0.9,0.8c-0.7-0.7-1.2-1.6-1.4-2.6c0.5-3.9,1-7.7,1.5-11.6c1.2-1.5,0.1,0-0.5,0.1c1.2-0.3,0.8-0.5-0.3,0.1
			c-0.8,0.4-1.6,0.9-2.5,1.3c1.5-0.7,0.5-0.2-0.4,0c-1.9,0.5-3.8,1-5.7,1.4c-1,0.2-2,0.4-0.4,0.1c-1,0.1-1.9,0.2-2.9,0.3
			c-10.6,1.1-21.2,1.8-31.8,2.3c-21.2,1.1-42.5,1.4-63.8,0.8c0,10,0,20,0,30c19-0.8,38.1-1.3,57.1-1.6c9.2-0.1,18.4-0.1,27.6-0.1
			c4.6,0,9.2,0.1,13.8,0.1c2.4,0,4.8,0,7.1,0.1c-1.9-0.3-2-0.3-0.3,0.1c-2.7-1-4.6-3-5.7-6.2c2.3-5.6,4.6-11.3,6.9-16.9
			c-9.3,5.2-20.7,6.8-30.4,4.7c1.2,9.1,2.4,18.3,3.6,27.4c31.6-14.5,66.6-20.5,101.7-18.3c-2.5-9.3-5-18.6-7.6-28
			c1.6-0.9,9.5-2,10.2,1c0,0.1-2.9-3.8-1.2-1.2c-1.3-1.9-2.5-4-3.7-6c-3.6-5.8-8.4-10.6-14.2-14.3c-10.6-6.7-24.2-8.8-36.6-7.7
			c-13.5,1.2-26.9,5.3-39.8,6c-13.8,0.8-27.7-0.6-41.5-1c-14.7-0.5-29.1,0.8-43.5,4.1c-13,2.9-25.7,7.1-38.8,9
			c-12.4,1.9-26.9,1.2-40.1,0.7c-14.2-0.5-33.1-3.1-41.2,11.7c-4.4,8-2.9,16.6-1,25.1c1.6,7.2,2.4,13,2.9,20.2
			c0.2,3.8,0.3,7.5,0.3,11.3c0,1.4-0.6,3.8-0.1,5.1c-1-3.2,4.4-8.5,7.4-7.4c-1.3-0.5-4,0.1-5.4,0.1c-2,0-3.9,0.1-5.9,0.1
			c-4.6,0.1-9.2,0.1-13.8,0.2c-7.5,0.1-13.7,5.6-14.7,13c-1.1,7.9,3.7,13.6,10.7,16.5c27.5,11.2,57.5,7.5,86.1,3.8
			c30.5-4,60.9-4.5,91.6-4.1c31.8,0.4,63.6,0.7,95.3,1.1c15.9,0.2,31.8,0.4,47.7,0.5c13,0.1,26.1,0.7,39-0.6
			c25.4-2.7,52.4-13.5,59.9-40.5c6.4-23.2-4.6-49.5-24.8-62.2c-12.1-7.6-26.8-8.2-40.7-8.4c-15.6-0.2-31.3-0.3-46.9-0.5
			c-31.8-0.3-63.6-0.8-95.4-1c-30.4-0.2-65.9,0-91.5,18.9c-6.2,4.6-11.5,9.8-15.7,16.3c-4.5,6.8-6.4,14.6-8.3,22.5
			c-0.8,3.2-1.5,5.7-2.5,7.4c-1.9,3.3,1.7-1.1-1.1,1.4c-0.6,0.7-1.3,1.3-2,1.9c1.2-0.9,1.1-0.8-0.3,0.2c-1.2,0.7-2.4,1.5-3.7,2.1
			c-0.9,0.4-1.7,0.9-2.6,1.2c1.4-0.6,1.2-0.5-0.5,0.1c-3.2,1.1-6.4,2.2-9.7,3.1c-7.2,2.1-11.7,9.1-10.7,16.5c1,7.7,7.2,12.4,14.7,13
			c69.3,5.3,139.6-2.6,206-22.9c7.2-2.2,11.7-9,10.7-16.5c-1-7.1-7.2-13.2-14.7-13c-64.2,2-128.4,4.1-192.6,6.1
			c-7.5,0.2-13.7,5.5-14.7,13c-1,7.1,3.4,14.7,10.7,16.5c37.6,9.1,73.5-7.3,101.9-31.2c6.5-5.4,12.6-11.3,18.5-17.3
			c6.5-6.6,12.5-13.6,15.6-22.4c3.2-8.8,2.2-18.9-3-26.8c-6.4-9.8-16.3-13.5-27.6-11.9c-7.4,1.1-11.6,9.9-10.7,16.5
			c0.9,6.9,7.3,13.5,14.7,13c52-3.5,106.2-7.3,156.9,2c6.1,1.1,12.2,2.4,18.2,3.9c3.3,0.8,6.6,1.7,9.9,2.7c1.4,0.4,2.7,0.8,4,1.2
			c2.3,0.7,0.5-0.2,2.4,1.1c-1.8-1.3,2,2,0.2-0.2c-0.1-0.1,2,3.8,1.3,2.2c-0.7-1.8,0.7,2.9,0.6,2.6c1.2,4.4,0-1.3,0.2,1.4
			c0.2,2.8,0.1,5.6-0.2,8.4c0.1-0.7,0.5-2.5-0.1,0.5c-0.4,2-0.8,3.9-1.4,5.9c-0.3,1-0.6,1.9-0.9,2.9c-1.4,4.4,1.2-2.1-0.8,2
			c-1.1,2.3-2.3,4.5-3.7,6.7c-0.5,0.9-1.1,1.7-1.7,2.5c-2.6,3.8,1.7-1.7-1.4,1.8c-2,2.3-4.1,4.5-6.4,6.5c-0.8,0.7-1.5,1.3-2.3,2
			c2.1-1.6-1.9,1.3-1.9,1.2c-2.3,1.5-4.6,2.7-7,4c-4.5,2.4,1-0.3-1.7,0.8c-1.3,0.5-2.5,1-3.8,1.4c-3.1,1-6.3,1.7-9.5,2.4
			c-5,1.1,1.3,0-1.7,0.3c-1.9,0.2-3.8,0.4-5.7,0.4c-3.3,0.1-6.6,0.1-9.9-0.2c-1.1-0.1-2.2-0.2-3.3-0.3c1.9,0.3-3.5-0.7-4.1-0.8
			c-1.1-0.2-2.1-0.5-3.2-0.8c-0.9-0.2-1.8-0.5-2.7-0.8c0.8,0.1,1.4,0.5,1.9,1.1c0.3,0.3,0.7,1.1,1,1.3c0.1,1.4,0,1.3-0.1-0.5
			c0-0.9,0-1.9,0.1-2.8c-0.1,0.8-0.7,2.6,0.1-0.2c0.2-0.9,0.5-1.8,0.8-2.7c-0.7,1.4-0.6,1.3,0.2-0.3c0.5-0.8,0.9-1.6,1.4-2.4
			c1-1.4,1.1-1.6,0.2-0.3c0.5-0.5,1-1,1.5-1.5c0.5-0.5,2.9-2.2,0.8-0.8c0.6-0.4,5.3-2.6,2.7-1.6c-5.6-7.3-11.3-14.7-16.9-22
			c-1.8,3-3.8,4.7-6.6,6.3c-0.3,0.2-4.2,1.7-1.6,0.8c-0.9,0.3-1.8,0.6-2.7,0.8c-0.4,0.1-4.6,0.7-1.6,0.5c-0.9,0.1-1.9,0.1-2.8,0.1
			c-0.5,0-4.5-0.6-1.6,0c-0.6-0.1-2.1-0.8-2.7-0.7c1.5,0.4,2.5,1.4,3,3.1c2.2,2,2.9,4.4,2,7.4c-0.3,1-0.8,1.7-1.4,2.6
			c1.1-1,1.3-1.2,0.5-0.6c-0.8,0.6-0.6,0.5,0.7-0.4c1.2-0.5,1.6-0.5,0.2-0.1c1.2-0.4,2.5-0.6,3.7-0.8c-2.1,0.4-1.2,0.1,0.4,0
			c2.1-0.1,4.3-0.1,6.4,0c0.8,0,3.6,0.6,0.5,0c1.1,0.2,2.1,0.4,3.2,0.6c2.1,0.5,4.1,1.1,6.1,1.8c2.1,0.7-2.9-1.6,0.5,0.2
			c0.9,0.5,1.8,0.9,2.7,1.5c0.9,0.5,1.7,1.1,2.6,1.6c2.3,1.4-0.6-1,0.3,0.3c0.6,0.8,1.5,1.4,2.2,2.1c0.3,0.3,2.3,2.9,1.1,1.2
			c-1.2-1.6,2.3,4.7,1.6,2.8c-0.8-2,0.3,1.1,0.4,1.6c0.2,0.9,0.6,4.4,0.3,0.8c2.5-4.3,5-8.6,7.4-13c3.4,0.1,6.9,0.2,10.3,0.2
			c0.7,0.3,1.2,0.8,1.6,1.4c1,0.9-0.5-2.2,0.2,0.6c-0.2-0.9-0.4-1.7-0.5-2.6c0.3,2.2,0.1,0,0.1-1.1c-0.1-2.2,0-4.3,0.2-6.5
			c-0.2,2.2,0,0,0.2-1c0.2-1.2,0.5-2.4,0.9-3.5c0.3-0.9,0.6-1.8,0.9-2.8c1.3-4.2-0.7,1.1,0.4-1.1c0.9-2,2-3.9,3.2-5.7
			c0,0.1,2.3-3.1,1.4-2c-0.9,1.1,1.7-1.8,1.7-1.8c0.7-0.7,1.4-1.4,2.1-2c0.1-0.1,3.6-2.8,1.5-1.3c-6.8-1.8-13.7-3.6-20.5-5.4
			c0.7,1.1,1.4,2.2,2,3.3c1.2,2.1-0.5-1.6,0.4,0.7c0.5,1.2,0.7,2.5,1.1,3.7c0.1,0.5,0.2,1,0.3,1.5c-0.1-1.2-0.1-1.2,0-0.1
			c0.2,2.3,0.3,4.7-0.1,7c0.4-2.7-1.7,5-0.8,2.9c9.3,2.5,18.6,5,28,7.6c0.1-2.7-0.3,0.3,0.2-1.2c0.1-0.4,1.1-3.5,0.4-1.3
			c0.2-0.6,1.2-2,0.2-0.7c0.9-1.2,2.1-2.2,3.2-3.1c-7.9-1-15.7-2-23.6-3c1.5,3.3,3.1,6.6,4.6,10c3.1,6.7,12.5,8.9,18.7,6.1
			c7.2-3.2,10-10.1,8.7-17.7c0.4,2.1,0.1-0.1,0.2-1.1c0.1-1.7-1.1,1.9,0.4-1.1c-0.7,1.4-0.2,0.3,0.3-0.4c2-3.3-1.4,1.2,1.3-1.5
			c-7.9-1-15.7-2-23.6-3c0.8,1.3,1.7,2.6,2.3,4.1c-0.7-1.4,0,0.1,0.2,0.7c0.4,1.5,0.9,3,1.1,4.5c-0.4-2.1,0,0.6,0,1.4
			c0.1,4.3-0.6,7.5-2.6,11c9.1,1.2,18.3,2.4,27.4,3.6c-0.3-1-0.5-1.9-0.7-2.9c0.3,1.6,0,0.7,0-0.4c0-1,0-2,0-3
			c-0.1,2.1,0-0.1,0.3-1.1c0.2-1,0.5-1.9,0.8-2.8c0.8-2.2-0.9,1.6,0.2-0.5c0.5-0.9,1-1.7,1.5-2.5c1.4-2.1-2.1,2.3,0.9-1
			c-8.4-4.9-16.7-9.7-25.1-14.6c-1.4,4.3,0.7-1.2-0.4,1.2c-0.5,1.1-1.1,2.2-1.7,3.2c-0.2,0.3-2.2,3.3-1.3,2.1
			c0.8-1.1-1.7,1.9-1.6,1.8c-0.7,0.7-1.4,1.4-2.1,2c-3,3,1-0.5-1,0.8c-2.2,1.5-4.6,2.8-7,3.9c6.8,6.8,13.7,13.7,20.5,20.5
			c0.5-0.9,1.1-1.7,1.7-2.5c-0.8,1-0.5,0.8,0.6-0.6c1.4-1.2,1.5-1.4,0.4-0.6c1.6-0.9,1.6-1,0.2-0.2c-2.9,0.7-5.4,0.1-7.6-2
			c-0.8-0.8-1.5-1.8-1.9-2.8c-0.4-1.1-0.4-2.3,0-3.4c-0.5,1.6-0.4,1.5,0.4-0.2c-0.9,1.4-0.8,1.4,0.3-0.2c1.4-1,1.2-0.9-0.4,0.1
			c3.5-0.5-4.8,0.8-1.1,0.3c-4.1,0.6-8.5,0.3-12.6,0.2c-20.5-0.1-41.1-0.2-61.6-0.3c-7.8,0-15.4,6.9-15,15c0.4,8.2,6.6,15,15,15
			c15.7,0.1,31.3,0.1,47,0.2c14.2,0.1,31.4,2.5,44.2-4.9c13.6-7.9,18.8-28.3,7-40.1c-7-7-17.8-8.1-26.5-3.8
			c-6.9,3.4-11.9,9.5-15.9,15.9c-3.5,5.6-2.3,13.6,2.3,18.2c5.1,5.1,12,5.1,18.2,2.3c14-6.1,24.1-18.7,28.9-33
			c4.8-14.2-15.1-25.4-25.1-14.6c-10.8,11.8-15.1,27.9-10.8,43.4c3.4,12.2,21.1,15,27.4,3.6c9-16.2,9-36.3-1-52.1
			c-5.2-8.2-16.5-10-23.6-3c-9.1,9-12,21-9.9,33.3c9.1-3.9,18.3-7.7,27.4-11.6c-1.5-3.3-3.1-6.6-4.6-10c-4.4-9.5-16.9-8.7-23.6-3
			c-8.2,6.9-12.2,17-12.8,27.5c-0.3,6.3,4.9,13.1,11,14.5c5.9,1.4,14.3-0.7,16.9-6.9c7-16.2,6.9-34.3-3-49.4
			c-4.1-6.2-13.7-10.4-20.5-5.4c-15.2,11.1-24.7,26.9-26.9,45.7c-1,8.4-0.5,18.1,3.7,25.6c5.8,10.3,18.5,16.7,29.4,9.7
			c4.2-2.7,7.9-7.7,7.4-13c-1.6-16.5-11-30.4-26-37.7c-14.9-7.3-34-9.9-49.4-2.6c-8.8,4.2-16.6,13.1-16.3,23.4
			c0.3,12.8,11.3,19.9,22.8,21.5c18.9,2.5,37.6-6.6,47.5-22.9c6.4-10.6-4.4-26.6-16.9-22c-14.6,5.4-26.6,17.7-29.1,33.5
			c-1.4,9-0.7,18.5,4.9,25.9c5.3,7,13.5,9.8,21.8,11.3c30.1,5.7,63.7-1.9,84.1-26c9.8-11.5,16.4-25,18.4-40
			c2.2-16.5-1.5-35.4-17.3-44.1c-7.3-4-15.8-5.9-23.7-7.9c-7.5-1.9-15.2-3.4-22.8-4.7c-16.7-2.8-33.5-4.5-50.4-5.3
			c-36.4-1.7-72.7,0.7-109,3.2c1.3,9.8,2.7,19.6,4,29.5c-1.8,0.7-3.5,0.6-4.9-0.4c-1-0.6-0.9-0.5,0.4,0.3c-0.6-0.6-2.5-3.3-1-0.7
			c1.4,2.4-0.4-0.9,0.2,0.7c0.7,2.1-0.7-1.7,0.1-1.9c0.4-0.1-1.6,4.5-0.5,2.2c-0.6,1.4-1.5,2.7-2.4,4c1-1.5-0.7,0.9-1.1,1.3
			c-0.9,1-1.8,2-2.7,2.9c-8.4,8.8-18.5,18.4-27.4,24.9c-10.2,7.4-20.7,13.3-32,16.7c-6.2,1.8-11.3,2.8-16.6,3.1
			c-7.1,0.4-11.2,0-17.5-1.5c-1.3,9.8-2.7,19.6-4,29.5c64.2-2,128.4-4.1,192.6-6.1c-1.3-9.8-2.7-19.6-4-29.5
			c-64.4,19.7-130.7,27-198,21.9c1.3,9.8,2.7,19.6,4,29.5c11.9-3.5,24.5-7.9,33-17.5c5-5.6,8-12.2,9.9-19.4c0.7-2.7,1.2-5.5,2-8.3
			c0.4-1.6,0.9-3.3,1.5-4.9c-1,2.7,0.8-1.5,1.1-2.1c0.6-1,1.2-1.9,1.8-2.9c-1.7,2.5,0.8-0.9,1.1-1.2c1.6-1.7,3.2-3.3,5-4.7
			c-2.4,1.9,1.3-0.8,1.5-0.9c1.2-0.8,2.4-1.5,3.6-2.2c1-0.6,2.1-1.1,3.2-1.6c0.6-0.3,1.3-0.6,1.9-0.9c-1.4,0.6-1.2,0.5,0.4-0.2
			c11.7-4.3,23.2-6.1,35.2-6.9c29.2-1.9,58.8-0.3,88.1,0c29.7,0.3,59.4,0.1,89.1,0.9c2.9,0.1,5.9,0.1,8.8,0.5
			c-2.2-0.3,3.4,0.7,3,0.6c1.5,0.4,3,1,4.6,1.3c-2.5-0.6-1.1-0.6-0.2-0.1c1.1,0.6,2.1,1.1,3.2,1.8c0.5,0.3,3.5,2.8,0.9,0.5
			c1.1,0.9,2.1,1.9,3.1,2.9c0.7,0.7,1.4,1.5,2,2.2c-2.3-2.6,0.2,0.3,0.6,0.9c1.1,1.7,2,3.5,3,5.3c1.8,3.4-0.7-2.8,0.3,0.9
			c0.3,1.2,0.8,2.3,1.1,3.5c0.2,0.8,0.3,1.6,0.5,2.4c0.3,1.7,0.3,1.6,0-0.4c0.1,0.8,0.2,1.6,0.2,2.4c0.1,1.2,0.1,2.4,0,3.6
			c0,0.1-0.4,4-0.1,1.6c0.3-2.4-0.3,1.4-0.4,1.5c-0.3,1.2-0.7,2.3-1,3.4c-1,3.5,1.6-2.3-0.4,0.8c-0.4,0.7-0.8,1.4-1.2,2.1
			c-0.2,0.4-2.7,3.2-0.8,1.1c-1.2,1.4-2.5,2.6-3.8,3.9c-0.4,0.4-2.2,1.6-0.1,0.2c-1.1,0.8-2.2,1.5-3.4,2.2c-1.2,0.7-2.4,1.3-3.6,1.9
			c-2.6,1.3-0.8,0.3-0.2,0.1c-5.3,2-10.8,3.3-16.4,4.1c3.2-0.4-1.5,0.1-1.8,0.1c-1.5,0.1-2.9,0.2-4.4,0.3c-2.4,0.2-4.8,0.2-7.3,0.3
			c-6.7,0.2-13.3,0-20-0.1c-14.6-0.2-29.1-0.3-43.7-0.5c-29.8-0.3-59.6-0.7-89.4-1c-32.9-0.4-65.8-1.2-98.6,2.8
			c-14.9,1.8-29.7,4.2-44.7,4.8c-15.6,0.6-27.9-0.4-42.4-6.3c-1.3,9.8-2.7,19.6-4,29.5c7.2-0.1,14.4-0.2,21.6-0.3
			c9.1-0.2,17.9-2.2,22.9-10.7c3.6-6.2,3.4-13.8,3.3-20.8c-0.1-8-0.9-15.8-2.1-23.7c-0.5-3.4-1.1-6.8-1.8-10.2
			c-0.3-1.5-0.7-2.9-1-4.4c-0.1-0.6-1-3.7-0.3-1.3c0-0.5,0-1,0-1.5c0,2.4-1.2,4.3-3.6,5.8c-0.4,0.1-0.7,0.3-1.1,0.4
			c1.6-0.3,1.8-0.4,0.8-0.2c-2-0.3,2.4,0.1,2.3,0.1c2.6,0,5.3,0.1,7.9,0.2c14.4,0.5,28.9,1.4,43.3,0.1c14.5-1.3,28.4-4.9,42.4-8.4
			c13.6-3.4,25-5.4,38.7-5.3c14.2,0.1,28.3,1.7,42.5,1.3c14.7-0.3,28.6-4.2,43.1-6.1c1.6-0.2,5.8-0.5,8.5-0.4c1.4,0,2.9,0.1,4.3,0.2
			c-3-0.3,1.1,0.3,1.8,0.4c1.4,0.3,2.8,0.8,4.2,1.2c1.7,0.6,1.8,0.7,0.4,0.1c0.9,0.4,1.7,0.8,2.5,1.3c0.8,0.5,1.6,1,2.4,1.5
			c-2.2-1.6,1.7,1.8,2.1,2.3c-1.5-1.9-0.1,0,0.1,0.4c0.9,1.6,1.9,3.2,2.9,4.8c2,3,4.1,6,6.7,8.5c7.1,6.9,17.4,9,26.1,3.7
			c13.3-7.9,7-27.1-7.6-28c-40.3-2.4-80.3,5.7-116.8,22.4c-11.7,5.3-8.5,24.8,3.6,27.4c18.4,3.9,37,1.4,53.5-7.8
			c5.6-3.1,8.8-10.7,6.9-16.9c-4-13.1-16-15.9-28.2-16c-11.2-0.2-22.3-0.2-33.5-0.1c-22.3,0.1-44.7,0.7-67,1.6
			c-7.8,0.3-15.4,6.7-15,15c0.4,8.3,6.6,14.8,15,15c22.2,0.6,44.5,0.3,66.7-1c10.6-0.6,21.2-1.2,31.8-2.5
			c10.7-1.3,21.1-3.7,29.5-10.8c5.4-4.6,9.9-11.2,7.7-18.6c-1.7-6.1-6-11.1-11.2-14.6c-8-5.4-17.9-6.2-27.2-6.8
			c-21.6-1.4-43.4-1.1-65,0.8c-19.6,1.7-50.5,2-59.9,23.6c-4.7,10.9,0.8,21.5,13,22.6c22.8,2.1,45.6,2.1,68.4,0.2
			c7.8-0.7,15.4-6.4,15-15c-0.4-8.1-6.6-15-15-15c-63.4-0.2-126.8-0.3-190.2-0.5c-7.5,0-13.8,5.7-14.7,13
			c-0.9,6.8,3.4,15.2,10.7,16.5c8.7,1.5,17.4,1.9,26.2,1.8c4.3,0,8.7-0.1,13.1,0.1c1.5,0.1,3,0.2,4.4,0.3c-2.8-0.3,1.3,0.2,1.9,0.4
			c1.9,0.4,3.9,0.9,5.8,1.5c0.5,0.2,4.3,1.8,1.9,0.6c1.3,0.6,2.5,1.4,3.8,2.1c2.6,1.5-0.3-0.8,1.5,1.2c0.7,0.7,1.4,1.4,2,2.1
			c-1.1-1.4-1.1-1.5-0.2-0.1c0.4,0.8,1.5,4,0.6,0.9c0.4,1.2,0.7,2.4,0.9,3.6c-0.9-3.9-0.3,1-0.2,1.5c-0.1,1.1,0,0.8,0.2-1
			c-0.1,0.8-0.3,1.5-0.6,2.3c-0.7,3,1.1-2.3-0.4,0.7c1.3-2.5,0.4-0.4-0.7,0.5c1.5-1.2,1.5-1.3-0.3-0.2c1-0.5,1.1-0.6,0.1-0.3
			c-1.1,0.2-1,0.2,0.4-0.1c-1.8-0.1-2,0-0.4,0.2c-1.5-0.2-3-0.7-4.5-1.2c1.9,0.7-2.2-1.1-2.3-1.1c-1.7-0.9-3.3-1.9-4.9-3
			c-4.2-2.8-10.7-8.8-15.8-13.5c-6-5.6-11.8-11.5-17.3-17.5c-4.5-4.9-12.6-5.6-18.2-2.3c-5.3,3.1-9.3,10.9-6.9,16.9
			c4.7,11.8,6.1,21.4,4.6,34.1c9.3-2.5,18.6-5,28-7.6c-5.9-9.5-10.4-18.7-14-28.7c-2.7-7.6-10.2-12.7-18.5-10.5
			C338.4,828.1,332.5,836.9,335.3,844.6L335.3,844.6z"/>
	</g>
</g>
<g>
	<g>
		<path class="st2" d="M354.1,880.6c-2.3,0.8-4.7,1.2-6.9,2.1c-1.4,0.5-0.2-0.1,0.5,0.1c0.4,0.1,1.8,1.1,0.6,0.3
			c-1.7-1.1,2.3,1.6,0.1-0.1c0.7,0.5,1.7,2,0.6,0.3c0.6,0.9,0.7,2.3,0.2,0.5c-0.2-1-0.5-1.9-0.8-2.8c-1.9-7.9-2.5-15.8-7.1-22.8
			c-4.4-6.8-13.3-9.6-20.5-5.4c-6.7,3.9-9.8,13.7-5.4,20.5c0.4,0.6,2,3.9,0.7,0.6c0.4,1.1,0.8,2.3,1.1,3.5c0.5,2,0.9,4.1,1.3,6.1
			c1,5.3,2.1,10.7,4.9,15.5c8.4,14.2,24.3,15.7,38.7,10.6c7.6-2.7,12.7-10.3,10.5-18.5C370.6,883.6,361.8,877.9,354.1,880.6
			L354.1,880.6z"/>
	</g>
</g>
<g>
	<g>
		<path class="st2" d="M322.7,900.8c16.6,9.8,36,14.7,55.3,13.5c7.8-0.5,15.4-6.5,15-15c-0.3-7.7-6.6-15.5-15-15
			c-15,0.9-27.5-1.9-40.2-9.4c-7-4.1-16.4-1.6-20.5,5.4C313.2,887.3,315.7,896.6,322.7,900.8L322.7,900.8z"/>
	</g>
</g>
<g>
	<g>
		<path class="st3" d="M447.7,911.2c-5.8,23.2-8.8,47.3-8.5,71.3c0.1,10.4,0.9,20.8,1,31.2c0,5.1-0.2,10.2-0.6,15.3
			c0,0.2-0.3,2.9-0.1,1c-0.1,1.1-0.3,2.2-0.5,3.3c-0.5,2.7-1.2,5.4-2,8c-1.4,4.7-2.6,6.9-5.5,11.5c-2.8,4.5-6.1,8.6-9.1,13
			c-6.3,9.4-10.4,19.9-11.9,31.1c-1.6,11-1.7,22-1.4,33.2c0.2,10.5,0.9,21.1,3.2,31.3c2.5,10.7,7.4,20.8,14.8,29
			c7.1,7.9,16.8,13.3,26.5,17.5c21.6,9.4,43.8,17.5,66.1,24.7c21.7,7,45.5,14.6,68.1,6.7c18.8-6.5,33.2-20.4,43.9-36.8
			c11.2-17.1,17.8-37,22.9-56.7c5.9-22.6,10-45.6,14.6-68.4c4.8-23.9,11.7-48.2,7.8-72.7c-1.8-11.6-5.6-22.7-9-33.9
			c-3.5-11.4-6.9-22.9-10.4-34.3c-3-9.9-5.8-20.3-11.2-29.3c-6.1-10.1-15.1-17.3-26.2-21.2c-10.1-3.5-21.1-3.7-31.7-4
			c-12.3-0.4-24.5-0.7-36.8-1.1c-11.9-0.4-23.9-0.7-35.8-1.1c-11.1-0.3-22.1-0.9-33.1,0.9c-21.7,3.7-36.1,20.8-39.1,42.1
			c-2.9,20.2-0.2,40.7-2.2,61.1c-2.2,21.9-9.6,43.8-15.8,65.4c-6.1,21.3-10.1,43-6.7,65.1c2.6,17.4,10.8,35.4,23.9,47.4
			c7.1,6.5,15.3,11.3,24.5,14.1c7.5,2.3,16.7-2.8,18.5-10.5c1.9-8.2-2.5-15.9-10.5-18.5c-0.8-0.2-5.3-2.2-2.6-0.8
			c-1.6-0.8-3.1-1.6-4.6-2.5c-0.7-0.4-4.5-3.4-2.2-1.4c-1.6-1.4-3.2-2.9-4.7-4.4c-0.7-0.7-3.5-4.3-1.8-2c-1-1.4-2-2.9-2.9-4.4
			c-0.9-1.5-1.8-3.1-2.6-4.7c-0.4-0.8-0.8-1.6-1.2-2.4c-1.9-3.8,0.8,2.6-0.6-1.4c-1.2-3.5-2.3-6.9-3.1-10.5c-0.4-1.8-0.7-3.6-1-5.4
			c-0.1-0.6-0.3-2.9,0-0.1c-0.1-1.1-0.2-2.3-0.3-3.4c-0.6-9.2,0.2-17.3,1.9-25.7c4-20.3,11.5-39.7,16.3-59.8
			c5.1-21.2,7.2-43.2,6.7-65c-0.2-8.1-0.4-16.2,0.4-24.2c0.2-2.4-0.4,2.2,0-0.2c0.2-0.9,0.3-1.8,0.5-2.7c0.4-1.8,0.9-3.5,1.4-5.2
			c0.1-0.4,1.2-3,0.4-1.3c-0.8,1.7,0.4-0.8,0.6-1.1c0.4-0.7,0.9-1.5,1.3-2.2c0.8-1.4-1.5,1.3,0.4-0.6c0.4-0.4,4.1-3.4,2.2-2.2
			c0.9-0.6,1.8-1.1,2.7-1.6c2.7-1.5,1.3-0.6,0.7-0.3c2-0.7,4-1.2,6-1.6c4.8-1-1.4,0,1.5-0.2c1.3-0.1,2.7-0.2,4-0.3
			c10.3-0.4,20.8,0.3,31.1,0.6c22.1,0.7,44.3,1.2,66.4,2c2.1,0.1,4.2,0.1,6.3,0.3c1.1,0.1,2.1,0.1,3.2,0.2c0.3,0,3.5,0.4,1.9,0.2
			c-1.6-0.2,1.6,0.3,1.9,0.3c1,0.2,2,0.4,3,0.7c1,0.3,2,0.6,3,0.9c1.4,0.4-0.8-0.6,1.4,0.5c0.5,0.3,4.8,3.2,3.3,1.9
			c0.4,0.4,3.9,4.3,2.7,2.6c1.3,1.8,2.5,3.9,3.5,5.9c0.1,0.3,1.4,3.1,0.8,1.7c-0.5-1.2,0.8,2.2,1,2.6c7,19.6,12.3,39.9,18.3,59.9
			c3,9.8,5.8,19.4,6,29.1c0.1,10.1-1.7,18.7-3.7,28.7c-4.3,21.4-8.5,42.7-13,64.1c-4,19-9,41.1-16.1,57.4c0.7-1.5-0.6,1.2-0.7,1.5
			c-0.4,0.9-0.8,1.8-1.2,2.6c-0.8,1.8-1.7,3.5-2.7,5.2c-2,3.6-4.1,7.2-6.4,10.6c-0.3,0.4-3.5,4.8-1.9,2.8c-1.3,1.7-2.7,3.3-4.2,4.9
			c-2.7,2.9-5.5,5.7-8.7,8.1c2-1.5-1.8,1.1-2.6,1.6c-1.5,1-3.1,1.9-4.8,2.7c-0.8,0.4-1.6,0.8-2.5,1.2c2.5-1,0.2-0.2-0.2,0
			c-2.2,0.7-4.4,1.3-6.7,1.8c-0.2,0.1-2.6,0.4-0.7,0.2c-1.2,0.2-2.5,0.2-3.7,0.3c-2.5,0.1-5,0-7.5-0.2c-4.2-0.3-9.8-1.7-14.6-3
			c-20.1-5.5-39.9-12.6-59.4-20.1c-9.7-3.7-17.9-6.7-26.2-11c-2-1-3.9-2.1-5.8-3.3c-0.9-0.6-1.9-1.2-2.7-1.8c1.3,1-0.8-0.6-0.8-0.7
			c-1.6-1.4-3.2-2.9-4.5-4.6c1.3,1.6-0.2-0.4-0.4-0.6c-0.8-1.3-1.6-2.6-2.3-3.9c-0.5-0.9-0.9-1.8-1.3-2.7c0.3,0.7,0.6,2-0.2-0.7
			c-0.6-2-1.2-3.9-1.7-5.9c-0.5-2-0.9-4.1-1.2-6.1c-0.5-3.1-0.2-1.4-0.1-0.7c-0.2-1.6-0.3-3.1-0.5-4.7c-0.7-9-0.8-18.1-0.6-27.1
			c0.1-4.1,0.3-9.6,0.7-12.7c0.4-3.1,2-9.7,3.3-12.8c3.1-7.3,9.8-14.9,14.4-22.2c11.3-17.7,13.2-38.8,12.6-59.3
			c-0.6-20.4-1.5-40.5,1-60.9c1.1-8.6,3.2-19.2,5.5-28.5c1.9-7.6-2.4-16.6-10.5-18.5C458.4,899,449.7,903.1,447.7,911.2L447.7,911.2
			z"/>
	</g>
</g>
<g>
	<g>
		<path class="st3" d="M483.2,942.6c40-4.4,78.9,2.5,117.8,10.8c4.7,1,9.4,2,14.1,3.1c1.7,0.4,3.4,1,5.1,1.4c-0.8-0.2-1-0.4-1.6-0.9
			c0.3,0.3,0.6,0.6,0.9,0.9c-0.9-1.2-1-1.3-0.5-0.4c0,2-0.5-2,0,0.1c0.2,0.6,0.3,1.3,0.5,2c0.8,2.6,0.2,0.9,0.1,0.1
			c0.1,0.9,0.2,1.9,0.2,2.8c0.3,4.7,0.2,9.4,0.2,14c0.2,20.4,0.5,40.9,0.7,61.3c0.3,23.1,0.5,46.2,0.8,69.2c0.1,7.8,6.8,15.4,15,15
			c8.6-0.4,14.5-6.6,15-15c2.2-34.2,2.7-68.4,1.5-102.6c-0.3-7.8-6.7-15.4-15-15c-8,0.4-15.1,6.6-15,15c0.1,8.5,0.2,17.1-0.1,25.6
			c-0.1,4.2-0.4,8.3-0.7,12.5c-0.2,2.1-0.4,4.1-0.6,6.2c-0.3,2.6,0.3-2-0.1,0.6c-0.2,1.3-0.4,2.5-0.6,3.8
			c-1.4,7.9-3.4,15.8-6.4,23.2c0.6-1.5,0.1-0.3-0.3,0.5c-0.4,0.9-0.8,1.8-1.3,2.7c-1,2-2.1,3.9-3.3,5.8c-1,1.7-2.1,3.3-3.3,4.9
			c-1.5,2,1.2-1.4-0.4,0.5c-0.8,1-1.6,1.9-2.5,2.9c7.9,1,15.7,2,23.6,3c-16.3-29.7-32.6-59.3-48.9-89c-6.4-11.6-23.8-8.5-27.4,3.6
			c-4.3,14.6-9.2,30.6-14.7,43.8c-5.3,12.5-13.8,27.3-22.4,37c8.5,3.5,17.1,7.1,25.6,10.6c-2.3-36.5-4.5-72.9-6.8-109.4
			c-0.5-7.8-6.6-15.4-15-15c-8.5,0.4-14.5,6.6-15,15c-1.8,31.6-5.5,62.5-11.4,93.6c9.8,1.3,19.6,2.7,29.5,4
			c-2.5-34.6-9-68.8-19.9-101.7c-5.3-16.2-28.5-13.1-29.5,4c-2,36.9-4,73.7-6.1,110.6c10,0,20,0,30,0c0-23.3,0.1-46.5,0.1-69.8
			c-10,0-20,0-30,0c2,31.2,2,62.5,0.2,93.8c10,0,20,0,30,0c-1.7-23.2-3.4-46.4-5-69.6c-0.6-7.8-6.5-15.4-15-15
			c-8.6,0.4-14.4,6.6-15,15c-1.6,24.4-2,48.8-1.3,73.2c0.2,7.8,6.7,15.4,15,15c8.1-0.4,15-6.6,15-15c0-17.5,0-35,0-52.5
			c-10,0-20,0-30,0c0.5,22.9-0.1,45.8-1.6,68.7c10,0,20,0,30,0c0.3-20.5-7-39.4-19.9-55.1c-3.7-4.5-11.4-5.3-16.4-3.1
			c-5.9,2.6-8.4,7.5-9.2,13.7c-2.9,23.4-3.5,47-1.7,70.5c9.8-1.3,19.6-2.7,29.5-4c-7.1-36.1-9.4-73.1-7.3-110.2
			c-7.5,4.3-15,8.6-22.6,13c3.8,1.9-3.2-3.3-0.3-0.4c-0.6-1.5-0.7-1.7-0.4-0.6c0.2,0.6,0.4,1.3,0.5,1.9c0.3,1.8,0.3,1.7,0-0.1
			c0.1,0.6,0.1,1.3,0.1,1.9c0.1,2.2,0.2,4.4,0.3,6.6c0.4,8.9,0.7,17.8,0.9,26.7c0.4,18.2,0.3,36.3-0.2,54.5c-0.2,6.3,4.8,13,11,14.5
			c6,1.4,14.3-0.7,16.9-6.9c11.3-26,23.5-51.6,36.4-76.8c-9.3-2.5-18.6-5-28-7.6c2.2,23.7,5.8,47.2,10.9,70.4
			c2.2,10.2,18.1,15.5,25.1,6.6c21.6-27.7,44.7-54.3,69.1-79.5c-8.5-3.5-17.1-7.1-25.6-10.6c2.8,22.1,3.9,44.4,3.4,66.8
			c-0.2,6.3,4.7,13,11,14.5c6,1.4,14.2-0.7,16.9-6.9c9.5-21.1,21.3-40.9,35.4-59.1c-9.1-1.2-18.3-2.4-27.4-3.6
			c3.1,13.3,4.3,26,3.9,39.8c-0.2,7.5,5.9,13.8,13,14.7c6.8,0.9,15.2-3.4,16.5-10.7c4.5-25.8,8.9-51.6,13.4-77.3
			c-9.8-1.3-19.6-2.7-29.5-4c2.2,19.8,0.6,37.6-5.4,56.3c9.8,1.3,19.6,2.7,29.5,4c-3.4-39.7-4.9-79.5-4.4-119.4c-10,0-20,0-30,0
			c1.2,20.1,0.5,40.9-2.4,60.5c9.6,0,19.3,0,28.9,0c-12.7-32.5-21.5-67.6-24.9-101.5c-0.8-7.5-5.1-13.7-13-14.7
			c-6.6-0.9-15.3,3.4-16.5,10.7c-2.9,19.2-2.8,37.9,0.5,57.1c1.2,7.3,9.7,11.6,16.5,10.7c7.6-1,12.6-7.2,13-14.7
			c0.7-12.6,1.5-25.3,2.2-37.9c0.2-3.3,0.4-6.7,0.6-10c0-0.4,0.4-4,0.1-2c-0.3,1.9,0.5-2,0.5-2c0.4-1.8,0.8-0.8,0,0
			c-1.5,1.5-1.4,1.8-3.7,2.4c-1.9,0.5-2.5,0.4-4.2-0.3c0.4,0.2,0.8,0.5,1.3,0.7c-0.8-0.8-0.8-0.8-0.1-0.1c0.8,0.7,1.5,1.4,2.2,2.2
			c0.9,1-0.3-0.8,0.8,1.2c1.4,2.4,2.7,4.8,4,7.3c1.4,2.7,3.2,8.3,4.3,12.8c0.6,2.4,1.1,4.9,1.4,7.3c-0.2-1.9,0.1,1.5,0.1,1.8
			c0.1,1.4,0.2,2.8,0.2,4.1c0.1,2.8,0,5.5-0.2,8.3c-0.1,1.1-0.2,2.2-0.3,3.3c0.3-2.1-0.5,2.7-0.5,2.6c9.6,0,19.3,0,28.9,0
			c-5.5-22.4-11.1-44.9-16.6-67.3c-1.4-5.8-6.8-10-12.5-10.7c-5.3-0.7-12.6,1.8-14.9,7.2c-8,18.5-8,36.9-0.2,55.4
			c2.5,6,11.1,8.5,16.9,6.9c6.4-1.8,10.9-7.9,11-14.5c0.2-11.8,0.4-23.7,0.6-35.5c0.2-11.9,2-26.2-7.3-35.4
			c-9.4-9.4-22.5-8.1-34.7-8c-11.7,0.2-23.4,0.3-35.1,0.5c-11.8,0.2-23.6,0-35.4,0.6c-11.2,0.5-22.5,2.6-31.8,9.2
			c-16.5,11.6-23.8,30.5-26.1,49.9c-2.8,23.5,5.8,48.4,1.3,70.9c9.8,1.3,19.6,2.7,29.5,4c0.9-27.8,2.3-55.6,4.2-83.3
			c-8.5,3.5-17.1,7.1-25.6,10.6c13.5,13.6,25.5,27.9,36.3,43.4c8.8,12.7,26.5,7.4,28-7.6c2.1-21.1,4.2-42.2,6.2-63.3
			c-10,0-20,0-30,0c0.2,23.5,0.4,46.9,0.5,70.4c0.1,7.8,6.9,15.4,15,15c8.2-0.4,14.9-6.6,15-15c0.1-17,0.2-34.1,0.3-51.1
			c-9.8,1.3-19.6,2.7-29.5,4c5.2,26.6,10.4,53.2,15.6,79.8c2.9,14.7,25.5,13.9,28.9,0c5.3-21.9,10.7-43.7,16-65.6
			c-9.8-1.3-19.6-2.7-29.5-4c1.8,26.4,3.6,52.9,5.3,79.3c0.5,7.8,6.5,15.4,15,15c8-0.4,15.2-6.6,15-15c-0.7-27.1,0.1-54.1,2.1-81.1
			c-10,0-20,0-30,0c1.5,28.1,3,56.1,4.5,84.2c0.4,7.8,6.6,15.4,15,15c8.5-0.4,14.5-6.6,15-15c1-17.2,1.9-34.3,2.9-51.5
			c-10,0-20,0-30,0c2.1,20.7,4.2,41.3,6.3,62c0.8,7.8,6.3,15.4,15,15c8.5-0.4,14.5-6.6,15-15c0.4-7.5,0.8-15.1,1.3-22.6
			c-10,0-20,0-30,0c-0.3,24.9-0.7,49.9-1,74.8c9.8-1.3,19.6-2.7,29.5-4c-5.7-26.7-6.9-56-2.9-82.8c-9.8-1.3-19.6-2.7-29.5-4
			c3.2,26.9,0.6,51.7-8.2,77.1c9.1-1.2,18.3-2.4,27.4-3.6c-7.6-15.9-13.9-32.1-19.2-49.1c-2.2-7.2-9-11.8-16.5-10.7
			c-7.9,1.1-12.1,7.2-13,14.7c-1.4,11.7-2.8,23.4-4.1,35c10,0,20,0,30,0c4-53-8.6-107.2-35.2-153.2c-6.6-11.4-14.9-23.9-28.7-26.8
			c-15.9-3.4-32.6,6.7-33.2,23.8c-0.5,13.2,9.4,28.6,19.3,36.7c12.3,10.1,30.2,12.7,43.1,2c4.6-3.8,8-9.2,10.8-14.5
			c0.2-0.4,0.5-0.7,0.7-1.1c-1.1,1.3-1.1,1.4,0,0.1c-0.6,0.6-1.4,1-2.2,1.1c-1.6,0-1.4-0.1,0.4-0.1c-0.8-0.2-2.3-0.6,0.6,0.3
			c1.7,0.6,2,0.7,0.8,0.2c0.9,0.5,1.8,0.9,2.7,1.4c0.9,0.5,1.7,1,2.6,1.6c0.8,0.5,1.7,1.1,2.5,1.7c-1-0.8-0.9-0.7,0.5,0.5
			c2.2,2.1,4.3,4.1,6.3,6.4c2.4,2.7,5.6,8.9,7,13c8.4-4.9,16.7-9.7,25.1-14.6c-4.1-3.6-4.7-4.4-7.4-9.1c-0.3-0.5-1-2.2-0.4-0.7
			c-0.4-1-0.7-2-1-3c-0.4-1.3-0.7-2.5-0.9-3.8c-0.5-2.7,0.2,3.4-0.1-1.5c-9.8,1.3-19.6,2.7-29.5,4c0.1,0.7,0.8,6,0.8,4.1
			c0,0.5,0,1.1,0.1,1.6c-0.1,1.9-0.1,2.1-0.1,0.8c0.5-0.5,2.7-2.6,0.4-1c2.6-1.9,4.7-2.6,8.1-0.8c-10.1-5.3-22.3,1.3-22.6,13
			c-0.7,31.1-0.8,62.2-0.5,93.3c0.1,7.8,6.8,15.4,15,15c8-0.4,15.1-6.6,15-15c-0.4-31.1-0.2-62.2,0.5-93.3c-7.5,4.3-15,8.6-22.6,13
			c10.3,5.4,22.4,3.1,30-5.8c8.1-9.4,7.2-21.4,4.8-32.8c-3.5-16.4-30.6-13-29.5,4c1,15,7.2,29.3,18.7,39.3
			c5.1,4.4,12.1,5.9,18.2,2.3c5.5-3.2,8.9-10.7,6.9-16.9c-3.6-11.1-9.5-21.3-17.7-29.6c-7.6-7.7-17.8-14.9-28.6-16.9
			c-7.3-1.3-14.8-0.4-21,3.9c-5,3.5-8.3,8.3-11.3,13.5c-0.4,0.7-0.9,1.5-1.3,2.3c-0.2,0.4-0.5,0.7-0.7,1.1c1.1-1.3,1.1-1.3,0,0
			c-1,0.5-1.5,0.5-0.2,0.2c2.8-0.7-0.4,0-0.4,0c0.4-0.1,0.8-0.1,1.1-0.2c-1.8-0.1-1.9,0-0.4,0.2c-0.9-0.1-2-0.4-2.9-0.7
			c2.1,0.7,0-0.1-0.4-0.3c-1.5-1-1.7-1.1-0.7-0.4c-0.6-0.5-1.2-1-1.7-1.6c-0.9-0.9-1.8-1.9-2.6-2.9c1.2,1.6-0.3-0.6-0.4-0.8
			c-1.3-2.3-2.9-4.5-4-6.9c0.5,1.2-0.5-1.4-0.5-1.3c-1.5-3.5,0.3-0.4-0.7,1.7c-0.5,1.1-1.3,1.8-2.3,2.5c-1.6,0.5-1.9,0.6-0.8,0.3
			c1.1-0.3,0.8-0.3-0.9-0.1c0.4,0,3.7,0.5,1.8-0.1c-2.6-0.8,2.8,1.4-0.6,0c0.3,0.1,2.2,1.6,0.6,0.3c1,0.8,1.8,1.8,2.7,2.7
			c1.8,2-1.6-2.7,0.9,1.3c0.6,0.9,1.1,1.7,1.7,2.6c1.7,2.6,3.2,5.4,4.8,8.1c11.2,19.8,18.8,39.4,24.1,61.9
			c5.8,24.3,7.6,48.1,5.7,73.9c-0.6,7.8,7.3,15.3,15,15c8.9-0.4,14-6.6,15-15c1.4-11.7,2.8-23.4,4.1-35c-9.8,1.3-19.6,2.7-29.5,4
			c6,19.3,13.5,38.1,22.2,56.3c2.6,5.3,9.5,7.9,14.9,7.2c6.1-0.8,10.5-5,12.5-10.7c9.3-27.2,12.6-56.6,9.2-85.1
			c-0.9-7.5-5-13.7-13-14.7c-6.6-0.9-15.4,3.4-16.5,10.7c-4.9,33-4.1,66.1,2.9,98.8c1.6,7.3,9.5,11.7,16.5,10.7
			c7.4-1,12.9-7.2,13-14.7c0.3-24.9,0.7-49.9,1-74.8c0.1-7.8-7-15.4-15-15c-8.5,0.4-14.5,6.6-15,15c-0.4,7.5-0.8,15.1-1.3,22.6
			c10,0,20,0,30,0c-2.1-20.7-4.2-41.3-6.3-62c-0.8-7.8-6.3-15.4-15-15c-8.5,0.4-14.5,6.6-15,15c-1,17.2-1.9,34.3-2.9,51.5
			c10,0,20,0,30,0c-1.5-28.1-3-56.1-4.5-84.2c-0.4-7.8-6.6-15.4-15-15c-8.6,0.4-14.4,6.6-15,15c-2.1,27-2.8,54.1-2.1,81.1
			c10,0,20,0,30,0c-1.8-26.4-3.6-52.9-5.3-79.3c-0.5-7.5-5.3-13.7-13-14.7c-7.1-1-14.7,3.5-16.5,10.7c-5.3,21.9-10.7,43.7-16,65.6
			c9.6,0,19.3,0,28.9,0c-5.2-26.6-10.4-53.2-15.6-79.8c-1.4-7.3-9.6-11.7-16.5-10.7c-7.3,1-13,7.2-13,14.7
			c-0.1,17-0.2,34.1-0.3,51.1c10,0,20,0,30,0c-0.2-23.5-0.4-46.9-0.5-70.4c-0.1-7.8-6.9-15.4-15-15c-8.8,0.4-14.2,6.6-15,15
			c-2.1,21.1-4.2,42.2-6.2,63.3c9.3-2.5,18.6-5,28-7.6c-12.2-17.6-25.8-34.2-40.9-49.4c-9.6-9.7-24.8-2-25.6,10.6
			c-1.9,27.7-3.3,55.5-4.2,83.3c-0.5,16.6,26.1,20.8,29.5,4c4.2-21.2,0.1-41.6-0.8-62.8c-0.2-4-0.2-8,0.1-12
			c0.1-0.8,0.6-4.9,0.3-3.5c-0.3,1.9,0.2-1,0.3-1.4c0.2-1.1,0.4-2.3,0.7-3.4c0.4-1.8,0.9-3.5,1.5-5.3c0.3-0.9,0.6-1.7,0.9-2.6
			c0.1-0.2,0.9-2.2,0.2-0.7c-0.7,1.7,0.4-0.9,0.6-1.3c0.4-0.8,0.8-1.6,1.2-2.3c1-1.7,2-3.4,3.2-4.9c-1.8,2.4,1.3-1.3,1.9-1.8
			c0.6-0.6,1.3-1.2,1.9-1.7c-0.2,0.2-1.9,1.3-0.5,0.4c1.4-1,2.9-1.9,4.5-2.6c2-0.9-1.9,0.6,0.7-0.2c1.4-0.4,2.8-0.8,4.3-1.2
			c2-0.5,2.1-0.4,4.9-0.6c2.1-0.1,4.2-0.2,6.3-0.2c5.4-0.1,10.9-0.2,16.3-0.2c20.6-0.3,41.3-1.1,61.9-0.9c0.8,0,1.6,0,2.3,0.1
			c1.1,0.1,1,0.1-0.2,0c0.5,0.1,1,0.3,1.4,0.4c1.9,0.9-3.3-2.4-3.5-2.4c-0.5-1.2-0.6-1.3-0.3-0.3c0.2,1.1,0.2,0.9,0-0.4
			c0.4,5,0,10.2-0.1,15.3c-0.2,12.2-0.4,24.3-0.6,36.5c9.3-2.5,18.6-5,28-7.6c0.7,1.6-0.8-2.8-0.7-2.7c-0.3-1.1-0.5-2.1-0.8-3.2
			c-1-4.3-0.1,1.9-0.4-2.6c-0.1-1.4-0.2-2.8-0.1-4.1c0-1.4,0.1-2.8,0.2-4.1c-0.2,1.9,0.2-1.2,0.3-1.8c0.3-1.4,0.6-2.7,1-4
			c0.1-0.4,1.5-4.3,0.8-2.6c-9.1-1.2-18.3-2.4-27.4-3.6c5.5,22.4,11.1,44.9,16.6,67.3c3.4,13.8,26.1,14.8,28.9,0
			c3-15.7,2.8-31.9-1.8-47.4c-4.2-14.2-11.8-31.4-25.9-38.2c-9.2-4.4-20-3.9-27.7,3.1c-6.4,5.8-8.5,14-9.4,22.3
			c-1.6,16.8-2.1,33.7-3,50.6c9.8-1.3,19.6-2.7,29.5-4c-2.2-12.6-2.4-28.5-0.5-41.1c-9.8-1.3-19.6-2.7-29.5-4
			c3.8,37.5,12.3,74.3,26,109.5c2.3,6,7.4,11.3,14.5,11c6.1-0.3,13.5-4.4,14.5-11c3.4-22.7,4.8-45.5,3.5-68.5
			c-0.4-7.8-6.6-15.4-15-15c-8.2,0.4-14.9,6.6-15,15c-0.5,39.8,0.9,79.7,4.4,119.4c0.6,7.5,5.2,13.7,13,14.7
			c7.5,1,14.2-3.6,16.5-10.7c6.6-20.6,8.9-42.7,6.5-64.2c-0.8-7.5-5.1-13.7-13-14.7c-6.8-0.9-15.2,3.4-16.5,10.7
			c-4.5,25.8-8.9,51.6-13.4,77.3c9.8,1.3,19.6,2.7,29.5,4c0.5-16.1-1.3-32.2-5-47.8c-1.4-5.8-6.8-10-12.5-10.7
			c-6.5-0.9-11.1,2.2-14.9,7.2c-14.1,18.3-26,38.1-35.4,59.1c9.3,2.5,18.6,5,28,7.6c0.6-22.3-0.6-44.6-3.4-66.8
			c-0.8-6.1-3.1-11.3-9.2-13.7c-5.5-2.2-12.1-1.3-16.4,3.1c-24.4,25.2-47.5,51.8-69.1,79.5c8.4,2.2,16.7,4.4,25.1,6.6
			c-4.6-21-7.9-41.4-9.8-62.5c-0.6-6.4-4.2-12.9-11-14.5c-6.3-1.4-13.8,0.8-16.9,6.9c-13,25.2-25.1,50.8-36.4,76.8
			c9.3,2.5,18.6,5,28,7.6c0.6-20.8,0.6-41.6,0-62.4c-0.3-9.5-0.3-19.2-1.3-28.6c-1.1-10.1-4.7-20.5-14.5-25.4
			c-10.4-5.1-21.9,1.2-22.6,13c-2.2,39.6,0.8,79.3,8.4,118.2c3.2,16.4,30.8,12.9,29.5-4c-1.8-23.5-1.2-47.1,1.7-70.5
			c-8.5,3.5-17.1,7.1-25.6,10.6c2.9,3.5,6.8,10.6,8.2,15c2.5,7.6,3,11.4,2.9,18.9c-0.1,7.8,7,15.4,15,15c8.6-0.4,14.4-6.6,15-15
			c1.6-22.9,2.1-45.8,1.6-68.7c-0.2-7.8-6.8-15.4-15-15c-8.1,0.4-15,6.6-15,15c0,17.5,0,35,0,52.5c10,0,20,0,30,0
			c-0.7-24.4-0.3-48.9,1.3-73.2c-10,0-20,0-30,0c1.7,23.2,3.4,46.4,5,69.6c0.6,7.8,6.5,15.4,15,15c8.5-0.4,14.5-6.6,15-15
			c1.9-31.2,1.8-62.5-0.2-93.8c-0.5-7.8-6.5-15.4-15-15c-8.1,0.4-15,6.6-15,15c0,23.3-0.1,46.5-0.1,69.8c0,7.8,6.9,15.4,15,15
			c8.5-0.4,14.5-6.6,15-15c2-36.9,4-73.7,6.1-110.6c-9.8,1.3-19.6,2.7-29.5,4c10.1,30.7,16.5,62.1,18.8,93.7
			c0.5,7.5,5.3,13.7,13,14.7c6.9,0.9,15.1-3.4,16.5-10.7c6.4-33.5,10.6-67.5,12.5-101.5c-10,0-20,0-30,0
			c2.3,36.5,4.5,72.9,6.8,109.4c0.4,6,3.4,11.4,9.2,13.7c5.3,2.1,12.3,1.4,16.4-3.1c23.7-26.6,34.8-60.5,44.8-94
			c-9.1,1.2-18.3,2.4-27.4,3.6c16.3,29.7,32.6,59.3,48.9,89c4.5,8.2,17.2,10.1,23.6,3c27.3-30.1,29-71.8,28.4-110.4c-10,0-20,0-30,0
			c1.2,34.2,0.7,68.4-1.5,102.6c10,0,20,0,30,0c-0.5-44.2-1-88.4-1.6-132.6c-0.1-9.6,0.2-19.5-3.6-28.6
			c-4.4-10.5-13.4-16.1-24.2-18.5c-21-4.7-42.1-9.1-63.4-12.2c-25.1-3.6-50.4-5.4-75.7-2.6c-7.8,0.8-15.4,6.3-15,15
			C468.5,935,474.8,943.5,483.2,942.6L483.2,942.6z"/>
	</g>
</g>
<g>
	<g>
		<path class="st3" d="M499,1095.1c0.9,18.1,1.7,36.2,2.6,54.3c7.5-4.3,15-8.6,22.6-13c-5.4-3.2-10.9-6.3-16.3-9.5
			c-10.4-6-21.7,1.9-22.6,13c-0.2,1.8-0.1,1.8,0,0.1c-0.2,0.9-0.4,1.8-0.6,2.7c-0.1,0.4-1.8,4.1-0.5,1.5c-0.7,1.4-1.5,2.8-2.4,4.2
			c-0.6,0.9-0.5,0.8,0.3-0.3c-0.6,0.7-1.2,1.4-1.8,2.1c-1,1-2,2-3.1,2.8c2.3-1.8-2.2,1.2-2.7,1.4c-2.5,1.5,1.6-0.1-1.5,0.6
			c-0.7,0.2-6.1,1.2-2.7,0.8c-6.1,0.6-11.3,3.2-13.7,9.2c-2.1,5.2-1.5,12.4,3.1,16.4c13.2,11.4,28.7,18.2,46,20.2
			c15.8,1.8,37.6,0,45.9-15.8c6.3-12,7.7-26.6,12.1-39.4c0.5-1.3,1-2.6,1.4-3.9c0.7-1.6,0.7-1.7,0-0.2c0.4-0.8,0.7-1.6,1.1-2.4
			c1.3-2.8,3-5.3,4.6-8c2-3.3-1.8,1.8,0.8-1.1c1.2-1.3,2.3-2.5,3.5-3.7c0.6-0.5,3.6-2.6,1-0.9c1.5-1,3-1.9,4.5-2.7
			c-7.3-5.6-14.7-11.3-22-16.9c-0.8,4.6-1.9,9.2-3.3,13.6c-1.3,4.4-3.1,9.1-4.4,11.8c-2,4.2-4.2,8.4-6.7,12.3
			c-2.6,4.2-5,7.3-7.4,10.3c6.1-0.8,12.1-1.6,18.2-2.3c-5.9-3-11.9-5.9-17.8-8.9c-6.7-3.3-17-2.4-20.5,5.4
			c-3.4,7.5-6.8,15-10.2,22.5c9.1,1.2,18.3,2.4,27.4,3.6c-2.7-9.7-5.4-19.5-8.1-29.2c-9.1,3.9-18.3,7.7-27.4,11.6c2,2.7,4,5.4,6,8
			c7.1,9.6,18.8,9.6,25.9,0c20.8-27.8,41.7-55.8,57.4-86.9c8-15.8,14.7-32.6,15.4-50.5c0.4-9.4-1.4-18.6-5.1-27.2
			c-1.7-3.9-3.6-7.8-5.3-11.7c-0.7-1.6-0.3-0.6-0.1-0.2c-0.3-0.8-0.6-1.6-0.8-2.3c-0.3-1.1-0.6-2.1-0.9-3.2
			c-0.7-2.6,0.1,1.8-0.2-0.6c-0.9-9.9,1.2-15,2.3-25.1c1.1-10-0.2-19.8-5.1-28.7c-7.3-13.1-27.9-7.1-28,7.6
			c-0.1,45.7,1.1,91.4,3.5,137c1.2,22.8,2.8,45.6,4.7,68.4c0.5,5.6,1,11.2,1.5,16.8c0.2,2.4,0.5,4.8,0.5,7.2c0,1.1,0.1,2.4-0.1,3.4
			c0.4-2-1.8,2.9-0.1-0.1c-0.5,0.8-0.9,1.6-1.5,2.3c0.5-0.6,1.6-1.7-0.3,0.2c-1.3,1.3-2.6,2.7-3.9,4.1c-4.1,4.4-7.4,8.9-9.6,14.5
			c-0.4,1-0.7,1.9-1.1,2.9c0,0-1.4,4.5-0.6,2.2c0.2-0.7,2.1-1.2-0.1,0.1c0.5-0.3,3.5-1.7,2-1.4c-2.2,0.5,2.7-0.1,0.4,0
			c-0.6,0-1.3,0-1.9,0c1.6,0.3,1.9,0.3,0.8,0.1c-0.9-0.3-5.9-2.1-3.3-0.8c-9.9-5.1-17.5-13.4-28.9-15.5c-7.3-1.4-14.8,1.4-17.7,8.7
			c-2.7,6.7-0.5,15.1,6.1,18.7c11.8,6.5,25.9,5.6,37.4-1.2c10.5-6.3,17.5-16.6,24.2-26.5c13.8-20.5,27.6-41,41.4-61.5
			c-9.1-1.2-18.3-2.4-27.4-3.6c0.5,1.9,0.9,3.8,1.3,5.8c0.2,1,0.3,1.9,0.5,2.9c-0.3-1.6-0.1-0.7,0,0.4c0.4,3.9,0.5,7.8,0.4,11.8
			c-0.1,2-0.2,3.9-0.4,5.9c-0.1,1.1-0.2,2,0,0.4c-0.1,1-0.3,1.9-0.5,2.9c-0.7,4.1-1.7,8.2-3,12.2c-1.5,4.8-1.7,5.3-3.4,8.8
			c-1.7,3.5-3.6,7-5.8,10.3c-2.7,4.2-3.1,4.7-5.6,7.5c-2.8,3.1-5.8,6-8.9,8.8c-8.6,7.4-3.8,22.4,6.6,25.1
			c23.8,6.1,43.3-13.7,48.4-35.4c2.4-10.4,2.3-19.8,4.5-29c0.5-2.1,1.2-4.2,1.9-6.3c0.8-2.3-0.9,1.7,0.2-0.4
			c0.4-0.9,0.9-1.7,1.3-2.5c0.6-1,1.2-2.1,1.9-3c-1,1.3-0.4,0.4,0.4-0.2c0.3-0.2,3-2.5,1.7-1.5c-1.3,0.9,2.2-1.1,2.1-1
			c-7.5-4.3-15-8.6-22.6-13c1.5,12.3,0.1,23.5-4.8,33.8c-3.5,7.3-2,16.2,5.4,20.5c6.6,3.8,17,2,20.5-5.4c7.3-15.3,10.9-32,8.9-48.9
			c-1.4-11.4-11.6-18.6-22.6-13c-18.4,9.4-23.4,30.1-25.7,48.9c-0.6,5-0.6,6.5-1.7,11.4c-0.5,2.2-1,4.4-1.7,6.6
			c-0.1,0.3-1.1,2.9-0.7,2.1c0.4-0.9-0.8,1.3-0.9,1.6c-0.1,0.2-1.6,2.5-0.9,1.5c0.7-1-1,1.1-1.2,1.3c-0.2,0.2-2.2,2.1-1.2,1.3
			c1-0.8-1.2,0.8-1.4,0.9c-0.3,0.2-2.7,1.4-1.4,0.8c1.4-0.6-1.2,0.3-1.5,0.4c-1.8,0.5,1.8,0.3-0.1-0.1c-2.5-0.5,3.6,1-0.8-0.2
			c2.2,8.4,4.4,16.7,6.6,25.1c30-25.8,42.7-68.6,33-106.8c-3.3-13.2-20.5-13.9-27.4-3.6c-11.6,17.3-23.2,34.5-34.9,51.8
			c-5.1,7.6-9.9,15.9-15.4,21.6c-0.8,0.8-1.6,1.6-2.4,2.3c-1.4,1.2-1.7,1.5-0.9,0.7c-0.9,0.6-1.8,1.1-2.7,1.6
			c1.2-0.4,0.9-0.3-0.8,0.3c-1,0.3-2,0.6-3.1,0.8c1.4-0.2,1.2-0.3-0.7-0.2c1.4,0.3,1.3,0.3-0.5-0.1c1.2,0.7,1,0.6-0.6-0.3
			c-3.9,9.1-7.7,18.3-11.6,27.4c1.3,0.2,2.5,0.5,3.7,0.9c2.3,0.8-2.3-1.7,1.3,0.7c1.8,1.1,3.6,2.2,5.3,3.4c4.1,2.8,8,6,12.6,8.1
			c10.2,4.7,22.7,6.3,32.7,0.1c5.6-3.4,9.1-8.5,11.4-14.5c0.5-1.2,0.9-2.4,1.3-3.6c0.2-0.7,1.7-3.4,0.4-1.3c0.5-0.8,0.9-1.6,1.5-2.3
			c-1.7,2.3,1.1-1.1,1.3-1.2c8.4-9,14.7-17.4,14.7-30.3c0-11.9-2-23.9-2.9-35.7c-1-12.5-1.9-25.1-2.7-37.7
			c-1.5-24.5-2.7-48.9-3.5-73.4c-0.9-27.8-1.3-55.6-1.2-83.4c-9.3,2.5-18.6,5-28,7.6c1.2,2.2,0.3-0.5,0.9,1.9c0.2,1,0.5,1.9,0.7,2.9
			c-0.1-0.3-0.2-2.1-0.1-0.3c0.1,2.9-0.2,8.1-0.4,9.5c-0.2,2-1.2,8.1-1.6,11.5c-0.5,3.6-0.9,7.3-0.8,11c0.2,9.2,3.1,17.2,7,25.4
			c0.7,1.5,1.5,3,2.2,4.5c1,2.2,0.8,1.6,1.4,3.4c0.5,1.6,1,3.3,1.4,4.9c0.6,2.6,0.5,2.7,0.6,4.4c0.4,13.9-4.6,27-10.9,39.6
			c-7.3,14.7-15.9,28.8-25.1,42.4c-10.4,15.5-21.5,30.4-32.7,45.3c8.6,0,17.3,0,25.9,0c-2-2.7-4-5.4-6-8c-4.5-6-11.4-9.4-18.7-6.1
			c-6.7,3-10.7,10.3-8.7,17.7c2.7,9.7,5.4,19.5,8.1,29.2c1.6,5.8,6.6,10,12.5,10.7c5.4,0.7,12.5-1.8,14.9-7.2
			c3.4-7.5,6.8-15,10.2-22.5c-6.8,1.8-13.7,3.6-20.5,5.4c5.9,3,11.9,5.9,17.8,8.9c5.6,2.8,13.8,2.9,18.2-2.3
			c14.9-17.7,25.4-38.5,29.5-61.3c2.3-12.9-9.9-23.3-22-16.9c-23.6,12.3-30.9,39.1-37.1,62.9c-0.8,2.9-1.7,5.8-2.4,8.7
			c-0.2,0.5-0.3,1-0.5,1.4c0.6-1.2,0.5-1.1-0.3,0.5c-0.3,0,4.1-1.2,0.2-0.4c2.6-0.5-1.8,0.3-2,0.3c-0.3,0.1-4.7,0.9-2.2,0.5
			c-3.4,0.5-6.8,0.5-10.2,0.4c-10.1-0.4-22.6-5.2-30.3-11.8c-3.5,8.5-7.1,17.1-10.6,25.6c24.5-2.6,43.2-21.2,45.1-46
			c-7.5,4.3-15,8.6-22.6,13c5.4,3.2,10.9,6.3,16.3,9.5c9.5,5.5,23.1-1.4,22.6-13c-0.9-18.1-1.7-36.2-2.6-54.3
			c-0.4-7.8-6.6-15.4-15-15C506.2,1080.5,498.6,1086.7,499,1095.1L499,1095.1z"/>
	</g>
</g>
<g>
	<g>
		<path d="M440,931.6c0.2,19-3.5,37.6-7.8,56c-4.3,18.7-8.6,37.3-11.8,56.2c-3.1,18.9-5.4,38-6.8,57.2c-1.4,18.7-3,38.3-1,57.1
			c3.5,32.8,27.9,54.7,56.2,68.3c32.3,15.5,68.6,23.5,104.4,22.9c16.6-0.3,33.3-3.5,45.7-15.3c11.8-11.3,18.5-27.3,24.5-42.2
			c13.3-32.8,20.2-67.9,23.8-103c3.7-36,3.8-72.2,3.4-108.3c-0.3-28.8-1.6-63.5-29.9-79.4c-14.8-8.3-32.6-10.7-49-14.1
			c-18.8-3.8-37.9-7.1-57.1-7.7c-31.8-1-64.7,6.3-89.6,26.9c-5.9,4.8-10.9,10.4-15.4,16.5c-4.6,6.2,5.8,12.2,10.4,6.1
			c17-23,46-34.6,73.8-37c17.9-1.6,36-0.1,53.7,2.8c16.7,2.7,33.5,5.9,49.9,10.2c14.2,3.7,26.7,10.2,33.5,23.8
			c6.1,12.1,7.1,26.5,7.5,39.8c1,32.6,0.8,65.4-1.3,98c-2.1,33.1-6.9,66.2-16.6,97.9c-4.8,15.4-10.5,30.9-18.3,45.1
			c-7.7,14.1-18.2,23.8-34.5,26.6c-16.1,2.8-33.8,1.2-49.9-1.2c-16.5-2.5-32.8-6.8-48.4-12.7c-25.4-9.8-54.9-25.8-62.8-54
			c-4.7-16.7-2.7-35.7-1.9-52.8c0.9-18.1,2.6-36.2,5.1-54.1c2.5-17.5,5.7-34.9,9.7-52.1c3.9-17.2,8.3-34.2,10.7-51.7
			c1.2-8.6,1.8-17.2,1.8-25.9C451.9,923.9,439.9,923.8,440,931.6L440,931.6z"/>
	</g>
</g>
<g>
	<g>
		<path d="M435.1,919.8c-29.6-3.3-60.5-1.4-89-11.4c-11.4-4-22.3-10-31-18.4c-4.2-4.1-7.8-8.7-10.6-13.8c-1.5-2.8-3.1-6-3.4-9.2
			c-0.4-4.2,1.6-7.2,4.1-10.4c19.4-25.1,39.3-50,59.6-74.4c8.1-9.8,17.3-19.4,29.8-23.2c14.6-4.4,31.1-2.7,46.2-2.7
			c64.9-0.1,129.9-0.2,194.8-0.2c15.9,0,31.8,0,47.7-0.1c8,0,15.9,0,23.9,0c7.9,0,16.3-0.8,24.1,0.6c13.7,2.5,20.3,17.1,27.3,27.6
			c8.6,13,17.8,25.8,25.8,39.2c3.7,6.1,6.8,12.7,6.8,20c0,7.4-2.8,14.5-6.8,20.6c-8.7,13.3-23.5,21-37.4,27.6
			c-28.6,13.6-61.8,29.8-94.1,20c-7.4-2.2-10.6,9.3-3.2,11.6c31.6,9.6,63.7-3,92.3-16.1c26-11.9,57.2-27.1,60.9-59.1
			c1.8-15.6-6.6-28.5-14.8-40.9c-9.4-14.2-18.7-28.6-28.3-42.7c-3.9-5.7-8.1-11.1-13.9-14.9c-6.4-4.2-14.1-5.2-21.6-5.5
			c-17.6-0.5-35.3,0-52.9,0c-71.6,0.1-143.1,0.2-214.7,0.3c-16.8,0-34-1-50.7,0.6c-15.4,1.4-28.3,7.1-39.5,17.8
			c-11.5,10.9-20.8,24.3-30.7,36.6c-11.2,14-22.4,27.9-33.5,41.9c-4.7,5.9-10.9,11.9-12.7,19.5c-1.7,7.2,0.8,14.7,4.2,21
			c6.3,11.8,16.2,21.2,27.5,28.2c26.5,16.5,58.1,18.2,88.4,20c8.5,0.5,17,1.1,25.5,2C442.8,932.7,442.7,920.7,435.1,919.8
			L435.1,919.8z"/>
	</g>
</g>
<g>
	<g>
		<path d="M327,862.2c12,1.7,23.6,0,35.6-0.2c10.6-0.2,21.2,1.3,29,9.1c7.6,7.6,14.3,15.9,22.2,23.1c8.3,7.5,17.2,14.3,26.5,20.4
			c6.5,4.3,12.5-6.1,6.1-10.4c-9.4-6.2-18.3-13.1-26.6-20.8c-8.2-7.7-14.9-17.3-23.7-24.2c-19.4-15.2-43.8-5.4-65.9-8.5
			c-3.2-0.5-6.4,0.8-7.4,4.2C322,857.7,323.8,861.8,327,862.2L327,862.2z"/>
	</g>
</g>
<g>
	<g>
		<path d="M395.8,791.1c8.4,10.8,17.5,21,27.3,30.6c9.3,9.1,19.3,17.1,29,25.7c9.1,8.1,17.2,17,20.7,29c1.9,6.4,3.7,12.3,7.1,18
			c4,6.6,8.3,13,12.5,19.5c4.2,6.5,14.6,0.5,10.4-6.1c-4.2-6.5-8.5-12.9-12.5-19.5c-3.7-6.1-4.8-12.6-7.3-19.2
			c-4.3-11.6-12.3-20.9-21.3-29.1c-9.5-8.7-19.7-16.6-28.9-25.6c-10.3-9.9-19.8-20.6-28.6-31.9C399.5,776.6,391.1,785.1,395.8,791.1
			L395.8,791.1z"/>
	</g>
</g>
<g>
	<g>
		<path d="M491.2,781.2c5.9,12.1,12,24.2,20.4,34.9c8.3,10.5,18.9,18.9,27,29.6c15,19.9,18.7,45.8,15.6,70c3.9-0.5,7.9-1.1,11.8-1.6
			c-0.4-0.7-0.3-1.4,0.1-2c3.6-6.8-6.7-12.9-10.4-6.1c-2,3.6-2.4,7.2-1.3,11.2c1.9,7,11,4.7,11.8-1.6c3.2-25.1-0.9-52.1-15.3-73.3
			c-7.8-11.4-18.4-20.2-27.4-30.6c-9.4-10.8-15.7-23.8-21.9-36.6C498.2,768.2,487.9,774.3,491.2,781.2L491.2,781.2z"/>
	</g>
</g>
<g>
	<g>
		<path d="M665.6,773.7c-26.7,31.4-41.7,71.6-41.4,112.9c0,7.7,12,7.7,12,0c-0.2-38,13.2-75.5,37.9-104.4
			C679,776.3,670.6,767.8,665.6,773.7L665.6,773.7z"/>
	</g>
</g>
<g>
	<g>
		<path d="M750.1,838.5c-10.7-0.6-20,4.6-28.3,10.8c-8.8,6.7-17.3,14-25.4,21.6c-16.1,15.1-30.6,31.8-43.6,49.7
			c-4.6,6.2,5.8,12.2,10.4,6.1c11.7-16.1,24.9-31,39.2-44.8c7-6.8,14.3-13.2,21.9-19.3c7.4-6,15.7-12.6,25.8-12
			C757.8,851,757.8,839,750.1,838.5L750.1,838.5z"/>
	</g>
</g>
<g>
	<g>
		<path d="M313.7,894.7c-24.5-2.9-48.5-10.8-69.9-23c-11.1-6.3-21.5-13.8-31.5-21.9c-9.7-7.8-19.7-15.7-28.6-24.5
			c-17.8-17.9-17.1-43.3-13.9-66.7c3.5-25.5,10.9-50.4,18.6-74.9c4.1-12.9,8.2-25.8,12.3-38.7c4-12.5,7-26,13.6-37.5
			c11.3-19.6,33.9-32.1,54.1-40.6c43.1-18.3,91.1-20.7,137.3-21.2c109.8-1.3,219.7-0.7,329.5-1c13.1,0,26.6-1.1,39.6,0.8
			c12.3,1.7,21.6,7.8,29.8,16.9c8.3,9.3,15.6,19.6,23.2,29.5c8,10.4,16.1,20.9,24,31.4c31.6,41.7,62.2,84.3,89.1,129.3
			c11,18.5,24.6,40.8,13.4,62.4c-8.8,16.9-27,27.3-43.6,35.3c-22.3,10.8-45.6,20.3-69,28.5c-24.2,8.5-49.2,15.3-74.9,17
			c-12.6,0.8-25.3,0.5-37.7-1.4c-7.6-1.1-10.8,10.4-3.2,11.6c55.2,8.3,108.7-10.1,158.9-31.3c34.7-14.7,90.5-35.4,85.5-82.7
			c-1.3-12.7-6.9-24.3-13.1-35.3c-6.7-11.9-13.9-23.5-21.3-35c-15-23.5-30.9-46.4-47.3-69c-16.4-22.6-33.4-44.8-50.4-66.9
			c-14.5-18.9-28.8-43.8-53.4-50.5c-12.8-3.5-26.5-2.7-39.7-2.6c-14.6,0-29.3,0.1-43.9,0.1c-29.3,0.1-58.5,0.2-87.8,0.3
			c-59.2,0.2-118.4,0.3-177.6,0.5c-49.7,0.1-100.8-0.3-148.8,14c-23,6.8-45.6,17.1-64.3,32.3c-9.3,7.6-17.2,17-22.1,28
			c-5.8,12.9-9.3,27-13.6,40.4c-8.5,26.9-17.8,53.7-24.1,81.2c-5.5,24.2-10.8,51.8-4.2,76.3c3.2,12,9.9,21.9,18.9,30.3
			c9.6,9,20,17.4,30.4,25.6c20.6,16.2,43,29.1,68,37c12.3,3.9,24.8,6.4,37.6,7.9C321.4,907.6,321.3,895.6,313.7,894.7L313.7,894.7z"
			/>
	</g>
</g>
</svg>
